M48
; DRILL file {KiCad 7.0.11-7.0.11~ubuntu22.04.1} date Tue 11 Feb 2025 10:24:22 PM
; FORMAT={-:-/ absolute / inch / decimal}
; #@! TF.CreationDate,2025-02-11T22:24:22-05:00
; #@! TF.GenerationSoftware,Kicad,Pcbnew,7.0.11-7.0.11~ubuntu22.04.1
; #@! TF.FileFunction,Plated,1,2,PTH
FMAT,2
INCH
; #@! TA.AperFunction,Plated,PTH,ViaDrill
T1C0.0157
; #@! TA.AperFunction,Plated,PTH,ComponentDrill
T2C0.0236
; #@! TA.AperFunction,Plated,PTH,ComponentDrill
T3C0.0295
; #@! TA.AperFunction,Plated,PTH,ComponentDrill
T4C0.0315
; #@! TA.AperFunction,Plated,PTH,ComponentDrill
T5C0.0394
; #@! TA.AperFunction,Plated,PTH,ComponentDrill
T6C0.0591
; #@! TA.AperFunction,Plated,PTH,ComponentDrill
T7C0.0630
; #@! TA.AperFunction,Plated,PTH,ComponentDrill
T8C0.0984
%
G90
G05
T1
X5.619Y-2.542
X5.624Y-3.12
X5.624Y-3.569
X5.757Y-2.9715
X5.758Y-2.7095
X5.836Y-1.895
X5.851Y-1.409
X5.929Y-3.019
X6.017Y-2.81
X6.043Y-2.54
X6.047Y-3.24
X6.097Y-2.982
X6.204Y-2.068
X6.231Y-3.047
X6.251Y-1.41
X6.255Y-2.136
X6.274Y-2.329
X6.29Y-3.56
X6.321Y-2.956
X6.339Y-2.287
X6.356Y-3.362
X6.394Y-3.073
X6.414Y-3.017
X6.424Y-2.54
X6.425Y-2.436
X6.449Y-2.085
X6.46Y-3.248
X6.474Y-2.329
X6.487Y-1.833
X6.487Y-1.865
X6.487Y-1.897
X6.509Y-2.043
X6.518Y-3.017
X6.535Y-2.962
X6.599Y-2.271
X6.624Y-2.556
X6.627Y-1.409
X6.629Y-1.509
X6.629Y-2.746
X6.63Y-2.803
X6.6395Y-2.0564
X6.695Y-1.83
X6.696Y-1.864
X6.696Y-1.896
X6.721Y-1.975
X6.727Y-2.129
X6.74Y-3.37
X6.753Y-1.812
X6.759Y-3.253
X6.76Y-1.75
X6.76Y-2.356
X6.761Y-2.838
X6.768Y-3.0
X6.768Y-3.042
X6.79Y-3.521
X6.792Y-2.565
X6.795Y-2.428
X6.796Y-3.098
X6.799Y-1.712
X6.8074Y-3.252
X6.874Y-2.17
X6.892Y-3.521
X6.92Y-3.042
X6.923Y-2.838
X6.981Y-3.485
X6.982Y-2.565
X7.039Y-2.613
X7.039Y-2.763
X7.063Y-3.078
X7.219Y-2.17
T2
X3.7598Y-3.1339
X3.9567Y-3.2047
T3
X6.276Y-1.665
X6.326Y-1.665
X6.376Y-1.665
T4
X6.327Y-1.8846
X6.327Y-1.983
X7.1384Y-2.691
X7.2369Y-2.691
T5
X6.3704Y-3.485
X6.4704Y-3.485
X6.5704Y-3.485
X6.6704Y-3.485
X6.957Y-3.123
X6.957Y-3.223
X7.1346Y-3.49
X7.2346Y-3.49
X7.3346Y-3.49
X7.4346Y-3.49
X7.533Y-2.7098
X7.533Y-2.8098
X7.538Y-3.076
X7.538Y-3.176
T6
X4.2054Y-1.5152
X4.2054Y-2.3341
X4.2084Y-2.6322
X4.2084Y-3.4511
X5.977Y-2.0191
X5.977Y-2.3341
X5.98Y-3.1361
X5.98Y-3.4511
T7
X6.9252Y-1.8535
X6.9252Y-2.0503
X7.0236Y-1.4598
X7.0236Y-1.9519
X7.2205Y-1.8535
X7.4174Y-1.4598
X7.4174Y-1.9519
X7.5158Y-1.8535
X7.5158Y-2.0503
T8
X3.8189Y-2.025
X3.8189Y-2.3819
X3.8189Y-2.6575
X3.8189Y-2.9331
M30
