%TF.GenerationSoftware,KiCad,Pcbnew,7.0.11-7.0.11~ubuntu22.04.1*%
%TF.CreationDate,2025-01-31T21:43:45-05:00*%
%TF.ProjectId,C64UltimatePSU,43363455-6c74-4696-9d61-74655053552e,rev?*%
%TF.SameCoordinates,Original*%
%TF.FileFunction,Copper,L1,Top*%
%TF.FilePolarity,Positive*%
%FSLAX46Y46*%
G04 Gerber Fmt 4.6, Leading zero omitted, Abs format (unit mm)*
G04 Created by KiCad (PCBNEW 7.0.11-7.0.11~ubuntu22.04.1) date 2025-01-31 21:43:45*
%MOMM*%
%LPD*%
G01*
G04 APERTURE LIST*
G04 Aperture macros list*
%AMRoundRect*
0 Rectangle with rounded corners*
0 $1 Rounding radius*
0 $2 $3 $4 $5 $6 $7 $8 $9 X,Y pos of 4 corners*
0 Add a 4 corners polygon primitive as box body*
4,1,4,$2,$3,$4,$5,$6,$7,$8,$9,$2,$3,0*
0 Add four circle primitives for the rounded corners*
1,1,$1+$1,$2,$3*
1,1,$1+$1,$4,$5*
1,1,$1+$1,$6,$7*
1,1,$1+$1,$8,$9*
0 Add four rect primitives between the rounded corners*
20,1,$1+$1,$2,$3,$4,$5,0*
20,1,$1+$1,$4,$5,$6,$7,0*
20,1,$1+$1,$6,$7,$8,$9,0*
20,1,$1+$1,$8,$9,$2,$3,0*%
G04 Aperture macros list end*
%TA.AperFunction,SMDPad,CuDef*%
%ADD10RoundRect,0.250000X0.337500X0.475000X-0.337500X0.475000X-0.337500X-0.475000X0.337500X-0.475000X0*%
%TD*%
%TA.AperFunction,ComponentPad*%
%ADD11R,1.600000X1.600000*%
%TD*%
%TA.AperFunction,ComponentPad*%
%ADD12C,1.600000*%
%TD*%
%TA.AperFunction,ComponentPad*%
%ADD13R,1.700000X1.700000*%
%TD*%
%TA.AperFunction,ComponentPad*%
%ADD14O,1.700000X1.700000*%
%TD*%
%TA.AperFunction,SMDPad,CuDef*%
%ADD15R,1.000000X0.400000*%
%TD*%
%TA.AperFunction,ComponentPad*%
%ADD16C,5.000000*%
%TD*%
%TA.AperFunction,ComponentPad*%
%ADD17R,3.000000X3.000000*%
%TD*%
%TA.AperFunction,ComponentPad*%
%ADD18C,3.000000*%
%TD*%
%TA.AperFunction,SMDPad,CuDef*%
%ADD19RoundRect,0.250000X-0.450000X0.350000X-0.450000X-0.350000X0.450000X-0.350000X0.450000X0.350000X0*%
%TD*%
%TA.AperFunction,SMDPad,CuDef*%
%ADD20RoundRect,0.250000X-0.475000X0.337500X-0.475000X-0.337500X0.475000X-0.337500X0.475000X0.337500X0*%
%TD*%
%TA.AperFunction,ComponentPad*%
%ADD21R,1.500000X1.050000*%
%TD*%
%TA.AperFunction,ComponentPad*%
%ADD22O,1.500000X1.050000*%
%TD*%
%TA.AperFunction,SMDPad,CuDef*%
%ADD23RoundRect,0.250000X-0.350000X-0.450000X0.350000X-0.450000X0.350000X0.450000X-0.350000X0.450000X0*%
%TD*%
%TA.AperFunction,SMDPad,CuDef*%
%ADD24RoundRect,0.250000X0.450000X-0.350000X0.450000X0.350000X-0.450000X0.350000X-0.450000X-0.350000X0*%
%TD*%
%TA.AperFunction,ViaPad*%
%ADD25C,0.800000*%
%TD*%
%TA.AperFunction,Conductor*%
%ADD26C,0.254000*%
%TD*%
%TA.AperFunction,Conductor*%
%ADD27C,0.250000*%
%TD*%
%TA.AperFunction,Conductor*%
%ADD28C,0.400000*%
%TD*%
%TA.AperFunction,Conductor*%
%ADD29C,1.270000*%
%TD*%
G04 APERTURE END LIST*
D10*
%TO.P,C9,1*%
%TO.N,GND*%
X148429800Y-59893200D03*
%TO.P,C9,2*%
%TO.N,Net-(IC1-VCL)*%
X146354800Y-59893200D03*
%TD*%
D11*
%TO.P,C4,1*%
%TO.N,+12V*%
X169545000Y-125185800D03*
D12*
%TO.P,C4,2*%
%TO.N,GND2*%
X169545000Y-127685800D03*
%TD*%
D13*
%TO.P,J4,1,Pin_1*%
%TO.N,GND*%
X170307000Y-76022200D03*
D14*
%TO.P,J4,2,Pin_2*%
%TO.N,+5V*%
X170307000Y-73482200D03*
%TO.P,J4,3,Pin_3*%
%TO.N,/5V/DISP_SCL*%
X170307000Y-70942200D03*
%TO.P,J4,4,Pin_4*%
%TO.N,/5V/DISP_SDA*%
X170307000Y-68402200D03*
%TD*%
D13*
%TO.P,J3,1,Pin_1*%
%TO.N,/5V/ON_OFF*%
X170434000Y-85547200D03*
D14*
%TO.P,J3,2,Pin_2*%
%TO.N,GND*%
X170434000Y-88087200D03*
%TD*%
D15*
%TO.P,IC1,1,P010/VREFH0*%
%TO.N,/5V/V5ADC*%
X144466400Y-62298200D03*
%TO.P,IC1,2,VCL*%
%TO.N,Net-(IC1-VCL)*%
X144466400Y-62948200D03*
%TO.P,IC1,3,VSS*%
%TO.N,GND*%
X144466400Y-63598200D03*
%TO.P,IC1,4,P213/X2/EXCLK/XCOUT*%
%TO.N,/5V/AUX2*%
X144466400Y-64248200D03*
%TO.P,IC1,5,P212/X1/XCIN*%
%TO.N,/5V/DISP_SDA*%
X144466400Y-64898200D03*
%TO.P,IC1,6,VCC*%
%TO.N,+5V*%
X144466400Y-65548200D03*
%TO.P,IC1,7,RES/P206*%
%TO.N,/5V/RESET*%
X144466400Y-66198200D03*
%TO.P,IC1,8,P201*%
%TO.N,/5V/DISP_SCL*%
X144466400Y-66848200D03*
%TO.P,IC1,9,P200*%
%TO.N,/5V/AUX1*%
X144466400Y-67498200D03*
%TO.P,IC1,10,P300/SWCLK*%
%TO.N,/5V/SWCLK*%
X144466400Y-68148200D03*
%TO.P,IC1,11,P108/SWDIO*%
%TO.N,/5V/SWDIO*%
X150266400Y-68148200D03*
%TO.P,IC1,12,P109*%
%TO.N,/5V/5V_EN*%
X150266400Y-67498200D03*
%TO.P,IC1,13,P110*%
%TO.N,Net-(IC1-P110)*%
X150266400Y-66848200D03*
%TO.P,IC1,14,P112*%
%TO.N,Net-(IC1-P112)*%
X150266400Y-66198200D03*
%TO.P,IC1,15,P102*%
%TO.N,Net-(IC1-P102)*%
X150266400Y-65548200D03*
%TO.P,IC1,16,P101*%
%TO.N,NFAULT*%
X150266400Y-64898200D03*
%TO.P,IC1,17,P100*%
%TO.N,/5V/SEL*%
X150266400Y-64248200D03*
%TO.P,IC1,18,P013*%
%TO.N,/5V/ON_OFF*%
X150266400Y-63598200D03*
%TO.P,IC1,19,P012*%
%TO.N,/5V/5VOADC*%
X150266400Y-62948200D03*
%TO.P,IC1,20,P011/VREFL0*%
%TO.N,/5V/5VIADC*%
X150266400Y-62298200D03*
%TD*%
D16*
%TO.P,H6,1,1*%
%TO.N,Net-(H3-Pad1)*%
X106880600Y-107479600D03*
%TD*%
D13*
%TO.P,J1,1,Pin_1*%
%TO.N,+5V*%
X160756600Y-54229000D03*
D14*
%TO.P,J1,2,Pin_2*%
%TO.N,GND*%
X158216600Y-54229000D03*
%TO.P,J1,3,Pin_3*%
%TO.N,/5V/SWDIO*%
X155676600Y-54229000D03*
%TO.P,J1,4,Pin_4*%
%TO.N,/5V/SWCLK*%
X153136600Y-54229000D03*
%TD*%
D17*
%TO.P,PS2,1,AC/L*%
%TO.N,AC_LINE*%
X116687600Y-79047400D03*
D18*
%TO.P,PS2,2,AC/N*%
%TO.N,AC_NEUTRAL*%
X116687600Y-99847400D03*
%TO.P,PS2,3,-Vo*%
%TO.N,GND*%
X161687600Y-99847400D03*
%TO.P,PS2,4,+Vo*%
%TO.N,+5V*%
X161687600Y-91847400D03*
%TD*%
%TO.P,J2,1*%
%TO.N,GND*%
X114960400Y-69933200D03*
X104960400Y-67433200D03*
X104960400Y-57433200D03*
%TO.P,J2,2*%
X114960400Y-62433200D03*
%TO.P,J2,3*%
X114960400Y-54933200D03*
%TO.P,J2,4*%
%TO.N,5V_OUT*%
X117460400Y-67433200D03*
%TO.P,J2,5*%
X117460400Y-57433200D03*
%TO.P,J2,6*%
%TO.N,AC_OUT2*%
X119960400Y-69933200D03*
%TO.P,J2,7*%
%TO.N,AC_OUT1*%
X119960400Y-54933200D03*
%TD*%
D16*
%TO.P,H4,1,1*%
%TO.N,AC_NEUTRAL*%
X106880600Y-100479600D03*
%TD*%
D13*
%TO.P,J5,1,Pin_1*%
%TO.N,/5V/AUX2*%
X140055600Y-54229000D03*
D14*
%TO.P,J5,2,Pin_2*%
%TO.N,/5V/AUX1*%
X137515600Y-54229000D03*
%TD*%
D19*
%TO.P,R20,1*%
%TO.N,+5V*%
X140944600Y-67519000D03*
%TO.P,R20,2*%
%TO.N,/5V/RESET*%
X140944600Y-69519000D03*
%TD*%
D16*
%TO.P,H3,1,1*%
%TO.N,Net-(H3-Pad1)*%
X106880600Y-86479600D03*
%TD*%
D19*
%TO.P,R19,1*%
%TO.N,Net-(IC1-P112)*%
X155702000Y-70948800D03*
%TO.P,R19,2*%
%TO.N,IN2*%
X155702000Y-72948800D03*
%TD*%
D20*
%TO.P,C12,1*%
%TO.N,GND*%
X140919200Y-63509700D03*
%TO.P,C12,2*%
%TO.N,+5V*%
X140919200Y-65584700D03*
%TD*%
D21*
%TO.P,IC6,1,VO*%
%TO.N,+5VA*%
X169875200Y-115062000D03*
D22*
%TO.P,IC6,2,GND*%
%TO.N,GND2*%
X169875200Y-116332000D03*
%TO.P,IC6,3,VI*%
%TO.N,+12V*%
X169875200Y-117602000D03*
%TD*%
D13*
%TO.P,JP2,1,A*%
%TO.N,/5V/SEL*%
X147142200Y-54203600D03*
D14*
%TO.P,JP2,2,B*%
%TO.N,GND*%
X144602200Y-54203600D03*
%TD*%
D11*
%TO.P,C16,1*%
%TO.N,5V_OUT*%
X127609600Y-63082800D03*
D12*
%TO.P,C16,2*%
%TO.N,GND*%
X127609600Y-65582800D03*
%TD*%
%TO.P,RV1,1*%
%TO.N,AC_NEUTRAL*%
X105380600Y-119579600D03*
%TO.P,RV1,2*%
%TO.N,AC_LINE*%
X110380600Y-121379600D03*
%TD*%
D23*
%TO.P,R22,1*%
%TO.N,5V_OUT*%
X132239000Y-63068200D03*
%TO.P,R22,2*%
%TO.N,/5V/5VOADC*%
X134239000Y-63068200D03*
%TD*%
D16*
%TO.P,H5,1,1*%
%TO.N,Earth*%
X106880600Y-93479600D03*
%TD*%
D23*
%TO.P,R23,1*%
%TO.N,/5V/5VOADC*%
X156419800Y-62941200D03*
%TO.P,R23,2*%
%TO.N,GND*%
X158419800Y-62941200D03*
%TD*%
D19*
%TO.P,R21,1*%
%TO.N,Net-(IC1-P102)*%
X157708600Y-70974200D03*
%TO.P,R21,2*%
%TO.N,NSLEEP*%
X157708600Y-72974200D03*
%TD*%
%TO.P,R18,1*%
%TO.N,Net-(IC1-P110)*%
X153746200Y-70974200D03*
%TO.P,R18,2*%
%TO.N,IN1*%
X153746200Y-72974200D03*
%TD*%
D16*
%TO.P,H7,1,1*%
%TO.N,AC_LINE*%
X106880600Y-114479600D03*
%TD*%
D17*
%TO.P,PS1,1,AC/L*%
%TO.N,AC_LINE*%
X116696400Y-106962000D03*
D18*
%TO.P,PS1,2,AC/N*%
%TO.N,AC_NEUTRAL*%
X116696400Y-127762000D03*
%TO.P,PS1,3,-Vo*%
%TO.N,GND2*%
X161696400Y-127762000D03*
%TO.P,PS1,4,+Vo*%
%TO.N,+12V*%
X161696400Y-119762000D03*
%TD*%
D24*
%TO.P,R16,1*%
%TO.N,+5V*%
X168630600Y-94954600D03*
%TO.P,R16,2*%
%TO.N,NFAULT*%
X168630600Y-92954600D03*
%TD*%
D25*
%TO.N,+5V*%
X167030400Y-93522800D03*
%TO.N,GND*%
X159359600Y-72847200D03*
X163703000Y-85090000D03*
X149834600Y-59867800D03*
%TO.N,/5V/SEL*%
X148018500Y-63309500D03*
%TO.N,/5V/5VIADC*%
X163042600Y-79146400D03*
%TO.N,GND2*%
X154827400Y-118135600D03*
X149544200Y-119024600D03*
X151638000Y-129565400D03*
X157099000Y-125272800D03*
X164388800Y-105740200D03*
X153873200Y-106095800D03*
X146761200Y-105714800D03*
X136652000Y-129540000D03*
X148463000Y-124231400D03*
X154852800Y-118999200D03*
X144830800Y-120421400D03*
X136601200Y-117068600D03*
X163322000Y-114909600D03*
X141655800Y-105714800D03*
X154852800Y-119812000D03*
X144221200Y-105714800D03*
X136601200Y-115214400D03*
X164414200Y-123012200D03*
X149544200Y-119837400D03*
X149544200Y-118211800D03*
X136601200Y-105740200D03*
%TO.N,GND*%
X140843000Y-59385200D03*
X159766000Y-62890400D03*
X145745200Y-80924400D03*
X142138400Y-88493600D03*
X136398000Y-71704200D03*
X150492600Y-103655000D03*
X136575800Y-101600000D03*
X144449800Y-69474800D03*
X163550600Y-66700400D03*
X150495000Y-93192600D03*
X127609600Y-60071000D03*
X151231600Y-72161400D03*
X141376400Y-93218000D03*
X172008800Y-52882800D03*
X140919200Y-62058000D03*
X163652200Y-72923400D03*
X144957800Y-90017600D03*
X143281400Y-63607400D03*
X145923000Y-63607400D03*
X165227000Y-92887800D03*
X136550400Y-83667600D03*
X146735800Y-99923600D03*
X159334200Y-83235800D03*
X172135800Y-101320600D03*
X149250400Y-99898200D03*
X148793200Y-84277200D03*
X147218400Y-77978000D03*
%TO.N,/5V/V5ADC*%
X140868400Y-60782200D03*
X136245600Y-61061600D03*
X143129000Y-91033600D03*
%TO.N,AC_OUT2*%
X155244800Y-116128800D03*
%TO.N,AC_OUT1*%
X155600400Y-123342400D03*
%TO.N,/5V/DISP_SCL*%
X163601400Y-70942200D03*
X145821400Y-70485000D03*
%TO.N,/5V/DISP_SDA*%
X147878800Y-69672200D03*
X163576000Y-68427600D03*
%TO.N,+5V*%
X147548600Y-73533000D03*
%TO.N,/5V/5V_EN*%
X148742400Y-82270600D03*
%TO.N,/5V/AUX2*%
X143205200Y-64719200D03*
%TO.N,NFAULT*%
X148005800Y-104825800D03*
%TO.N,/5V/5VOADC*%
X149047200Y-62941200D03*
X135509000Y-63068200D03*
%TO.N,/5V/SWCLK*%
X145694400Y-68148200D03*
%TO.N,/5V/SWDIO*%
X152273000Y-68148200D03*
%TO.N,IN1*%
X143738600Y-93167200D03*
%TO.N,IN2*%
X146291300Y-93205300D03*
%TO.N,NSLEEP*%
X148590000Y-93192600D03*
%TO.N,+5VA*%
X150749000Y-107340400D03*
X146380200Y-114757200D03*
%TD*%
D26*
%TO.N,/5V/5VIADC*%
X163042600Y-79146400D02*
X162687000Y-78790800D01*
X155752800Y-61391800D02*
X154846400Y-62298200D01*
X162687000Y-78790800D02*
X162687000Y-62357000D01*
X162687000Y-62357000D02*
X161721800Y-61391800D01*
X161721800Y-61391800D02*
X155752800Y-61391800D01*
X154846400Y-62298200D02*
X150266400Y-62298200D01*
%TO.N,/5V/V5ADC*%
X143129000Y-91033600D02*
X143102000Y-91006600D01*
X143102000Y-91006600D02*
X143102000Y-75893600D01*
X143102000Y-75893600D02*
X137845800Y-70637400D01*
X137845800Y-70637400D02*
X137845800Y-62661800D01*
X137845800Y-62661800D02*
X136245600Y-61061600D01*
%TO.N,/5V/AUX1*%
X144466400Y-67498200D02*
X143271000Y-67498200D01*
X143271000Y-67498200D02*
X142748000Y-68021200D01*
X142748000Y-68021200D02*
X142748000Y-70129400D01*
X137515600Y-56286400D02*
X137515600Y-54229000D01*
X142748000Y-70129400D02*
X142290800Y-70586600D01*
X142290800Y-70586600D02*
X139954000Y-70586600D01*
X139954000Y-70586600D02*
X139369800Y-70002400D01*
X139369800Y-70002400D02*
X139369800Y-58140600D01*
X139369800Y-58140600D02*
X137515600Y-56286400D01*
%TO.N,Net-(IC1-VCL)*%
X146354800Y-59893200D02*
X145846800Y-59893200D01*
X145179400Y-62948200D02*
X144466400Y-62948200D01*
X145846800Y-59893200D02*
X145567400Y-60172600D01*
X145567400Y-60172600D02*
X145567400Y-62560200D01*
X145567400Y-62560200D02*
X145179400Y-62948200D01*
D27*
%TO.N,+5V*%
X168630600Y-94954600D02*
X167624000Y-94954600D01*
X167624000Y-94954600D02*
X167030400Y-94361000D01*
X167030400Y-94361000D02*
X167030400Y-93522800D01*
%TO.N,NFAULT*%
X148005800Y-104825800D02*
X167868600Y-104825800D01*
X167868600Y-104825800D02*
X170053000Y-102641400D01*
X170053000Y-102641400D02*
X170053000Y-93776800D01*
X170053000Y-93776800D02*
X169230800Y-92954600D01*
X169230800Y-92954600D02*
X168630600Y-92954600D01*
D26*
%TO.N,/5V/ON_OFF*%
X150266400Y-63598200D02*
X154936600Y-63598200D01*
X154936600Y-63598200D02*
X161213800Y-69875400D01*
X161213800Y-69875400D02*
X161213800Y-81254600D01*
X161213800Y-81254600D02*
X163372800Y-83413600D01*
X165023800Y-83413600D02*
X167157400Y-85547200D01*
X163372800Y-83413600D02*
X165023800Y-83413600D01*
X167157400Y-85547200D02*
X170434000Y-85547200D01*
D27*
%TO.N,NFAULT*%
X160477200Y-76911200D02*
X160477200Y-81635600D01*
X160477200Y-81635600D02*
X163068000Y-84226400D01*
X163068000Y-84226400D02*
X164592000Y-84226400D01*
X164592000Y-84226400D02*
X168173400Y-87807800D01*
X168173400Y-87807800D02*
X168173400Y-92497400D01*
X168173400Y-92497400D02*
X168630600Y-92954600D01*
D26*
X160477200Y-76911200D02*
X160477200Y-70281800D01*
X155093600Y-64898200D02*
X150266400Y-64898200D01*
X160477200Y-70281800D02*
X155093600Y-64898200D01*
%TO.N,NSLEEP*%
X148590000Y-93192600D02*
X157937200Y-83845400D01*
X157937200Y-83845400D02*
X157937200Y-73202800D01*
X157937200Y-73202800D02*
X157708600Y-72974200D01*
%TO.N,IN1*%
X143738600Y-93167200D02*
X153746200Y-83159600D01*
X153746200Y-83159600D02*
X153746200Y-72974200D01*
%TO.N,IN2*%
X146291300Y-93205300D02*
X155702000Y-83794600D01*
X155702000Y-83794600D02*
X155702000Y-72948800D01*
D27*
%TO.N,/5V/SEL*%
X148957200Y-64248200D02*
X148018500Y-63309500D01*
D26*
%TO.N,Net-(IC1-P110)*%
X153746200Y-70974200D02*
X153746200Y-68224400D01*
X153746200Y-68224400D02*
X152370000Y-66848200D01*
X152370000Y-66848200D02*
X150266400Y-66848200D01*
%TO.N,Net-(IC1-P112)*%
X155702000Y-70948800D02*
X155702000Y-67640200D01*
X155702000Y-67640200D02*
X154260000Y-66198200D01*
X154260000Y-66198200D02*
X150266400Y-66198200D01*
%TO.N,Net-(IC1-P102)*%
X157708600Y-70974200D02*
X157708600Y-68503800D01*
X154753000Y-65548200D02*
X150266400Y-65548200D01*
X157708600Y-68503800D02*
X154753000Y-65548200D01*
%TO.N,GND*%
X150492600Y-103655000D02*
X150492600Y-101958000D01*
X150495000Y-101955600D02*
X150492600Y-101958000D01*
%TO.N,/5V/V5ADC*%
X143560800Y-60782200D02*
X144466400Y-61687800D01*
X140868400Y-60782200D02*
X143560800Y-60782200D01*
X144466400Y-61687800D02*
X144466400Y-62298200D01*
%TO.N,5V_OUT*%
X127624200Y-63068200D02*
X127609600Y-63082800D01*
D28*
X132239000Y-63068200D02*
X127624200Y-63068200D01*
D29*
%TO.N,AC_LINE*%
X116773000Y-106836900D02*
X116773000Y-120285200D01*
X119959700Y-106836900D02*
X116773000Y-106836900D01*
X116717500Y-78465100D02*
X121437400Y-83185000D01*
X115678600Y-121379600D02*
X110380600Y-121379600D01*
X110380600Y-121379600D02*
X110380600Y-117979600D01*
X110380600Y-117979600D02*
X106880600Y-114479600D01*
X121437400Y-105359200D02*
X119959700Y-106836900D01*
X116773000Y-120285200D02*
X115678600Y-121379600D01*
X116696800Y-78465100D02*
X116717500Y-78465100D01*
X121437400Y-83185000D02*
X121437400Y-105359200D01*
D28*
%TO.N,AC_OUT2*%
X130200400Y-69875400D02*
X134061200Y-73736200D01*
X119960400Y-69933200D02*
X120018200Y-69875400D01*
X134061200Y-73736200D02*
X134061200Y-114427000D01*
X120018200Y-69875400D02*
X130200400Y-69875400D01*
X135763000Y-116128800D02*
X155244800Y-116128800D01*
X134061200Y-114427000D02*
X135763000Y-116128800D01*
%TO.N,AC_OUT1*%
X112395000Y-72263000D02*
X129921000Y-72263000D01*
X119957200Y-54933200D02*
X117373400Y-52349400D01*
X134442200Y-123342400D02*
X155600400Y-123342400D01*
X129921000Y-72263000D02*
X132842000Y-75184000D01*
X111277400Y-53975000D02*
X111277400Y-71145400D01*
X117373400Y-52349400D02*
X112903000Y-52349400D01*
X132842000Y-121742200D02*
X134442200Y-123342400D01*
X112903000Y-52349400D02*
X111277400Y-53975000D01*
X111277400Y-71145400D02*
X112395000Y-72263000D01*
X132842000Y-75184000D02*
X132842000Y-121742200D01*
X119960400Y-54933200D02*
X119957200Y-54933200D01*
D26*
%TO.N,/5V/DISP_SCL*%
X163601400Y-70942200D02*
X170307000Y-70942200D01*
X146583400Y-67056000D02*
X146375600Y-66848200D01*
X146375600Y-66848200D02*
X144466400Y-66848200D01*
X146583400Y-69723000D02*
X146583400Y-67056000D01*
X145821400Y-70485000D02*
X146583400Y-69723000D01*
%TO.N,/5V/DISP_SDA*%
X148158200Y-65862200D02*
X147194200Y-64898200D01*
X147878800Y-69672200D02*
X148158200Y-69392800D01*
X163576000Y-68427600D02*
X163601400Y-68402200D01*
X163601400Y-68402200D02*
X170307000Y-68402200D01*
X147194200Y-64898200D02*
X144466400Y-64898200D01*
X148158200Y-69392800D02*
X148158200Y-65862200D01*
%TO.N,+5V*%
X140919200Y-65584700D02*
X140919200Y-67493600D01*
X146574200Y-65548200D02*
X144466400Y-65548200D01*
X147548600Y-73533000D02*
X147116800Y-73101200D01*
X144466400Y-65548200D02*
X140955700Y-65548200D01*
X140955700Y-65548200D02*
X140919200Y-65584700D01*
X140919200Y-67493600D02*
X140944600Y-67519000D01*
X147116800Y-73101200D02*
X147116800Y-66090800D01*
X147116800Y-66090800D02*
X146574200Y-65548200D01*
D29*
%TO.N,Net-(H3-Pad1)*%
X110101600Y-86479600D02*
X111760000Y-88138000D01*
X106880600Y-86479600D02*
X110101600Y-86479600D01*
X111760000Y-104241600D02*
X108522000Y-107479600D01*
X111760000Y-88138000D02*
X111760000Y-104241600D01*
X108522000Y-107479600D02*
X106880600Y-107479600D01*
D26*
%TO.N,/5V/5V_EN*%
X149417800Y-67498200D02*
X149250400Y-67665600D01*
X150266400Y-67498200D02*
X149417800Y-67498200D01*
X149225000Y-67691000D02*
X149225000Y-69824600D01*
X149225000Y-69824600D02*
X149225000Y-81788000D01*
X149250400Y-67665600D02*
X149225000Y-67691000D01*
X149225000Y-81788000D02*
X148742400Y-82270600D01*
%TO.N,/5V/AUX2*%
X144466400Y-64248200D02*
X143676200Y-64248200D01*
X143676200Y-64248200D02*
X143205200Y-64719200D01*
%TO.N,/5V/SEL*%
X150266400Y-64248200D02*
X148957200Y-64248200D01*
%TO.N,/5V/5VOADC*%
X150259400Y-62941200D02*
X150266400Y-62948200D01*
X156419800Y-62941200D02*
X150273400Y-62941200D01*
X150273400Y-62941200D02*
X150266400Y-62948200D01*
X149047200Y-62941200D02*
X150259400Y-62941200D01*
X134239000Y-63068200D02*
X135509000Y-63068200D01*
%TO.N,/5V/RESET*%
X141883600Y-69519000D02*
X140944600Y-69519000D01*
X141884400Y-69519800D02*
X141883600Y-69519000D01*
X144466400Y-66198200D02*
X142767600Y-66198200D01*
X142113000Y-69291200D02*
X141884400Y-69519800D01*
X142767600Y-66198200D02*
X142113000Y-66852800D01*
X142113000Y-66852800D02*
X142113000Y-69291200D01*
%TO.N,/5V/SWCLK*%
X145694400Y-68148200D02*
X144466400Y-68148200D01*
%TO.N,/5V/SWDIO*%
X150266400Y-68148200D02*
X152273000Y-68148200D01*
%TO.N,+5VA*%
X147472400Y-107340400D02*
X150749000Y-107340400D01*
X146380200Y-108432600D02*
X147472400Y-107340400D01*
X146380200Y-114757200D02*
X146380200Y-108432600D01*
%TD*%
%TA.AperFunction,Conductor*%
%TO.N,GND2*%
G36*
X147583882Y-105328402D02*
G01*
X147599312Y-105340086D01*
X147631271Y-105368399D01*
X147631272Y-105368399D01*
X147631274Y-105368401D01*
X147657296Y-105382058D01*
X147772007Y-105442263D01*
X147926329Y-105480300D01*
X147926330Y-105480300D01*
X148085270Y-105480300D01*
X148085271Y-105480300D01*
X148239593Y-105442263D01*
X148380329Y-105368399D01*
X148412285Y-105340087D01*
X148476538Y-105309887D01*
X148495839Y-105308400D01*
X164669743Y-105308400D01*
X164737864Y-105328402D01*
X164784357Y-105382058D01*
X164795741Y-105433855D01*
X164839434Y-115548560D01*
X164845999Y-117068368D01*
X164846000Y-117068912D01*
X164846000Y-129845800D01*
X164825998Y-129913921D01*
X164772342Y-129960414D01*
X164720000Y-129971800D01*
X162118960Y-129971800D01*
X162050839Y-129951798D01*
X162004346Y-129898142D01*
X161994242Y-129827868D01*
X162023736Y-129763288D01*
X162083462Y-129724904D01*
X162092177Y-129722679D01*
X162261302Y-129685888D01*
X162529351Y-129585911D01*
X162780443Y-129448805D01*
X162922961Y-129342115D01*
X162922962Y-129342115D01*
X162022346Y-128441498D01*
X162035291Y-128436787D01*
X162181773Y-128340445D01*
X162302088Y-128212918D01*
X162374847Y-128086894D01*
X163276515Y-128988562D01*
X163276515Y-128988561D01*
X163383205Y-128846043D01*
X163520311Y-128594951D01*
X163620288Y-128326902D01*
X163681100Y-128047353D01*
X163701508Y-127762000D01*
X163681100Y-127476646D01*
X163620288Y-127197097D01*
X163520311Y-126929048D01*
X163383202Y-126677952D01*
X163276516Y-126535437D01*
X163276515Y-126535436D01*
X162373595Y-127438356D01*
X162350341Y-127384447D01*
X162245644Y-127243815D01*
X162111338Y-127131118D01*
X162019733Y-127085112D01*
X162922962Y-126181883D01*
X162922961Y-126181882D01*
X162780447Y-126075197D01*
X162529350Y-125938088D01*
X162529351Y-125938088D01*
X162261302Y-125838111D01*
X161981753Y-125777299D01*
X161696400Y-125756891D01*
X161411046Y-125777299D01*
X161131497Y-125838111D01*
X160863448Y-125938088D01*
X160612360Y-126075192D01*
X160469836Y-126181883D01*
X161370454Y-127082501D01*
X161357509Y-127087213D01*
X161211027Y-127183555D01*
X161090712Y-127311082D01*
X161017952Y-127437105D01*
X160116283Y-126535436D01*
X160009592Y-126677960D01*
X159872488Y-126929048D01*
X159772511Y-127197097D01*
X159711699Y-127476646D01*
X159691291Y-127762000D01*
X159711699Y-128047353D01*
X159772511Y-128326902D01*
X159872488Y-128594951D01*
X160009597Y-128846047D01*
X160116282Y-128988561D01*
X160116283Y-128988562D01*
X161019203Y-128085641D01*
X161042459Y-128139553D01*
X161147156Y-128280185D01*
X161281462Y-128392882D01*
X161373065Y-128438886D01*
X160469836Y-129342115D01*
X160469837Y-129342116D01*
X160612352Y-129448802D01*
X160863449Y-129585911D01*
X160863448Y-129585911D01*
X161131497Y-129685888D01*
X161300623Y-129722679D01*
X161362935Y-129756705D01*
X161396960Y-129819017D01*
X161391896Y-129889832D01*
X161349349Y-129946668D01*
X161282829Y-129971479D01*
X161273840Y-129971800D01*
X136345941Y-129971800D01*
X136277820Y-129951798D01*
X136231327Y-129898142D01*
X136219941Y-129846060D01*
X136216812Y-128326902D01*
X136207741Y-123923158D01*
X136227603Y-123854998D01*
X136281163Y-123808394D01*
X136333741Y-123796900D01*
X155078642Y-123796900D01*
X155146763Y-123816902D01*
X155162196Y-123828587D01*
X155225871Y-123884999D01*
X155225873Y-123885000D01*
X155225874Y-123885001D01*
X155298577Y-123923158D01*
X155366607Y-123958863D01*
X155520929Y-123996900D01*
X155520930Y-123996900D01*
X155679870Y-123996900D01*
X155679871Y-123996900D01*
X155834193Y-123958863D01*
X155974929Y-123884999D01*
X156093898Y-123779601D01*
X156184187Y-123648795D01*
X156240549Y-123500182D01*
X156240549Y-123500181D01*
X156240550Y-123500179D01*
X156259707Y-123342403D01*
X156259707Y-123342396D01*
X156240550Y-123184620D01*
X156226938Y-123148731D01*
X156184187Y-123036005D01*
X156093898Y-122905199D01*
X155974929Y-122799801D01*
X155974928Y-122799800D01*
X155974925Y-122799798D01*
X155834197Y-122725939D01*
X155834195Y-122725938D01*
X155834193Y-122725937D01*
X155834191Y-122725936D01*
X155834190Y-122725936D01*
X155679872Y-122687900D01*
X155679871Y-122687900D01*
X155520929Y-122687900D01*
X155520927Y-122687900D01*
X155366609Y-122725936D01*
X155366602Y-122725939D01*
X155225874Y-122799798D01*
X155225870Y-122799802D01*
X155162195Y-122856213D01*
X155097942Y-122886413D01*
X155078642Y-122887900D01*
X136331350Y-122887900D01*
X136263229Y-122867898D01*
X136216736Y-122814242D01*
X136205350Y-122762160D01*
X136202784Y-121516500D01*
X136199170Y-119762000D01*
X159936980Y-119762000D01*
X159956631Y-120024231D01*
X160015146Y-120280599D01*
X160015147Y-120280602D01*
X160111213Y-120525377D01*
X160111215Y-120525381D01*
X160242696Y-120753113D01*
X160406657Y-120958714D01*
X160548826Y-121090626D01*
X160599420Y-121137570D01*
X160599426Y-121137574D01*
X160816680Y-121285696D01*
X160816687Y-121285700D01*
X160816690Y-121285702D01*
X161053612Y-121399798D01*
X161274307Y-121467873D01*
X161304885Y-121477306D01*
X161304892Y-121477308D01*
X161564918Y-121516500D01*
X161564922Y-121516500D01*
X161827878Y-121516500D01*
X161827882Y-121516500D01*
X162087908Y-121477308D01*
X162339188Y-121399798D01*
X162576110Y-121285702D01*
X162793380Y-121137570D01*
X162986146Y-120958710D01*
X163150101Y-120753117D01*
X163281583Y-120525384D01*
X163377654Y-120280598D01*
X163436169Y-120024228D01*
X163455820Y-119762000D01*
X163436169Y-119499772D01*
X163377654Y-119243402D01*
X163372354Y-119229899D01*
X163281586Y-118998622D01*
X163281584Y-118998618D01*
X163150103Y-118770886D01*
X162986142Y-118565285D01*
X162793385Y-118386435D01*
X162793380Y-118386430D01*
X162793373Y-118386425D01*
X162576119Y-118238303D01*
X162576112Y-118238299D01*
X162339193Y-118124204D01*
X162339190Y-118124203D01*
X162339188Y-118124202D01*
X162251296Y-118097090D01*
X162087914Y-118046693D01*
X162087909Y-118046692D01*
X162087908Y-118046692D01*
X161827882Y-118007500D01*
X161564918Y-118007500D01*
X161304892Y-118046692D01*
X161304891Y-118046692D01*
X161304885Y-118046693D01*
X161053606Y-118124204D01*
X160816687Y-118238299D01*
X160816680Y-118238303D01*
X160599426Y-118386425D01*
X160599414Y-118386435D01*
X160406657Y-118565285D01*
X160242696Y-118770886D01*
X160111215Y-118998618D01*
X160111213Y-118998622D01*
X160015147Y-119243397D01*
X160015146Y-119243400D01*
X159956631Y-119499768D01*
X159936980Y-119762000D01*
X136199170Y-119762000D01*
X136192883Y-116709558D01*
X136212745Y-116641398D01*
X136266305Y-116594794D01*
X136318883Y-116583300D01*
X154723042Y-116583300D01*
X154791163Y-116603302D01*
X154806596Y-116614987D01*
X154870271Y-116671399D01*
X154870273Y-116671400D01*
X154870274Y-116671401D01*
X154942977Y-116709558D01*
X155011007Y-116745263D01*
X155165329Y-116783300D01*
X155165330Y-116783300D01*
X155324270Y-116783300D01*
X155324271Y-116783300D01*
X155478593Y-116745263D01*
X155619329Y-116671399D01*
X155738298Y-116566001D01*
X155828587Y-116435195D01*
X155884949Y-116286582D01*
X155884949Y-116286581D01*
X155884950Y-116286579D01*
X155904107Y-116128803D01*
X155904107Y-116128796D01*
X155884950Y-115971020D01*
X155871338Y-115935131D01*
X155828587Y-115822405D01*
X155738298Y-115691599D01*
X155619329Y-115586201D01*
X155619328Y-115586200D01*
X155619325Y-115586198D01*
X155478597Y-115512339D01*
X155478595Y-115512338D01*
X155478593Y-115512337D01*
X155478591Y-115512336D01*
X155478590Y-115512336D01*
X155324272Y-115474300D01*
X155324271Y-115474300D01*
X155165329Y-115474300D01*
X155165327Y-115474300D01*
X155011009Y-115512336D01*
X155011002Y-115512339D01*
X154870274Y-115586198D01*
X154870270Y-115586202D01*
X154806595Y-115642613D01*
X154742342Y-115672813D01*
X154723042Y-115674300D01*
X136316492Y-115674300D01*
X136248371Y-115654298D01*
X136201878Y-115600642D01*
X136190492Y-115548560D01*
X136188862Y-114757203D01*
X145720893Y-114757203D01*
X145740049Y-114914979D01*
X145788647Y-115043119D01*
X145796413Y-115063595D01*
X145886702Y-115194401D01*
X146005671Y-115299799D01*
X146005672Y-115299799D01*
X146005674Y-115299801D01*
X146080400Y-115339020D01*
X146146407Y-115373663D01*
X146300729Y-115411700D01*
X146300730Y-115411700D01*
X146459670Y-115411700D01*
X146459671Y-115411700D01*
X146613993Y-115373663D01*
X146754729Y-115299799D01*
X146873698Y-115194401D01*
X146963987Y-115063595D01*
X147020349Y-114914982D01*
X147020349Y-114914981D01*
X147020350Y-114914979D01*
X147039507Y-114757203D01*
X147039507Y-114757196D01*
X147020350Y-114599420D01*
X147006738Y-114563531D01*
X146963987Y-114450805D01*
X146873698Y-114319999D01*
X146873695Y-114319996D01*
X146873696Y-114319996D01*
X146804146Y-114258380D01*
X146766421Y-114198235D01*
X146761700Y-114164068D01*
X146761700Y-108642813D01*
X146781702Y-108574692D01*
X146798605Y-108553717D01*
X147593519Y-107758804D01*
X147655831Y-107724779D01*
X147682614Y-107721900D01*
X150150924Y-107721900D01*
X150219045Y-107741902D01*
X150250235Y-107772080D01*
X150250446Y-107771894D01*
X150252861Y-107774620D01*
X150254616Y-107776318D01*
X150255502Y-107777601D01*
X150374471Y-107882999D01*
X150374472Y-107882999D01*
X150374474Y-107883001D01*
X150449200Y-107922220D01*
X150515207Y-107956863D01*
X150669529Y-107994900D01*
X150669530Y-107994900D01*
X150828470Y-107994900D01*
X150828471Y-107994900D01*
X150982793Y-107956863D01*
X151123529Y-107882999D01*
X151242498Y-107777601D01*
X151332787Y-107646795D01*
X151389149Y-107498182D01*
X151389149Y-107498181D01*
X151389150Y-107498179D01*
X151408307Y-107340403D01*
X151408307Y-107340396D01*
X151389150Y-107182620D01*
X151375538Y-107146731D01*
X151332787Y-107034005D01*
X151242498Y-106903199D01*
X151123529Y-106797801D01*
X151123528Y-106797800D01*
X151123525Y-106797798D01*
X150982797Y-106723939D01*
X150982795Y-106723938D01*
X150982793Y-106723937D01*
X150982791Y-106723936D01*
X150982790Y-106723936D01*
X150828472Y-106685900D01*
X150828471Y-106685900D01*
X150669529Y-106685900D01*
X150669527Y-106685900D01*
X150515209Y-106723936D01*
X150515202Y-106723939D01*
X150374474Y-106797798D01*
X150374469Y-106797802D01*
X150255500Y-106903201D01*
X150255499Y-106903201D01*
X150254616Y-106904482D01*
X150253728Y-106905201D01*
X150250446Y-106908906D01*
X150249829Y-106908360D01*
X150199455Y-106949179D01*
X150150924Y-106958900D01*
X147525034Y-106958900D01*
X147499175Y-106956218D01*
X147488380Y-106953954D01*
X147456479Y-106957932D01*
X147440892Y-106958900D01*
X147440784Y-106958900D01*
X147419961Y-106962374D01*
X147414815Y-106963124D01*
X147362038Y-106969703D01*
X147354400Y-106971977D01*
X147346813Y-106974582D01*
X147300060Y-106999883D01*
X147295435Y-107002264D01*
X147247653Y-107025624D01*
X147241143Y-107030272D01*
X147234833Y-107035184D01*
X147198806Y-107074318D01*
X147195203Y-107078073D01*
X146147655Y-108125620D01*
X146127482Y-108142004D01*
X146118241Y-108148041D01*
X146098490Y-108173417D01*
X146088180Y-108185095D01*
X146088091Y-108185183D01*
X146088088Y-108185187D01*
X146075812Y-108202380D01*
X146072703Y-108206550D01*
X146040042Y-108248513D01*
X146036230Y-108255558D01*
X146032725Y-108262727D01*
X146017549Y-108313700D01*
X146015962Y-108318654D01*
X145998699Y-108368942D01*
X145997384Y-108376818D01*
X145996394Y-108384760D01*
X145998592Y-108437872D01*
X145998700Y-108443080D01*
X145998700Y-114164068D01*
X145978698Y-114232189D01*
X145956254Y-114258380D01*
X145886704Y-114319996D01*
X145796415Y-114450801D01*
X145796412Y-114450807D01*
X145740049Y-114599420D01*
X145720893Y-114757196D01*
X145720893Y-114757203D01*
X136188862Y-114757203D01*
X136174480Y-107774620D01*
X136169660Y-105434659D01*
X136189522Y-105366498D01*
X136243082Y-105319894D01*
X136295660Y-105308400D01*
X147515761Y-105308400D01*
X147583882Y-105328402D01*
G37*
%TD.AperFunction*%
%TD*%
%TA.AperFunction,Conductor*%
%TO.N,GND*%
G36*
X172941212Y-51937771D02*
G01*
X172987861Y-51991291D01*
X172999400Y-52043967D01*
X172999400Y-101982498D01*
X172979398Y-102050619D01*
X172925742Y-102097112D01*
X172873899Y-102108497D01*
X170558999Y-102117670D01*
X170490800Y-102097938D01*
X170444095Y-102044467D01*
X170432500Y-101991671D01*
X170432500Y-93829222D01*
X170435182Y-93803362D01*
X170437418Y-93792700D01*
X170433468Y-93761010D01*
X170432500Y-93745424D01*
X170432500Y-93745362D01*
X170432500Y-93745357D01*
X170429042Y-93724638D01*
X170428296Y-93719527D01*
X170421752Y-93667017D01*
X170421750Y-93667014D01*
X170419485Y-93659405D01*
X170416900Y-93651876D01*
X170416900Y-93651873D01*
X170411829Y-93642502D01*
X170391734Y-93605368D01*
X170389350Y-93600738D01*
X170366126Y-93553232D01*
X170366124Y-93553230D01*
X170366124Y-93553229D01*
X170361521Y-93546782D01*
X170356621Y-93540486D01*
X170337412Y-93522803D01*
X170317714Y-93504669D01*
X170313957Y-93501063D01*
X169622004Y-92809110D01*
X169587978Y-92746798D01*
X169585099Y-92720015D01*
X169585099Y-92556353D01*
X169585099Y-92556346D01*
X169578640Y-92496258D01*
X169527942Y-92360333D01*
X169441004Y-92244196D01*
X169324867Y-92157258D01*
X169324865Y-92157257D01*
X169324866Y-92157257D01*
X169188949Y-92106562D01*
X169188944Y-92106560D01*
X169188942Y-92106560D01*
X169181431Y-92105752D01*
X169128862Y-92100100D01*
X169128855Y-92100100D01*
X168678900Y-92100100D01*
X168610779Y-92080098D01*
X168564286Y-92026442D01*
X168552900Y-91974100D01*
X168552900Y-87860222D01*
X168555582Y-87834362D01*
X168557818Y-87823698D01*
X168553868Y-87792010D01*
X168552900Y-87776424D01*
X168552900Y-87776362D01*
X168552900Y-87776357D01*
X168549442Y-87755638D01*
X168548696Y-87750527D01*
X168542152Y-87698017D01*
X168542150Y-87698014D01*
X168539885Y-87690405D01*
X168537300Y-87682876D01*
X168537300Y-87682873D01*
X168537298Y-87682869D01*
X168512134Y-87636368D01*
X168509750Y-87631738D01*
X168505826Y-87623711D01*
X168486526Y-87584232D01*
X168486524Y-87584230D01*
X168486524Y-87584229D01*
X168481921Y-87577782D01*
X168477021Y-87571486D01*
X168438114Y-87535669D01*
X168434357Y-87532063D01*
X167047387Y-86145093D01*
X167013361Y-86082781D01*
X167018426Y-86011966D01*
X167060973Y-85955130D01*
X167127493Y-85930319D01*
X167131236Y-85930108D01*
X167157465Y-85929023D01*
X167162676Y-85928808D01*
X167167880Y-85928700D01*
X169203501Y-85928700D01*
X169271622Y-85948702D01*
X169318115Y-86002358D01*
X169329501Y-86054700D01*
X169329501Y-86422272D01*
X169344265Y-86496500D01*
X169400516Y-86580684D01*
X169484697Y-86636933D01*
X169484699Y-86636934D01*
X169558933Y-86651700D01*
X169749720Y-86651699D01*
X169817838Y-86671701D01*
X169864331Y-86725356D01*
X169874436Y-86795630D01*
X169844943Y-86860211D01*
X169802970Y-86891893D01*
X169756422Y-86913599D01*
X169562925Y-87049087D01*
X169562919Y-87049092D01*
X169395892Y-87216119D01*
X169395887Y-87216125D01*
X169260400Y-87409621D01*
X169160570Y-87623706D01*
X169160568Y-87623711D01*
X169103363Y-87837200D01*
X170000314Y-87837200D01*
X169974507Y-87877356D01*
X169934000Y-88015311D01*
X169934000Y-88159089D01*
X169974507Y-88297044D01*
X170000314Y-88337200D01*
X169103364Y-88337200D01*
X169160568Y-88550688D01*
X169160570Y-88550693D01*
X169260399Y-88764777D01*
X169260400Y-88764779D01*
X169395886Y-88958273D01*
X169395893Y-88958282D01*
X169562917Y-89125306D01*
X169562926Y-89125313D01*
X169756420Y-89260799D01*
X169756422Y-89260800D01*
X169970506Y-89360629D01*
X169970510Y-89360631D01*
X170184000Y-89417835D01*
X170184000Y-88522701D01*
X170291685Y-88571880D01*
X170398237Y-88587200D01*
X170469763Y-88587200D01*
X170576315Y-88571880D01*
X170684000Y-88522701D01*
X170684000Y-89417834D01*
X170897489Y-89360631D01*
X170897493Y-89360629D01*
X171111577Y-89260800D01*
X171111579Y-89260799D01*
X171305073Y-89125313D01*
X171305082Y-89125306D01*
X171472106Y-88958282D01*
X171472113Y-88958273D01*
X171607599Y-88764779D01*
X171607600Y-88764777D01*
X171707429Y-88550693D01*
X171707431Y-88550688D01*
X171764636Y-88337200D01*
X170867686Y-88337200D01*
X170893493Y-88297044D01*
X170934000Y-88159089D01*
X170934000Y-88015311D01*
X170893493Y-87877356D01*
X170867686Y-87837200D01*
X171764636Y-87837200D01*
X171707431Y-87623711D01*
X171707429Y-87623706D01*
X171607599Y-87409621D01*
X171472112Y-87216125D01*
X171305076Y-87049088D01*
X171305073Y-87049086D01*
X171111579Y-86913600D01*
X171111577Y-86913599D01*
X171065030Y-86891894D01*
X171011745Y-86844977D01*
X170992284Y-86776700D01*
X171012826Y-86708740D01*
X171066848Y-86662674D01*
X171118279Y-86651699D01*
X171309066Y-86651699D01*
X171309069Y-86651698D01*
X171309073Y-86651698D01*
X171358326Y-86641901D01*
X171383301Y-86636934D01*
X171467484Y-86580684D01*
X171523734Y-86496501D01*
X171538500Y-86422267D01*
X171538499Y-84672134D01*
X171538498Y-84672130D01*
X171538498Y-84672126D01*
X171523734Y-84597899D01*
X171478828Y-84530693D01*
X171467484Y-84513716D01*
X171467483Y-84513715D01*
X171383302Y-84457466D01*
X171309067Y-84442700D01*
X169558936Y-84442700D01*
X169558926Y-84442701D01*
X169484699Y-84457465D01*
X169400515Y-84513716D01*
X169344266Y-84597897D01*
X169329500Y-84672130D01*
X169329500Y-85039700D01*
X169309498Y-85107821D01*
X169255842Y-85154314D01*
X169203500Y-85165700D01*
X167367612Y-85165700D01*
X167299491Y-85145698D01*
X167278517Y-85128795D01*
X165330780Y-83181057D01*
X165314391Y-83160876D01*
X165308360Y-83151644D01*
X165308359Y-83151643D01*
X165282986Y-83131895D01*
X165271282Y-83121558D01*
X165271217Y-83121493D01*
X165271209Y-83121486D01*
X165253983Y-83109187D01*
X165249872Y-83106121D01*
X165220724Y-83083434D01*
X165207883Y-83073440D01*
X165200864Y-83069642D01*
X165193672Y-83066126D01*
X165193670Y-83066125D01*
X165193667Y-83066124D01*
X165142708Y-83050952D01*
X165137750Y-83049364D01*
X165087464Y-83032101D01*
X165087463Y-83032100D01*
X165087461Y-83032100D01*
X165087458Y-83032100D01*
X165079548Y-83030779D01*
X165071642Y-83029794D01*
X165020775Y-83031899D01*
X165018525Y-83031992D01*
X165013320Y-83032100D01*
X163583012Y-83032100D01*
X163514891Y-83012098D01*
X163493917Y-82995195D01*
X161632205Y-81133482D01*
X161598179Y-81071170D01*
X161595300Y-81044387D01*
X161595300Y-69928033D01*
X161597982Y-69902173D01*
X161598375Y-69900302D01*
X161600245Y-69891383D01*
X161600134Y-69890496D01*
X161596268Y-69859478D01*
X161595300Y-69843891D01*
X161595300Y-69843788D01*
X161591824Y-69822960D01*
X161591077Y-69817840D01*
X161584496Y-69765039D01*
X161584495Y-69765037D01*
X161584495Y-69765035D01*
X161582217Y-69757385D01*
X161579618Y-69749814D01*
X161554319Y-69703066D01*
X161551935Y-69698435D01*
X161538507Y-69670968D01*
X161528576Y-69650654D01*
X161528575Y-69650653D01*
X161523927Y-69644142D01*
X161519021Y-69637839D01*
X161479881Y-69601808D01*
X161476124Y-69598202D01*
X155988717Y-64110794D01*
X155954691Y-64048482D01*
X155959756Y-63977667D01*
X156002303Y-63920831D01*
X156068823Y-63896020D01*
X156077785Y-63895699D01*
X156818054Y-63895699D01*
X156878142Y-63889240D01*
X157014067Y-63838542D01*
X157130204Y-63751604D01*
X157173215Y-63694146D01*
X157230050Y-63651599D01*
X157300865Y-63646533D01*
X157363178Y-63680557D01*
X157380226Y-63704916D01*
X157381590Y-63704076D01*
X157477483Y-63859544D01*
X157477488Y-63859550D01*
X157601449Y-63983511D01*
X157601455Y-63983516D01*
X157750677Y-64075557D01*
X157917108Y-64130706D01*
X158019812Y-64141199D01*
X158169800Y-64141199D01*
X158169800Y-63191200D01*
X158669800Y-63191200D01*
X158669800Y-64141199D01*
X158819778Y-64141199D01*
X158922491Y-64130706D01*
X159088922Y-64075557D01*
X159238144Y-63983516D01*
X159238150Y-63983511D01*
X159362111Y-63859550D01*
X159362116Y-63859544D01*
X159454157Y-63710322D01*
X159509306Y-63543891D01*
X159519799Y-63441187D01*
X159519800Y-63441187D01*
X159519800Y-63191200D01*
X158669800Y-63191200D01*
X158169800Y-63191200D01*
X158169800Y-62817200D01*
X158189802Y-62749079D01*
X158243458Y-62702586D01*
X158295800Y-62691200D01*
X159519799Y-62691200D01*
X159519799Y-62441221D01*
X159509306Y-62338508D01*
X159454157Y-62172077D01*
X159362116Y-62022855D01*
X159362111Y-62022849D01*
X159327657Y-61988395D01*
X159293631Y-61926083D01*
X159298696Y-61855268D01*
X159341243Y-61798432D01*
X159407763Y-61773621D01*
X159416752Y-61773300D01*
X161511588Y-61773300D01*
X161579709Y-61793302D01*
X161600683Y-61810205D01*
X162268595Y-62478117D01*
X162302621Y-62540429D01*
X162305500Y-62567212D01*
X162305500Y-78738166D01*
X162302818Y-78764023D01*
X162300554Y-78774816D01*
X162304532Y-78806721D01*
X162305500Y-78822308D01*
X162305500Y-78822413D01*
X162308975Y-78843241D01*
X162309725Y-78848390D01*
X162316303Y-78901157D01*
X162318588Y-78908832D01*
X162321180Y-78916381D01*
X162321181Y-78916384D01*
X162321182Y-78916386D01*
X162329500Y-78931756D01*
X162346492Y-78963155D01*
X162348874Y-78967784D01*
X162376809Y-79024926D01*
X162373309Y-79026636D01*
X162390133Y-79075065D01*
X162389364Y-79096391D01*
X162383294Y-79146396D01*
X162383293Y-79146403D01*
X162402449Y-79304179D01*
X162451047Y-79432319D01*
X162458813Y-79452795D01*
X162549102Y-79583601D01*
X162668071Y-79688999D01*
X162668072Y-79688999D01*
X162668074Y-79689001D01*
X162742800Y-79728220D01*
X162808807Y-79762863D01*
X162963129Y-79800900D01*
X162963130Y-79800900D01*
X163122070Y-79800900D01*
X163122071Y-79800900D01*
X163276393Y-79762863D01*
X163417129Y-79688999D01*
X163536098Y-79583601D01*
X163626387Y-79452795D01*
X163682749Y-79304182D01*
X163682749Y-79304181D01*
X163682750Y-79304179D01*
X163701907Y-79146403D01*
X163701907Y-79146396D01*
X163682750Y-78988620D01*
X163649579Y-78901157D01*
X163626387Y-78840005D01*
X163536098Y-78709199D01*
X163417129Y-78603801D01*
X163417128Y-78603800D01*
X163417125Y-78603798D01*
X163276397Y-78529939D01*
X163276396Y-78529938D01*
X163276393Y-78529937D01*
X163276389Y-78529936D01*
X163276384Y-78529934D01*
X163164345Y-78502318D01*
X163102991Y-78466595D01*
X163070690Y-78403372D01*
X163068500Y-78379980D01*
X163068500Y-76920040D01*
X168957000Y-76920040D01*
X168963400Y-76979571D01*
X169013647Y-77114289D01*
X169099810Y-77229389D01*
X169214910Y-77315552D01*
X169349628Y-77365799D01*
X169409159Y-77372199D01*
X169409176Y-77372200D01*
X170057000Y-77372200D01*
X170057000Y-76457701D01*
X170164685Y-76506880D01*
X170271237Y-76522200D01*
X170342763Y-76522200D01*
X170449315Y-76506880D01*
X170557000Y-76457701D01*
X170557000Y-77372200D01*
X171204824Y-77372200D01*
X171204840Y-77372199D01*
X171264371Y-77365799D01*
X171399089Y-77315552D01*
X171514189Y-77229389D01*
X171600352Y-77114289D01*
X171650599Y-76979571D01*
X171656999Y-76920040D01*
X171657000Y-76920023D01*
X171657000Y-76272200D01*
X170740686Y-76272200D01*
X170766493Y-76232044D01*
X170807000Y-76094089D01*
X170807000Y-75950311D01*
X170766493Y-75812356D01*
X170740686Y-75772200D01*
X171657000Y-75772200D01*
X171657000Y-75124376D01*
X171656999Y-75124359D01*
X171650599Y-75064828D01*
X171600352Y-74930110D01*
X171514189Y-74815010D01*
X171399089Y-74728847D01*
X171264371Y-74678600D01*
X171204840Y-74672200D01*
X170926015Y-74672200D01*
X170857894Y-74652198D01*
X170811401Y-74598542D01*
X170801297Y-74528268D01*
X170830791Y-74463688D01*
X170859684Y-74439073D01*
X170904146Y-74411542D01*
X170975462Y-74367386D01*
X171126732Y-74229485D01*
X171250088Y-74066135D01*
X171341328Y-73882901D01*
X171397345Y-73686021D01*
X171406762Y-73584393D01*
X171416232Y-73482204D01*
X171416232Y-73482195D01*
X171397345Y-73278380D01*
X171397345Y-73278379D01*
X171341328Y-73081499D01*
X171250088Y-72898265D01*
X171209538Y-72844568D01*
X171126733Y-72734915D01*
X170975463Y-72597014D01*
X170801433Y-72489259D01*
X170801428Y-72489257D01*
X170801427Y-72489256D01*
X170792589Y-72485832D01*
X170610559Y-72415313D01*
X170610560Y-72415313D01*
X170610557Y-72415312D01*
X170610556Y-72415312D01*
X170409347Y-72377700D01*
X170204653Y-72377700D01*
X170005022Y-72415017D01*
X170003439Y-72415313D01*
X169812577Y-72489254D01*
X169812566Y-72489259D01*
X169638536Y-72597014D01*
X169487266Y-72734915D01*
X169363913Y-72898263D01*
X169272671Y-73081501D01*
X169216654Y-73278380D01*
X169197768Y-73482195D01*
X169197768Y-73482204D01*
X169216654Y-73686019D01*
X169272638Y-73882782D01*
X169272672Y-73882901D01*
X169363912Y-74066135D01*
X169384186Y-74092983D01*
X169487266Y-74229484D01*
X169638536Y-74367385D01*
X169754316Y-74439073D01*
X169801703Y-74491940D01*
X169812986Y-74562034D01*
X169784582Y-74627101D01*
X169725509Y-74666483D01*
X169687985Y-74672200D01*
X169409159Y-74672200D01*
X169349628Y-74678600D01*
X169214910Y-74728847D01*
X169099810Y-74815010D01*
X169013647Y-74930110D01*
X168963400Y-75064828D01*
X168957000Y-75124359D01*
X168957000Y-75772200D01*
X169873314Y-75772200D01*
X169847507Y-75812356D01*
X169807000Y-75950311D01*
X169807000Y-76094089D01*
X169847507Y-76232044D01*
X169873314Y-76272200D01*
X168957000Y-76272200D01*
X168957000Y-76920040D01*
X163068500Y-76920040D01*
X163068500Y-71610108D01*
X163088502Y-71541987D01*
X163142158Y-71495494D01*
X163212432Y-71485390D01*
X163253051Y-71498539D01*
X163367607Y-71558663D01*
X163521929Y-71596700D01*
X163521930Y-71596700D01*
X163680870Y-71596700D01*
X163680871Y-71596700D01*
X163835193Y-71558663D01*
X163975929Y-71484799D01*
X164094898Y-71379401D01*
X164095784Y-71378118D01*
X164096671Y-71377398D01*
X164099954Y-71373694D01*
X164100570Y-71374239D01*
X164150945Y-71333421D01*
X164199476Y-71323700D01*
X169185095Y-71323700D01*
X169253216Y-71343702D01*
X169297885Y-71393537D01*
X169363908Y-71526130D01*
X169363912Y-71526135D01*
X169487266Y-71689484D01*
X169638536Y-71827385D01*
X169812566Y-71935140D01*
X169812568Y-71935140D01*
X169812573Y-71935144D01*
X170003444Y-72009088D01*
X170204653Y-72046700D01*
X170204655Y-72046700D01*
X170409345Y-72046700D01*
X170409347Y-72046700D01*
X170610556Y-72009088D01*
X170801427Y-71935144D01*
X170975462Y-71827386D01*
X171126732Y-71689485D01*
X171250088Y-71526135D01*
X171341328Y-71342901D01*
X171397345Y-71146021D01*
X171413374Y-70973044D01*
X171416232Y-70942204D01*
X171416232Y-70942195D01*
X171397345Y-70738380D01*
X171395871Y-70733200D01*
X171341328Y-70541499D01*
X171250088Y-70358265D01*
X171190663Y-70279573D01*
X171126733Y-70194915D01*
X170975463Y-70057014D01*
X170801433Y-69949259D01*
X170801428Y-69949257D01*
X170801427Y-69949256D01*
X170712915Y-69914966D01*
X170610559Y-69875313D01*
X170610560Y-69875313D01*
X170610557Y-69875312D01*
X170610556Y-69875312D01*
X170409347Y-69837700D01*
X170204653Y-69837700D01*
X170003444Y-69875312D01*
X170003439Y-69875313D01*
X169812577Y-69949254D01*
X169812566Y-69949259D01*
X169638536Y-70057014D01*
X169487266Y-70194915D01*
X169363912Y-70358264D01*
X169363908Y-70358269D01*
X169297885Y-70490863D01*
X169249616Y-70542927D01*
X169185095Y-70560700D01*
X164199476Y-70560700D01*
X164131355Y-70540698D01*
X164100164Y-70510519D01*
X164099954Y-70510706D01*
X164097538Y-70507979D01*
X164095784Y-70506282D01*
X164094899Y-70505001D01*
X164094898Y-70504999D01*
X163975929Y-70399601D01*
X163975928Y-70399600D01*
X163975925Y-70399598D01*
X163835197Y-70325739D01*
X163835195Y-70325738D01*
X163835193Y-70325737D01*
X163835191Y-70325736D01*
X163835190Y-70325736D01*
X163680872Y-70287700D01*
X163680871Y-70287700D01*
X163521929Y-70287700D01*
X163521927Y-70287700D01*
X163367609Y-70325736D01*
X163367608Y-70325736D01*
X163330506Y-70345209D01*
X163253053Y-70385859D01*
X163183442Y-70399805D01*
X163117339Y-70373901D01*
X163075735Y-70316372D01*
X163068500Y-70274291D01*
X163068500Y-69108839D01*
X163088502Y-69040718D01*
X163142158Y-68994225D01*
X163212432Y-68984121D01*
X163253051Y-68997270D01*
X163342207Y-69044063D01*
X163496529Y-69082100D01*
X163496530Y-69082100D01*
X163655470Y-69082100D01*
X163655471Y-69082100D01*
X163809793Y-69044063D01*
X163950529Y-68970199D01*
X164069498Y-68864801D01*
X164087913Y-68838122D01*
X164143071Y-68793424D01*
X164191608Y-68783700D01*
X169185095Y-68783700D01*
X169253216Y-68803702D01*
X169297885Y-68853537D01*
X169363908Y-68986130D01*
X169363912Y-68986135D01*
X169487266Y-69149484D01*
X169638536Y-69287385D01*
X169812566Y-69395140D01*
X169812568Y-69395140D01*
X169812573Y-69395144D01*
X170003444Y-69469088D01*
X170204653Y-69506700D01*
X170204655Y-69506700D01*
X170409345Y-69506700D01*
X170409347Y-69506700D01*
X170610556Y-69469088D01*
X170801427Y-69395144D01*
X170975462Y-69287386D01*
X171126732Y-69149485D01*
X171127472Y-69148506D01*
X171163914Y-69100248D01*
X171250088Y-68986135D01*
X171341328Y-68802901D01*
X171397345Y-68606021D01*
X171409012Y-68480113D01*
X171416232Y-68402204D01*
X171416232Y-68402195D01*
X171397345Y-68198380D01*
X171395756Y-68192794D01*
X171341328Y-68001499D01*
X171250088Y-67818265D01*
X171184403Y-67731284D01*
X171126733Y-67654915D01*
X170975463Y-67517014D01*
X170801433Y-67409259D01*
X170801428Y-67409257D01*
X170801427Y-67409256D01*
X170760139Y-67393261D01*
X170610559Y-67335313D01*
X170610560Y-67335313D01*
X170610557Y-67335312D01*
X170610556Y-67335312D01*
X170409347Y-67297700D01*
X170204653Y-67297700D01*
X170003444Y-67335312D01*
X170003439Y-67335313D01*
X169812577Y-67409254D01*
X169812566Y-67409259D01*
X169638536Y-67517014D01*
X169487266Y-67654915D01*
X169363912Y-67818264D01*
X169363908Y-67818269D01*
X169297885Y-67950863D01*
X169249616Y-68002927D01*
X169185095Y-68020700D01*
X164151487Y-68020700D01*
X164083366Y-68000698D01*
X164067934Y-67989012D01*
X163950534Y-67885005D01*
X163950525Y-67884998D01*
X163809797Y-67811139D01*
X163809795Y-67811138D01*
X163809793Y-67811137D01*
X163809791Y-67811136D01*
X163809790Y-67811136D01*
X163655472Y-67773100D01*
X163655471Y-67773100D01*
X163496529Y-67773100D01*
X163496527Y-67773100D01*
X163342209Y-67811136D01*
X163342208Y-67811136D01*
X163318405Y-67823629D01*
X163253053Y-67857928D01*
X163183442Y-67871874D01*
X163117339Y-67845970D01*
X163075735Y-67788441D01*
X163068500Y-67746360D01*
X163068500Y-62409633D01*
X163071182Y-62383773D01*
X163073246Y-62373934D01*
X163073445Y-62372983D01*
X163070463Y-62349064D01*
X163069468Y-62341078D01*
X163068500Y-62325491D01*
X163068500Y-62325391D01*
X163068500Y-62325389D01*
X163065017Y-62304523D01*
X163064279Y-62299459D01*
X163057696Y-62246640D01*
X163057695Y-62246639D01*
X163057695Y-62246634D01*
X163055426Y-62239013D01*
X163052818Y-62231417D01*
X163052818Y-62231414D01*
X163027498Y-62184627D01*
X163025131Y-62180029D01*
X163020647Y-62170857D01*
X163001776Y-62132254D01*
X163001775Y-62132253D01*
X163001775Y-62132252D01*
X162997127Y-62125742D01*
X162992221Y-62119439D01*
X162953093Y-62083419D01*
X162949335Y-62079813D01*
X162028777Y-61159254D01*
X162012389Y-61139073D01*
X162006360Y-61129844D01*
X162006359Y-61129843D01*
X161980986Y-61110095D01*
X161969282Y-61099758D01*
X161969217Y-61099693D01*
X161969209Y-61099686D01*
X161951983Y-61087387D01*
X161947872Y-61084321D01*
X161907025Y-61052529D01*
X161905883Y-61051640D01*
X161898864Y-61047842D01*
X161891672Y-61044326D01*
X161891670Y-61044325D01*
X161891667Y-61044324D01*
X161840708Y-61029152D01*
X161835750Y-61027564D01*
X161785464Y-61010301D01*
X161785463Y-61010300D01*
X161785461Y-61010300D01*
X161785458Y-61010300D01*
X161777548Y-61008979D01*
X161769642Y-61007994D01*
X161718775Y-61010099D01*
X161716525Y-61010192D01*
X161711320Y-61010300D01*
X155805434Y-61010300D01*
X155779575Y-61007618D01*
X155768780Y-61005354D01*
X155736879Y-61009332D01*
X155721292Y-61010300D01*
X155721184Y-61010300D01*
X155700361Y-61013774D01*
X155695215Y-61014524D01*
X155642438Y-61021103D01*
X155634800Y-61023377D01*
X155627213Y-61025982D01*
X155580460Y-61051283D01*
X155575835Y-61053664D01*
X155528053Y-61077024D01*
X155521543Y-61081672D01*
X155515233Y-61086584D01*
X155479206Y-61125718D01*
X155475604Y-61129473D01*
X154725280Y-61879796D01*
X154662970Y-61913820D01*
X154636187Y-61916700D01*
X150991076Y-61916700D01*
X150922955Y-61896698D01*
X150921073Y-61895465D01*
X150865701Y-61858466D01*
X150791467Y-61843700D01*
X149741336Y-61843700D01*
X149741326Y-61843701D01*
X149667099Y-61858465D01*
X149582915Y-61914716D01*
X149526666Y-61998897D01*
X149511900Y-62073130D01*
X149511900Y-62237497D01*
X149491898Y-62305618D01*
X149438242Y-62352111D01*
X149367968Y-62362215D01*
X149327345Y-62349064D01*
X149280997Y-62324739D01*
X149280995Y-62324738D01*
X149280993Y-62324737D01*
X149280991Y-62324736D01*
X149280990Y-62324736D01*
X149126672Y-62286700D01*
X149126671Y-62286700D01*
X148967729Y-62286700D01*
X148967727Y-62286700D01*
X148813409Y-62324736D01*
X148813402Y-62324739D01*
X148672674Y-62398598D01*
X148672669Y-62398602D01*
X148553701Y-62504000D01*
X148463415Y-62634801D01*
X148463409Y-62634812D01*
X148460379Y-62642803D01*
X148417519Y-62699403D01*
X148350862Y-62723845D01*
X148284015Y-62709686D01*
X148252293Y-62693037D01*
X148252292Y-62693036D01*
X148252291Y-62693036D01*
X148097972Y-62655000D01*
X148097971Y-62655000D01*
X147939029Y-62655000D01*
X147939027Y-62655000D01*
X147784709Y-62693036D01*
X147784702Y-62693039D01*
X147643974Y-62766898D01*
X147643969Y-62766902D01*
X147525001Y-62872300D01*
X147434715Y-63003101D01*
X147434712Y-63003107D01*
X147378349Y-63151720D01*
X147359193Y-63309496D01*
X147359193Y-63309503D01*
X147378349Y-63467279D01*
X147408418Y-63546562D01*
X147434713Y-63615895D01*
X147525002Y-63746701D01*
X147643971Y-63852099D01*
X147643972Y-63852099D01*
X147643974Y-63852101D01*
X147679229Y-63870604D01*
X147784707Y-63925963D01*
X147939029Y-63964000D01*
X147939030Y-63964000D01*
X148084116Y-63964000D01*
X148152237Y-63984002D01*
X148173211Y-64000905D01*
X148644886Y-64472580D01*
X148661272Y-64492757D01*
X148672640Y-64510156D01*
X148773113Y-64588357D01*
X148773117Y-64588359D01*
X148778706Y-64590278D01*
X148785075Y-64592915D01*
X148788216Y-64593850D01*
X148788220Y-64593853D01*
X148792548Y-64595141D01*
X148797439Y-64596708D01*
X148893539Y-64629700D01*
X148899443Y-64629700D01*
X148906334Y-64630127D01*
X148909608Y-64629991D01*
X148909609Y-64629992D01*
X148914059Y-64629807D01*
X148919267Y-64629700D01*
X149385900Y-64629700D01*
X149454021Y-64649702D01*
X149500514Y-64703358D01*
X149511900Y-64755700D01*
X149511900Y-65123263D01*
X149511901Y-65123273D01*
X149526888Y-65198619D01*
X149526888Y-65247780D01*
X149511900Y-65323127D01*
X149511900Y-65773263D01*
X149511901Y-65773273D01*
X149526888Y-65848619D01*
X149526888Y-65897780D01*
X149511900Y-65973127D01*
X149511900Y-66423263D01*
X149511901Y-66423273D01*
X149526888Y-66498619D01*
X149526888Y-66547780D01*
X149511900Y-66623127D01*
X149511900Y-66623133D01*
X149511900Y-66809067D01*
X149511901Y-66990700D01*
X149491899Y-67058820D01*
X149438244Y-67105313D01*
X149391315Y-67115522D01*
X149391377Y-67116270D01*
X149386186Y-67116699D01*
X149365357Y-67120175D01*
X149360209Y-67120925D01*
X149307437Y-67127503D01*
X149299785Y-67129781D01*
X149292214Y-67132381D01*
X149245463Y-67157681D01*
X149240839Y-67160061D01*
X149193056Y-67183422D01*
X149186536Y-67188077D01*
X149180236Y-67192981D01*
X149144232Y-67232091D01*
X149140628Y-67235848D01*
X148992452Y-67384023D01*
X148972279Y-67400406D01*
X148963046Y-67406438D01*
X148963044Y-67406440D01*
X148943290Y-67431819D01*
X148932968Y-67443508D01*
X148932887Y-67443588D01*
X148920612Y-67460780D01*
X148917503Y-67464950D01*
X148884842Y-67506913D01*
X148881030Y-67513958D01*
X148877525Y-67521127D01*
X148862349Y-67572100D01*
X148860762Y-67577054D01*
X148843499Y-67627342D01*
X148842184Y-67635218D01*
X148841194Y-67643160D01*
X148843392Y-67696272D01*
X148843500Y-67701480D01*
X148843500Y-81490100D01*
X148823498Y-81558221D01*
X148769842Y-81604714D01*
X148717500Y-81616100D01*
X148662927Y-81616100D01*
X148508609Y-81654136D01*
X148508602Y-81654139D01*
X148367874Y-81727998D01*
X148367869Y-81728002D01*
X148248901Y-81833400D01*
X148158615Y-81964201D01*
X148158612Y-81964207D01*
X148102249Y-82112820D01*
X148083093Y-82270596D01*
X148083093Y-82270603D01*
X148102249Y-82428379D01*
X148131887Y-82506525D01*
X148158613Y-82576995D01*
X148248902Y-82707801D01*
X148367871Y-82813199D01*
X148367872Y-82813199D01*
X148367874Y-82813201D01*
X148383144Y-82821215D01*
X148508607Y-82887063D01*
X148662929Y-82925100D01*
X148662930Y-82925100D01*
X148821870Y-82925100D01*
X148821871Y-82925100D01*
X148976193Y-82887063D01*
X149116929Y-82813199D01*
X149235898Y-82707801D01*
X149326187Y-82576995D01*
X149382549Y-82428382D01*
X149382549Y-82428381D01*
X149382550Y-82428379D01*
X149401707Y-82270602D01*
X149401707Y-82270597D01*
X149396132Y-82224685D01*
X149407777Y-82154650D01*
X149432115Y-82120405D01*
X149457542Y-82094978D01*
X149477718Y-82078594D01*
X149486956Y-82072560D01*
X149506710Y-82047178D01*
X149517056Y-82035465D01*
X149517113Y-82035409D01*
X149529400Y-82018197D01*
X149532466Y-82014086D01*
X149565158Y-81972085D01*
X149565159Y-81972079D01*
X149568957Y-81965064D01*
X149572470Y-81957876D01*
X149572475Y-81957870D01*
X149587656Y-81906873D01*
X149589221Y-81901989D01*
X149606500Y-81851661D01*
X149606500Y-81851655D01*
X149607819Y-81843749D01*
X149608805Y-81835843D01*
X149607612Y-81807012D01*
X149606608Y-81782727D01*
X149606500Y-81777519D01*
X149606500Y-68728439D01*
X149626502Y-68660318D01*
X149680158Y-68613825D01*
X149735143Y-68604670D01*
X149735143Y-68602700D01*
X149741332Y-68602699D01*
X149741333Y-68602700D01*
X150791466Y-68602699D01*
X150791469Y-68602698D01*
X150791473Y-68602698D01*
X150828326Y-68595367D01*
X150865701Y-68587934D01*
X150921074Y-68550934D01*
X150988825Y-68529720D01*
X150991075Y-68529700D01*
X151674924Y-68529700D01*
X151743045Y-68549702D01*
X151774235Y-68579880D01*
X151774446Y-68579694D01*
X151776861Y-68582420D01*
X151778616Y-68584118D01*
X151779502Y-68585401D01*
X151898471Y-68690799D01*
X151898472Y-68690799D01*
X151898474Y-68690801D01*
X151949780Y-68717728D01*
X152039207Y-68764663D01*
X152193529Y-68802700D01*
X152193530Y-68802700D01*
X152352470Y-68802700D01*
X152352471Y-68802700D01*
X152506793Y-68764663D01*
X152647529Y-68690799D01*
X152766498Y-68585401D01*
X152856787Y-68454595D01*
X152913149Y-68305982D01*
X152913149Y-68305981D01*
X152913150Y-68305979D01*
X152922572Y-68228378D01*
X152950638Y-68163165D01*
X153009507Y-68123478D01*
X153080486Y-68121918D01*
X153136748Y-68154470D01*
X153327795Y-68345517D01*
X153361821Y-68407829D01*
X153364700Y-68434612D01*
X153364700Y-69994015D01*
X153344698Y-70062136D01*
X153291042Y-70108629D01*
X153251202Y-70118433D01*
X153251300Y-70119340D01*
X153187860Y-70126159D01*
X153187858Y-70126159D01*
X153051933Y-70176857D01*
X152935796Y-70263796D01*
X152848857Y-70379934D01*
X152798162Y-70515850D01*
X152798160Y-70515858D01*
X152791700Y-70575937D01*
X152791700Y-71372446D01*
X152791702Y-71372470D01*
X152798159Y-71432539D01*
X152798159Y-71432541D01*
X152848857Y-71568466D01*
X152869992Y-71596699D01*
X152935796Y-71684604D01*
X153051933Y-71771542D01*
X153187858Y-71822240D01*
X153247945Y-71828700D01*
X154244454Y-71828699D01*
X154304542Y-71822240D01*
X154440467Y-71771542D01*
X154556604Y-71684604D01*
X154632740Y-71582896D01*
X154689572Y-71540352D01*
X154760387Y-71535286D01*
X154822700Y-71569310D01*
X154834474Y-71582898D01*
X154859670Y-71616556D01*
X154891596Y-71659204D01*
X155007733Y-71746142D01*
X155143658Y-71796840D01*
X155203745Y-71803300D01*
X156200254Y-71803299D01*
X156260342Y-71796840D01*
X156396267Y-71746142D01*
X156512404Y-71659204D01*
X156596365Y-71547043D01*
X156653197Y-71504499D01*
X156724013Y-71499433D01*
X156786325Y-71533457D01*
X156807817Y-71562166D01*
X156811256Y-71568464D01*
X156811257Y-71568466D01*
X156811258Y-71568467D01*
X156898196Y-71684604D01*
X157014333Y-71771542D01*
X157150258Y-71822240D01*
X157210345Y-71828700D01*
X158206854Y-71828699D01*
X158266942Y-71822240D01*
X158402867Y-71771542D01*
X158519004Y-71684604D01*
X158605942Y-71568467D01*
X158656640Y-71432542D01*
X158663100Y-71372455D01*
X158663099Y-70575946D01*
X158656640Y-70515858D01*
X158605942Y-70379933D01*
X158519004Y-70263796D01*
X158402867Y-70176858D01*
X158402865Y-70176857D01*
X158402866Y-70176857D01*
X158266949Y-70126162D01*
X158266944Y-70126160D01*
X158266942Y-70126160D01*
X158244306Y-70123726D01*
X158203499Y-70119339D01*
X158203660Y-70117839D01*
X158142354Y-70096178D01*
X158098827Y-70040090D01*
X158090100Y-69994014D01*
X158090100Y-68738412D01*
X158110102Y-68670291D01*
X158163758Y-68623798D01*
X158234032Y-68613694D01*
X158298612Y-68643188D01*
X158305195Y-68649317D01*
X160058795Y-70402917D01*
X160092821Y-70465229D01*
X160095700Y-70492012D01*
X160095700Y-76942811D01*
X160095981Y-76944499D01*
X160097700Y-76965234D01*
X160097700Y-81583173D01*
X160095018Y-81609030D01*
X160092780Y-81619699D01*
X160096732Y-81651393D01*
X160097700Y-81666981D01*
X160097700Y-81667043D01*
X160099388Y-81677161D01*
X160101156Y-81687759D01*
X160101905Y-81692902D01*
X160108447Y-81745381D01*
X160110717Y-81753006D01*
X160113299Y-81760528D01*
X160138455Y-81807012D01*
X160140837Y-81811638D01*
X160164075Y-81859170D01*
X160168693Y-81865638D01*
X160173576Y-81871912D01*
X160212484Y-81907729D01*
X160216241Y-81911335D01*
X162762580Y-84457674D01*
X162778968Y-84477854D01*
X162784930Y-84486979D01*
X162784932Y-84486982D01*
X162810137Y-84506600D01*
X162821841Y-84516936D01*
X162821879Y-84516974D01*
X162821885Y-84516979D01*
X162821886Y-84516980D01*
X162838993Y-84529193D01*
X162843141Y-84532287D01*
X162859396Y-84544939D01*
X162884880Y-84564775D01*
X162891860Y-84568552D01*
X162899015Y-84572049D01*
X162899020Y-84572053D01*
X162908127Y-84574764D01*
X162949697Y-84587140D01*
X162954660Y-84588730D01*
X162977298Y-84596501D01*
X163004673Y-84605900D01*
X163004680Y-84605900D01*
X163012485Y-84607203D01*
X163020407Y-84608190D01*
X163020409Y-84608191D01*
X163020410Y-84608190D01*
X163020411Y-84608191D01*
X163073199Y-84606008D01*
X163078406Y-84605900D01*
X164382616Y-84605900D01*
X164450737Y-84625902D01*
X164471711Y-84642805D01*
X167756995Y-87928089D01*
X167791021Y-87990401D01*
X167793900Y-88017184D01*
X167793900Y-92237386D01*
X167773898Y-92305507D01*
X167768770Y-92312893D01*
X167733257Y-92360334D01*
X167682562Y-92496250D01*
X167682560Y-92496258D01*
X167676100Y-92556337D01*
X167676100Y-92940478D01*
X167656098Y-93008599D01*
X167602442Y-93055092D01*
X167532168Y-93065196D01*
X167467588Y-93035702D01*
X167466616Y-93034852D01*
X167404929Y-92980201D01*
X167404928Y-92980200D01*
X167404925Y-92980198D01*
X167264197Y-92906339D01*
X167264195Y-92906338D01*
X167264193Y-92906337D01*
X167264191Y-92906336D01*
X167264190Y-92906336D01*
X167109872Y-92868300D01*
X167109871Y-92868300D01*
X166950929Y-92868300D01*
X166950927Y-92868300D01*
X166796609Y-92906336D01*
X166796602Y-92906339D01*
X166655874Y-92980198D01*
X166655869Y-92980202D01*
X166536901Y-93085600D01*
X166446615Y-93216401D01*
X166446612Y-93216407D01*
X166390249Y-93365020D01*
X166371093Y-93522796D01*
X166371093Y-93522803D01*
X166390249Y-93680579D01*
X166429344Y-93783660D01*
X166443770Y-93821700D01*
X166446612Y-93829192D01*
X166446615Y-93829198D01*
X166536900Y-93959999D01*
X166536901Y-93960000D01*
X166536902Y-93960001D01*
X166608455Y-94023392D01*
X166646179Y-94083534D01*
X166650900Y-94117702D01*
X166650900Y-94308573D01*
X166648218Y-94334430D01*
X166645980Y-94345099D01*
X166649932Y-94376793D01*
X166650900Y-94392381D01*
X166650900Y-94392443D01*
X166652588Y-94402561D01*
X166654356Y-94413159D01*
X166655105Y-94418302D01*
X166661647Y-94470781D01*
X166663917Y-94478406D01*
X166666499Y-94485928D01*
X166691655Y-94532412D01*
X166694037Y-94537038D01*
X166717275Y-94584570D01*
X166721893Y-94591038D01*
X166726776Y-94597312D01*
X166765684Y-94633129D01*
X166769441Y-94636735D01*
X167318580Y-95185874D01*
X167334968Y-95206054D01*
X167340930Y-95215179D01*
X167340932Y-95215182D01*
X167366137Y-95234800D01*
X167377841Y-95245136D01*
X167377879Y-95245174D01*
X167377885Y-95245179D01*
X167377886Y-95245180D01*
X167394993Y-95257393D01*
X167399141Y-95260487D01*
X167415396Y-95273139D01*
X167440880Y-95292975D01*
X167447876Y-95296760D01*
X167455017Y-95300251D01*
X167455020Y-95300253D01*
X167505708Y-95315343D01*
X167510624Y-95316918D01*
X167560673Y-95334100D01*
X167560677Y-95334100D01*
X167568503Y-95335406D01*
X167576405Y-95336390D01*
X167576409Y-95336392D01*
X167576412Y-95336391D01*
X167582006Y-95337089D01*
X167647130Y-95365362D01*
X167684479Y-95418089D01*
X167733257Y-95548865D01*
X167733258Y-95548867D01*
X167820196Y-95665004D01*
X167936333Y-95751942D01*
X168072258Y-95802640D01*
X168132345Y-95809100D01*
X169128854Y-95809099D01*
X169188942Y-95802640D01*
X169324867Y-95751942D01*
X169441004Y-95665004D01*
X169446631Y-95657486D01*
X169503466Y-95614940D01*
X169574282Y-95609874D01*
X169636595Y-95643899D01*
X169670620Y-95706211D01*
X169673500Y-95732995D01*
X169673500Y-101995678D01*
X169653498Y-102063799D01*
X169599842Y-102110292D01*
X169547999Y-102121677D01*
X134670070Y-102259899D01*
X134601871Y-102240167D01*
X134555166Y-102186696D01*
X134543571Y-102134131D01*
X134539440Y-99847400D01*
X159682491Y-99847400D01*
X159702899Y-100132753D01*
X159763711Y-100412302D01*
X159863688Y-100680351D01*
X160000797Y-100931447D01*
X160107482Y-101073961D01*
X160107483Y-101073962D01*
X161010403Y-100171041D01*
X161033659Y-100224953D01*
X161138356Y-100365585D01*
X161272662Y-100478282D01*
X161364265Y-100524286D01*
X160461036Y-101427515D01*
X160461037Y-101427516D01*
X160603552Y-101534202D01*
X160854649Y-101671311D01*
X160854648Y-101671311D01*
X161122697Y-101771288D01*
X161402246Y-101832100D01*
X161687600Y-101852508D01*
X161972953Y-101832100D01*
X162252502Y-101771288D01*
X162520551Y-101671311D01*
X162771643Y-101534205D01*
X162914161Y-101427515D01*
X162914162Y-101427515D01*
X162013546Y-100526898D01*
X162026491Y-100522187D01*
X162172973Y-100425845D01*
X162293288Y-100298318D01*
X162366047Y-100172294D01*
X163267715Y-101073962D01*
X163267715Y-101073961D01*
X163374405Y-100931443D01*
X163511511Y-100680351D01*
X163611488Y-100412302D01*
X163672300Y-100132753D01*
X163692708Y-99847400D01*
X163672300Y-99562046D01*
X163611488Y-99282497D01*
X163511511Y-99014448D01*
X163374402Y-98763352D01*
X163267716Y-98620837D01*
X163267715Y-98620836D01*
X162364795Y-99523756D01*
X162341541Y-99469847D01*
X162236844Y-99329215D01*
X162102538Y-99216518D01*
X162010933Y-99170512D01*
X162914162Y-98267283D01*
X162914161Y-98267282D01*
X162771647Y-98160597D01*
X162520550Y-98023488D01*
X162520551Y-98023488D01*
X162252502Y-97923511D01*
X161972953Y-97862699D01*
X161687600Y-97842291D01*
X161402246Y-97862699D01*
X161122697Y-97923511D01*
X160854648Y-98023488D01*
X160603560Y-98160592D01*
X160461036Y-98267283D01*
X161361654Y-99167901D01*
X161348709Y-99172613D01*
X161202227Y-99268955D01*
X161081912Y-99396482D01*
X161009152Y-99522505D01*
X160107483Y-98620836D01*
X160000792Y-98763360D01*
X159863688Y-99014448D01*
X159763711Y-99282497D01*
X159702899Y-99562046D01*
X159682491Y-99847400D01*
X134539440Y-99847400D01*
X134527371Y-93167203D01*
X143079293Y-93167203D01*
X143098449Y-93324979D01*
X143115941Y-93371100D01*
X143154813Y-93473595D01*
X143245102Y-93604401D01*
X143364071Y-93709799D01*
X143364072Y-93709799D01*
X143364074Y-93709801D01*
X143436661Y-93747897D01*
X143504807Y-93783663D01*
X143659129Y-93821700D01*
X143659130Y-93821700D01*
X143818070Y-93821700D01*
X143818071Y-93821700D01*
X143972393Y-93783663D01*
X144113129Y-93709799D01*
X144232098Y-93604401D01*
X144232101Y-93604397D01*
X144233328Y-93602620D01*
X144234560Y-93601621D01*
X144237154Y-93598694D01*
X144237640Y-93599125D01*
X144288488Y-93557922D01*
X144337021Y-93548200D01*
X145666581Y-93548200D01*
X145734702Y-93568202D01*
X145770277Y-93602624D01*
X145797800Y-93642499D01*
X145797803Y-93642502D01*
X145817324Y-93659796D01*
X145916771Y-93747899D01*
X145916772Y-93747899D01*
X145916774Y-93747901D01*
X145991500Y-93787120D01*
X146057507Y-93821763D01*
X146211829Y-93859800D01*
X146211830Y-93859800D01*
X146370770Y-93859800D01*
X146370771Y-93859800D01*
X146525093Y-93821763D01*
X146665829Y-93747899D01*
X146784798Y-93642501D01*
X146812323Y-93602624D01*
X146867481Y-93557924D01*
X146916019Y-93548200D01*
X147974047Y-93548200D01*
X148042168Y-93568202D01*
X148077743Y-93602624D01*
X148096500Y-93629799D01*
X148096502Y-93629801D01*
X148215471Y-93735199D01*
X148215472Y-93735199D01*
X148215474Y-93735201D01*
X148290200Y-93774420D01*
X148356207Y-93809063D01*
X148510529Y-93847100D01*
X148510530Y-93847100D01*
X148669470Y-93847100D01*
X148669471Y-93847100D01*
X148823793Y-93809063D01*
X148964529Y-93735199D01*
X149083498Y-93629801D01*
X149173787Y-93498995D01*
X149230149Y-93350382D01*
X149230149Y-93350381D01*
X149230150Y-93350379D01*
X149249307Y-93192600D01*
X149249307Y-93192597D01*
X149243732Y-93146685D01*
X149255377Y-93076650D01*
X149279715Y-93042405D01*
X150474720Y-91847400D01*
X159928180Y-91847400D01*
X159947831Y-92109631D01*
X160006346Y-92365999D01*
X160006347Y-92366002D01*
X160102413Y-92610777D01*
X160102415Y-92610781D01*
X160233896Y-92838513D01*
X160233898Y-92838516D01*
X160233899Y-92838517D01*
X160287983Y-92906336D01*
X160397857Y-93044114D01*
X160530510Y-93167196D01*
X160590620Y-93222970D01*
X160590626Y-93222974D01*
X160807880Y-93371096D01*
X160807887Y-93371100D01*
X160807890Y-93371102D01*
X161044812Y-93485198D01*
X161251221Y-93548867D01*
X161296085Y-93562706D01*
X161296092Y-93562708D01*
X161556118Y-93601900D01*
X161556122Y-93601900D01*
X161819078Y-93601900D01*
X161819082Y-93601900D01*
X162079108Y-93562708D01*
X162330388Y-93485198D01*
X162567310Y-93371102D01*
X162784580Y-93222970D01*
X162977346Y-93044110D01*
X163141301Y-92838517D01*
X163272783Y-92610784D01*
X163294146Y-92556353D01*
X163368852Y-92366002D01*
X163368854Y-92365998D01*
X163427369Y-92109628D01*
X163447020Y-91847400D01*
X163427369Y-91585172D01*
X163368854Y-91328802D01*
X163314920Y-91191379D01*
X163272786Y-91084022D01*
X163272784Y-91084018D01*
X163141303Y-90856286D01*
X163096617Y-90800252D01*
X162977346Y-90650690D01*
X162977345Y-90650689D01*
X162977342Y-90650685D01*
X162826646Y-90510861D01*
X162784580Y-90471830D01*
X162773665Y-90464388D01*
X162567319Y-90323703D01*
X162567312Y-90323699D01*
X162330393Y-90209604D01*
X162330390Y-90209603D01*
X162330388Y-90209602D01*
X162242496Y-90182490D01*
X162079114Y-90132093D01*
X162079109Y-90132092D01*
X162079108Y-90132092D01*
X161819082Y-90092900D01*
X161556118Y-90092900D01*
X161296092Y-90132092D01*
X161296091Y-90132092D01*
X161296085Y-90132093D01*
X161044806Y-90209604D01*
X160807887Y-90323699D01*
X160807880Y-90323703D01*
X160590626Y-90471825D01*
X160590614Y-90471835D01*
X160397857Y-90650685D01*
X160233896Y-90856286D01*
X160102415Y-91084018D01*
X160102413Y-91084022D01*
X160006347Y-91328797D01*
X160006346Y-91328800D01*
X159947831Y-91585168D01*
X159928180Y-91847400D01*
X150474720Y-91847400D01*
X158169745Y-84152376D01*
X158189921Y-84135993D01*
X158199156Y-84129960D01*
X158218901Y-84104590D01*
X158229251Y-84092871D01*
X158229314Y-84092809D01*
X158241597Y-84075604D01*
X158244682Y-84071465D01*
X158277358Y-84029485D01*
X158277359Y-84029479D01*
X158281156Y-84022465D01*
X158284670Y-84015276D01*
X158284675Y-84015270D01*
X158299855Y-83964276D01*
X158301420Y-83959391D01*
X158318700Y-83909061D01*
X158318700Y-83909055D01*
X158320019Y-83901152D01*
X158321005Y-83893242D01*
X158318808Y-83840126D01*
X158318700Y-83834918D01*
X158318700Y-73890417D01*
X158338702Y-73822296D01*
X158392358Y-73775803D01*
X158400650Y-73772368D01*
X158402867Y-73771542D01*
X158519004Y-73684604D01*
X158605942Y-73568467D01*
X158656640Y-73432542D01*
X158663100Y-73372455D01*
X158663099Y-72575946D01*
X158656640Y-72515858D01*
X158605942Y-72379933D01*
X158519004Y-72263796D01*
X158402867Y-72176858D01*
X158402865Y-72176857D01*
X158402866Y-72176857D01*
X158266949Y-72126162D01*
X158266944Y-72126160D01*
X158266942Y-72126160D01*
X158236898Y-72122930D01*
X158206856Y-72119700D01*
X157210353Y-72119700D01*
X157210329Y-72119702D01*
X157150260Y-72126159D01*
X157150258Y-72126159D01*
X157014333Y-72176857D01*
X156898197Y-72263794D01*
X156898196Y-72263796D01*
X156831641Y-72352705D01*
X156814237Y-72375954D01*
X156757401Y-72418500D01*
X156686585Y-72423566D01*
X156624273Y-72389541D01*
X156602780Y-72360830D01*
X156599341Y-72354532D01*
X156598709Y-72353688D01*
X156512404Y-72238396D01*
X156396267Y-72151458D01*
X156396265Y-72151457D01*
X156396266Y-72151457D01*
X156260349Y-72100762D01*
X156260344Y-72100760D01*
X156260342Y-72100760D01*
X156230298Y-72097530D01*
X156200256Y-72094300D01*
X155203753Y-72094300D01*
X155203729Y-72094302D01*
X155143660Y-72100759D01*
X155143658Y-72100759D01*
X155007733Y-72151457D01*
X154891597Y-72238394D01*
X154815462Y-72340101D01*
X154758626Y-72382647D01*
X154687810Y-72387713D01*
X154625498Y-72353688D01*
X154613727Y-72340105D01*
X154556604Y-72263796D01*
X154556602Y-72263795D01*
X154556602Y-72263794D01*
X154498204Y-72220078D01*
X154440467Y-72176858D01*
X154440465Y-72176857D01*
X154440466Y-72176857D01*
X154304549Y-72126162D01*
X154304544Y-72126160D01*
X154304542Y-72126160D01*
X154274498Y-72122930D01*
X154244456Y-72119700D01*
X153247953Y-72119700D01*
X153247929Y-72119702D01*
X153187860Y-72126159D01*
X153187858Y-72126159D01*
X153051933Y-72176857D01*
X152935796Y-72263796D01*
X152848857Y-72379934D01*
X152798162Y-72515850D01*
X152798160Y-72515858D01*
X152791700Y-72575937D01*
X152791700Y-73372446D01*
X152791702Y-73372470D01*
X152798159Y-73432539D01*
X152798159Y-73432541D01*
X152848857Y-73568466D01*
X152860779Y-73584392D01*
X152935796Y-73684604D01*
X153051933Y-73771542D01*
X153187858Y-73822240D01*
X153246260Y-73828518D01*
X153247935Y-73828699D01*
X153247945Y-73828700D01*
X153251302Y-73829061D01*
X153251137Y-73830593D01*
X153312335Y-73852141D01*
X153355923Y-73908182D01*
X153364700Y-73954385D01*
X153364700Y-82949386D01*
X153344698Y-83017507D01*
X153327795Y-83038481D01*
X143890481Y-92475795D01*
X143828169Y-92509821D01*
X143801386Y-92512700D01*
X143659127Y-92512700D01*
X143504809Y-92550736D01*
X143504802Y-92550739D01*
X143364074Y-92624598D01*
X143364069Y-92624602D01*
X143245101Y-92730000D01*
X143154815Y-92860801D01*
X143154812Y-92860807D01*
X143098449Y-93009420D01*
X143079293Y-93167196D01*
X143079293Y-93167203D01*
X134527371Y-93167203D01*
X134515700Y-86707050D01*
X134515700Y-73768808D01*
X134516492Y-73754701D01*
X134517456Y-73746142D01*
X134520513Y-73719014D01*
X134509790Y-73662345D01*
X134509005Y-73657725D01*
X134500414Y-73600721D01*
X134500413Y-73600718D01*
X134497889Y-73592537D01*
X134495042Y-73584403D01*
X134495041Y-73584393D01*
X134468080Y-73533380D01*
X134465990Y-73529240D01*
X134440967Y-73477279D01*
X134440964Y-73477276D01*
X134436114Y-73470162D01*
X134431022Y-73463264D01*
X134431021Y-73463261D01*
X134390277Y-73422517D01*
X134387008Y-73419124D01*
X134347777Y-73376843D01*
X134340396Y-73370957D01*
X134340929Y-73370287D01*
X134328538Y-73360778D01*
X130544835Y-69577074D01*
X130535418Y-69566537D01*
X130513032Y-69538465D01*
X130481581Y-69517022D01*
X130465379Y-69505975D01*
X130461542Y-69503252D01*
X130415247Y-69469086D01*
X130415173Y-69469031D01*
X130415168Y-69469029D01*
X130407538Y-69464996D01*
X130399826Y-69461283D01*
X130344741Y-69444292D01*
X130340264Y-69442819D01*
X130285850Y-69423778D01*
X130277421Y-69422183D01*
X130268905Y-69420900D01*
X130211268Y-69420900D01*
X130206557Y-69420812D01*
X130148935Y-69418655D01*
X130139552Y-69419713D01*
X130139456Y-69418861D01*
X130123973Y-69420900D01*
X121730031Y-69420900D01*
X121661910Y-69400898D01*
X121615417Y-69347242D01*
X121612741Y-69340932D01*
X121545588Y-69169826D01*
X121545584Y-69169818D01*
X121516824Y-69120005D01*
X121484425Y-69063887D01*
X121414103Y-68942086D01*
X121405317Y-68931069D01*
X121250146Y-68736490D01*
X121250145Y-68736489D01*
X121250142Y-68736485D01*
X121057385Y-68557635D01*
X121057380Y-68557630D01*
X121057373Y-68557625D01*
X120840119Y-68409503D01*
X120840112Y-68409499D01*
X120603193Y-68295404D01*
X120603190Y-68295403D01*
X120603188Y-68295402D01*
X120501279Y-68263967D01*
X120351914Y-68217893D01*
X120351909Y-68217892D01*
X120351908Y-68217892D01*
X120091882Y-68178700D01*
X119828918Y-68178700D01*
X119568892Y-68217892D01*
X119568891Y-68217892D01*
X119568885Y-68217893D01*
X119377159Y-68277034D01*
X119317612Y-68295402D01*
X119317610Y-68295402D01*
X119317603Y-68295405D01*
X119223614Y-68340668D01*
X119153561Y-68352203D01*
X119088392Y-68324034D01*
X119048798Y-68265103D01*
X119047350Y-68194121D01*
X119051655Y-68181113D01*
X119080987Y-68106375D01*
X119141654Y-67951798D01*
X119200169Y-67695428D01*
X119219820Y-67433200D01*
X119200169Y-67170972D01*
X119141654Y-66914602D01*
X119098159Y-66803777D01*
X119045586Y-66669822D01*
X119045584Y-66669818D01*
X119043691Y-66666540D01*
X118975125Y-66547780D01*
X118914103Y-66442086D01*
X118901832Y-66426699D01*
X118750146Y-66236490D01*
X118750145Y-66236489D01*
X118750142Y-66236485D01*
X118557385Y-66057635D01*
X118557380Y-66057630D01*
X118554552Y-66055702D01*
X118340119Y-65909503D01*
X118340112Y-65909499D01*
X118103193Y-65795404D01*
X118103190Y-65795403D01*
X118103188Y-65795402D01*
X118015296Y-65768290D01*
X117851914Y-65717893D01*
X117851909Y-65717892D01*
X117851908Y-65717892D01*
X117591882Y-65678700D01*
X117328918Y-65678700D01*
X117068892Y-65717892D01*
X117068891Y-65717892D01*
X117068885Y-65717893D01*
X116817606Y-65795404D01*
X116580687Y-65909499D01*
X116580680Y-65909503D01*
X116363426Y-66057625D01*
X116363414Y-66057635D01*
X116170657Y-66236485D01*
X116006696Y-66442086D01*
X115875215Y-66669818D01*
X115875213Y-66669822D01*
X115779147Y-66914597D01*
X115779146Y-66914600D01*
X115720631Y-67170968D01*
X115702985Y-67406440D01*
X115700980Y-67433200D01*
X115720631Y-67695428D01*
X115720632Y-67695431D01*
X115720632Y-67695432D01*
X115765139Y-67890433D01*
X115760797Y-67961296D01*
X115718832Y-68018563D01*
X115652568Y-68044051D01*
X115598265Y-68036526D01*
X115525300Y-68009311D01*
X115245753Y-67948499D01*
X114960400Y-67928091D01*
X114675046Y-67948499D01*
X114395497Y-68009311D01*
X114127448Y-68109288D01*
X113876360Y-68246392D01*
X113733836Y-68353083D01*
X114597291Y-69216538D01*
X114458452Y-69303777D01*
X114330977Y-69431252D01*
X114243738Y-69570091D01*
X113380283Y-68706636D01*
X113273592Y-68849160D01*
X113136488Y-69100248D01*
X113036511Y-69368297D01*
X112975699Y-69647846D01*
X112955291Y-69933200D01*
X112975699Y-70218553D01*
X113036511Y-70498102D01*
X113136488Y-70766151D01*
X113273597Y-71017247D01*
X113380282Y-71159761D01*
X113380283Y-71159762D01*
X114243738Y-70296307D01*
X114330977Y-70435148D01*
X114458452Y-70562623D01*
X114597290Y-70649860D01*
X113733836Y-71513315D01*
X113825096Y-71581632D01*
X113867642Y-71638468D01*
X113872706Y-71709284D01*
X113838681Y-71771596D01*
X113776368Y-71805621D01*
X113749586Y-71808500D01*
X112635451Y-71808500D01*
X112567330Y-71788498D01*
X112546355Y-71771595D01*
X111768804Y-70994043D01*
X111734779Y-70931731D01*
X111731900Y-70904948D01*
X111731900Y-65582800D01*
X126304634Y-65582800D01*
X126324459Y-65809402D01*
X126383332Y-66029123D01*
X126383334Y-66029128D01*
X126479465Y-66235282D01*
X126530574Y-66308271D01*
X127211646Y-65627199D01*
X127224435Y-65707948D01*
X127281959Y-65820845D01*
X127371555Y-65910441D01*
X127484452Y-65967965D01*
X127565199Y-65980753D01*
X126884127Y-66661824D01*
X126884127Y-66661825D01*
X126957118Y-66712934D01*
X126957117Y-66712934D01*
X127163271Y-66809065D01*
X127163276Y-66809067D01*
X127382997Y-66867940D01*
X127609600Y-66887765D01*
X127836202Y-66867940D01*
X128055923Y-66809067D01*
X128055928Y-66809065D01*
X128262082Y-66712934D01*
X128262083Y-66712933D01*
X128335071Y-66661825D01*
X128335071Y-66661823D01*
X127654001Y-65980753D01*
X127734748Y-65967965D01*
X127847645Y-65910441D01*
X127937241Y-65820845D01*
X127994765Y-65707948D01*
X128007553Y-65627201D01*
X128688623Y-66308271D01*
X128688625Y-66308271D01*
X128739733Y-66235283D01*
X128739734Y-66235282D01*
X128835865Y-66029128D01*
X128835867Y-66029123D01*
X128894740Y-65809402D01*
X128914565Y-65582800D01*
X128894740Y-65356197D01*
X128835867Y-65136476D01*
X128835865Y-65136471D01*
X128739734Y-64930317D01*
X128688624Y-64857327D01*
X128007553Y-65538398D01*
X127994765Y-65457652D01*
X127937241Y-65344755D01*
X127847645Y-65255159D01*
X127734748Y-65197635D01*
X127654000Y-65184846D01*
X128335071Y-64503774D01*
X128335071Y-64503773D01*
X128262081Y-64452665D01*
X128262082Y-64452665D01*
X128100876Y-64377494D01*
X128047591Y-64330577D01*
X128028130Y-64262299D01*
X128048672Y-64194340D01*
X128102695Y-64148274D01*
X128154125Y-64137299D01*
X128434666Y-64137299D01*
X128434669Y-64137298D01*
X128434673Y-64137298D01*
X128483926Y-64127501D01*
X128508901Y-64122534D01*
X128593084Y-64066284D01*
X128649334Y-63982101D01*
X128664100Y-63907867D01*
X128664100Y-63648700D01*
X128684102Y-63580579D01*
X128737758Y-63534086D01*
X128790100Y-63522700D01*
X131266726Y-63522700D01*
X131334847Y-63542702D01*
X131381340Y-63596358D01*
X131389349Y-63619722D01*
X131390959Y-63626535D01*
X131390960Y-63626542D01*
X131390962Y-63626547D01*
X131441657Y-63762466D01*
X131441658Y-63762467D01*
X131528596Y-63878604D01*
X131644733Y-63965542D01*
X131780658Y-64016240D01*
X131840745Y-64022700D01*
X132637254Y-64022699D01*
X132697342Y-64016240D01*
X132833267Y-63965542D01*
X132949404Y-63878604D01*
X133036342Y-63762467D01*
X133087040Y-63626542D01*
X133093500Y-63566455D01*
X133093500Y-63566446D01*
X133384500Y-63566446D01*
X133384502Y-63566470D01*
X133390959Y-63626539D01*
X133390959Y-63626541D01*
X133441657Y-63762466D01*
X133441658Y-63762467D01*
X133528596Y-63878604D01*
X133644733Y-63965542D01*
X133780658Y-64016240D01*
X133840745Y-64022700D01*
X134637254Y-64022699D01*
X134697342Y-64016240D01*
X134833267Y-63965542D01*
X134949404Y-63878604D01*
X135036342Y-63762467D01*
X135049738Y-63726551D01*
X135092282Y-63669718D01*
X135158803Y-63644907D01*
X135226345Y-63659018D01*
X135275207Y-63684663D01*
X135429529Y-63722700D01*
X135429530Y-63722700D01*
X135588470Y-63722700D01*
X135588471Y-63722700D01*
X135742793Y-63684663D01*
X135883529Y-63610799D01*
X136002498Y-63505401D01*
X136092787Y-63374595D01*
X136149149Y-63225982D01*
X136149149Y-63225981D01*
X136149150Y-63225979D01*
X136168307Y-63068203D01*
X136168307Y-63068196D01*
X136149150Y-62910420D01*
X136114790Y-62819822D01*
X136092787Y-62761805D01*
X136002498Y-62630999D01*
X135883529Y-62525601D01*
X135883528Y-62525600D01*
X135883525Y-62525598D01*
X135742797Y-62451739D01*
X135742795Y-62451738D01*
X135742793Y-62451737D01*
X135742791Y-62451736D01*
X135742790Y-62451736D01*
X135588472Y-62413700D01*
X135588471Y-62413700D01*
X135429529Y-62413700D01*
X135429527Y-62413700D01*
X135275209Y-62451736D01*
X135275208Y-62451736D01*
X135244329Y-62467942D01*
X135226346Y-62477381D01*
X135156733Y-62491327D01*
X135090631Y-62465423D01*
X135049738Y-62409848D01*
X135036342Y-62373933D01*
X134949404Y-62257796D01*
X134833267Y-62170858D01*
X134833265Y-62170857D01*
X134833266Y-62170857D01*
X134697349Y-62120162D01*
X134697344Y-62120160D01*
X134697342Y-62120160D01*
X134667298Y-62116930D01*
X134637256Y-62113700D01*
X133840753Y-62113700D01*
X133840729Y-62113702D01*
X133780660Y-62120159D01*
X133780658Y-62120159D01*
X133644733Y-62170857D01*
X133528596Y-62257796D01*
X133441657Y-62373934D01*
X133390962Y-62509850D01*
X133390960Y-62509858D01*
X133384500Y-62569937D01*
X133384500Y-63566446D01*
X133093500Y-63566446D01*
X133093499Y-62569946D01*
X133087040Y-62509858D01*
X133036342Y-62373933D01*
X132949404Y-62257796D01*
X132833267Y-62170858D01*
X132833265Y-62170857D01*
X132833266Y-62170857D01*
X132697349Y-62120162D01*
X132697344Y-62120160D01*
X132697342Y-62120160D01*
X132667298Y-62116930D01*
X132637256Y-62113700D01*
X131840753Y-62113700D01*
X131840729Y-62113702D01*
X131780660Y-62120159D01*
X131780658Y-62120159D01*
X131644733Y-62170857D01*
X131528596Y-62257796D01*
X131441657Y-62373934D01*
X131390961Y-62509853D01*
X131389349Y-62516676D01*
X131354217Y-62578371D01*
X131291308Y-62611279D01*
X131266726Y-62613700D01*
X128790099Y-62613700D01*
X128721978Y-62593698D01*
X128675485Y-62540042D01*
X128664099Y-62487700D01*
X128664099Y-62257736D01*
X128664098Y-62257727D01*
X128649334Y-62183499D01*
X128615091Y-62132252D01*
X128593084Y-62099316D01*
X128593083Y-62099315D01*
X128508902Y-62043066D01*
X128434667Y-62028300D01*
X126784536Y-62028300D01*
X126784526Y-62028301D01*
X126710299Y-62043065D01*
X126626115Y-62099316D01*
X126569866Y-62183497D01*
X126555100Y-62257730D01*
X126555100Y-63907863D01*
X126555101Y-63907873D01*
X126569865Y-63982100D01*
X126626116Y-64066284D01*
X126710297Y-64122533D01*
X126710299Y-64122534D01*
X126784533Y-64137300D01*
X127065074Y-64137299D01*
X127133192Y-64157301D01*
X127179685Y-64210956D01*
X127189790Y-64281230D01*
X127160297Y-64345811D01*
X127118322Y-64377494D01*
X126957113Y-64452667D01*
X126884127Y-64503772D01*
X126884127Y-64503775D01*
X127565198Y-65184846D01*
X127484452Y-65197635D01*
X127371555Y-65255159D01*
X127281959Y-65344755D01*
X127224435Y-65457652D01*
X127211646Y-65538398D01*
X126530575Y-64857327D01*
X126530572Y-64857327D01*
X126479467Y-64930313D01*
X126383334Y-65136471D01*
X126383332Y-65136476D01*
X126324459Y-65356197D01*
X126304634Y-65582800D01*
X111731900Y-65582800D01*
X111731900Y-62433200D01*
X112955291Y-62433200D01*
X112975699Y-62718553D01*
X113036511Y-62998102D01*
X113136488Y-63266151D01*
X113273597Y-63517247D01*
X113380282Y-63659761D01*
X113380283Y-63659762D01*
X114243738Y-62796307D01*
X114330977Y-62935148D01*
X114458452Y-63062623D01*
X114597290Y-63149860D01*
X113733836Y-64013315D01*
X113733837Y-64013316D01*
X113876352Y-64120002D01*
X114127449Y-64257111D01*
X114127448Y-64257111D01*
X114395497Y-64357088D01*
X114675046Y-64417900D01*
X114960400Y-64438308D01*
X115245753Y-64417900D01*
X115525302Y-64357088D01*
X115793351Y-64257111D01*
X116044443Y-64120005D01*
X116186961Y-64013315D01*
X116186962Y-64013315D01*
X115323508Y-63149861D01*
X115462348Y-63062623D01*
X115589823Y-62935148D01*
X115677061Y-62796308D01*
X116540515Y-63659762D01*
X116540515Y-63659761D01*
X116647205Y-63517243D01*
X116784311Y-63266151D01*
X116884288Y-62998102D01*
X116945100Y-62718553D01*
X116965508Y-62433200D01*
X116945100Y-62147846D01*
X116884288Y-61868297D01*
X116784311Y-61600248D01*
X116647202Y-61349152D01*
X116540516Y-61206637D01*
X116540515Y-61206636D01*
X115677060Y-62070090D01*
X115589823Y-61931252D01*
X115462348Y-61803777D01*
X115323508Y-61716538D01*
X115978442Y-61061603D01*
X135586293Y-61061603D01*
X135605449Y-61219379D01*
X135654047Y-61347519D01*
X135661813Y-61367995D01*
X135752102Y-61498801D01*
X135871071Y-61604199D01*
X135871072Y-61604199D01*
X135871074Y-61604201D01*
X135920625Y-61630207D01*
X136011807Y-61678063D01*
X136166129Y-61716100D01*
X136166130Y-61716100D01*
X136308388Y-61716100D01*
X136376509Y-61736102D01*
X136397483Y-61753005D01*
X137427395Y-62782917D01*
X137461421Y-62845229D01*
X137464300Y-62872012D01*
X137464300Y-70584766D01*
X137461618Y-70610623D01*
X137459354Y-70621416D01*
X137463332Y-70653321D01*
X137464300Y-70668908D01*
X137464300Y-70669013D01*
X137467775Y-70689841D01*
X137468525Y-70694990D01*
X137475103Y-70747757D01*
X137477388Y-70755432D01*
X137479980Y-70762981D01*
X137479981Y-70762984D01*
X137479982Y-70762986D01*
X137495356Y-70791395D01*
X137505292Y-70809755D01*
X137507674Y-70814384D01*
X137531023Y-70862145D01*
X137535668Y-70868651D01*
X137540582Y-70874964D01*
X137579704Y-70910978D01*
X137583463Y-70914585D01*
X142683595Y-76014717D01*
X142717621Y-76077029D01*
X142720500Y-76103812D01*
X142720500Y-90464388D01*
X142700498Y-90532509D01*
X142678055Y-90558699D01*
X142635504Y-90596396D01*
X142635500Y-90596400D01*
X142545215Y-90727201D01*
X142545212Y-90727207D01*
X142488849Y-90875820D01*
X142469693Y-91033594D01*
X142469693Y-91033603D01*
X142488849Y-91191379D01*
X142537447Y-91319519D01*
X142545213Y-91339995D01*
X142635502Y-91470801D01*
X142754471Y-91576199D01*
X142754472Y-91576199D01*
X142754474Y-91576201D01*
X142829200Y-91615420D01*
X142895207Y-91650063D01*
X143049529Y-91688100D01*
X143049530Y-91688100D01*
X143208470Y-91688100D01*
X143208471Y-91688100D01*
X143362793Y-91650063D01*
X143503529Y-91576199D01*
X143622498Y-91470801D01*
X143712787Y-91339995D01*
X143769149Y-91191382D01*
X143769149Y-91191381D01*
X143769150Y-91191379D01*
X143788307Y-91033603D01*
X143788307Y-91033594D01*
X143769150Y-90875820D01*
X143740490Y-90800252D01*
X143712787Y-90727205D01*
X143622498Y-90596399D01*
X143525945Y-90510860D01*
X143488221Y-90450716D01*
X143483500Y-90416549D01*
X143483500Y-75946233D01*
X143486182Y-75920373D01*
X143488445Y-75909581D01*
X143484468Y-75877678D01*
X143483500Y-75862091D01*
X143483500Y-75861988D01*
X143480024Y-75841160D01*
X143479277Y-75836040D01*
X143472696Y-75783239D01*
X143472695Y-75783237D01*
X143472695Y-75783235D01*
X143470417Y-75775585D01*
X143467818Y-75768014D01*
X143442519Y-75721266D01*
X143440135Y-75716635D01*
X143427651Y-75691100D01*
X143416776Y-75668854D01*
X143416775Y-75668853D01*
X143412127Y-75662342D01*
X143407221Y-75656039D01*
X143368081Y-75620008D01*
X143364324Y-75616402D01*
X138264205Y-70516282D01*
X138230179Y-70453970D01*
X138227300Y-70427187D01*
X138227300Y-62714434D01*
X138229982Y-62688574D01*
X138232245Y-62677782D01*
X138228268Y-62645879D01*
X138227300Y-62630292D01*
X138227300Y-62630194D01*
X138227300Y-62630189D01*
X138223824Y-62609364D01*
X138223076Y-62604239D01*
X138216496Y-62551440D01*
X138216494Y-62551435D01*
X138214214Y-62543775D01*
X138211619Y-62536217D01*
X138211618Y-62536215D01*
X138211618Y-62536214D01*
X138186303Y-62489436D01*
X138183938Y-62484840D01*
X138160577Y-62437054D01*
X138160575Y-62437052D01*
X138155947Y-62430568D01*
X138151020Y-62424238D01*
X138111893Y-62388219D01*
X138108136Y-62384613D01*
X136935318Y-61211795D01*
X136901292Y-61149483D01*
X136899332Y-61107511D01*
X136900274Y-61099758D01*
X136904907Y-61061600D01*
X136904907Y-61061596D01*
X136885750Y-60903820D01*
X136871497Y-60866240D01*
X136829387Y-60755205D01*
X136739098Y-60624399D01*
X136620129Y-60519001D01*
X136620128Y-60519000D01*
X136620125Y-60518998D01*
X136479397Y-60445139D01*
X136479395Y-60445138D01*
X136479393Y-60445137D01*
X136479391Y-60445136D01*
X136479390Y-60445136D01*
X136325072Y-60407100D01*
X136325071Y-60407100D01*
X136166129Y-60407100D01*
X136166127Y-60407100D01*
X136011809Y-60445136D01*
X136011802Y-60445139D01*
X135871074Y-60518998D01*
X135871069Y-60519002D01*
X135752101Y-60624400D01*
X135661815Y-60755201D01*
X135661812Y-60755207D01*
X135605449Y-60903820D01*
X135586293Y-61061596D01*
X135586293Y-61061603D01*
X115978442Y-61061603D01*
X116186962Y-60853083D01*
X116186961Y-60853082D01*
X116044447Y-60746397D01*
X115793350Y-60609288D01*
X115793351Y-60609288D01*
X115525302Y-60509311D01*
X115245753Y-60448499D01*
X114960400Y-60428091D01*
X114675046Y-60448499D01*
X114395497Y-60509311D01*
X114127448Y-60609288D01*
X113876360Y-60746392D01*
X113733836Y-60853083D01*
X114597291Y-61716538D01*
X114458452Y-61803777D01*
X114330977Y-61931252D01*
X114243738Y-62070091D01*
X113380283Y-61206636D01*
X113273592Y-61349160D01*
X113136488Y-61600248D01*
X113036511Y-61868297D01*
X112975699Y-62147846D01*
X112955291Y-62433200D01*
X111731900Y-62433200D01*
X111731900Y-54215450D01*
X111751902Y-54147329D01*
X111768805Y-54126355D01*
X113054355Y-52840805D01*
X113116667Y-52806779D01*
X113143450Y-52803900D01*
X114247857Y-52803900D01*
X114315978Y-52823902D01*
X114362471Y-52877558D01*
X114372575Y-52947832D01*
X114343081Y-53012412D01*
X114291889Y-53047956D01*
X114127448Y-53109288D01*
X113876360Y-53246392D01*
X113733836Y-53353083D01*
X114597291Y-54216538D01*
X114458452Y-54303777D01*
X114330977Y-54431252D01*
X114243738Y-54570091D01*
X113380283Y-53706636D01*
X113273592Y-53849160D01*
X113136488Y-54100248D01*
X113036511Y-54368297D01*
X112975699Y-54647846D01*
X112955291Y-54933200D01*
X112975699Y-55218553D01*
X113036511Y-55498102D01*
X113136488Y-55766151D01*
X113273597Y-56017247D01*
X113380282Y-56159761D01*
X113380283Y-56159762D01*
X114243738Y-55296307D01*
X114330977Y-55435148D01*
X114458452Y-55562623D01*
X114597291Y-55649861D01*
X113733836Y-56513315D01*
X113733837Y-56513316D01*
X113876352Y-56620002D01*
X114127449Y-56757111D01*
X114127448Y-56757111D01*
X114395497Y-56857088D01*
X114675046Y-56917900D01*
X114960400Y-56938308D01*
X115245753Y-56917900D01*
X115525303Y-56857087D01*
X115598264Y-56829874D01*
X115669080Y-56824808D01*
X115731392Y-56858832D01*
X115765418Y-56921144D01*
X115765139Y-56975966D01*
X115740505Y-57083897D01*
X115720631Y-57170972D01*
X115715681Y-57237026D01*
X115700980Y-57433200D01*
X115720631Y-57695431D01*
X115779146Y-57951799D01*
X115779147Y-57951802D01*
X115875213Y-58196577D01*
X115875215Y-58196581D01*
X116006696Y-58424313D01*
X116170657Y-58629914D01*
X116312826Y-58761826D01*
X116363420Y-58808770D01*
X116363426Y-58808774D01*
X116580680Y-58956896D01*
X116580687Y-58956900D01*
X116580690Y-58956902D01*
X116817612Y-59070998D01*
X117038307Y-59139073D01*
X117068885Y-59148506D01*
X117068892Y-59148508D01*
X117328918Y-59187700D01*
X117328922Y-59187700D01*
X117591878Y-59187700D01*
X117591882Y-59187700D01*
X117851908Y-59148508D01*
X118103188Y-59070998D01*
X118340110Y-58956902D01*
X118557380Y-58808770D01*
X118750146Y-58629910D01*
X118914101Y-58424317D01*
X119045583Y-58196584D01*
X119141654Y-57951798D01*
X119200169Y-57695428D01*
X119219820Y-57433200D01*
X119200169Y-57170972D01*
X119141654Y-56914602D01*
X119051655Y-56685286D01*
X119045387Y-56614566D01*
X119078348Y-56551685D01*
X119140073Y-56516606D01*
X119210964Y-56520466D01*
X119223610Y-56525729D01*
X119317612Y-56570998D01*
X119538307Y-56639073D01*
X119568885Y-56648506D01*
X119568892Y-56648508D01*
X119828918Y-56687700D01*
X119828922Y-56687700D01*
X120091878Y-56687700D01*
X120091882Y-56687700D01*
X120351908Y-56648508D01*
X120603188Y-56570998D01*
X120840110Y-56456902D01*
X121057380Y-56308770D01*
X121250146Y-56129910D01*
X121414101Y-55924317D01*
X121545583Y-55696584D01*
X121603191Y-55549800D01*
X126772390Y-55549800D01*
X126792803Y-55835224D01*
X126853631Y-56114846D01*
X126953632Y-56382960D01*
X126953637Y-56382970D01*
X127090768Y-56634107D01*
X127090772Y-56634112D01*
X127090774Y-56634115D01*
X127257689Y-56857088D01*
X127262262Y-56863196D01*
X127262270Y-56863205D01*
X127464594Y-57065529D01*
X127464603Y-57065537D01*
X127464605Y-57065539D01*
X127693685Y-57237026D01*
X127693687Y-57237027D01*
X127693692Y-57237031D01*
X127944829Y-57374162D01*
X127944839Y-57374167D01*
X128212954Y-57474169D01*
X128492572Y-57534996D01*
X128706552Y-57550300D01*
X128706558Y-57550300D01*
X128849442Y-57550300D01*
X128849448Y-57550300D01*
X129063428Y-57534996D01*
X129343046Y-57474169D01*
X129611161Y-57374167D01*
X129641144Y-57357794D01*
X129862307Y-57237031D01*
X129862309Y-57237029D01*
X129862315Y-57237026D01*
X130091395Y-57065539D01*
X130293739Y-56863195D01*
X130465226Y-56634115D01*
X130465229Y-56634109D01*
X130465231Y-56634107D01*
X130602362Y-56382970D01*
X130602367Y-56382961D01*
X130702369Y-56114846D01*
X130763196Y-55835228D01*
X130783610Y-55549800D01*
X130763196Y-55264372D01*
X130702369Y-54984754D01*
X130602367Y-54716639D01*
X130602362Y-54716629D01*
X130465231Y-54465492D01*
X130465227Y-54465487D01*
X130456329Y-54453600D01*
X130293739Y-54236405D01*
X130293737Y-54236403D01*
X130293729Y-54236394D01*
X130286339Y-54229004D01*
X136406368Y-54229004D01*
X136425254Y-54432819D01*
X136480945Y-54628552D01*
X136481272Y-54629701D01*
X136572512Y-54812935D01*
X136572513Y-54812936D01*
X136695866Y-54976284D01*
X136847136Y-55114185D01*
X137021166Y-55221940D01*
X137021168Y-55221940D01*
X137021173Y-55221944D01*
X137045906Y-55231525D01*
X137053617Y-55234513D01*
X137109912Y-55277772D01*
X137133882Y-55344600D01*
X137134100Y-55352004D01*
X137134100Y-56233766D01*
X137131418Y-56259623D01*
X137129154Y-56270416D01*
X137133132Y-56302321D01*
X137134100Y-56317908D01*
X137134100Y-56318013D01*
X137137575Y-56338841D01*
X137138325Y-56343990D01*
X137144903Y-56396757D01*
X137147188Y-56404432D01*
X137149780Y-56411981D01*
X137149781Y-56411984D01*
X137149782Y-56411986D01*
X137166070Y-56442083D01*
X137175092Y-56458755D01*
X137177474Y-56463384D01*
X137200823Y-56511145D01*
X137205468Y-56517651D01*
X137210382Y-56523964D01*
X137249504Y-56559978D01*
X137253263Y-56563585D01*
X138951395Y-58261717D01*
X138985421Y-58324029D01*
X138988300Y-58350812D01*
X138988300Y-69949766D01*
X138985618Y-69975623D01*
X138983354Y-69986416D01*
X138987332Y-70018321D01*
X138988300Y-70033908D01*
X138988300Y-70034013D01*
X138991775Y-70054841D01*
X138992525Y-70059990D01*
X138999103Y-70112757D01*
X139001388Y-70120432D01*
X139003980Y-70127981D01*
X139003981Y-70127984D01*
X139003982Y-70127986D01*
X139025742Y-70168195D01*
X139029292Y-70174755D01*
X139031674Y-70179384D01*
X139055023Y-70227145D01*
X139059668Y-70233651D01*
X139064582Y-70239964D01*
X139103691Y-70275966D01*
X139107451Y-70279573D01*
X139647022Y-70819145D01*
X139663406Y-70839321D01*
X139669440Y-70848556D01*
X139686901Y-70862146D01*
X139694810Y-70868302D01*
X139706516Y-70878640D01*
X139706585Y-70878709D01*
X139706598Y-70878720D01*
X139723774Y-70890982D01*
X139727931Y-70894080D01*
X139769915Y-70926758D01*
X139769917Y-70926758D01*
X139769919Y-70926760D01*
X139776942Y-70930560D01*
X139784128Y-70934073D01*
X139784131Y-70934075D01*
X139784133Y-70934075D01*
X139784134Y-70934076D01*
X139835076Y-70949242D01*
X139840040Y-70950832D01*
X139857005Y-70956656D01*
X139890339Y-70968100D01*
X139890346Y-70968100D01*
X139898249Y-70969419D01*
X139906158Y-70970405D01*
X139906158Y-70970404D01*
X139906159Y-70970405D01*
X139959284Y-70968207D01*
X139964490Y-70968100D01*
X142238166Y-70968100D01*
X142264024Y-70970781D01*
X142274817Y-70973045D01*
X142306721Y-70969067D01*
X142322308Y-70968100D01*
X142322411Y-70968100D01*
X142343239Y-70964624D01*
X142348352Y-70963878D01*
X142401160Y-70957296D01*
X142401161Y-70957295D01*
X142401163Y-70957295D01*
X142408811Y-70955017D01*
X142416384Y-70952418D01*
X142416386Y-70952418D01*
X142463162Y-70927103D01*
X142467789Y-70924722D01*
X142468618Y-70924317D01*
X142515546Y-70901376D01*
X142522066Y-70896720D01*
X142528358Y-70891823D01*
X142528359Y-70891821D01*
X142528362Y-70891820D01*
X142564427Y-70852640D01*
X142567963Y-70848957D01*
X142980542Y-70436378D01*
X143000718Y-70419994D01*
X143009956Y-70413960D01*
X143029710Y-70388578D01*
X143040056Y-70376865D01*
X143040113Y-70376809D01*
X143052400Y-70359597D01*
X143055466Y-70355486D01*
X143088158Y-70313485D01*
X143088159Y-70313479D01*
X143091957Y-70306464D01*
X143095470Y-70299276D01*
X143095475Y-70299270D01*
X143110656Y-70248273D01*
X143112221Y-70243389D01*
X143129500Y-70193061D01*
X143129500Y-70193055D01*
X143130819Y-70185149D01*
X143131805Y-70177243D01*
X143129608Y-70124127D01*
X143129500Y-70118919D01*
X143129500Y-68231413D01*
X143149502Y-68163292D01*
X143166405Y-68142317D01*
X143392119Y-67916604D01*
X143454431Y-67882579D01*
X143481214Y-67879700D01*
X143585900Y-67879700D01*
X143654021Y-67899702D01*
X143700514Y-67953358D01*
X143711900Y-68005700D01*
X143711900Y-68373263D01*
X143711901Y-68373273D01*
X143726665Y-68447500D01*
X143782916Y-68531684D01*
X143867097Y-68587933D01*
X143867099Y-68587934D01*
X143941333Y-68602700D01*
X144991466Y-68602699D01*
X144991469Y-68602698D01*
X144991473Y-68602698D01*
X145012386Y-68598538D01*
X145065701Y-68587934D01*
X145065704Y-68587931D01*
X145077167Y-68583185D01*
X145077866Y-68584874D01*
X145131329Y-68568126D01*
X145199799Y-68586900D01*
X145217144Y-68599790D01*
X145319871Y-68690799D01*
X145319872Y-68690799D01*
X145319874Y-68690801D01*
X145371180Y-68717728D01*
X145460607Y-68764663D01*
X145614929Y-68802700D01*
X145614930Y-68802700D01*
X145773870Y-68802700D01*
X145773871Y-68802700D01*
X145928193Y-68764663D01*
X146017346Y-68717871D01*
X146086957Y-68703925D01*
X146153060Y-68729828D01*
X146194665Y-68787357D01*
X146201900Y-68829439D01*
X146201900Y-69512785D01*
X146181898Y-69580906D01*
X146164995Y-69601880D01*
X145973280Y-69793595D01*
X145910968Y-69827621D01*
X145884185Y-69830500D01*
X145741927Y-69830500D01*
X145587609Y-69868536D01*
X145587602Y-69868539D01*
X145446874Y-69942398D01*
X145446869Y-69942402D01*
X145327901Y-70047800D01*
X145237615Y-70178601D01*
X145237612Y-70178607D01*
X145181249Y-70327220D01*
X145162093Y-70484996D01*
X145162093Y-70485003D01*
X145181249Y-70642779D01*
X145209807Y-70718077D01*
X145237613Y-70791395D01*
X145327902Y-70922201D01*
X145446871Y-71027599D01*
X145446872Y-71027599D01*
X145446874Y-71027601D01*
X145521600Y-71066820D01*
X145587607Y-71101463D01*
X145741929Y-71139500D01*
X145741930Y-71139500D01*
X145900870Y-71139500D01*
X145900871Y-71139500D01*
X146055193Y-71101463D01*
X146195929Y-71027599D01*
X146314898Y-70922201D01*
X146405187Y-70791395D01*
X146461549Y-70642782D01*
X146461549Y-70642781D01*
X146461550Y-70642779D01*
X146480707Y-70485002D01*
X146480707Y-70484997D01*
X146475132Y-70439086D01*
X146486776Y-70369051D01*
X146511117Y-70334804D01*
X146520211Y-70325710D01*
X146582524Y-70291690D01*
X146653339Y-70296759D01*
X146710172Y-70339309D01*
X146734979Y-70405830D01*
X146735300Y-70414812D01*
X146735300Y-73048566D01*
X146732618Y-73074423D01*
X146730354Y-73085216D01*
X146734332Y-73117121D01*
X146735300Y-73132708D01*
X146735300Y-73132813D01*
X146738775Y-73153641D01*
X146739525Y-73158790D01*
X146746103Y-73211557D01*
X146748388Y-73219232D01*
X146750980Y-73226781D01*
X146750981Y-73226784D01*
X146750982Y-73226786D01*
X146776292Y-73273555D01*
X146778674Y-73278184D01*
X146802023Y-73325945D01*
X146806668Y-73332451D01*
X146811582Y-73338764D01*
X146820589Y-73347055D01*
X146848180Y-73372455D01*
X146850704Y-73374778D01*
X146854463Y-73378385D01*
X146858881Y-73382803D01*
X146892907Y-73445115D01*
X146894867Y-73487083D01*
X146889294Y-73532996D01*
X146889293Y-73533003D01*
X146908449Y-73690779D01*
X146948673Y-73796837D01*
X146964813Y-73839395D01*
X147055102Y-73970201D01*
X147174071Y-74075599D01*
X147174072Y-74075599D01*
X147174074Y-74075601D01*
X147248800Y-74114820D01*
X147314807Y-74149463D01*
X147469129Y-74187500D01*
X147469130Y-74187500D01*
X147628070Y-74187500D01*
X147628071Y-74187500D01*
X147782393Y-74149463D01*
X147923129Y-74075599D01*
X148042098Y-73970201D01*
X148132387Y-73839395D01*
X148188749Y-73690782D01*
X148188749Y-73690781D01*
X148188750Y-73690779D01*
X148207907Y-73533003D01*
X148207907Y-73532996D01*
X148188750Y-73375220D01*
X148170062Y-73325945D01*
X148132387Y-73226605D01*
X148042098Y-73095799D01*
X147923129Y-72990401D01*
X147923128Y-72990400D01*
X147923125Y-72990398D01*
X147782397Y-72916539D01*
X147782395Y-72916538D01*
X147782393Y-72916537D01*
X147782391Y-72916536D01*
X147782390Y-72916536D01*
X147628072Y-72878500D01*
X147628071Y-72878500D01*
X147624300Y-72878500D01*
X147621642Y-72877719D01*
X147620508Y-72877582D01*
X147620530Y-72877393D01*
X147556179Y-72858498D01*
X147509686Y-72804842D01*
X147498300Y-72752500D01*
X147498300Y-70413330D01*
X147518302Y-70345209D01*
X147571958Y-70298716D01*
X147642232Y-70288612D01*
X147654444Y-70290989D01*
X147799329Y-70326700D01*
X147799330Y-70326700D01*
X147958270Y-70326700D01*
X147958271Y-70326700D01*
X148112593Y-70288663D01*
X148253329Y-70214799D01*
X148372298Y-70109401D01*
X148462587Y-69978595D01*
X148518949Y-69829982D01*
X148518949Y-69829981D01*
X148518950Y-69829979D01*
X148538107Y-69672202D01*
X148538107Y-69672197D01*
X148522660Y-69544984D01*
X148528570Y-69488879D01*
X148539699Y-69456464D01*
X148541019Y-69448549D01*
X148542005Y-69440643D01*
X148539808Y-69387527D01*
X148539700Y-69382319D01*
X148539700Y-65914834D01*
X148542382Y-65888974D01*
X148544645Y-65878182D01*
X148540668Y-65846279D01*
X148539700Y-65830692D01*
X148539700Y-65830594D01*
X148539700Y-65830589D01*
X148536224Y-65809764D01*
X148535476Y-65804639D01*
X148528896Y-65751840D01*
X148528894Y-65751835D01*
X148526623Y-65744207D01*
X148524018Y-65736617D01*
X148524018Y-65736614D01*
X148498698Y-65689827D01*
X148496331Y-65685229D01*
X148493139Y-65678700D01*
X148472976Y-65637454D01*
X148472975Y-65637453D01*
X148472975Y-65637452D01*
X148468327Y-65630942D01*
X148463421Y-65624639D01*
X148424293Y-65588619D01*
X148420535Y-65585013D01*
X147501177Y-64665654D01*
X147484789Y-64645473D01*
X147478760Y-64636244D01*
X147478759Y-64636243D01*
X147464962Y-64625505D01*
X147453384Y-64616493D01*
X147441682Y-64606158D01*
X147441617Y-64606093D01*
X147441609Y-64606086D01*
X147424383Y-64593787D01*
X147420272Y-64590721D01*
X147378663Y-64558336D01*
X147378283Y-64558040D01*
X147371264Y-64554242D01*
X147364072Y-64550726D01*
X147364070Y-64550725D01*
X147364067Y-64550724D01*
X147313108Y-64535552D01*
X147308150Y-64533964D01*
X147257864Y-64516701D01*
X147257863Y-64516700D01*
X147257861Y-64516700D01*
X147257858Y-64516700D01*
X147249948Y-64515379D01*
X147242042Y-64514394D01*
X147191175Y-64516499D01*
X147188925Y-64516592D01*
X147183720Y-64516700D01*
X145346900Y-64516700D01*
X145278779Y-64496698D01*
X145232286Y-64443042D01*
X145220900Y-64390701D01*
X145220900Y-64345811D01*
X145220899Y-64295330D01*
X145240900Y-64227212D01*
X145271391Y-64194463D01*
X145323589Y-64155388D01*
X145409752Y-64040289D01*
X145459999Y-63905571D01*
X145466399Y-63846040D01*
X145466400Y-63846023D01*
X145466400Y-63798200D01*
X145026501Y-63798200D01*
X145001919Y-63795779D01*
X144991467Y-63793700D01*
X144991466Y-63793700D01*
X143941336Y-63793700D01*
X143941334Y-63793701D01*
X143930883Y-63795779D01*
X143906306Y-63798200D01*
X143466400Y-63798200D01*
X143466400Y-63846035D01*
X143466726Y-63849065D01*
X143454112Y-63918932D01*
X143434145Y-63947859D01*
X143402618Y-63982105D01*
X143399016Y-63985860D01*
X143357080Y-64027795D01*
X143294771Y-64061820D01*
X143267986Y-64064700D01*
X143125727Y-64064700D01*
X142971409Y-64102736D01*
X142971402Y-64102739D01*
X142830674Y-64176598D01*
X142830669Y-64176602D01*
X142711701Y-64282000D01*
X142621415Y-64412801D01*
X142621412Y-64412807D01*
X142565049Y-64561420D01*
X142545893Y-64719196D01*
X142545893Y-64719203D01*
X142565049Y-64876979D01*
X142585277Y-64930313D01*
X142610197Y-64996021D01*
X142615651Y-65066805D01*
X142581969Y-65129304D01*
X142519845Y-65163671D01*
X142492385Y-65166700D01*
X141990107Y-65166700D01*
X141921986Y-65146698D01*
X141875493Y-65093042D01*
X141872062Y-65084761D01*
X141841542Y-65002933D01*
X141754604Y-64886796D01*
X141638467Y-64799858D01*
X141628109Y-64795994D01*
X141571275Y-64753447D01*
X141546465Y-64686927D01*
X141561557Y-64617553D01*
X141611760Y-64567352D01*
X141632512Y-64558335D01*
X141713321Y-64531557D01*
X141862544Y-64439516D01*
X141862550Y-64439511D01*
X141986511Y-64315550D01*
X141986516Y-64315544D01*
X142078557Y-64166322D01*
X142133706Y-63999891D01*
X142144199Y-63897187D01*
X142144200Y-63897187D01*
X142144200Y-63759700D01*
X140795200Y-63759700D01*
X140727079Y-63739698D01*
X140680586Y-63686042D01*
X140669200Y-63633700D01*
X140669200Y-62422200D01*
X141169200Y-62422200D01*
X141169200Y-63259700D01*
X142144199Y-63259700D01*
X142144199Y-63122221D01*
X142133706Y-63019508D01*
X142078557Y-62853077D01*
X141986516Y-62703855D01*
X141986511Y-62703849D01*
X141862550Y-62579888D01*
X141862544Y-62579883D01*
X141713322Y-62487842D01*
X141546891Y-62432693D01*
X141444187Y-62422200D01*
X141169200Y-62422200D01*
X140669200Y-62422200D01*
X140394221Y-62422200D01*
X140291508Y-62432693D01*
X140125077Y-62487842D01*
X139975855Y-62579883D01*
X139975849Y-62579888D01*
X139966395Y-62589343D01*
X139904083Y-62623369D01*
X139833268Y-62618304D01*
X139776432Y-62575757D01*
X139751621Y-62509237D01*
X139751300Y-62500248D01*
X139751300Y-60782203D01*
X140209093Y-60782203D01*
X140228249Y-60939979D01*
X140274374Y-61061597D01*
X140284613Y-61088595D01*
X140374902Y-61219401D01*
X140493871Y-61324799D01*
X140493872Y-61324799D01*
X140493874Y-61324801D01*
X140540287Y-61349160D01*
X140634607Y-61398663D01*
X140788929Y-61436700D01*
X140788930Y-61436700D01*
X140947870Y-61436700D01*
X140947871Y-61436700D01*
X141102193Y-61398663D01*
X141242929Y-61324799D01*
X141361898Y-61219401D01*
X141362784Y-61218118D01*
X141363671Y-61217398D01*
X141366954Y-61213694D01*
X141367570Y-61214239D01*
X141417945Y-61173421D01*
X141466476Y-61163700D01*
X143350588Y-61163700D01*
X143418709Y-61183702D01*
X143439683Y-61200605D01*
X143896707Y-61657629D01*
X143930733Y-61719941D01*
X143925668Y-61790756D01*
X143883121Y-61847592D01*
X143877070Y-61851051D01*
X143877418Y-61851571D01*
X143782915Y-61914716D01*
X143726666Y-61998897D01*
X143711900Y-62073130D01*
X143711900Y-62523263D01*
X143711901Y-62523273D01*
X143726888Y-62598619D01*
X143726888Y-62647780D01*
X143711900Y-62723127D01*
X143711900Y-62901067D01*
X143691898Y-62969188D01*
X143661410Y-63001934D01*
X143609214Y-63041007D01*
X143523046Y-63156112D01*
X143472800Y-63290828D01*
X143466400Y-63350359D01*
X143466400Y-63398200D01*
X143906299Y-63398200D01*
X143930880Y-63400620D01*
X143941333Y-63402700D01*
X144991466Y-63402699D01*
X145001916Y-63400620D01*
X145026494Y-63398200D01*
X145466400Y-63398200D01*
X145466400Y-63350376D01*
X145466399Y-63350359D01*
X145459156Y-63282986D01*
X145460626Y-63282827D01*
X145463957Y-63220618D01*
X145493685Y-63173436D01*
X145799948Y-62867173D01*
X145820117Y-62850795D01*
X145829356Y-62844760D01*
X145849101Y-62819390D01*
X145859451Y-62807671D01*
X145859514Y-62807609D01*
X145871797Y-62790404D01*
X145874882Y-62786265D01*
X145907558Y-62744285D01*
X145907559Y-62744279D01*
X145911356Y-62737265D01*
X145914870Y-62730076D01*
X145914875Y-62730070D01*
X145930055Y-62679076D01*
X145931620Y-62674191D01*
X145948900Y-62623861D01*
X145948900Y-62623855D01*
X145950219Y-62615952D01*
X145951205Y-62608042D01*
X145950040Y-62579888D01*
X145949008Y-62554926D01*
X145948900Y-62549718D01*
X145948900Y-60998699D01*
X145968902Y-60930578D01*
X146022558Y-60884085D01*
X146074896Y-60872699D01*
X146740554Y-60872699D01*
X146800642Y-60866240D01*
X146936567Y-60815542D01*
X147052704Y-60728604D01*
X147139642Y-60612467D01*
X147143504Y-60602111D01*
X147186047Y-60545278D01*
X147252566Y-60520465D01*
X147321941Y-60535555D01*
X147372145Y-60585755D01*
X147381163Y-60606510D01*
X147407941Y-60687319D01*
X147499983Y-60836544D01*
X147499988Y-60836550D01*
X147623949Y-60960511D01*
X147623955Y-60960516D01*
X147773177Y-61052557D01*
X147939608Y-61107706D01*
X148042312Y-61118199D01*
X148179800Y-61118199D01*
X148179800Y-60143200D01*
X148679800Y-60143200D01*
X148679800Y-61118199D01*
X148817278Y-61118199D01*
X148919991Y-61107706D01*
X149086422Y-61052557D01*
X149235644Y-60960516D01*
X149235650Y-60960511D01*
X149359611Y-60836550D01*
X149359616Y-60836544D01*
X149451657Y-60687322D01*
X149506806Y-60520891D01*
X149517299Y-60418187D01*
X149517300Y-60418187D01*
X149517300Y-60143200D01*
X148679800Y-60143200D01*
X148179800Y-60143200D01*
X148179800Y-58668200D01*
X148679800Y-58668200D01*
X148679800Y-59643200D01*
X149517299Y-59643200D01*
X149517299Y-59368221D01*
X149506806Y-59265508D01*
X149451657Y-59099077D01*
X149359616Y-58949855D01*
X149359611Y-58949849D01*
X149235650Y-58825888D01*
X149235644Y-58825883D01*
X149086422Y-58733842D01*
X148919991Y-58678693D01*
X148817287Y-58668200D01*
X148679800Y-58668200D01*
X148179800Y-58668200D01*
X148042321Y-58668200D01*
X147939608Y-58678693D01*
X147773177Y-58733842D01*
X147623955Y-58825883D01*
X147623949Y-58825888D01*
X147499988Y-58949849D01*
X147499983Y-58949855D01*
X147407941Y-59099080D01*
X147381163Y-59179889D01*
X147340749Y-59238260D01*
X147275192Y-59265515D01*
X147205307Y-59253001D01*
X147153282Y-59204691D01*
X147143505Y-59184290D01*
X147139642Y-59173933D01*
X147052704Y-59057796D01*
X146936567Y-58970858D01*
X146936565Y-58970857D01*
X146936566Y-58970857D01*
X146800649Y-58920162D01*
X146800644Y-58920160D01*
X146800642Y-58920160D01*
X146770598Y-58916930D01*
X146740556Y-58913700D01*
X145969053Y-58913700D01*
X145969029Y-58913702D01*
X145908960Y-58920159D01*
X145908958Y-58920159D01*
X145773033Y-58970857D01*
X145656896Y-59057796D01*
X145569957Y-59173934D01*
X145519262Y-59309850D01*
X145519260Y-59309858D01*
X145512800Y-59369937D01*
X145512800Y-59635487D01*
X145492798Y-59703608D01*
X145475899Y-59724577D01*
X145334858Y-59865619D01*
X145314680Y-59882005D01*
X145305445Y-59888038D01*
X145285690Y-59913418D01*
X145275380Y-59925095D01*
X145275291Y-59925183D01*
X145275288Y-59925187D01*
X145263012Y-59942380D01*
X145259903Y-59946550D01*
X145227242Y-59988513D01*
X145223430Y-59995558D01*
X145219925Y-60002727D01*
X145204749Y-60053700D01*
X145203162Y-60058654D01*
X145185899Y-60108942D01*
X145184584Y-60116818D01*
X145183594Y-60124760D01*
X145185792Y-60177872D01*
X145185900Y-60183080D01*
X145185900Y-61728843D01*
X145165898Y-61796964D01*
X145112242Y-61843457D01*
X145041968Y-61853561D01*
X145035319Y-61852422D01*
X144991472Y-61843700D01*
X144991467Y-61843700D01*
X144978377Y-61843700D01*
X144910256Y-61823698D01*
X144863763Y-61770042D01*
X144852485Y-61712491D01*
X144852845Y-61703783D01*
X144848868Y-61671879D01*
X144847900Y-61656292D01*
X144847900Y-61656194D01*
X144847900Y-61656189D01*
X144844424Y-61635364D01*
X144843676Y-61630239D01*
X144837096Y-61577440D01*
X144837094Y-61577435D01*
X144834814Y-61569775D01*
X144832219Y-61562217D01*
X144832218Y-61562215D01*
X144832218Y-61562214D01*
X144806903Y-61515436D01*
X144804538Y-61510840D01*
X144781177Y-61463054D01*
X144781175Y-61463052D01*
X144776547Y-61456568D01*
X144771620Y-61450238D01*
X144732493Y-61414219D01*
X144728736Y-61410613D01*
X143867780Y-60549657D01*
X143851391Y-60529476D01*
X143845360Y-60520244D01*
X143845359Y-60520243D01*
X143819986Y-60500495D01*
X143808282Y-60490158D01*
X143808217Y-60490093D01*
X143808209Y-60490086D01*
X143790983Y-60477787D01*
X143786872Y-60474721D01*
X143748862Y-60445137D01*
X143744883Y-60442040D01*
X143737864Y-60438242D01*
X143730672Y-60434726D01*
X143730670Y-60434725D01*
X143730667Y-60434724D01*
X143679708Y-60419552D01*
X143674750Y-60417964D01*
X143624464Y-60400701D01*
X143624463Y-60400700D01*
X143624461Y-60400700D01*
X143624458Y-60400700D01*
X143616548Y-60399379D01*
X143608642Y-60398394D01*
X143557775Y-60400499D01*
X143555525Y-60400592D01*
X143550320Y-60400700D01*
X141466476Y-60400700D01*
X141398355Y-60380698D01*
X141367164Y-60350519D01*
X141366954Y-60350706D01*
X141364538Y-60347979D01*
X141362784Y-60346282D01*
X141361899Y-60345001D01*
X141361898Y-60344999D01*
X141242929Y-60239601D01*
X141242928Y-60239600D01*
X141242925Y-60239598D01*
X141102197Y-60165739D01*
X141102195Y-60165738D01*
X141102193Y-60165737D01*
X141102191Y-60165736D01*
X141102190Y-60165736D01*
X140947872Y-60127700D01*
X140947871Y-60127700D01*
X140788929Y-60127700D01*
X140788927Y-60127700D01*
X140634609Y-60165736D01*
X140634602Y-60165739D01*
X140493874Y-60239598D01*
X140493869Y-60239602D01*
X140374901Y-60345000D01*
X140284615Y-60475801D01*
X140284612Y-60475807D01*
X140228249Y-60624420D01*
X140209093Y-60782196D01*
X140209093Y-60782203D01*
X139751300Y-60782203D01*
X139751300Y-58193234D01*
X139753982Y-58167374D01*
X139755836Y-58158536D01*
X139756245Y-58156584D01*
X139752267Y-58124678D01*
X139751300Y-58109092D01*
X139751300Y-58108994D01*
X139751300Y-58108989D01*
X139747824Y-58088164D01*
X139747076Y-58083039D01*
X139740496Y-58030240D01*
X139740494Y-58030235D01*
X139738214Y-58022575D01*
X139735619Y-58015017D01*
X139735618Y-58015015D01*
X139735618Y-58015014D01*
X139710303Y-57968236D01*
X139707938Y-57963640D01*
X139684577Y-57915854D01*
X139684575Y-57915852D01*
X139679947Y-57909368D01*
X139675020Y-57903038D01*
X139635893Y-57867019D01*
X139632136Y-57863413D01*
X137934005Y-56165282D01*
X137899979Y-56102970D01*
X137897100Y-56076187D01*
X137897100Y-55352004D01*
X137917102Y-55283883D01*
X137970758Y-55237390D01*
X137977583Y-55234513D01*
X137982598Y-55232569D01*
X138010027Y-55221944D01*
X138184062Y-55114186D01*
X138195166Y-55104063D01*
X138951100Y-55104063D01*
X138951101Y-55104073D01*
X138965865Y-55178300D01*
X139022116Y-55262484D01*
X139106297Y-55318733D01*
X139106299Y-55318734D01*
X139180533Y-55333500D01*
X140930666Y-55333499D01*
X140930669Y-55333498D01*
X140930673Y-55333498D01*
X140979926Y-55323701D01*
X141004901Y-55318734D01*
X141089084Y-55262484D01*
X141145334Y-55178301D01*
X141160100Y-55104067D01*
X141160099Y-53953600D01*
X143271563Y-53953600D01*
X144168514Y-53953600D01*
X144142707Y-53993756D01*
X144102200Y-54131711D01*
X144102200Y-54275489D01*
X144142707Y-54413444D01*
X144168514Y-54453600D01*
X143271564Y-54453600D01*
X143328768Y-54667088D01*
X143328770Y-54667093D01*
X143428599Y-54881177D01*
X143428600Y-54881179D01*
X143564086Y-55074673D01*
X143564093Y-55074682D01*
X143731117Y-55241706D01*
X143731126Y-55241713D01*
X143924620Y-55377199D01*
X143924622Y-55377200D01*
X144138706Y-55477029D01*
X144138710Y-55477031D01*
X144352200Y-55534235D01*
X144352200Y-54639101D01*
X144459885Y-54688280D01*
X144566437Y-54703600D01*
X144637963Y-54703600D01*
X144744515Y-54688280D01*
X144852200Y-54639101D01*
X144852200Y-55534234D01*
X145065689Y-55477031D01*
X145065693Y-55477029D01*
X145279777Y-55377200D01*
X145279779Y-55377199D01*
X145473273Y-55241713D01*
X145473282Y-55241706D01*
X145640306Y-55074682D01*
X145640313Y-55074673D01*
X145775799Y-54881179D01*
X145775799Y-54881178D01*
X145797504Y-54834632D01*
X145844420Y-54781346D01*
X145912697Y-54761884D01*
X145980658Y-54782425D01*
X146026724Y-54836446D01*
X146037700Y-54887879D01*
X146037700Y-55078663D01*
X146037701Y-55078673D01*
X146052465Y-55152900D01*
X146108716Y-55237084D01*
X146192897Y-55293333D01*
X146192899Y-55293334D01*
X146267133Y-55308100D01*
X148017266Y-55308099D01*
X148017269Y-55308098D01*
X148017273Y-55308098D01*
X148078670Y-55295886D01*
X148091501Y-55293334D01*
X148175684Y-55237084D01*
X148231934Y-55152901D01*
X148246700Y-55078667D01*
X148246700Y-54229004D01*
X152027368Y-54229004D01*
X152046254Y-54432819D01*
X152101945Y-54628552D01*
X152102272Y-54629701D01*
X152193512Y-54812935D01*
X152193513Y-54812936D01*
X152316866Y-54976284D01*
X152468136Y-55114185D01*
X152642166Y-55221940D01*
X152642168Y-55221940D01*
X152642173Y-55221944D01*
X152833044Y-55295888D01*
X153034253Y-55333500D01*
X153034255Y-55333500D01*
X153238945Y-55333500D01*
X153238947Y-55333500D01*
X153440156Y-55295888D01*
X153631027Y-55221944D01*
X153805062Y-55114186D01*
X153956332Y-54976285D01*
X154079688Y-54812935D01*
X154170928Y-54629701D01*
X154226945Y-54432821D01*
X154238903Y-54303777D01*
X154245832Y-54229004D01*
X154567368Y-54229004D01*
X154586254Y-54432819D01*
X154641945Y-54628552D01*
X154642272Y-54629701D01*
X154733512Y-54812935D01*
X154733513Y-54812936D01*
X154856866Y-54976284D01*
X155008136Y-55114185D01*
X155182166Y-55221940D01*
X155182168Y-55221940D01*
X155182173Y-55221944D01*
X155373044Y-55295888D01*
X155574253Y-55333500D01*
X155574255Y-55333500D01*
X155778945Y-55333500D01*
X155778947Y-55333500D01*
X155980156Y-55295888D01*
X156171027Y-55221944D01*
X156345062Y-55114186D01*
X156496332Y-54976285D01*
X156619688Y-54812935D01*
X156702626Y-54646372D01*
X156750894Y-54594311D01*
X156819649Y-54576608D01*
X156887059Y-54598887D01*
X156931723Y-54654074D01*
X156937123Y-54669926D01*
X156943168Y-54692489D01*
X156943170Y-54692493D01*
X157042999Y-54906577D01*
X157043000Y-54906579D01*
X157178486Y-55100073D01*
X157178493Y-55100082D01*
X157345517Y-55267106D01*
X157345526Y-55267113D01*
X157539020Y-55402599D01*
X157539022Y-55402600D01*
X157753106Y-55502429D01*
X157753110Y-55502431D01*
X157966600Y-55559635D01*
X157966600Y-54664501D01*
X158074285Y-54713680D01*
X158180837Y-54729000D01*
X158252363Y-54729000D01*
X158358915Y-54713680D01*
X158466600Y-54664501D01*
X158466600Y-55559634D01*
X158680089Y-55502431D01*
X158680093Y-55502429D01*
X158894177Y-55402600D01*
X158894179Y-55402599D01*
X159087673Y-55267113D01*
X159087682Y-55267106D01*
X159254706Y-55100082D01*
X159254713Y-55100073D01*
X159390199Y-54906579D01*
X159390199Y-54906578D01*
X159411904Y-54860032D01*
X159458820Y-54806746D01*
X159527097Y-54787284D01*
X159595058Y-54807825D01*
X159641124Y-54861846D01*
X159652100Y-54913279D01*
X159652100Y-55104063D01*
X159652101Y-55104073D01*
X159666865Y-55178300D01*
X159723116Y-55262484D01*
X159807297Y-55318733D01*
X159807299Y-55318734D01*
X159881533Y-55333500D01*
X161631666Y-55333499D01*
X161631669Y-55333498D01*
X161631673Y-55333498D01*
X161680926Y-55323701D01*
X161705901Y-55318734D01*
X161790084Y-55262484D01*
X161846334Y-55178301D01*
X161861100Y-55104067D01*
X161861099Y-53353934D01*
X161861098Y-53353930D01*
X161861098Y-53353926D01*
X161846334Y-53279699D01*
X161790083Y-53195515D01*
X161705902Y-53139266D01*
X161631667Y-53124500D01*
X159881536Y-53124500D01*
X159881526Y-53124501D01*
X159807299Y-53139265D01*
X159723115Y-53195516D01*
X159666866Y-53279697D01*
X159652100Y-53353930D01*
X159652100Y-53544718D01*
X159632098Y-53612839D01*
X159578442Y-53659332D01*
X159508168Y-53669436D01*
X159443588Y-53639942D01*
X159411905Y-53597968D01*
X159390199Y-53551421D01*
X159254712Y-53357925D01*
X159087676Y-53190888D01*
X159087673Y-53190886D01*
X158894179Y-53055400D01*
X158894177Y-53055399D01*
X158680093Y-52955570D01*
X158680088Y-52955568D01*
X158466600Y-52898364D01*
X158466600Y-53793498D01*
X158358915Y-53744320D01*
X158252363Y-53729000D01*
X158180837Y-53729000D01*
X158074285Y-53744320D01*
X157966600Y-53793498D01*
X157966600Y-52898364D01*
X157753111Y-52955568D01*
X157753106Y-52955570D01*
X157539021Y-53055400D01*
X157345525Y-53190887D01*
X157345519Y-53190892D01*
X157178492Y-53357919D01*
X157178487Y-53357925D01*
X157043000Y-53551421D01*
X156943170Y-53765506D01*
X156943169Y-53765508D01*
X156937123Y-53788074D01*
X156900171Y-53848696D01*
X156836310Y-53879718D01*
X156765816Y-53871289D01*
X156711069Y-53826086D01*
X156702625Y-53811625D01*
X156690898Y-53788074D01*
X156619688Y-53645065D01*
X156553664Y-53557635D01*
X156496333Y-53481715D01*
X156345063Y-53343814D01*
X156171033Y-53236059D01*
X156171028Y-53236057D01*
X156171027Y-53236056D01*
X156124143Y-53217893D01*
X155980159Y-53162113D01*
X155980160Y-53162113D01*
X155980157Y-53162112D01*
X155980156Y-53162112D01*
X155778947Y-53124500D01*
X155574253Y-53124500D01*
X155373044Y-53162112D01*
X155373039Y-53162113D01*
X155182177Y-53236054D01*
X155182166Y-53236059D01*
X155008136Y-53343814D01*
X154856866Y-53481715D01*
X154733513Y-53645063D01*
X154642271Y-53828301D01*
X154586254Y-54025180D01*
X154567368Y-54228995D01*
X154567368Y-54229004D01*
X154245832Y-54229004D01*
X154245832Y-54228995D01*
X154226945Y-54025180D01*
X154218004Y-53993756D01*
X154170928Y-53828299D01*
X154079688Y-53645065D01*
X154013664Y-53557635D01*
X153956333Y-53481715D01*
X153805063Y-53343814D01*
X153631033Y-53236059D01*
X153631028Y-53236057D01*
X153631027Y-53236056D01*
X153584143Y-53217893D01*
X153440159Y-53162113D01*
X153440160Y-53162113D01*
X153440157Y-53162112D01*
X153440156Y-53162112D01*
X153238947Y-53124500D01*
X153034253Y-53124500D01*
X152833044Y-53162112D01*
X152833039Y-53162113D01*
X152642177Y-53236054D01*
X152642166Y-53236059D01*
X152468136Y-53343814D01*
X152316866Y-53481715D01*
X152193513Y-53645063D01*
X152102271Y-53828301D01*
X152046254Y-54025180D01*
X152027368Y-54228995D01*
X152027368Y-54229004D01*
X148246700Y-54229004D01*
X148246699Y-53328534D01*
X148246698Y-53328530D01*
X148246698Y-53328526D01*
X148231934Y-53254299D01*
X148189566Y-53190892D01*
X148175684Y-53170116D01*
X148168758Y-53165488D01*
X148091502Y-53113866D01*
X148017267Y-53099100D01*
X146267136Y-53099100D01*
X146267126Y-53099101D01*
X146192899Y-53113865D01*
X146108715Y-53170116D01*
X146052466Y-53254297D01*
X146037700Y-53328530D01*
X146037700Y-53519318D01*
X146017698Y-53587439D01*
X145964042Y-53633932D01*
X145893768Y-53644036D01*
X145829188Y-53614542D01*
X145797505Y-53572568D01*
X145775799Y-53526021D01*
X145640312Y-53332525D01*
X145473276Y-53165488D01*
X145473273Y-53165486D01*
X145279779Y-53030000D01*
X145279777Y-53029999D01*
X145065693Y-52930170D01*
X145065688Y-52930168D01*
X144852200Y-52872964D01*
X144852200Y-53768098D01*
X144744515Y-53718920D01*
X144637963Y-53703600D01*
X144566437Y-53703600D01*
X144459885Y-53718920D01*
X144352200Y-53768098D01*
X144352200Y-52872964D01*
X144138711Y-52930168D01*
X144138706Y-52930170D01*
X143924621Y-53030000D01*
X143731125Y-53165487D01*
X143731119Y-53165492D01*
X143564092Y-53332519D01*
X143564087Y-53332525D01*
X143428600Y-53526021D01*
X143328770Y-53740106D01*
X143328768Y-53740111D01*
X143271563Y-53953600D01*
X141160099Y-53953600D01*
X141160099Y-53353934D01*
X141160098Y-53353930D01*
X141160098Y-53353926D01*
X141145334Y-53279699D01*
X141089083Y-53195515D01*
X141004902Y-53139266D01*
X140930667Y-53124500D01*
X139180536Y-53124500D01*
X139180526Y-53124501D01*
X139106299Y-53139265D01*
X139022115Y-53195516D01*
X138965866Y-53279697D01*
X138951100Y-53353930D01*
X138951100Y-55104063D01*
X138195166Y-55104063D01*
X138335332Y-54976285D01*
X138458688Y-54812935D01*
X138549928Y-54629701D01*
X138605945Y-54432821D01*
X138617903Y-54303777D01*
X138624832Y-54229004D01*
X138624832Y-54228995D01*
X138605945Y-54025180D01*
X138597004Y-53993756D01*
X138549928Y-53828299D01*
X138458688Y-53645065D01*
X138392664Y-53557635D01*
X138335333Y-53481715D01*
X138184063Y-53343814D01*
X138010033Y-53236059D01*
X138010028Y-53236057D01*
X138010027Y-53236056D01*
X137963143Y-53217893D01*
X137819159Y-53162113D01*
X137819160Y-53162113D01*
X137819157Y-53162112D01*
X137819156Y-53162112D01*
X137617947Y-53124500D01*
X137413253Y-53124500D01*
X137212044Y-53162112D01*
X137212039Y-53162113D01*
X137021177Y-53236054D01*
X137021166Y-53236059D01*
X136847136Y-53343814D01*
X136695866Y-53481715D01*
X136572513Y-53645063D01*
X136481271Y-53828301D01*
X136425254Y-54025180D01*
X136406368Y-54228995D01*
X136406368Y-54229004D01*
X130286339Y-54229004D01*
X130091405Y-54034070D01*
X130091396Y-54034062D01*
X130037553Y-53993756D01*
X129862315Y-53862574D01*
X129862313Y-53862573D01*
X129862312Y-53862572D01*
X129862307Y-53862568D01*
X129611170Y-53725437D01*
X129611160Y-53725432D01*
X129343046Y-53625431D01*
X129063424Y-53564603D01*
X128929775Y-53555045D01*
X128849448Y-53549300D01*
X128706552Y-53549300D01*
X128630954Y-53554706D01*
X128492575Y-53564603D01*
X128212953Y-53625431D01*
X127944839Y-53725432D01*
X127944829Y-53725437D01*
X127693692Y-53862568D01*
X127693687Y-53862572D01*
X127464603Y-54034062D01*
X127464594Y-54034070D01*
X127262270Y-54236394D01*
X127262262Y-54236403D01*
X127090772Y-54465487D01*
X127090768Y-54465492D01*
X126953637Y-54716629D01*
X126953632Y-54716639D01*
X126853631Y-54984753D01*
X126792803Y-55264375D01*
X126772390Y-55549800D01*
X121603191Y-55549800D01*
X121641654Y-55451798D01*
X121700169Y-55195428D01*
X121719820Y-54933200D01*
X121700169Y-54670972D01*
X121641654Y-54414602D01*
X121597025Y-54300889D01*
X121545586Y-54169822D01*
X121545584Y-54169818D01*
X121414103Y-53942086D01*
X121385720Y-53906495D01*
X121250146Y-53736490D01*
X121250145Y-53736489D01*
X121250142Y-53736485D01*
X121099541Y-53596749D01*
X121057380Y-53557630D01*
X121048273Y-53551421D01*
X120840119Y-53409503D01*
X120840112Y-53409499D01*
X120603193Y-53295404D01*
X120603190Y-53295403D01*
X120603188Y-53295402D01*
X120515296Y-53268290D01*
X120351914Y-53217893D01*
X120351909Y-53217892D01*
X120351908Y-53217892D01*
X120091882Y-53178700D01*
X119828918Y-53178700D01*
X119568892Y-53217892D01*
X119568891Y-53217892D01*
X119568885Y-53217893D01*
X119358273Y-53282859D01*
X119317612Y-53295402D01*
X119317610Y-53295402D01*
X119317603Y-53295405D01*
X119158245Y-53372148D01*
X119088192Y-53383683D01*
X119023023Y-53355514D01*
X119014481Y-53347721D01*
X117959545Y-52292784D01*
X117925519Y-52230472D01*
X117930584Y-52159656D01*
X117973131Y-52102821D01*
X118039651Y-52078010D01*
X118048253Y-52077690D01*
X172873033Y-51917968D01*
X172941212Y-51937771D01*
G37*
%TD.AperFunction*%
%TA.AperFunction,Conductor*%
G36*
X112278563Y-52114500D02*
G01*
X112325212Y-52168020D01*
X112335520Y-52238264D01*
X112306215Y-52302931D01*
X112299846Y-52309791D01*
X110979076Y-53630561D01*
X110968543Y-53639975D01*
X110940464Y-53662368D01*
X110907983Y-53710007D01*
X110905261Y-53713844D01*
X110871031Y-53760226D01*
X110866995Y-53767862D01*
X110863284Y-53775569D01*
X110846289Y-53830667D01*
X110844817Y-53835141D01*
X110825778Y-53889551D01*
X110824182Y-53897982D01*
X110822900Y-53906494D01*
X110822900Y-53964131D01*
X110822812Y-53968842D01*
X110820655Y-54026465D01*
X110821713Y-54035846D01*
X110820860Y-54035942D01*
X110822900Y-54051426D01*
X110822900Y-71112790D01*
X110822108Y-71126896D01*
X110818086Y-71162586D01*
X110818087Y-71162589D01*
X110828800Y-71219209D01*
X110829589Y-71223852D01*
X110838185Y-71280879D01*
X110840715Y-71289080D01*
X110843559Y-71297207D01*
X110870494Y-71348171D01*
X110872616Y-71352375D01*
X110897631Y-71404318D01*
X110902477Y-71411425D01*
X110907579Y-71418338D01*
X110907580Y-71418340D01*
X110948347Y-71459107D01*
X110951590Y-71462474D01*
X110990821Y-71504754D01*
X110990823Y-71504756D01*
X110990824Y-71504757D01*
X110998205Y-71510643D01*
X110997670Y-71511313D01*
X111010062Y-71520822D01*
X111841945Y-72352705D01*
X111875971Y-72415017D01*
X111870906Y-72485832D01*
X111828359Y-72542668D01*
X111761839Y-72567479D01*
X111752850Y-72567800D01*
X103377000Y-72567800D01*
X103308879Y-72547798D01*
X103262386Y-72494142D01*
X103251000Y-72441800D01*
X103251000Y-68785849D01*
X103271002Y-68717728D01*
X103324658Y-68671235D01*
X103378530Y-68661515D01*
X104243738Y-67796307D01*
X104330977Y-67935148D01*
X104458452Y-68062623D01*
X104597290Y-68149860D01*
X103733836Y-69013315D01*
X103733837Y-69013316D01*
X103876352Y-69120002D01*
X104127449Y-69257111D01*
X104127448Y-69257111D01*
X104395497Y-69357088D01*
X104675046Y-69417900D01*
X104960400Y-69438308D01*
X105245753Y-69417900D01*
X105525302Y-69357088D01*
X105793351Y-69257111D01*
X106044443Y-69120005D01*
X106186961Y-69013315D01*
X106186962Y-69013315D01*
X105323508Y-68149861D01*
X105462348Y-68062623D01*
X105589823Y-67935148D01*
X105677061Y-67796308D01*
X106540515Y-68659762D01*
X106540515Y-68659761D01*
X106647205Y-68517243D01*
X106784311Y-68266151D01*
X106884288Y-67998102D01*
X106945100Y-67718553D01*
X106965508Y-67433200D01*
X106945100Y-67147846D01*
X106884288Y-66868297D01*
X106784311Y-66600248D01*
X106647202Y-66349152D01*
X106540516Y-66206637D01*
X106540515Y-66206636D01*
X105677060Y-67070090D01*
X105589823Y-66931252D01*
X105462348Y-66803777D01*
X105323508Y-66716538D01*
X106186962Y-65853083D01*
X106186961Y-65853082D01*
X106044447Y-65746397D01*
X105793350Y-65609288D01*
X105793351Y-65609288D01*
X105525302Y-65509311D01*
X105245753Y-65448499D01*
X104960400Y-65428091D01*
X104675046Y-65448499D01*
X104395497Y-65509311D01*
X104127448Y-65609288D01*
X103876360Y-65746392D01*
X103733836Y-65853083D01*
X104597291Y-66716538D01*
X104458452Y-66803777D01*
X104330977Y-66931252D01*
X104243738Y-67070091D01*
X103378175Y-66204528D01*
X103316613Y-66191135D01*
X103266411Y-66140932D01*
X103251000Y-66080549D01*
X103251000Y-58785849D01*
X103271002Y-58717728D01*
X103324658Y-58671235D01*
X103378530Y-58661515D01*
X104243738Y-57796307D01*
X104330977Y-57935148D01*
X104458452Y-58062623D01*
X104597290Y-58149860D01*
X103733836Y-59013315D01*
X103733837Y-59013316D01*
X103876352Y-59120002D01*
X104127449Y-59257111D01*
X104127448Y-59257111D01*
X104395497Y-59357088D01*
X104675046Y-59417900D01*
X104960400Y-59438308D01*
X105245753Y-59417900D01*
X105525302Y-59357088D01*
X105793351Y-59257111D01*
X106044443Y-59120005D01*
X106186961Y-59013315D01*
X106186962Y-59013315D01*
X105323508Y-58149861D01*
X105462348Y-58062623D01*
X105589823Y-57935148D01*
X105677061Y-57796308D01*
X106540515Y-58659762D01*
X106540515Y-58659761D01*
X106647205Y-58517243D01*
X106784311Y-58266151D01*
X106884288Y-57998102D01*
X106945100Y-57718553D01*
X106965508Y-57433200D01*
X106945100Y-57147846D01*
X106884288Y-56868297D01*
X106784311Y-56600248D01*
X106647202Y-56349152D01*
X106540516Y-56206637D01*
X106540515Y-56206636D01*
X105677060Y-57070090D01*
X105589823Y-56931252D01*
X105462348Y-56803777D01*
X105323508Y-56716538D01*
X106186962Y-55853083D01*
X106186961Y-55853082D01*
X106044447Y-55746397D01*
X105793350Y-55609288D01*
X105793351Y-55609288D01*
X105525302Y-55509311D01*
X105245753Y-55448499D01*
X104960400Y-55428091D01*
X104675046Y-55448499D01*
X104395497Y-55509311D01*
X104127448Y-55609288D01*
X103876360Y-55746392D01*
X103733836Y-55853083D01*
X104597291Y-56716538D01*
X104458452Y-56803777D01*
X104330977Y-56931252D01*
X104243738Y-57070091D01*
X103378175Y-56204528D01*
X103316613Y-56191135D01*
X103266411Y-56140932D01*
X103251000Y-56080549D01*
X103251000Y-52246432D01*
X103271002Y-52178311D01*
X103324658Y-52131818D01*
X103376628Y-52120434D01*
X112210388Y-52094698D01*
X112278563Y-52114500D01*
G37*
%TD.AperFunction*%
%TA.AperFunction,Conductor*%
G36*
X118332406Y-69042364D02*
G01*
X118372000Y-69101295D01*
X118373449Y-69172277D01*
X118369144Y-69185285D01*
X118279148Y-69414593D01*
X118279146Y-69414600D01*
X118220631Y-69670968D01*
X118200980Y-69933200D01*
X118220631Y-70195431D01*
X118279146Y-70451799D01*
X118279147Y-70451802D01*
X118375213Y-70696577D01*
X118375215Y-70696581D01*
X118506696Y-70924313D01*
X118506698Y-70924316D01*
X118506699Y-70924317D01*
X118545558Y-70973045D01*
X118670657Y-71129914D01*
X118812826Y-71261826D01*
X118863420Y-71308770D01*
X118863426Y-71308774D01*
X119080680Y-71456896D01*
X119080687Y-71456900D01*
X119080690Y-71456902D01*
X119239658Y-71533457D01*
X119313417Y-71568978D01*
X119366113Y-71616556D01*
X119384721Y-71685071D01*
X119363333Y-71752769D01*
X119308740Y-71798158D01*
X119258747Y-71808500D01*
X116171213Y-71808500D01*
X116103092Y-71788498D01*
X116056599Y-71734842D01*
X116046495Y-71664568D01*
X116075989Y-71599988D01*
X116095703Y-71581632D01*
X116186961Y-71513315D01*
X116186962Y-71513315D01*
X115323508Y-70649861D01*
X115462348Y-70562623D01*
X115589823Y-70435148D01*
X115677061Y-70296308D01*
X116540515Y-71159762D01*
X116540515Y-71159761D01*
X116647205Y-71017243D01*
X116784311Y-70766151D01*
X116884288Y-70498102D01*
X116945100Y-70218553D01*
X116965508Y-69933200D01*
X116945100Y-69647846D01*
X116884288Y-69368297D01*
X116857134Y-69295494D01*
X116852070Y-69224678D01*
X116886095Y-69162366D01*
X116948407Y-69128341D01*
X117012326Y-69131059D01*
X117068892Y-69148508D01*
X117328918Y-69187700D01*
X117328922Y-69187700D01*
X117591878Y-69187700D01*
X117591882Y-69187700D01*
X117851908Y-69148508D01*
X118103188Y-69070998D01*
X118197186Y-69025730D01*
X118267237Y-69014196D01*
X118332406Y-69042364D01*
G37*
%TD.AperFunction*%
%TA.AperFunction,Conductor*%
G36*
X117201071Y-52823902D02*
G01*
X117222045Y-52840805D01*
X118371212Y-53989972D01*
X118405238Y-54052284D01*
X118400173Y-54123099D01*
X118391238Y-54142064D01*
X118375217Y-54169813D01*
X118279147Y-54414598D01*
X118279146Y-54414600D01*
X118220631Y-54670968D01*
X118200980Y-54933200D01*
X118220631Y-55195431D01*
X118279146Y-55451799D01*
X118279147Y-55451802D01*
X118369144Y-55681113D01*
X118375412Y-55751833D01*
X118342451Y-55814714D01*
X118280726Y-55849794D01*
X118209834Y-55845933D01*
X118197184Y-55840668D01*
X118103193Y-55795404D01*
X118103190Y-55795403D01*
X118103188Y-55795402D01*
X118008359Y-55766151D01*
X117851914Y-55717893D01*
X117851909Y-55717892D01*
X117851908Y-55717892D01*
X117591882Y-55678700D01*
X117328918Y-55678700D01*
X117068892Y-55717892D01*
X117068891Y-55717892D01*
X117068885Y-55717893D01*
X117012327Y-55735339D01*
X116941337Y-55736303D01*
X116881095Y-55698734D01*
X116850728Y-55634560D01*
X116857135Y-55570903D01*
X116884287Y-55498106D01*
X116945100Y-55218553D01*
X116965508Y-54933200D01*
X116945100Y-54647846D01*
X116884288Y-54368297D01*
X116784311Y-54100248D01*
X116647202Y-53849152D01*
X116540516Y-53706637D01*
X116540515Y-53706636D01*
X115677061Y-54570090D01*
X115589823Y-54431252D01*
X115462348Y-54303777D01*
X115323508Y-54216538D01*
X116186962Y-53353083D01*
X116186961Y-53353082D01*
X116044447Y-53246397D01*
X115793350Y-53109288D01*
X115793351Y-53109288D01*
X115628911Y-53047956D01*
X115572075Y-53005409D01*
X115547264Y-52938889D01*
X115562355Y-52869515D01*
X115612558Y-52819313D01*
X115672943Y-52803900D01*
X117132950Y-52803900D01*
X117201071Y-52823902D01*
G37*
%TD.AperFunction*%
%TD*%
M02*
