%TF.GenerationSoftware,KiCad,Pcbnew,7.0.11-7.0.11~ubuntu22.04.1*%
%TF.CreationDate,2025-01-31T21:43:45-05:00*%
%TF.ProjectId,C64UltimatePSU,43363455-6c74-4696-9d61-74655053552e,rev?*%
%TF.SameCoordinates,Original*%
%TF.FileFunction,Soldermask,Top*%
%TF.FilePolarity,Negative*%
%FSLAX46Y46*%
G04 Gerber Fmt 4.6, Leading zero omitted, Abs format (unit mm)*
G04 Created by KiCad (PCBNEW 7.0.11-7.0.11~ubuntu22.04.1) date 2025-01-31 21:43:45*
%MOMM*%
%LPD*%
G01*
G04 APERTURE LIST*
G04 Aperture macros list*
%AMRoundRect*
0 Rectangle with rounded corners*
0 $1 Rounding radius*
0 $2 $3 $4 $5 $6 $7 $8 $9 X,Y pos of 4 corners*
0 Add a 4 corners polygon primitive as box body*
4,1,4,$2,$3,$4,$5,$6,$7,$8,$9,$2,$3,0*
0 Add four circle primitives for the rounded corners*
1,1,$1+$1,$2,$3*
1,1,$1+$1,$4,$5*
1,1,$1+$1,$6,$7*
1,1,$1+$1,$8,$9*
0 Add four rect primitives between the rounded corners*
20,1,$1+$1,$2,$3,$4,$5,0*
20,1,$1+$1,$4,$5,$6,$7,0*
20,1,$1+$1,$6,$7,$8,$9,0*
20,1,$1+$1,$8,$9,$2,$3,0*%
G04 Aperture macros list end*
%ADD10RoundRect,0.250000X0.337500X0.475000X-0.337500X0.475000X-0.337500X-0.475000X0.337500X-0.475000X0*%
%ADD11R,1.600000X1.600000*%
%ADD12C,1.600000*%
%ADD13R,1.700000X1.700000*%
%ADD14O,1.700000X1.700000*%
%ADD15R,1.000000X0.400000*%
%ADD16C,5.000000*%
%ADD17R,3.000000X3.000000*%
%ADD18C,3.000000*%
%ADD19C,3.500000*%
%ADD20RoundRect,0.250000X-0.450000X0.350000X-0.450000X-0.350000X0.450000X-0.350000X0.450000X0.350000X0*%
%ADD21RoundRect,0.250000X-0.475000X0.337500X-0.475000X-0.337500X0.475000X-0.337500X0.475000X0.337500X0*%
%ADD22R,1.500000X1.050000*%
%ADD23O,1.500000X1.050000*%
%ADD24RoundRect,0.250000X-0.350000X-0.450000X0.350000X-0.450000X0.350000X0.450000X-0.350000X0.450000X0*%
%ADD25RoundRect,0.250000X0.450000X-0.350000X0.450000X0.350000X-0.450000X0.350000X-0.450000X-0.350000X0*%
G04 APERTURE END LIST*
D10*
%TO.C,C9*%
X148429800Y-59893200D03*
X146354800Y-59893200D03*
%TD*%
D11*
%TO.C,C4*%
X169545000Y-125185800D03*
D12*
X169545000Y-127685800D03*
%TD*%
D13*
%TO.C,J4*%
X170307000Y-76022200D03*
D14*
X170307000Y-73482200D03*
X170307000Y-70942200D03*
X170307000Y-68402200D03*
%TD*%
D13*
%TO.C,J3*%
X170434000Y-85547200D03*
D14*
X170434000Y-88087200D03*
%TD*%
D15*
%TO.C,IC1*%
X144466400Y-62298200D03*
X144466400Y-62948200D03*
X144466400Y-63598200D03*
X144466400Y-64248200D03*
X144466400Y-64898200D03*
X144466400Y-65548200D03*
X144466400Y-66198200D03*
X144466400Y-66848200D03*
X144466400Y-67498200D03*
X144466400Y-68148200D03*
X150266400Y-68148200D03*
X150266400Y-67498200D03*
X150266400Y-66848200D03*
X150266400Y-66198200D03*
X150266400Y-65548200D03*
X150266400Y-64898200D03*
X150266400Y-64248200D03*
X150266400Y-63598200D03*
X150266400Y-62948200D03*
X150266400Y-62298200D03*
%TD*%
D16*
%TO.C,H6*%
X106880600Y-107479600D03*
%TD*%
D13*
%TO.C,J1*%
X160756600Y-54229000D03*
D14*
X158216600Y-54229000D03*
X155676600Y-54229000D03*
X153136600Y-54229000D03*
%TD*%
D17*
%TO.C,PS2*%
X116687600Y-79047400D03*
D18*
X116687600Y-99847400D03*
X161687600Y-99847400D03*
X161687600Y-91847400D03*
%TD*%
D19*
%TO.C,H2*%
X106908600Y-127355600D03*
%TD*%
D18*
%TO.C,J2*%
X114960400Y-69933200D03*
X104960400Y-67433200D03*
X104960400Y-57433200D03*
X114960400Y-62433200D03*
X114960400Y-54933200D03*
X117460400Y-67433200D03*
X117460400Y-57433200D03*
X119960400Y-69933200D03*
X119960400Y-54933200D03*
%TD*%
D16*
%TO.C,H4*%
X106880600Y-100479600D03*
%TD*%
D13*
%TO.C,J5*%
X140055600Y-54229000D03*
D14*
X137515600Y-54229000D03*
%TD*%
D20*
%TO.C,R20*%
X140944600Y-67519000D03*
X140944600Y-69519000D03*
%TD*%
D16*
%TO.C,H3*%
X106880600Y-86479600D03*
%TD*%
D20*
%TO.C,R19*%
X155702000Y-70948800D03*
X155702000Y-72948800D03*
%TD*%
D21*
%TO.C,C12*%
X140919200Y-63509700D03*
X140919200Y-65584700D03*
%TD*%
D22*
%TO.C,IC6*%
X169875200Y-115062000D03*
D23*
X169875200Y-116332000D03*
X169875200Y-117602000D03*
%TD*%
D19*
%TO.C,H1*%
X128778000Y-55549800D03*
%TD*%
D13*
%TO.C,JP2*%
X147142200Y-54203600D03*
D14*
X144602200Y-54203600D03*
%TD*%
D11*
%TO.C,C16*%
X127609600Y-63082800D03*
D12*
X127609600Y-65582800D03*
%TD*%
%TO.C,RV1*%
X105380600Y-119579600D03*
X110380600Y-121379600D03*
%TD*%
D24*
%TO.C,R22*%
X132239000Y-63068200D03*
X134239000Y-63068200D03*
%TD*%
D16*
%TO.C,H5*%
X106880600Y-93479600D03*
%TD*%
D24*
%TO.C,R23*%
X156419800Y-62941200D03*
X158419800Y-62941200D03*
%TD*%
D20*
%TO.C,R21*%
X157708600Y-70974200D03*
X157708600Y-72974200D03*
%TD*%
%TO.C,R18*%
X153746200Y-70974200D03*
X153746200Y-72974200D03*
%TD*%
D16*
%TO.C,H7*%
X106880600Y-114479600D03*
%TD*%
D17*
%TO.C,PS1*%
X116696400Y-106962000D03*
D18*
X116696400Y-127762000D03*
X161696400Y-127762000D03*
X161696400Y-119762000D03*
%TD*%
D25*
%TO.C,R16*%
X168630600Y-94954600D03*
X168630600Y-92954600D03*
%TD*%
M02*
