%TF.GenerationSoftware,KiCad,Pcbnew,7.0.11-7.0.11~ubuntu22.04.1*%
%TF.CreationDate,2025-01-31T21:43:45-05:00*%
%TF.ProjectId,C64UltimatePSU,43363455-6c74-4696-9d61-74655053552e,rev?*%
%TF.SameCoordinates,Original*%
%TF.FileFunction,Paste,Bot*%
%TF.FilePolarity,Positive*%
%FSLAX46Y46*%
G04 Gerber Fmt 4.6, Leading zero omitted, Abs format (unit mm)*
G04 Created by KiCad (PCBNEW 7.0.11-7.0.11~ubuntu22.04.1) date 2025-01-31 21:43:45*
%MOMM*%
%LPD*%
G01*
G04 APERTURE LIST*
G04 Aperture macros list*
%AMRoundRect*
0 Rectangle with rounded corners*
0 $1 Rounding radius*
0 $2 $3 $4 $5 $6 $7 $8 $9 X,Y pos of 4 corners*
0 Add a 4 corners polygon primitive as box body*
4,1,4,$2,$3,$4,$5,$6,$7,$8,$9,$2,$3,0*
0 Add four circle primitives for the rounded corners*
1,1,$1+$1,$2,$3*
1,1,$1+$1,$4,$5*
1,1,$1+$1,$6,$7*
1,1,$1+$1,$8,$9*
0 Add four rect primitives between the rounded corners*
20,1,$1+$1,$2,$3,$4,$5,0*
20,1,$1+$1,$4,$5,$6,$7,0*
20,1,$1+$1,$6,$7,$8,$9,0*
20,1,$1+$1,$8,$9,$2,$3,0*%
G04 Aperture macros list end*
%ADD10C,0.010000*%
%ADD11RoundRect,0.137500X-0.137500X0.662500X-0.137500X-0.662500X0.137500X-0.662500X0.137500X0.662500X0*%
%ADD12RoundRect,0.250000X0.450000X-0.350000X0.450000X0.350000X-0.450000X0.350000X-0.450000X-0.350000X0*%
%ADD13RoundRect,0.250000X0.350000X0.450000X-0.350000X0.450000X-0.350000X-0.450000X0.350000X-0.450000X0*%
%ADD14RoundRect,0.250000X-0.475000X0.337500X-0.475000X-0.337500X0.475000X-0.337500X0.475000X0.337500X0*%
%ADD15RoundRect,0.250000X-0.450000X0.350000X-0.450000X-0.350000X0.450000X-0.350000X0.450000X0.350000X0*%
%ADD16RoundRect,0.250000X-0.337500X-0.475000X0.337500X-0.475000X0.337500X0.475000X-0.337500X0.475000X0*%
%ADD17RoundRect,0.250000X0.475000X-0.337500X0.475000X0.337500X-0.475000X0.337500X-0.475000X-0.337500X0*%
%ADD18RoundRect,0.162500X-0.162500X0.617500X-0.162500X-0.617500X0.162500X-0.617500X0.162500X0.617500X0*%
%ADD19RoundRect,0.250000X0.625000X-0.400000X0.625000X0.400000X-0.625000X0.400000X-0.625000X-0.400000X0*%
%ADD20RoundRect,0.051250X-0.153750X0.733750X-0.153750X-0.733750X0.153750X-0.733750X0.153750X0.733750X0*%
%ADD21RoundRect,0.250000X0.337500X0.475000X-0.337500X0.475000X-0.337500X-0.475000X0.337500X-0.475000X0*%
%ADD22RoundRect,0.162500X0.617500X0.162500X-0.617500X0.162500X-0.617500X-0.162500X0.617500X-0.162500X0*%
%ADD23RoundRect,0.250000X-0.350000X-0.450000X0.350000X-0.450000X0.350000X0.450000X-0.350000X0.450000X0*%
G04 APERTURE END LIST*
%TO.C,IC4*%
D10*
X153286200Y-119799200D02*
X151136200Y-119799200D01*
X151136200Y-118199200D01*
X153286200Y-118199200D01*
X153286200Y-119799200D01*
G36*
X153286200Y-119799200D02*
G01*
X151136200Y-119799200D01*
X151136200Y-118199200D01*
X153286200Y-118199200D01*
X153286200Y-119799200D01*
G37*
%TD*%
D11*
%TO.C,IC5*%
X140385800Y-97155000D03*
X141655800Y-97155000D03*
X142925800Y-97155000D03*
X144195800Y-97155000D03*
X145465800Y-97155000D03*
X146735800Y-97155000D03*
X148005800Y-97155000D03*
X149275800Y-97155000D03*
X149275800Y-103655000D03*
X148005800Y-103655000D03*
X146735800Y-103655000D03*
X145465800Y-103655000D03*
X144195800Y-103655000D03*
X142925800Y-103655000D03*
X141655800Y-103655000D03*
X140385800Y-103655000D03*
%TD*%
D12*
%TO.C,R14*%
X154584400Y-110921800D03*
X154584400Y-108921800D03*
%TD*%
D13*
%TO.C,R17*%
X154450800Y-96240600D03*
X152450800Y-96240600D03*
%TD*%
D14*
%TO.C,C17*%
X152577800Y-125298200D03*
X152577800Y-127373200D03*
%TD*%
D15*
%TO.C,R4*%
X168656000Y-97720400D03*
X168656000Y-99720400D03*
%TD*%
D16*
%TO.C,C15*%
X138564800Y-83667600D03*
X140639800Y-83667600D03*
%TD*%
D17*
%TO.C,C1*%
X156591000Y-110998000D03*
X156591000Y-108923000D03*
%TD*%
D14*
%TO.C,C13*%
X149733000Y-125255200D03*
X149733000Y-127330200D03*
%TD*%
D13*
%TO.C,R1*%
X154457400Y-98196400D03*
X152457400Y-98196400D03*
%TD*%
D15*
%TO.C,R3*%
X168656000Y-92970600D03*
X168656000Y-94970600D03*
%TD*%
D18*
%TO.C,IC2*%
X142778400Y-80949800D03*
X143728400Y-80949800D03*
X144678400Y-80949800D03*
X144678400Y-83649800D03*
X143728400Y-83649800D03*
X142778400Y-83649800D03*
%TD*%
D13*
%TO.C,R5*%
X154457400Y-102184200D03*
X152457400Y-102184200D03*
%TD*%
%TO.C,R2*%
X154457400Y-100253800D03*
X152457400Y-100253800D03*
%TD*%
D19*
%TO.C,R9*%
X153290400Y-89485400D03*
X153290400Y-86385400D03*
%TD*%
D20*
%TO.C,IC4*%
X149936200Y-116129200D03*
X150586200Y-116129200D03*
X151236200Y-116129200D03*
X151886200Y-116129200D03*
X152536200Y-116129200D03*
X153186200Y-116129200D03*
X153836200Y-116129200D03*
X154486200Y-116129200D03*
X154486200Y-121869200D03*
X153836200Y-121869200D03*
X153186200Y-121869200D03*
X152536200Y-121869200D03*
X151886200Y-121869200D03*
X151236200Y-121869200D03*
X150586200Y-121869200D03*
X149936200Y-121869200D03*
%TD*%
D21*
%TO.C,C3*%
X145796000Y-77978000D03*
X143721000Y-77978000D03*
%TD*%
D19*
%TO.C,R8*%
X150000400Y-89485400D03*
X150000400Y-86385400D03*
%TD*%
D22*
%TO.C,IC3*%
X161874200Y-85775800D03*
X161874200Y-86725800D03*
X161874200Y-87675800D03*
X159174200Y-87675800D03*
X159174200Y-85775800D03*
%TD*%
D12*
%TO.C,R13*%
X158800800Y-110915200D03*
X158800800Y-108915200D03*
%TD*%
%TO.C,R12*%
X152527000Y-110915200D03*
X152527000Y-108915200D03*
%TD*%
D16*
%TO.C,C14*%
X160959800Y-83210400D03*
X163034800Y-83210400D03*
%TD*%
D14*
%TO.C,C7*%
X155549600Y-125302100D03*
X155549600Y-127377100D03*
%TD*%
D17*
%TO.C,C2*%
X143738600Y-88493600D03*
X143738600Y-86418600D03*
%TD*%
D19*
%TO.C,R7*%
X146710400Y-89485400D03*
X146710400Y-86385400D03*
%TD*%
%TO.C,R10*%
X156580400Y-89485400D03*
X156580400Y-86385400D03*
%TD*%
D16*
%TO.C,C6*%
X164773700Y-114909600D03*
X166848700Y-114909600D03*
%TD*%
D23*
%TO.C,R6*%
X165379400Y-68402200D03*
X167379400Y-68402200D03*
%TD*%
%TO.C,R15*%
X165379400Y-70967600D03*
X167379400Y-70967600D03*
%TD*%
D15*
%TO.C,R11*%
X150368000Y-108915200D03*
X150368000Y-110915200D03*
%TD*%
D17*
%TO.C,C5*%
X166192200Y-99745800D03*
X166192200Y-97670800D03*
%TD*%
M02*
