M48
; DRILL file {KiCad 7.0.11-7.0.11~ubuntu22.04.1} date Fri 31 Jan 2025 09:35:23 PM
; FORMAT={-:-/ absolute / inch / decimal}
; #@! TF.CreationDate,2025-01-31T21:35:23-05:00
; #@! TF.GenerationSoftware,Kicad,Pcbnew,7.0.11-7.0.11~ubuntu22.04.1
; #@! TF.FileFunction,Plated,1,2,PTH
FMAT,2
INCH
; #@! TA.AperFunction,Plated,PTH,ViaDrill
T1C0.0157
; #@! TA.AperFunction,Plated,PTH,ComponentDrill
T2C0.0236
; #@! TA.AperFunction,Plated,PTH,ComponentDrill
T3C0.0295
; #@! TA.AperFunction,Plated,PTH,ComponentDrill
T4C0.0315
; #@! TA.AperFunction,Plated,PTH,ComponentDrill
T5C0.0394
; #@! TA.AperFunction,Plated,PTH,ComponentDrill
T6C0.0591
; #@! TA.AperFunction,Plated,PTH,ComponentDrill
T7C0.0630
; #@! TA.AperFunction,Plated,PTH,ComponentDrill
T8C0.0984
%
G90
G05
T1
X5.024Y-2.365
X5.335Y-2.483
X5.364Y-2.404
X5.37Y-2.823
X5.376Y-3.294
X5.377Y-4.0
X5.378Y-4.163
X5.378Y-4.536
X5.378Y-4.609
X5.38Y-5.1
X5.545Y-2.338
X5.546Y-2.393
X5.548Y-2.4432
X5.566Y-3.67
X5.577Y-4.162
X5.596Y-3.484
X5.635Y-3.584
X5.638Y-2.548
X5.641Y-2.5042
X5.659Y-3.668
X5.678Y-4.162
X5.687Y-2.7352
X5.702Y-4.741
X5.707Y-3.544
X5.736Y-2.683
X5.738Y-3.186
X5.741Y-2.775
X5.745Y-2.5042
X5.7595Y-3.6695
X5.763Y-4.518
X5.777Y-3.934
X5.778Y-4.162
X5.796Y-3.07
X5.809Y-2.895
X5.822Y-2.743
X5.827Y-4.127
X5.8275Y-2.4925
X5.845Y-4.891
X5.85Y-3.669
X5.856Y-3.239
X5.858Y-3.318
X5.868Y-2.478
X5.876Y-3.933
X5.8876Y-4.654
X5.8876Y-4.686
X5.8876Y-4.718
X5.899Y-2.357
X5.9249Y-4.0809
X5.925Y-3.669
X5.935Y-4.226
X5.954Y-2.841
X5.97Y-5.101
X5.995Y-2.683
X6.058Y-4.177
X6.0956Y-4.651
X6.0966Y-4.685
X6.0966Y-4.717
X6.112Y-4.572
X6.126Y-4.856
X6.185Y-4.932
X6.273Y-3.277
X6.274Y-2.868
X6.29Y-2.476
X6.419Y-3.116
X6.43Y-4.524
X6.439Y-2.626
X6.44Y-2.694
X6.441Y-2.793
X6.443Y-2.871
X6.445Y-3.35
X6.472Y-4.163
X6.473Y-4.843
X6.505Y-3.657
X6.576Y-3.682
X6.772Y-2.082
X6.777Y-3.989
T2
X4.1488Y-4.7079
X4.3457Y-4.7787
T3
X6.688Y-4.53
X6.688Y-4.58
X6.688Y-4.63
T4
X5.024Y-2.4836
X5.024Y-2.582
X6.675Y-4.9286
X6.675Y-5.027
T5
X5.414Y-2.135
X5.514Y-2.135
X5.693Y-2.134
X5.793Y-2.134
X6.029Y-2.135
X6.129Y-2.135
X6.229Y-2.135
X6.329Y-2.135
X6.705Y-2.693
X6.705Y-2.793
X6.705Y-2.893
X6.705Y-2.993
X6.71Y-3.368
X6.71Y-3.468
T6
X4.594Y-3.1121
X4.594Y-3.931
X4.5943Y-4.2111
X4.5943Y-5.03
X6.3657Y-3.616
X6.3657Y-3.931
X6.366Y-4.715
X6.366Y-5.03
T7
X4.1323Y-2.2611
X4.1323Y-2.6549
X4.526Y-2.1627
X4.526Y-2.458
X4.526Y-2.7533
X4.6244Y-2.2611
X4.6244Y-2.6549
X4.7229Y-2.1627
X4.7229Y-2.7533
T8
X4.2079Y-3.4047
X4.2079Y-3.6803
X4.2079Y-3.9559
X4.2079Y-4.2315
X4.2079Y-4.5071
M30
