%TF.GenerationSoftware,KiCad,Pcbnew,7.0.11-7.0.11~ubuntu22.04.1*%
%TF.CreationDate,2025-01-31T21:43:45-05:00*%
%TF.ProjectId,C64UltimatePSU,43363455-6c74-4696-9d61-74655053552e,rev?*%
%TF.SameCoordinates,Original*%
%TF.FileFunction,Legend,Bot*%
%TF.FilePolarity,Positive*%
%FSLAX46Y46*%
G04 Gerber Fmt 4.6, Leading zero omitted, Abs format (unit mm)*
G04 Created by KiCad (PCBNEW 7.0.11-7.0.11~ubuntu22.04.1) date 2025-01-31 21:43:45*
%MOMM*%
%LPD*%
G01*
G04 APERTURE LIST*
%ADD10C,0.150000*%
%ADD11C,0.125000*%
%ADD12C,0.120000*%
%ADD13C,0.127000*%
%ADD14C,0.200000*%
G04 APERTURE END LIST*
D10*
X116936619Y-83350341D02*
X117936619Y-83588436D01*
X117936619Y-83588436D02*
X117222333Y-83778912D01*
X117222333Y-83778912D02*
X117936619Y-83969388D01*
X117936619Y-83969388D02*
X116936619Y-84207484D01*
X117650904Y-84540817D02*
X117650904Y-85017007D01*
X117936619Y-84445579D02*
X116936619Y-84778912D01*
X116936619Y-84778912D02*
X117936619Y-85112245D01*
X117936619Y-86017007D02*
X117460428Y-85683674D01*
X117936619Y-85445579D02*
X116936619Y-85445579D01*
X116936619Y-85445579D02*
X116936619Y-85826531D01*
X116936619Y-85826531D02*
X116984238Y-85921769D01*
X116984238Y-85921769D02*
X117031857Y-85969388D01*
X117031857Y-85969388D02*
X117127095Y-86017007D01*
X117127095Y-86017007D02*
X117269952Y-86017007D01*
X117269952Y-86017007D02*
X117365190Y-85969388D01*
X117365190Y-85969388D02*
X117412809Y-85921769D01*
X117412809Y-85921769D02*
X117460428Y-85826531D01*
X117460428Y-85826531D02*
X117460428Y-85445579D01*
X117936619Y-86445579D02*
X116936619Y-86445579D01*
X116936619Y-86445579D02*
X117936619Y-87017007D01*
X117936619Y-87017007D02*
X116936619Y-87017007D01*
X117936619Y-87493198D02*
X116936619Y-87493198D01*
X117936619Y-87969388D02*
X116936619Y-87969388D01*
X116936619Y-87969388D02*
X117936619Y-88540816D01*
X117936619Y-88540816D02*
X116936619Y-88540816D01*
X116984238Y-89540816D02*
X116936619Y-89445578D01*
X116936619Y-89445578D02*
X116936619Y-89302721D01*
X116936619Y-89302721D02*
X116984238Y-89159864D01*
X116984238Y-89159864D02*
X117079476Y-89064626D01*
X117079476Y-89064626D02*
X117174714Y-89017007D01*
X117174714Y-89017007D02*
X117365190Y-88969388D01*
X117365190Y-88969388D02*
X117508047Y-88969388D01*
X117508047Y-88969388D02*
X117698523Y-89017007D01*
X117698523Y-89017007D02*
X117793761Y-89064626D01*
X117793761Y-89064626D02*
X117889000Y-89159864D01*
X117889000Y-89159864D02*
X117936619Y-89302721D01*
X117936619Y-89302721D02*
X117936619Y-89397959D01*
X117936619Y-89397959D02*
X117889000Y-89540816D01*
X117889000Y-89540816D02*
X117841380Y-89588435D01*
X117841380Y-89588435D02*
X117508047Y-89588435D01*
X117508047Y-89588435D02*
X117508047Y-89397959D01*
X117841380Y-90017007D02*
X117889000Y-90064626D01*
X117889000Y-90064626D02*
X117936619Y-90017007D01*
X117936619Y-90017007D02*
X117889000Y-89969388D01*
X117889000Y-89969388D02*
X117841380Y-90017007D01*
X117841380Y-90017007D02*
X117936619Y-90017007D01*
X117555666Y-90017007D02*
X116984238Y-89969388D01*
X116984238Y-89969388D02*
X116936619Y-90017007D01*
X116936619Y-90017007D02*
X116984238Y-90064626D01*
X116984238Y-90064626D02*
X117555666Y-90017007D01*
X117555666Y-90017007D02*
X116936619Y-90017007D01*
X117841380Y-90493197D02*
X117889000Y-90540816D01*
X117889000Y-90540816D02*
X117936619Y-90493197D01*
X117936619Y-90493197D02*
X117889000Y-90445578D01*
X117889000Y-90445578D02*
X117841380Y-90493197D01*
X117841380Y-90493197D02*
X117936619Y-90493197D01*
X117555666Y-90493197D02*
X116984238Y-90445578D01*
X116984238Y-90445578D02*
X116936619Y-90493197D01*
X116936619Y-90493197D02*
X116984238Y-90540816D01*
X116984238Y-90540816D02*
X117555666Y-90493197D01*
X117555666Y-90493197D02*
X116936619Y-90493197D01*
X117841380Y-90969387D02*
X117889000Y-91017006D01*
X117889000Y-91017006D02*
X117936619Y-90969387D01*
X117936619Y-90969387D02*
X117889000Y-90921768D01*
X117889000Y-90921768D02*
X117841380Y-90969387D01*
X117841380Y-90969387D02*
X117936619Y-90969387D01*
X117555666Y-90969387D02*
X116984238Y-90921768D01*
X116984238Y-90921768D02*
X116936619Y-90969387D01*
X116936619Y-90969387D02*
X116984238Y-91017006D01*
X116984238Y-91017006D02*
X117555666Y-90969387D01*
X117555666Y-90969387D02*
X116936619Y-90969387D01*
X117841380Y-91445577D02*
X117889000Y-91493196D01*
X117889000Y-91493196D02*
X117936619Y-91445577D01*
X117936619Y-91445577D02*
X117889000Y-91397958D01*
X117889000Y-91397958D02*
X117841380Y-91445577D01*
X117841380Y-91445577D02*
X117936619Y-91445577D01*
X117555666Y-91445577D02*
X116984238Y-91397958D01*
X116984238Y-91397958D02*
X116936619Y-91445577D01*
X116936619Y-91445577D02*
X116984238Y-91493196D01*
X116984238Y-91493196D02*
X117555666Y-91445577D01*
X117555666Y-91445577D02*
X116936619Y-91445577D01*
X118546619Y-83302722D02*
X118546619Y-83874150D01*
X119546619Y-83588436D02*
X118546619Y-83588436D01*
X119546619Y-84207484D02*
X118546619Y-84207484D01*
X119546619Y-84636055D02*
X119022809Y-84636055D01*
X119022809Y-84636055D02*
X118927571Y-84588436D01*
X118927571Y-84588436D02*
X118879952Y-84493198D01*
X118879952Y-84493198D02*
X118879952Y-84350341D01*
X118879952Y-84350341D02*
X118927571Y-84255103D01*
X118927571Y-84255103D02*
X118975190Y-84207484D01*
X119546619Y-85112246D02*
X118879952Y-85112246D01*
X118546619Y-85112246D02*
X118594238Y-85064627D01*
X118594238Y-85064627D02*
X118641857Y-85112246D01*
X118641857Y-85112246D02*
X118594238Y-85159865D01*
X118594238Y-85159865D02*
X118546619Y-85112246D01*
X118546619Y-85112246D02*
X118641857Y-85112246D01*
X119499000Y-85540817D02*
X119546619Y-85636055D01*
X119546619Y-85636055D02*
X119546619Y-85826531D01*
X119546619Y-85826531D02*
X119499000Y-85921769D01*
X119499000Y-85921769D02*
X119403761Y-85969388D01*
X119403761Y-85969388D02*
X119356142Y-85969388D01*
X119356142Y-85969388D02*
X119260904Y-85921769D01*
X119260904Y-85921769D02*
X119213285Y-85826531D01*
X119213285Y-85826531D02*
X119213285Y-85683674D01*
X119213285Y-85683674D02*
X119165666Y-85588436D01*
X119165666Y-85588436D02*
X119070428Y-85540817D01*
X119070428Y-85540817D02*
X119022809Y-85540817D01*
X119022809Y-85540817D02*
X118927571Y-85588436D01*
X118927571Y-85588436D02*
X118879952Y-85683674D01*
X118879952Y-85683674D02*
X118879952Y-85826531D01*
X118879952Y-85826531D02*
X118927571Y-85921769D01*
X119499000Y-87588436D02*
X119546619Y-87493198D01*
X119546619Y-87493198D02*
X119546619Y-87302722D01*
X119546619Y-87302722D02*
X119499000Y-87207484D01*
X119499000Y-87207484D02*
X119451380Y-87159865D01*
X119451380Y-87159865D02*
X119356142Y-87112246D01*
X119356142Y-87112246D02*
X119070428Y-87112246D01*
X119070428Y-87112246D02*
X118975190Y-87159865D01*
X118975190Y-87159865D02*
X118927571Y-87207484D01*
X118927571Y-87207484D02*
X118879952Y-87302722D01*
X118879952Y-87302722D02*
X118879952Y-87493198D01*
X118879952Y-87493198D02*
X118927571Y-87588436D01*
X119546619Y-88017008D02*
X118879952Y-88017008D01*
X118546619Y-88017008D02*
X118594238Y-87969389D01*
X118594238Y-87969389D02*
X118641857Y-88017008D01*
X118641857Y-88017008D02*
X118594238Y-88064627D01*
X118594238Y-88064627D02*
X118546619Y-88017008D01*
X118546619Y-88017008D02*
X118641857Y-88017008D01*
X119546619Y-88493198D02*
X118879952Y-88493198D01*
X119070428Y-88493198D02*
X118975190Y-88540817D01*
X118975190Y-88540817D02*
X118927571Y-88588436D01*
X118927571Y-88588436D02*
X118879952Y-88683674D01*
X118879952Y-88683674D02*
X118879952Y-88778912D01*
X119499000Y-89540817D02*
X119546619Y-89445579D01*
X119546619Y-89445579D02*
X119546619Y-89255103D01*
X119546619Y-89255103D02*
X119499000Y-89159865D01*
X119499000Y-89159865D02*
X119451380Y-89112246D01*
X119451380Y-89112246D02*
X119356142Y-89064627D01*
X119356142Y-89064627D02*
X119070428Y-89064627D01*
X119070428Y-89064627D02*
X118975190Y-89112246D01*
X118975190Y-89112246D02*
X118927571Y-89159865D01*
X118927571Y-89159865D02*
X118879952Y-89255103D01*
X118879952Y-89255103D02*
X118879952Y-89445579D01*
X118879952Y-89445579D02*
X118927571Y-89540817D01*
X118879952Y-90397960D02*
X119546619Y-90397960D01*
X118879952Y-89969389D02*
X119403761Y-89969389D01*
X119403761Y-89969389D02*
X119499000Y-90017008D01*
X119499000Y-90017008D02*
X119546619Y-90112246D01*
X119546619Y-90112246D02*
X119546619Y-90255103D01*
X119546619Y-90255103D02*
X119499000Y-90350341D01*
X119499000Y-90350341D02*
X119451380Y-90397960D01*
X119546619Y-90874151D02*
X118879952Y-90874151D01*
X118546619Y-90874151D02*
X118594238Y-90826532D01*
X118594238Y-90826532D02*
X118641857Y-90874151D01*
X118641857Y-90874151D02*
X118594238Y-90921770D01*
X118594238Y-90921770D02*
X118546619Y-90874151D01*
X118546619Y-90874151D02*
X118641857Y-90874151D01*
X118879952Y-91207484D02*
X118879952Y-91588436D01*
X118546619Y-91350341D02*
X119403761Y-91350341D01*
X119403761Y-91350341D02*
X119499000Y-91397960D01*
X119499000Y-91397960D02*
X119546619Y-91493198D01*
X119546619Y-91493198D02*
X119546619Y-91588436D01*
X119546619Y-92683675D02*
X118879952Y-92683675D01*
X118546619Y-92683675D02*
X118594238Y-92636056D01*
X118594238Y-92636056D02*
X118641857Y-92683675D01*
X118641857Y-92683675D02*
X118594238Y-92731294D01*
X118594238Y-92731294D02*
X118546619Y-92683675D01*
X118546619Y-92683675D02*
X118641857Y-92683675D01*
X119499000Y-93112246D02*
X119546619Y-93207484D01*
X119546619Y-93207484D02*
X119546619Y-93397960D01*
X119546619Y-93397960D02*
X119499000Y-93493198D01*
X119499000Y-93493198D02*
X119403761Y-93540817D01*
X119403761Y-93540817D02*
X119356142Y-93540817D01*
X119356142Y-93540817D02*
X119260904Y-93493198D01*
X119260904Y-93493198D02*
X119213285Y-93397960D01*
X119213285Y-93397960D02*
X119213285Y-93255103D01*
X119213285Y-93255103D02*
X119165666Y-93159865D01*
X119165666Y-93159865D02*
X119070428Y-93112246D01*
X119070428Y-93112246D02*
X119022809Y-93112246D01*
X119022809Y-93112246D02*
X118927571Y-93159865D01*
X118927571Y-93159865D02*
X118879952Y-93255103D01*
X118879952Y-93255103D02*
X118879952Y-93397960D01*
X118879952Y-93397960D02*
X118927571Y-93493198D01*
X119546619Y-95159865D02*
X119022809Y-95159865D01*
X119022809Y-95159865D02*
X118927571Y-95112246D01*
X118927571Y-95112246D02*
X118879952Y-95017008D01*
X118879952Y-95017008D02*
X118879952Y-94826532D01*
X118879952Y-94826532D02*
X118927571Y-94731294D01*
X119499000Y-95159865D02*
X119546619Y-95064627D01*
X119546619Y-95064627D02*
X119546619Y-94826532D01*
X119546619Y-94826532D02*
X119499000Y-94731294D01*
X119499000Y-94731294D02*
X119403761Y-94683675D01*
X119403761Y-94683675D02*
X119308523Y-94683675D01*
X119308523Y-94683675D02*
X119213285Y-94731294D01*
X119213285Y-94731294D02*
X119165666Y-94826532D01*
X119165666Y-94826532D02*
X119165666Y-95064627D01*
X119165666Y-95064627D02*
X119118047Y-95159865D01*
X118879952Y-95636056D02*
X119546619Y-95636056D01*
X118975190Y-95636056D02*
X118927571Y-95683675D01*
X118927571Y-95683675D02*
X118879952Y-95778913D01*
X118879952Y-95778913D02*
X118879952Y-95921770D01*
X118879952Y-95921770D02*
X118927571Y-96017008D01*
X118927571Y-96017008D02*
X119022809Y-96064627D01*
X119022809Y-96064627D02*
X119546619Y-96064627D01*
X119499000Y-97683675D02*
X119546619Y-97588437D01*
X119546619Y-97588437D02*
X119546619Y-97397961D01*
X119546619Y-97397961D02*
X119499000Y-97302723D01*
X119499000Y-97302723D02*
X119403761Y-97255104D01*
X119403761Y-97255104D02*
X119022809Y-97255104D01*
X119022809Y-97255104D02*
X118927571Y-97302723D01*
X118927571Y-97302723D02*
X118879952Y-97397961D01*
X118879952Y-97397961D02*
X118879952Y-97588437D01*
X118879952Y-97588437D02*
X118927571Y-97683675D01*
X118927571Y-97683675D02*
X119022809Y-97731294D01*
X119022809Y-97731294D02*
X119118047Y-97731294D01*
X119118047Y-97731294D02*
X119213285Y-97255104D01*
X119546619Y-98064628D02*
X118879952Y-98588437D01*
X118879952Y-98064628D02*
X119546619Y-98588437D01*
X118879952Y-98969390D02*
X119879952Y-98969390D01*
X118927571Y-98969390D02*
X118879952Y-99064628D01*
X118879952Y-99064628D02*
X118879952Y-99255104D01*
X118879952Y-99255104D02*
X118927571Y-99350342D01*
X118927571Y-99350342D02*
X118975190Y-99397961D01*
X118975190Y-99397961D02*
X119070428Y-99445580D01*
X119070428Y-99445580D02*
X119356142Y-99445580D01*
X119356142Y-99445580D02*
X119451380Y-99397961D01*
X119451380Y-99397961D02*
X119499000Y-99350342D01*
X119499000Y-99350342D02*
X119546619Y-99255104D01*
X119546619Y-99255104D02*
X119546619Y-99064628D01*
X119546619Y-99064628D02*
X119499000Y-98969390D01*
X119499000Y-100255104D02*
X119546619Y-100159866D01*
X119546619Y-100159866D02*
X119546619Y-99969390D01*
X119546619Y-99969390D02*
X119499000Y-99874152D01*
X119499000Y-99874152D02*
X119403761Y-99826533D01*
X119403761Y-99826533D02*
X119022809Y-99826533D01*
X119022809Y-99826533D02*
X118927571Y-99874152D01*
X118927571Y-99874152D02*
X118879952Y-99969390D01*
X118879952Y-99969390D02*
X118879952Y-100159866D01*
X118879952Y-100159866D02*
X118927571Y-100255104D01*
X118927571Y-100255104D02*
X119022809Y-100302723D01*
X119022809Y-100302723D02*
X119118047Y-100302723D01*
X119118047Y-100302723D02*
X119213285Y-99826533D01*
X119546619Y-100731295D02*
X118879952Y-100731295D01*
X119070428Y-100731295D02*
X118975190Y-100778914D01*
X118975190Y-100778914D02*
X118927571Y-100826533D01*
X118927571Y-100826533D02*
X118879952Y-100921771D01*
X118879952Y-100921771D02*
X118879952Y-101017009D01*
X119546619Y-101350343D02*
X118879952Y-101350343D01*
X118546619Y-101350343D02*
X118594238Y-101302724D01*
X118594238Y-101302724D02*
X118641857Y-101350343D01*
X118641857Y-101350343D02*
X118594238Y-101397962D01*
X118594238Y-101397962D02*
X118546619Y-101350343D01*
X118546619Y-101350343D02*
X118641857Y-101350343D01*
X119546619Y-101826533D02*
X118879952Y-101826533D01*
X118975190Y-101826533D02*
X118927571Y-101874152D01*
X118927571Y-101874152D02*
X118879952Y-101969390D01*
X118879952Y-101969390D02*
X118879952Y-102112247D01*
X118879952Y-102112247D02*
X118927571Y-102207485D01*
X118927571Y-102207485D02*
X119022809Y-102255104D01*
X119022809Y-102255104D02*
X119546619Y-102255104D01*
X119022809Y-102255104D02*
X118927571Y-102302723D01*
X118927571Y-102302723D02*
X118879952Y-102397961D01*
X118879952Y-102397961D02*
X118879952Y-102540818D01*
X118879952Y-102540818D02*
X118927571Y-102636057D01*
X118927571Y-102636057D02*
X119022809Y-102683676D01*
X119022809Y-102683676D02*
X119546619Y-102683676D01*
X119499000Y-103540818D02*
X119546619Y-103445580D01*
X119546619Y-103445580D02*
X119546619Y-103255104D01*
X119546619Y-103255104D02*
X119499000Y-103159866D01*
X119499000Y-103159866D02*
X119403761Y-103112247D01*
X119403761Y-103112247D02*
X119022809Y-103112247D01*
X119022809Y-103112247D02*
X118927571Y-103159866D01*
X118927571Y-103159866D02*
X118879952Y-103255104D01*
X118879952Y-103255104D02*
X118879952Y-103445580D01*
X118879952Y-103445580D02*
X118927571Y-103540818D01*
X118927571Y-103540818D02*
X119022809Y-103588437D01*
X119022809Y-103588437D02*
X119118047Y-103588437D01*
X119118047Y-103588437D02*
X119213285Y-103112247D01*
X118879952Y-104017009D02*
X119546619Y-104017009D01*
X118975190Y-104017009D02*
X118927571Y-104064628D01*
X118927571Y-104064628D02*
X118879952Y-104159866D01*
X118879952Y-104159866D02*
X118879952Y-104302723D01*
X118879952Y-104302723D02*
X118927571Y-104397961D01*
X118927571Y-104397961D02*
X119022809Y-104445580D01*
X119022809Y-104445580D02*
X119546619Y-104445580D01*
X118879952Y-104778914D02*
X118879952Y-105159866D01*
X118546619Y-104921771D02*
X119403761Y-104921771D01*
X119403761Y-104921771D02*
X119499000Y-104969390D01*
X119499000Y-104969390D02*
X119546619Y-105064628D01*
X119546619Y-105064628D02*
X119546619Y-105159866D01*
X119546619Y-105921771D02*
X119022809Y-105921771D01*
X119022809Y-105921771D02*
X118927571Y-105874152D01*
X118927571Y-105874152D02*
X118879952Y-105778914D01*
X118879952Y-105778914D02*
X118879952Y-105588438D01*
X118879952Y-105588438D02*
X118927571Y-105493200D01*
X119499000Y-105921771D02*
X119546619Y-105826533D01*
X119546619Y-105826533D02*
X119546619Y-105588438D01*
X119546619Y-105588438D02*
X119499000Y-105493200D01*
X119499000Y-105493200D02*
X119403761Y-105445581D01*
X119403761Y-105445581D02*
X119308523Y-105445581D01*
X119308523Y-105445581D02*
X119213285Y-105493200D01*
X119213285Y-105493200D02*
X119165666Y-105588438D01*
X119165666Y-105588438D02*
X119165666Y-105826533D01*
X119165666Y-105826533D02*
X119118047Y-105921771D01*
X119546619Y-106540819D02*
X119499000Y-106445581D01*
X119499000Y-106445581D02*
X119403761Y-106397962D01*
X119403761Y-106397962D02*
X118546619Y-106397962D01*
X119546619Y-107826534D02*
X119499000Y-107731296D01*
X119499000Y-107731296D02*
X119451380Y-107683677D01*
X119451380Y-107683677D02*
X119356142Y-107636058D01*
X119356142Y-107636058D02*
X119070428Y-107636058D01*
X119070428Y-107636058D02*
X118975190Y-107683677D01*
X118975190Y-107683677D02*
X118927571Y-107731296D01*
X118927571Y-107731296D02*
X118879952Y-107826534D01*
X118879952Y-107826534D02*
X118879952Y-107969391D01*
X118879952Y-107969391D02*
X118927571Y-108064629D01*
X118927571Y-108064629D02*
X118975190Y-108112248D01*
X118975190Y-108112248D02*
X119070428Y-108159867D01*
X119070428Y-108159867D02*
X119356142Y-108159867D01*
X119356142Y-108159867D02*
X119451380Y-108112248D01*
X119451380Y-108112248D02*
X119499000Y-108064629D01*
X119499000Y-108064629D02*
X119546619Y-107969391D01*
X119546619Y-107969391D02*
X119546619Y-107826534D01*
X118879952Y-108588439D02*
X119879952Y-108588439D01*
X118927571Y-108588439D02*
X118879952Y-108683677D01*
X118879952Y-108683677D02*
X118879952Y-108874153D01*
X118879952Y-108874153D02*
X118927571Y-108969391D01*
X118927571Y-108969391D02*
X118975190Y-109017010D01*
X118975190Y-109017010D02*
X119070428Y-109064629D01*
X119070428Y-109064629D02*
X119356142Y-109064629D01*
X119356142Y-109064629D02*
X119451380Y-109017010D01*
X119451380Y-109017010D02*
X119499000Y-108969391D01*
X119499000Y-108969391D02*
X119546619Y-108874153D01*
X119546619Y-108874153D02*
X119546619Y-108683677D01*
X119546619Y-108683677D02*
X119499000Y-108588439D01*
X119499000Y-109874153D02*
X119546619Y-109778915D01*
X119546619Y-109778915D02*
X119546619Y-109588439D01*
X119546619Y-109588439D02*
X119499000Y-109493201D01*
X119499000Y-109493201D02*
X119403761Y-109445582D01*
X119403761Y-109445582D02*
X119022809Y-109445582D01*
X119022809Y-109445582D02*
X118927571Y-109493201D01*
X118927571Y-109493201D02*
X118879952Y-109588439D01*
X118879952Y-109588439D02*
X118879952Y-109778915D01*
X118879952Y-109778915D02*
X118927571Y-109874153D01*
X118927571Y-109874153D02*
X119022809Y-109921772D01*
X119022809Y-109921772D02*
X119118047Y-109921772D01*
X119118047Y-109921772D02*
X119213285Y-109445582D01*
X118879952Y-110350344D02*
X119546619Y-110350344D01*
X118975190Y-110350344D02*
X118927571Y-110397963D01*
X118927571Y-110397963D02*
X118879952Y-110493201D01*
X118879952Y-110493201D02*
X118879952Y-110636058D01*
X118879952Y-110636058D02*
X118927571Y-110731296D01*
X118927571Y-110731296D02*
X119022809Y-110778915D01*
X119022809Y-110778915D02*
X119546619Y-110778915D01*
X119165666Y-111255106D02*
X119165666Y-112017011D01*
X119499000Y-112445582D02*
X119546619Y-112540820D01*
X119546619Y-112540820D02*
X119546619Y-112731296D01*
X119546619Y-112731296D02*
X119499000Y-112826534D01*
X119499000Y-112826534D02*
X119403761Y-112874153D01*
X119403761Y-112874153D02*
X119356142Y-112874153D01*
X119356142Y-112874153D02*
X119260904Y-112826534D01*
X119260904Y-112826534D02*
X119213285Y-112731296D01*
X119213285Y-112731296D02*
X119213285Y-112588439D01*
X119213285Y-112588439D02*
X119165666Y-112493201D01*
X119165666Y-112493201D02*
X119070428Y-112445582D01*
X119070428Y-112445582D02*
X119022809Y-112445582D01*
X119022809Y-112445582D02*
X118927571Y-112493201D01*
X118927571Y-112493201D02*
X118879952Y-112588439D01*
X118879952Y-112588439D02*
X118879952Y-112731296D01*
X118879952Y-112731296D02*
X118927571Y-112826534D01*
X119546619Y-113445582D02*
X119499000Y-113350344D01*
X119499000Y-113350344D02*
X119451380Y-113302725D01*
X119451380Y-113302725D02*
X119356142Y-113255106D01*
X119356142Y-113255106D02*
X119070428Y-113255106D01*
X119070428Y-113255106D02*
X118975190Y-113302725D01*
X118975190Y-113302725D02*
X118927571Y-113350344D01*
X118927571Y-113350344D02*
X118879952Y-113445582D01*
X118879952Y-113445582D02*
X118879952Y-113588439D01*
X118879952Y-113588439D02*
X118927571Y-113683677D01*
X118927571Y-113683677D02*
X118975190Y-113731296D01*
X118975190Y-113731296D02*
X119070428Y-113778915D01*
X119070428Y-113778915D02*
X119356142Y-113778915D01*
X119356142Y-113778915D02*
X119451380Y-113731296D01*
X119451380Y-113731296D02*
X119499000Y-113683677D01*
X119499000Y-113683677D02*
X119546619Y-113588439D01*
X119546619Y-113588439D02*
X119546619Y-113445582D01*
X118879952Y-114636058D02*
X119546619Y-114636058D01*
X118879952Y-114207487D02*
X119403761Y-114207487D01*
X119403761Y-114207487D02*
X119499000Y-114255106D01*
X119499000Y-114255106D02*
X119546619Y-114350344D01*
X119546619Y-114350344D02*
X119546619Y-114493201D01*
X119546619Y-114493201D02*
X119499000Y-114588439D01*
X119499000Y-114588439D02*
X119451380Y-114636058D01*
X119546619Y-115112249D02*
X118879952Y-115112249D01*
X119070428Y-115112249D02*
X118975190Y-115159868D01*
X118975190Y-115159868D02*
X118927571Y-115207487D01*
X118927571Y-115207487D02*
X118879952Y-115302725D01*
X118879952Y-115302725D02*
X118879952Y-115397963D01*
X119499000Y-116159868D02*
X119546619Y-116064630D01*
X119546619Y-116064630D02*
X119546619Y-115874154D01*
X119546619Y-115874154D02*
X119499000Y-115778916D01*
X119499000Y-115778916D02*
X119451380Y-115731297D01*
X119451380Y-115731297D02*
X119356142Y-115683678D01*
X119356142Y-115683678D02*
X119070428Y-115683678D01*
X119070428Y-115683678D02*
X118975190Y-115731297D01*
X118975190Y-115731297D02*
X118927571Y-115778916D01*
X118927571Y-115778916D02*
X118879952Y-115874154D01*
X118879952Y-115874154D02*
X118879952Y-116064630D01*
X118879952Y-116064630D02*
X118927571Y-116159868D01*
X119499000Y-116969392D02*
X119546619Y-116874154D01*
X119546619Y-116874154D02*
X119546619Y-116683678D01*
X119546619Y-116683678D02*
X119499000Y-116588440D01*
X119499000Y-116588440D02*
X119403761Y-116540821D01*
X119403761Y-116540821D02*
X119022809Y-116540821D01*
X119022809Y-116540821D02*
X118927571Y-116588440D01*
X118927571Y-116588440D02*
X118879952Y-116683678D01*
X118879952Y-116683678D02*
X118879952Y-116874154D01*
X118879952Y-116874154D02*
X118927571Y-116969392D01*
X118927571Y-116969392D02*
X119022809Y-117017011D01*
X119022809Y-117017011D02*
X119118047Y-117017011D01*
X119118047Y-117017011D02*
X119213285Y-116540821D01*
X121156619Y-83874150D02*
X120156619Y-83874150D01*
X121109000Y-83874150D02*
X121156619Y-83778912D01*
X121156619Y-83778912D02*
X121156619Y-83588436D01*
X121156619Y-83588436D02*
X121109000Y-83493198D01*
X121109000Y-83493198D02*
X121061380Y-83445579D01*
X121061380Y-83445579D02*
X120966142Y-83397960D01*
X120966142Y-83397960D02*
X120680428Y-83397960D01*
X120680428Y-83397960D02*
X120585190Y-83445579D01*
X120585190Y-83445579D02*
X120537571Y-83493198D01*
X120537571Y-83493198D02*
X120489952Y-83588436D01*
X120489952Y-83588436D02*
X120489952Y-83778912D01*
X120489952Y-83778912D02*
X120537571Y-83874150D01*
X121109000Y-84731293D02*
X121156619Y-84636055D01*
X121156619Y-84636055D02*
X121156619Y-84445579D01*
X121156619Y-84445579D02*
X121109000Y-84350341D01*
X121109000Y-84350341D02*
X121013761Y-84302722D01*
X121013761Y-84302722D02*
X120632809Y-84302722D01*
X120632809Y-84302722D02*
X120537571Y-84350341D01*
X120537571Y-84350341D02*
X120489952Y-84445579D01*
X120489952Y-84445579D02*
X120489952Y-84636055D01*
X120489952Y-84636055D02*
X120537571Y-84731293D01*
X120537571Y-84731293D02*
X120632809Y-84778912D01*
X120632809Y-84778912D02*
X120728047Y-84778912D01*
X120728047Y-84778912D02*
X120823285Y-84302722D01*
X121109000Y-85159865D02*
X121156619Y-85255103D01*
X121156619Y-85255103D02*
X121156619Y-85445579D01*
X121156619Y-85445579D02*
X121109000Y-85540817D01*
X121109000Y-85540817D02*
X121013761Y-85588436D01*
X121013761Y-85588436D02*
X120966142Y-85588436D01*
X120966142Y-85588436D02*
X120870904Y-85540817D01*
X120870904Y-85540817D02*
X120823285Y-85445579D01*
X120823285Y-85445579D02*
X120823285Y-85302722D01*
X120823285Y-85302722D02*
X120775666Y-85207484D01*
X120775666Y-85207484D02*
X120680428Y-85159865D01*
X120680428Y-85159865D02*
X120632809Y-85159865D01*
X120632809Y-85159865D02*
X120537571Y-85207484D01*
X120537571Y-85207484D02*
X120489952Y-85302722D01*
X120489952Y-85302722D02*
X120489952Y-85445579D01*
X120489952Y-85445579D02*
X120537571Y-85540817D01*
X121156619Y-86017008D02*
X120489952Y-86017008D01*
X120156619Y-86017008D02*
X120204238Y-85969389D01*
X120204238Y-85969389D02*
X120251857Y-86017008D01*
X120251857Y-86017008D02*
X120204238Y-86064627D01*
X120204238Y-86064627D02*
X120156619Y-86017008D01*
X120156619Y-86017008D02*
X120251857Y-86017008D01*
X120489952Y-86921769D02*
X121299476Y-86921769D01*
X121299476Y-86921769D02*
X121394714Y-86874150D01*
X121394714Y-86874150D02*
X121442333Y-86826531D01*
X121442333Y-86826531D02*
X121489952Y-86731293D01*
X121489952Y-86731293D02*
X121489952Y-86588436D01*
X121489952Y-86588436D02*
X121442333Y-86493198D01*
X121109000Y-86921769D02*
X121156619Y-86826531D01*
X121156619Y-86826531D02*
X121156619Y-86636055D01*
X121156619Y-86636055D02*
X121109000Y-86540817D01*
X121109000Y-86540817D02*
X121061380Y-86493198D01*
X121061380Y-86493198D02*
X120966142Y-86445579D01*
X120966142Y-86445579D02*
X120680428Y-86445579D01*
X120680428Y-86445579D02*
X120585190Y-86493198D01*
X120585190Y-86493198D02*
X120537571Y-86540817D01*
X120537571Y-86540817D02*
X120489952Y-86636055D01*
X120489952Y-86636055D02*
X120489952Y-86826531D01*
X120489952Y-86826531D02*
X120537571Y-86921769D01*
X120489952Y-87397960D02*
X121156619Y-87397960D01*
X120585190Y-87397960D02*
X120537571Y-87445579D01*
X120537571Y-87445579D02*
X120489952Y-87540817D01*
X120489952Y-87540817D02*
X120489952Y-87683674D01*
X120489952Y-87683674D02*
X120537571Y-87778912D01*
X120537571Y-87778912D02*
X120632809Y-87826531D01*
X120632809Y-87826531D02*
X121156619Y-87826531D01*
X121061380Y-88302722D02*
X121109000Y-88350341D01*
X121109000Y-88350341D02*
X121156619Y-88302722D01*
X121156619Y-88302722D02*
X121109000Y-88255103D01*
X121109000Y-88255103D02*
X121061380Y-88302722D01*
X121061380Y-88302722D02*
X121156619Y-88302722D01*
X120632809Y-89874150D02*
X120680428Y-90017007D01*
X120680428Y-90017007D02*
X120728047Y-90064626D01*
X120728047Y-90064626D02*
X120823285Y-90112245D01*
X120823285Y-90112245D02*
X120966142Y-90112245D01*
X120966142Y-90112245D02*
X121061380Y-90064626D01*
X121061380Y-90064626D02*
X121109000Y-90017007D01*
X121109000Y-90017007D02*
X121156619Y-89921769D01*
X121156619Y-89921769D02*
X121156619Y-89540817D01*
X121156619Y-89540817D02*
X120156619Y-89540817D01*
X120156619Y-89540817D02*
X120156619Y-89874150D01*
X120156619Y-89874150D02*
X120204238Y-89969388D01*
X120204238Y-89969388D02*
X120251857Y-90017007D01*
X120251857Y-90017007D02*
X120347095Y-90064626D01*
X120347095Y-90064626D02*
X120442333Y-90064626D01*
X120442333Y-90064626D02*
X120537571Y-90017007D01*
X120537571Y-90017007D02*
X120585190Y-89969388D01*
X120585190Y-89969388D02*
X120632809Y-89874150D01*
X120632809Y-89874150D02*
X120632809Y-89540817D01*
X120489952Y-90445579D02*
X121156619Y-90683674D01*
X120489952Y-90921769D02*
X121156619Y-90683674D01*
X121156619Y-90683674D02*
X121394714Y-90588436D01*
X121394714Y-90588436D02*
X121442333Y-90540817D01*
X121442333Y-90540817D02*
X121489952Y-90445579D01*
X120489952Y-92493198D02*
X121156619Y-92493198D01*
X120489952Y-92064627D02*
X121013761Y-92064627D01*
X121013761Y-92064627D02*
X121109000Y-92112246D01*
X121109000Y-92112246D02*
X121156619Y-92207484D01*
X121156619Y-92207484D02*
X121156619Y-92350341D01*
X121156619Y-92350341D02*
X121109000Y-92445579D01*
X121109000Y-92445579D02*
X121061380Y-92493198D01*
X121109000Y-92921770D02*
X121156619Y-93017008D01*
X121156619Y-93017008D02*
X121156619Y-93207484D01*
X121156619Y-93207484D02*
X121109000Y-93302722D01*
X121109000Y-93302722D02*
X121013761Y-93350341D01*
X121013761Y-93350341D02*
X120966142Y-93350341D01*
X120966142Y-93350341D02*
X120870904Y-93302722D01*
X120870904Y-93302722D02*
X120823285Y-93207484D01*
X120823285Y-93207484D02*
X120823285Y-93064627D01*
X120823285Y-93064627D02*
X120775666Y-92969389D01*
X120775666Y-92969389D02*
X120680428Y-92921770D01*
X120680428Y-92921770D02*
X120632809Y-92921770D01*
X120632809Y-92921770D02*
X120537571Y-92969389D01*
X120537571Y-92969389D02*
X120489952Y-93064627D01*
X120489952Y-93064627D02*
X120489952Y-93207484D01*
X120489952Y-93207484D02*
X120537571Y-93302722D01*
X121156619Y-93778913D02*
X120489952Y-93778913D01*
X120156619Y-93778913D02*
X120204238Y-93731294D01*
X120204238Y-93731294D02*
X120251857Y-93778913D01*
X120251857Y-93778913D02*
X120204238Y-93826532D01*
X120204238Y-93826532D02*
X120156619Y-93778913D01*
X120156619Y-93778913D02*
X120251857Y-93778913D01*
X120489952Y-94255103D02*
X121156619Y-94255103D01*
X120585190Y-94255103D02*
X120537571Y-94302722D01*
X120537571Y-94302722D02*
X120489952Y-94397960D01*
X120489952Y-94397960D02*
X120489952Y-94540817D01*
X120489952Y-94540817D02*
X120537571Y-94636055D01*
X120537571Y-94636055D02*
X120632809Y-94683674D01*
X120632809Y-94683674D02*
X121156619Y-94683674D01*
X120489952Y-95588436D02*
X121299476Y-95588436D01*
X121299476Y-95588436D02*
X121394714Y-95540817D01*
X121394714Y-95540817D02*
X121442333Y-95493198D01*
X121442333Y-95493198D02*
X121489952Y-95397960D01*
X121489952Y-95397960D02*
X121489952Y-95255103D01*
X121489952Y-95255103D02*
X121442333Y-95159865D01*
X121109000Y-95588436D02*
X121156619Y-95493198D01*
X121156619Y-95493198D02*
X121156619Y-95302722D01*
X121156619Y-95302722D02*
X121109000Y-95207484D01*
X121109000Y-95207484D02*
X121061380Y-95159865D01*
X121061380Y-95159865D02*
X120966142Y-95112246D01*
X120966142Y-95112246D02*
X120680428Y-95112246D01*
X120680428Y-95112246D02*
X120585190Y-95159865D01*
X120585190Y-95159865D02*
X120537571Y-95207484D01*
X120537571Y-95207484D02*
X120489952Y-95302722D01*
X120489952Y-95302722D02*
X120489952Y-95493198D01*
X120489952Y-95493198D02*
X120537571Y-95588436D01*
X120489952Y-96683675D02*
X120489952Y-97064627D01*
X120156619Y-96826532D02*
X121013761Y-96826532D01*
X121013761Y-96826532D02*
X121109000Y-96874151D01*
X121109000Y-96874151D02*
X121156619Y-96969389D01*
X121156619Y-96969389D02*
X121156619Y-97064627D01*
X121156619Y-97397961D02*
X120156619Y-97397961D01*
X121156619Y-97826532D02*
X120632809Y-97826532D01*
X120632809Y-97826532D02*
X120537571Y-97778913D01*
X120537571Y-97778913D02*
X120489952Y-97683675D01*
X120489952Y-97683675D02*
X120489952Y-97540818D01*
X120489952Y-97540818D02*
X120537571Y-97445580D01*
X120537571Y-97445580D02*
X120585190Y-97397961D01*
X121156619Y-98302723D02*
X120489952Y-98302723D01*
X120156619Y-98302723D02*
X120204238Y-98255104D01*
X120204238Y-98255104D02*
X120251857Y-98302723D01*
X120251857Y-98302723D02*
X120204238Y-98350342D01*
X120204238Y-98350342D02*
X120156619Y-98302723D01*
X120156619Y-98302723D02*
X120251857Y-98302723D01*
X121109000Y-98731294D02*
X121156619Y-98826532D01*
X121156619Y-98826532D02*
X121156619Y-99017008D01*
X121156619Y-99017008D02*
X121109000Y-99112246D01*
X121109000Y-99112246D02*
X121013761Y-99159865D01*
X121013761Y-99159865D02*
X120966142Y-99159865D01*
X120966142Y-99159865D02*
X120870904Y-99112246D01*
X120870904Y-99112246D02*
X120823285Y-99017008D01*
X120823285Y-99017008D02*
X120823285Y-98874151D01*
X120823285Y-98874151D02*
X120775666Y-98778913D01*
X120775666Y-98778913D02*
X120680428Y-98731294D01*
X120680428Y-98731294D02*
X120632809Y-98731294D01*
X120632809Y-98731294D02*
X120537571Y-98778913D01*
X120537571Y-98778913D02*
X120489952Y-98874151D01*
X120489952Y-98874151D02*
X120489952Y-99017008D01*
X120489952Y-99017008D02*
X120537571Y-99112246D01*
X121109000Y-100778913D02*
X121156619Y-100683675D01*
X121156619Y-100683675D02*
X121156619Y-100493199D01*
X121156619Y-100493199D02*
X121109000Y-100397961D01*
X121109000Y-100397961D02*
X121061380Y-100350342D01*
X121061380Y-100350342D02*
X120966142Y-100302723D01*
X120966142Y-100302723D02*
X120680428Y-100302723D01*
X120680428Y-100302723D02*
X120585190Y-100350342D01*
X120585190Y-100350342D02*
X120537571Y-100397961D01*
X120537571Y-100397961D02*
X120489952Y-100493199D01*
X120489952Y-100493199D02*
X120489952Y-100683675D01*
X120489952Y-100683675D02*
X120537571Y-100778913D01*
X121156619Y-101207485D02*
X120489952Y-101207485D01*
X120156619Y-101207485D02*
X120204238Y-101159866D01*
X120204238Y-101159866D02*
X120251857Y-101207485D01*
X120251857Y-101207485D02*
X120204238Y-101255104D01*
X120204238Y-101255104D02*
X120156619Y-101207485D01*
X120156619Y-101207485D02*
X120251857Y-101207485D01*
X121156619Y-101683675D02*
X120489952Y-101683675D01*
X120680428Y-101683675D02*
X120585190Y-101731294D01*
X120585190Y-101731294D02*
X120537571Y-101778913D01*
X120537571Y-101778913D02*
X120489952Y-101874151D01*
X120489952Y-101874151D02*
X120489952Y-101969389D01*
X121109000Y-102731294D02*
X121156619Y-102636056D01*
X121156619Y-102636056D02*
X121156619Y-102445580D01*
X121156619Y-102445580D02*
X121109000Y-102350342D01*
X121109000Y-102350342D02*
X121061380Y-102302723D01*
X121061380Y-102302723D02*
X120966142Y-102255104D01*
X120966142Y-102255104D02*
X120680428Y-102255104D01*
X120680428Y-102255104D02*
X120585190Y-102302723D01*
X120585190Y-102302723D02*
X120537571Y-102350342D01*
X120537571Y-102350342D02*
X120489952Y-102445580D01*
X120489952Y-102445580D02*
X120489952Y-102636056D01*
X120489952Y-102636056D02*
X120537571Y-102731294D01*
X120489952Y-103588437D02*
X121156619Y-103588437D01*
X120489952Y-103159866D02*
X121013761Y-103159866D01*
X121013761Y-103159866D02*
X121109000Y-103207485D01*
X121109000Y-103207485D02*
X121156619Y-103302723D01*
X121156619Y-103302723D02*
X121156619Y-103445580D01*
X121156619Y-103445580D02*
X121109000Y-103540818D01*
X121109000Y-103540818D02*
X121061380Y-103588437D01*
X121156619Y-104064628D02*
X120489952Y-104064628D01*
X120156619Y-104064628D02*
X120204238Y-104017009D01*
X120204238Y-104017009D02*
X120251857Y-104064628D01*
X120251857Y-104064628D02*
X120204238Y-104112247D01*
X120204238Y-104112247D02*
X120156619Y-104064628D01*
X120156619Y-104064628D02*
X120251857Y-104064628D01*
X120489952Y-104397961D02*
X120489952Y-104778913D01*
X120156619Y-104540818D02*
X121013761Y-104540818D01*
X121013761Y-104540818D02*
X121109000Y-104588437D01*
X121109000Y-104588437D02*
X121156619Y-104683675D01*
X121156619Y-104683675D02*
X121156619Y-104778913D01*
X120489952Y-105778914D02*
X121156619Y-106017009D01*
X120489952Y-106255104D02*
X121156619Y-106017009D01*
X121156619Y-106017009D02*
X121394714Y-105921771D01*
X121394714Y-105921771D02*
X121442333Y-105874152D01*
X121442333Y-105874152D02*
X121489952Y-105778914D01*
X121156619Y-106778914D02*
X121109000Y-106683676D01*
X121109000Y-106683676D02*
X121061380Y-106636057D01*
X121061380Y-106636057D02*
X120966142Y-106588438D01*
X120966142Y-106588438D02*
X120680428Y-106588438D01*
X120680428Y-106588438D02*
X120585190Y-106636057D01*
X120585190Y-106636057D02*
X120537571Y-106683676D01*
X120537571Y-106683676D02*
X120489952Y-106778914D01*
X120489952Y-106778914D02*
X120489952Y-106921771D01*
X120489952Y-106921771D02*
X120537571Y-107017009D01*
X120537571Y-107017009D02*
X120585190Y-107064628D01*
X120585190Y-107064628D02*
X120680428Y-107112247D01*
X120680428Y-107112247D02*
X120966142Y-107112247D01*
X120966142Y-107112247D02*
X121061380Y-107064628D01*
X121061380Y-107064628D02*
X121109000Y-107017009D01*
X121109000Y-107017009D02*
X121156619Y-106921771D01*
X121156619Y-106921771D02*
X121156619Y-106778914D01*
X120489952Y-107969390D02*
X121156619Y-107969390D01*
X120489952Y-107540819D02*
X121013761Y-107540819D01*
X121013761Y-107540819D02*
X121109000Y-107588438D01*
X121109000Y-107588438D02*
X121156619Y-107683676D01*
X121156619Y-107683676D02*
X121156619Y-107826533D01*
X121156619Y-107826533D02*
X121109000Y-107921771D01*
X121109000Y-107921771D02*
X121061380Y-107969390D01*
X121156619Y-109636057D02*
X120632809Y-109636057D01*
X120632809Y-109636057D02*
X120537571Y-109588438D01*
X120537571Y-109588438D02*
X120489952Y-109493200D01*
X120489952Y-109493200D02*
X120489952Y-109302724D01*
X120489952Y-109302724D02*
X120537571Y-109207486D01*
X121109000Y-109636057D02*
X121156619Y-109540819D01*
X121156619Y-109540819D02*
X121156619Y-109302724D01*
X121156619Y-109302724D02*
X121109000Y-109207486D01*
X121109000Y-109207486D02*
X121013761Y-109159867D01*
X121013761Y-109159867D02*
X120918523Y-109159867D01*
X120918523Y-109159867D02*
X120823285Y-109207486D01*
X120823285Y-109207486D02*
X120775666Y-109302724D01*
X120775666Y-109302724D02*
X120775666Y-109540819D01*
X120775666Y-109540819D02*
X120728047Y-109636057D01*
X121109000Y-110064629D02*
X121156619Y-110159867D01*
X121156619Y-110159867D02*
X121156619Y-110350343D01*
X121156619Y-110350343D02*
X121109000Y-110445581D01*
X121109000Y-110445581D02*
X121013761Y-110493200D01*
X121013761Y-110493200D02*
X120966142Y-110493200D01*
X120966142Y-110493200D02*
X120870904Y-110445581D01*
X120870904Y-110445581D02*
X120823285Y-110350343D01*
X120823285Y-110350343D02*
X120823285Y-110207486D01*
X120823285Y-110207486D02*
X120775666Y-110112248D01*
X120775666Y-110112248D02*
X120680428Y-110064629D01*
X120680428Y-110064629D02*
X120632809Y-110064629D01*
X120632809Y-110064629D02*
X120537571Y-110112248D01*
X120537571Y-110112248D02*
X120489952Y-110207486D01*
X120489952Y-110207486D02*
X120489952Y-110350343D01*
X120489952Y-110350343D02*
X120537571Y-110445581D01*
X121109000Y-110874153D02*
X121156619Y-110969391D01*
X121156619Y-110969391D02*
X121156619Y-111159867D01*
X121156619Y-111159867D02*
X121109000Y-111255105D01*
X121109000Y-111255105D02*
X121013761Y-111302724D01*
X121013761Y-111302724D02*
X120966142Y-111302724D01*
X120966142Y-111302724D02*
X120870904Y-111255105D01*
X120870904Y-111255105D02*
X120823285Y-111159867D01*
X120823285Y-111159867D02*
X120823285Y-111017010D01*
X120823285Y-111017010D02*
X120775666Y-110921772D01*
X120775666Y-110921772D02*
X120680428Y-110874153D01*
X120680428Y-110874153D02*
X120632809Y-110874153D01*
X120632809Y-110874153D02*
X120537571Y-110921772D01*
X120537571Y-110921772D02*
X120489952Y-111017010D01*
X120489952Y-111017010D02*
X120489952Y-111159867D01*
X120489952Y-111159867D02*
X120537571Y-111255105D01*
X120489952Y-112159867D02*
X121156619Y-112159867D01*
X120489952Y-111731296D02*
X121013761Y-111731296D01*
X121013761Y-111731296D02*
X121109000Y-111778915D01*
X121109000Y-111778915D02*
X121156619Y-111874153D01*
X121156619Y-111874153D02*
X121156619Y-112017010D01*
X121156619Y-112017010D02*
X121109000Y-112112248D01*
X121109000Y-112112248D02*
X121061380Y-112159867D01*
X121156619Y-112636058D02*
X120489952Y-112636058D01*
X120585190Y-112636058D02*
X120537571Y-112683677D01*
X120537571Y-112683677D02*
X120489952Y-112778915D01*
X120489952Y-112778915D02*
X120489952Y-112921772D01*
X120489952Y-112921772D02*
X120537571Y-113017010D01*
X120537571Y-113017010D02*
X120632809Y-113064629D01*
X120632809Y-113064629D02*
X121156619Y-113064629D01*
X120632809Y-113064629D02*
X120537571Y-113112248D01*
X120537571Y-113112248D02*
X120489952Y-113207486D01*
X120489952Y-113207486D02*
X120489952Y-113350343D01*
X120489952Y-113350343D02*
X120537571Y-113445582D01*
X120537571Y-113445582D02*
X120632809Y-113493201D01*
X120632809Y-113493201D02*
X121156619Y-113493201D01*
X121109000Y-114350343D02*
X121156619Y-114255105D01*
X121156619Y-114255105D02*
X121156619Y-114064629D01*
X121156619Y-114064629D02*
X121109000Y-113969391D01*
X121109000Y-113969391D02*
X121013761Y-113921772D01*
X121013761Y-113921772D02*
X120632809Y-113921772D01*
X120632809Y-113921772D02*
X120537571Y-113969391D01*
X120537571Y-113969391D02*
X120489952Y-114064629D01*
X120489952Y-114064629D02*
X120489952Y-114255105D01*
X120489952Y-114255105D02*
X120537571Y-114350343D01*
X120537571Y-114350343D02*
X120632809Y-114397962D01*
X120632809Y-114397962D02*
X120728047Y-114397962D01*
X120728047Y-114397962D02*
X120823285Y-113921772D01*
X122766619Y-83874150D02*
X122242809Y-83874150D01*
X122242809Y-83874150D02*
X122147571Y-83826531D01*
X122147571Y-83826531D02*
X122099952Y-83731293D01*
X122099952Y-83731293D02*
X122099952Y-83540817D01*
X122099952Y-83540817D02*
X122147571Y-83445579D01*
X122719000Y-83874150D02*
X122766619Y-83778912D01*
X122766619Y-83778912D02*
X122766619Y-83540817D01*
X122766619Y-83540817D02*
X122719000Y-83445579D01*
X122719000Y-83445579D02*
X122623761Y-83397960D01*
X122623761Y-83397960D02*
X122528523Y-83397960D01*
X122528523Y-83397960D02*
X122433285Y-83445579D01*
X122433285Y-83445579D02*
X122385666Y-83540817D01*
X122385666Y-83540817D02*
X122385666Y-83778912D01*
X122385666Y-83778912D02*
X122338047Y-83874150D01*
X122099952Y-84350341D02*
X122766619Y-84350341D01*
X122195190Y-84350341D02*
X122147571Y-84397960D01*
X122147571Y-84397960D02*
X122099952Y-84493198D01*
X122099952Y-84493198D02*
X122099952Y-84636055D01*
X122099952Y-84636055D02*
X122147571Y-84731293D01*
X122147571Y-84731293D02*
X122242809Y-84778912D01*
X122242809Y-84778912D02*
X122766619Y-84778912D01*
X122099952Y-85159865D02*
X122766619Y-85397960D01*
X122099952Y-85636055D02*
X122766619Y-85397960D01*
X122766619Y-85397960D02*
X123004714Y-85302722D01*
X123004714Y-85302722D02*
X123052333Y-85255103D01*
X123052333Y-85255103D02*
X123099952Y-85159865D01*
X122766619Y-87207484D02*
X122242809Y-87207484D01*
X122242809Y-87207484D02*
X122147571Y-87159865D01*
X122147571Y-87159865D02*
X122099952Y-87064627D01*
X122099952Y-87064627D02*
X122099952Y-86874151D01*
X122099952Y-86874151D02*
X122147571Y-86778913D01*
X122719000Y-87207484D02*
X122766619Y-87112246D01*
X122766619Y-87112246D02*
X122766619Y-86874151D01*
X122766619Y-86874151D02*
X122719000Y-86778913D01*
X122719000Y-86778913D02*
X122623761Y-86731294D01*
X122623761Y-86731294D02*
X122528523Y-86731294D01*
X122528523Y-86731294D02*
X122433285Y-86778913D01*
X122433285Y-86778913D02*
X122385666Y-86874151D01*
X122385666Y-86874151D02*
X122385666Y-87112246D01*
X122385666Y-87112246D02*
X122338047Y-87207484D01*
X122099952Y-87683675D02*
X122766619Y-87683675D01*
X122195190Y-87683675D02*
X122147571Y-87731294D01*
X122147571Y-87731294D02*
X122099952Y-87826532D01*
X122099952Y-87826532D02*
X122099952Y-87969389D01*
X122099952Y-87969389D02*
X122147571Y-88064627D01*
X122147571Y-88064627D02*
X122242809Y-88112246D01*
X122242809Y-88112246D02*
X122766619Y-88112246D01*
X122766619Y-89017008D02*
X121766619Y-89017008D01*
X122719000Y-89017008D02*
X122766619Y-88921770D01*
X122766619Y-88921770D02*
X122766619Y-88731294D01*
X122766619Y-88731294D02*
X122719000Y-88636056D01*
X122719000Y-88636056D02*
X122671380Y-88588437D01*
X122671380Y-88588437D02*
X122576142Y-88540818D01*
X122576142Y-88540818D02*
X122290428Y-88540818D01*
X122290428Y-88540818D02*
X122195190Y-88588437D01*
X122195190Y-88588437D02*
X122147571Y-88636056D01*
X122147571Y-88636056D02*
X122099952Y-88731294D01*
X122099952Y-88731294D02*
X122099952Y-88921770D01*
X122099952Y-88921770D02*
X122147571Y-89017008D01*
X122766619Y-90683675D02*
X122242809Y-90683675D01*
X122242809Y-90683675D02*
X122147571Y-90636056D01*
X122147571Y-90636056D02*
X122099952Y-90540818D01*
X122099952Y-90540818D02*
X122099952Y-90350342D01*
X122099952Y-90350342D02*
X122147571Y-90255104D01*
X122719000Y-90683675D02*
X122766619Y-90588437D01*
X122766619Y-90588437D02*
X122766619Y-90350342D01*
X122766619Y-90350342D02*
X122719000Y-90255104D01*
X122719000Y-90255104D02*
X122623761Y-90207485D01*
X122623761Y-90207485D02*
X122528523Y-90207485D01*
X122528523Y-90207485D02*
X122433285Y-90255104D01*
X122433285Y-90255104D02*
X122385666Y-90350342D01*
X122385666Y-90350342D02*
X122385666Y-90588437D01*
X122385666Y-90588437D02*
X122338047Y-90683675D01*
X122766619Y-91302723D02*
X122719000Y-91207485D01*
X122719000Y-91207485D02*
X122623761Y-91159866D01*
X122623761Y-91159866D02*
X121766619Y-91159866D01*
X122766619Y-91826533D02*
X122719000Y-91731295D01*
X122719000Y-91731295D02*
X122623761Y-91683676D01*
X122623761Y-91683676D02*
X121766619Y-91683676D01*
X122766619Y-92969391D02*
X122099952Y-92969391D01*
X122290428Y-92969391D02*
X122195190Y-93017010D01*
X122195190Y-93017010D02*
X122147571Y-93064629D01*
X122147571Y-93064629D02*
X122099952Y-93159867D01*
X122099952Y-93159867D02*
X122099952Y-93255105D01*
X122766619Y-93588439D02*
X122099952Y-93588439D01*
X121766619Y-93588439D02*
X121814238Y-93540820D01*
X121814238Y-93540820D02*
X121861857Y-93588439D01*
X121861857Y-93588439D02*
X121814238Y-93636058D01*
X121814238Y-93636058D02*
X121766619Y-93588439D01*
X121766619Y-93588439D02*
X121861857Y-93588439D01*
X122719000Y-94017010D02*
X122766619Y-94112248D01*
X122766619Y-94112248D02*
X122766619Y-94302724D01*
X122766619Y-94302724D02*
X122719000Y-94397962D01*
X122719000Y-94397962D02*
X122623761Y-94445581D01*
X122623761Y-94445581D02*
X122576142Y-94445581D01*
X122576142Y-94445581D02*
X122480904Y-94397962D01*
X122480904Y-94397962D02*
X122433285Y-94302724D01*
X122433285Y-94302724D02*
X122433285Y-94159867D01*
X122433285Y-94159867D02*
X122385666Y-94064629D01*
X122385666Y-94064629D02*
X122290428Y-94017010D01*
X122290428Y-94017010D02*
X122242809Y-94017010D01*
X122242809Y-94017010D02*
X122147571Y-94064629D01*
X122147571Y-94064629D02*
X122099952Y-94159867D01*
X122099952Y-94159867D02*
X122099952Y-94302724D01*
X122099952Y-94302724D02*
X122147571Y-94397962D01*
X122766619Y-94874153D02*
X121766619Y-94874153D01*
X122385666Y-94969391D02*
X122766619Y-95255105D01*
X122099952Y-95255105D02*
X122480904Y-94874153D01*
X122719000Y-95636058D02*
X122766619Y-95731296D01*
X122766619Y-95731296D02*
X122766619Y-95921772D01*
X122766619Y-95921772D02*
X122719000Y-96017010D01*
X122719000Y-96017010D02*
X122623761Y-96064629D01*
X122623761Y-96064629D02*
X122576142Y-96064629D01*
X122576142Y-96064629D02*
X122480904Y-96017010D01*
X122480904Y-96017010D02*
X122433285Y-95921772D01*
X122433285Y-95921772D02*
X122433285Y-95778915D01*
X122433285Y-95778915D02*
X122385666Y-95683677D01*
X122385666Y-95683677D02*
X122290428Y-95636058D01*
X122290428Y-95636058D02*
X122242809Y-95636058D01*
X122242809Y-95636058D02*
X122147571Y-95683677D01*
X122147571Y-95683677D02*
X122099952Y-95778915D01*
X122099952Y-95778915D02*
X122099952Y-95921772D01*
X122099952Y-95921772D02*
X122147571Y-96017010D01*
X122766619Y-97683677D02*
X122242809Y-97683677D01*
X122242809Y-97683677D02*
X122147571Y-97636058D01*
X122147571Y-97636058D02*
X122099952Y-97540820D01*
X122099952Y-97540820D02*
X122099952Y-97350344D01*
X122099952Y-97350344D02*
X122147571Y-97255106D01*
X122719000Y-97683677D02*
X122766619Y-97588439D01*
X122766619Y-97588439D02*
X122766619Y-97350344D01*
X122766619Y-97350344D02*
X122719000Y-97255106D01*
X122719000Y-97255106D02*
X122623761Y-97207487D01*
X122623761Y-97207487D02*
X122528523Y-97207487D01*
X122528523Y-97207487D02*
X122433285Y-97255106D01*
X122433285Y-97255106D02*
X122385666Y-97350344D01*
X122385666Y-97350344D02*
X122385666Y-97588439D01*
X122385666Y-97588439D02*
X122338047Y-97683677D01*
X122719000Y-98112249D02*
X122766619Y-98207487D01*
X122766619Y-98207487D02*
X122766619Y-98397963D01*
X122766619Y-98397963D02*
X122719000Y-98493201D01*
X122719000Y-98493201D02*
X122623761Y-98540820D01*
X122623761Y-98540820D02*
X122576142Y-98540820D01*
X122576142Y-98540820D02*
X122480904Y-98493201D01*
X122480904Y-98493201D02*
X122433285Y-98397963D01*
X122433285Y-98397963D02*
X122433285Y-98255106D01*
X122433285Y-98255106D02*
X122385666Y-98159868D01*
X122385666Y-98159868D02*
X122290428Y-98112249D01*
X122290428Y-98112249D02*
X122242809Y-98112249D01*
X122242809Y-98112249D02*
X122147571Y-98159868D01*
X122147571Y-98159868D02*
X122099952Y-98255106D01*
X122099952Y-98255106D02*
X122099952Y-98397963D01*
X122099952Y-98397963D02*
X122147571Y-98493201D01*
X122719000Y-98921773D02*
X122766619Y-99017011D01*
X122766619Y-99017011D02*
X122766619Y-99207487D01*
X122766619Y-99207487D02*
X122719000Y-99302725D01*
X122719000Y-99302725D02*
X122623761Y-99350344D01*
X122623761Y-99350344D02*
X122576142Y-99350344D01*
X122576142Y-99350344D02*
X122480904Y-99302725D01*
X122480904Y-99302725D02*
X122433285Y-99207487D01*
X122433285Y-99207487D02*
X122433285Y-99064630D01*
X122433285Y-99064630D02*
X122385666Y-98969392D01*
X122385666Y-98969392D02*
X122290428Y-98921773D01*
X122290428Y-98921773D02*
X122242809Y-98921773D01*
X122242809Y-98921773D02*
X122147571Y-98969392D01*
X122147571Y-98969392D02*
X122099952Y-99064630D01*
X122099952Y-99064630D02*
X122099952Y-99207487D01*
X122099952Y-99207487D02*
X122147571Y-99302725D01*
X122766619Y-99921773D02*
X122719000Y-99826535D01*
X122719000Y-99826535D02*
X122671380Y-99778916D01*
X122671380Y-99778916D02*
X122576142Y-99731297D01*
X122576142Y-99731297D02*
X122290428Y-99731297D01*
X122290428Y-99731297D02*
X122195190Y-99778916D01*
X122195190Y-99778916D02*
X122147571Y-99826535D01*
X122147571Y-99826535D02*
X122099952Y-99921773D01*
X122099952Y-99921773D02*
X122099952Y-100064630D01*
X122099952Y-100064630D02*
X122147571Y-100159868D01*
X122147571Y-100159868D02*
X122195190Y-100207487D01*
X122195190Y-100207487D02*
X122290428Y-100255106D01*
X122290428Y-100255106D02*
X122576142Y-100255106D01*
X122576142Y-100255106D02*
X122671380Y-100207487D01*
X122671380Y-100207487D02*
X122719000Y-100159868D01*
X122719000Y-100159868D02*
X122766619Y-100064630D01*
X122766619Y-100064630D02*
X122766619Y-99921773D01*
X122719000Y-101112249D02*
X122766619Y-101017011D01*
X122766619Y-101017011D02*
X122766619Y-100826535D01*
X122766619Y-100826535D02*
X122719000Y-100731297D01*
X122719000Y-100731297D02*
X122671380Y-100683678D01*
X122671380Y-100683678D02*
X122576142Y-100636059D01*
X122576142Y-100636059D02*
X122290428Y-100636059D01*
X122290428Y-100636059D02*
X122195190Y-100683678D01*
X122195190Y-100683678D02*
X122147571Y-100731297D01*
X122147571Y-100731297D02*
X122099952Y-100826535D01*
X122099952Y-100826535D02*
X122099952Y-101017011D01*
X122099952Y-101017011D02*
X122147571Y-101112249D01*
X122766619Y-101540821D02*
X122099952Y-101540821D01*
X121766619Y-101540821D02*
X121814238Y-101493202D01*
X121814238Y-101493202D02*
X121861857Y-101540821D01*
X121861857Y-101540821D02*
X121814238Y-101588440D01*
X121814238Y-101588440D02*
X121766619Y-101540821D01*
X121766619Y-101540821D02*
X121861857Y-101540821D01*
X122766619Y-102445582D02*
X122242809Y-102445582D01*
X122242809Y-102445582D02*
X122147571Y-102397963D01*
X122147571Y-102397963D02*
X122099952Y-102302725D01*
X122099952Y-102302725D02*
X122099952Y-102112249D01*
X122099952Y-102112249D02*
X122147571Y-102017011D01*
X122719000Y-102445582D02*
X122766619Y-102350344D01*
X122766619Y-102350344D02*
X122766619Y-102112249D01*
X122766619Y-102112249D02*
X122719000Y-102017011D01*
X122719000Y-102017011D02*
X122623761Y-101969392D01*
X122623761Y-101969392D02*
X122528523Y-101969392D01*
X122528523Y-101969392D02*
X122433285Y-102017011D01*
X122433285Y-102017011D02*
X122385666Y-102112249D01*
X122385666Y-102112249D02*
X122385666Y-102350344D01*
X122385666Y-102350344D02*
X122338047Y-102445582D01*
X122099952Y-102778916D02*
X122099952Y-103159868D01*
X121766619Y-102921773D02*
X122623761Y-102921773D01*
X122623761Y-102921773D02*
X122719000Y-102969392D01*
X122719000Y-102969392D02*
X122766619Y-103064630D01*
X122766619Y-103064630D02*
X122766619Y-103159868D01*
X122719000Y-103874154D02*
X122766619Y-103778916D01*
X122766619Y-103778916D02*
X122766619Y-103588440D01*
X122766619Y-103588440D02*
X122719000Y-103493202D01*
X122719000Y-103493202D02*
X122623761Y-103445583D01*
X122623761Y-103445583D02*
X122242809Y-103445583D01*
X122242809Y-103445583D02*
X122147571Y-103493202D01*
X122147571Y-103493202D02*
X122099952Y-103588440D01*
X122099952Y-103588440D02*
X122099952Y-103778916D01*
X122099952Y-103778916D02*
X122147571Y-103874154D01*
X122147571Y-103874154D02*
X122242809Y-103921773D01*
X122242809Y-103921773D02*
X122338047Y-103921773D01*
X122338047Y-103921773D02*
X122433285Y-103445583D01*
X122766619Y-104778916D02*
X121766619Y-104778916D01*
X122719000Y-104778916D02*
X122766619Y-104683678D01*
X122766619Y-104683678D02*
X122766619Y-104493202D01*
X122766619Y-104493202D02*
X122719000Y-104397964D01*
X122719000Y-104397964D02*
X122671380Y-104350345D01*
X122671380Y-104350345D02*
X122576142Y-104302726D01*
X122576142Y-104302726D02*
X122290428Y-104302726D01*
X122290428Y-104302726D02*
X122195190Y-104350345D01*
X122195190Y-104350345D02*
X122147571Y-104397964D01*
X122147571Y-104397964D02*
X122099952Y-104493202D01*
X122099952Y-104493202D02*
X122099952Y-104683678D01*
X122099952Y-104683678D02*
X122147571Y-104778916D01*
X122099952Y-105921774D02*
X122766619Y-106112250D01*
X122766619Y-106112250D02*
X122290428Y-106302726D01*
X122290428Y-106302726D02*
X122766619Y-106493202D01*
X122766619Y-106493202D02*
X122099952Y-106683678D01*
X122766619Y-107064631D02*
X122099952Y-107064631D01*
X121766619Y-107064631D02*
X121814238Y-107017012D01*
X121814238Y-107017012D02*
X121861857Y-107064631D01*
X121861857Y-107064631D02*
X121814238Y-107112250D01*
X121814238Y-107112250D02*
X121766619Y-107064631D01*
X121766619Y-107064631D02*
X121861857Y-107064631D01*
X122099952Y-107397964D02*
X122099952Y-107778916D01*
X121766619Y-107540821D02*
X122623761Y-107540821D01*
X122623761Y-107540821D02*
X122719000Y-107588440D01*
X122719000Y-107588440D02*
X122766619Y-107683678D01*
X122766619Y-107683678D02*
X122766619Y-107778916D01*
X122766619Y-108112250D02*
X121766619Y-108112250D01*
X122766619Y-108540821D02*
X122242809Y-108540821D01*
X122242809Y-108540821D02*
X122147571Y-108493202D01*
X122147571Y-108493202D02*
X122099952Y-108397964D01*
X122099952Y-108397964D02*
X122099952Y-108255107D01*
X122099952Y-108255107D02*
X122147571Y-108159869D01*
X122147571Y-108159869D02*
X122195190Y-108112250D01*
X122766619Y-109778917D02*
X122099952Y-109778917D01*
X121766619Y-109778917D02*
X121814238Y-109731298D01*
X121814238Y-109731298D02*
X121861857Y-109778917D01*
X121861857Y-109778917D02*
X121814238Y-109826536D01*
X121814238Y-109826536D02*
X121766619Y-109778917D01*
X121766619Y-109778917D02*
X121861857Y-109778917D01*
X122099952Y-110112250D02*
X122099952Y-110493202D01*
X121766619Y-110255107D02*
X122623761Y-110255107D01*
X122623761Y-110255107D02*
X122719000Y-110302726D01*
X122719000Y-110302726D02*
X122766619Y-110397964D01*
X122766619Y-110397964D02*
X122766619Y-110493202D01*
X122766619Y-111588441D02*
X122099952Y-111588441D01*
X121766619Y-111588441D02*
X121814238Y-111540822D01*
X121814238Y-111540822D02*
X121861857Y-111588441D01*
X121861857Y-111588441D02*
X121814238Y-111636060D01*
X121814238Y-111636060D02*
X121766619Y-111588441D01*
X121766619Y-111588441D02*
X121861857Y-111588441D01*
X122099952Y-112064631D02*
X122766619Y-112064631D01*
X122195190Y-112064631D02*
X122147571Y-112112250D01*
X122147571Y-112112250D02*
X122099952Y-112207488D01*
X122099952Y-112207488D02*
X122099952Y-112350345D01*
X122099952Y-112350345D02*
X122147571Y-112445583D01*
X122147571Y-112445583D02*
X122242809Y-112493202D01*
X122242809Y-112493202D02*
X122766619Y-112493202D01*
X122719000Y-113397964D02*
X122766619Y-113302726D01*
X122766619Y-113302726D02*
X122766619Y-113112250D01*
X122766619Y-113112250D02*
X122719000Y-113017012D01*
X122719000Y-113017012D02*
X122671380Y-112969393D01*
X122671380Y-112969393D02*
X122576142Y-112921774D01*
X122576142Y-112921774D02*
X122290428Y-112921774D01*
X122290428Y-112921774D02*
X122195190Y-112969393D01*
X122195190Y-112969393D02*
X122147571Y-113017012D01*
X122147571Y-113017012D02*
X122099952Y-113112250D01*
X122099952Y-113112250D02*
X122099952Y-113302726D01*
X122099952Y-113302726D02*
X122147571Y-113397964D01*
X122766619Y-113969393D02*
X122719000Y-113874155D01*
X122719000Y-113874155D02*
X122623761Y-113826536D01*
X122623761Y-113826536D02*
X121766619Y-113826536D01*
X122099952Y-114778917D02*
X122766619Y-114778917D01*
X122099952Y-114350346D02*
X122623761Y-114350346D01*
X122623761Y-114350346D02*
X122719000Y-114397965D01*
X122719000Y-114397965D02*
X122766619Y-114493203D01*
X122766619Y-114493203D02*
X122766619Y-114636060D01*
X122766619Y-114636060D02*
X122719000Y-114731298D01*
X122719000Y-114731298D02*
X122671380Y-114778917D01*
X122766619Y-115683679D02*
X121766619Y-115683679D01*
X122719000Y-115683679D02*
X122766619Y-115588441D01*
X122766619Y-115588441D02*
X122766619Y-115397965D01*
X122766619Y-115397965D02*
X122719000Y-115302727D01*
X122719000Y-115302727D02*
X122671380Y-115255108D01*
X122671380Y-115255108D02*
X122576142Y-115207489D01*
X122576142Y-115207489D02*
X122290428Y-115207489D01*
X122290428Y-115207489D02*
X122195190Y-115255108D01*
X122195190Y-115255108D02*
X122147571Y-115302727D01*
X122147571Y-115302727D02*
X122099952Y-115397965D01*
X122099952Y-115397965D02*
X122099952Y-115588441D01*
X122099952Y-115588441D02*
X122147571Y-115683679D01*
X122766619Y-116159870D02*
X122099952Y-116159870D01*
X121766619Y-116159870D02*
X121814238Y-116112251D01*
X121814238Y-116112251D02*
X121861857Y-116159870D01*
X121861857Y-116159870D02*
X121814238Y-116207489D01*
X121814238Y-116207489D02*
X121766619Y-116159870D01*
X121766619Y-116159870D02*
X121861857Y-116159870D01*
X122099952Y-116636060D02*
X122766619Y-116636060D01*
X122195190Y-116636060D02*
X122147571Y-116683679D01*
X122147571Y-116683679D02*
X122099952Y-116778917D01*
X122099952Y-116778917D02*
X122099952Y-116921774D01*
X122099952Y-116921774D02*
X122147571Y-117017012D01*
X122147571Y-117017012D02*
X122242809Y-117064631D01*
X122242809Y-117064631D02*
X122766619Y-117064631D01*
X122099952Y-117969393D02*
X122909476Y-117969393D01*
X122909476Y-117969393D02*
X123004714Y-117921774D01*
X123004714Y-117921774D02*
X123052333Y-117874155D01*
X123052333Y-117874155D02*
X123099952Y-117778917D01*
X123099952Y-117778917D02*
X123099952Y-117636060D01*
X123099952Y-117636060D02*
X123052333Y-117540822D01*
X122719000Y-117969393D02*
X122766619Y-117874155D01*
X122766619Y-117874155D02*
X122766619Y-117683679D01*
X122766619Y-117683679D02*
X122719000Y-117588441D01*
X122719000Y-117588441D02*
X122671380Y-117540822D01*
X122671380Y-117540822D02*
X122576142Y-117493203D01*
X122576142Y-117493203D02*
X122290428Y-117493203D01*
X122290428Y-117493203D02*
X122195190Y-117540822D01*
X122195190Y-117540822D02*
X122147571Y-117588441D01*
X122147571Y-117588441D02*
X122099952Y-117683679D01*
X122099952Y-117683679D02*
X122099952Y-117874155D01*
X122099952Y-117874155D02*
X122147571Y-117969393D01*
X122671380Y-118445584D02*
X122719000Y-118493203D01*
X122719000Y-118493203D02*
X122766619Y-118445584D01*
X122766619Y-118445584D02*
X122719000Y-118397965D01*
X122719000Y-118397965D02*
X122671380Y-118445584D01*
X122671380Y-118445584D02*
X122766619Y-118445584D01*
X122147571Y-118445584D02*
X122195190Y-118493203D01*
X122195190Y-118493203D02*
X122242809Y-118445584D01*
X122242809Y-118445584D02*
X122195190Y-118397965D01*
X122195190Y-118397965D02*
X122147571Y-118445584D01*
X122147571Y-118445584D02*
X122242809Y-118445584D01*
X124376619Y-83874150D02*
X123376619Y-83874150D01*
X124329000Y-83874150D02*
X124376619Y-83778912D01*
X124376619Y-83778912D02*
X124376619Y-83588436D01*
X124376619Y-83588436D02*
X124329000Y-83493198D01*
X124329000Y-83493198D02*
X124281380Y-83445579D01*
X124281380Y-83445579D02*
X124186142Y-83397960D01*
X124186142Y-83397960D02*
X123900428Y-83397960D01*
X123900428Y-83397960D02*
X123805190Y-83445579D01*
X123805190Y-83445579D02*
X123757571Y-83493198D01*
X123757571Y-83493198D02*
X123709952Y-83588436D01*
X123709952Y-83588436D02*
X123709952Y-83778912D01*
X123709952Y-83778912D02*
X123757571Y-83874150D01*
X124376619Y-84778912D02*
X123852809Y-84778912D01*
X123852809Y-84778912D02*
X123757571Y-84731293D01*
X123757571Y-84731293D02*
X123709952Y-84636055D01*
X123709952Y-84636055D02*
X123709952Y-84445579D01*
X123709952Y-84445579D02*
X123757571Y-84350341D01*
X124329000Y-84778912D02*
X124376619Y-84683674D01*
X124376619Y-84683674D02*
X124376619Y-84445579D01*
X124376619Y-84445579D02*
X124329000Y-84350341D01*
X124329000Y-84350341D02*
X124233761Y-84302722D01*
X124233761Y-84302722D02*
X124138523Y-84302722D01*
X124138523Y-84302722D02*
X124043285Y-84350341D01*
X124043285Y-84350341D02*
X123995666Y-84445579D01*
X123995666Y-84445579D02*
X123995666Y-84683674D01*
X123995666Y-84683674D02*
X123948047Y-84778912D01*
X124376619Y-85255103D02*
X123709952Y-85255103D01*
X123805190Y-85255103D02*
X123757571Y-85302722D01*
X123757571Y-85302722D02*
X123709952Y-85397960D01*
X123709952Y-85397960D02*
X123709952Y-85540817D01*
X123709952Y-85540817D02*
X123757571Y-85636055D01*
X123757571Y-85636055D02*
X123852809Y-85683674D01*
X123852809Y-85683674D02*
X124376619Y-85683674D01*
X123852809Y-85683674D02*
X123757571Y-85731293D01*
X123757571Y-85731293D02*
X123709952Y-85826531D01*
X123709952Y-85826531D02*
X123709952Y-85969388D01*
X123709952Y-85969388D02*
X123757571Y-86064627D01*
X123757571Y-86064627D02*
X123852809Y-86112246D01*
X123852809Y-86112246D02*
X124376619Y-86112246D01*
X124376619Y-87017007D02*
X123852809Y-87017007D01*
X123852809Y-87017007D02*
X123757571Y-86969388D01*
X123757571Y-86969388D02*
X123709952Y-86874150D01*
X123709952Y-86874150D02*
X123709952Y-86683674D01*
X123709952Y-86683674D02*
X123757571Y-86588436D01*
X124329000Y-87017007D02*
X124376619Y-86921769D01*
X124376619Y-86921769D02*
X124376619Y-86683674D01*
X124376619Y-86683674D02*
X124329000Y-86588436D01*
X124329000Y-86588436D02*
X124233761Y-86540817D01*
X124233761Y-86540817D02*
X124138523Y-86540817D01*
X124138523Y-86540817D02*
X124043285Y-86588436D01*
X124043285Y-86588436D02*
X123995666Y-86683674D01*
X123995666Y-86683674D02*
X123995666Y-86921769D01*
X123995666Y-86921769D02*
X123948047Y-87017007D01*
X123709952Y-87921769D02*
X124519476Y-87921769D01*
X124519476Y-87921769D02*
X124614714Y-87874150D01*
X124614714Y-87874150D02*
X124662333Y-87826531D01*
X124662333Y-87826531D02*
X124709952Y-87731293D01*
X124709952Y-87731293D02*
X124709952Y-87588436D01*
X124709952Y-87588436D02*
X124662333Y-87493198D01*
X124329000Y-87921769D02*
X124376619Y-87826531D01*
X124376619Y-87826531D02*
X124376619Y-87636055D01*
X124376619Y-87636055D02*
X124329000Y-87540817D01*
X124329000Y-87540817D02*
X124281380Y-87493198D01*
X124281380Y-87493198D02*
X124186142Y-87445579D01*
X124186142Y-87445579D02*
X123900428Y-87445579D01*
X123900428Y-87445579D02*
X123805190Y-87493198D01*
X123805190Y-87493198D02*
X123757571Y-87540817D01*
X123757571Y-87540817D02*
X123709952Y-87636055D01*
X123709952Y-87636055D02*
X123709952Y-87826531D01*
X123709952Y-87826531D02*
X123757571Y-87921769D01*
X124329000Y-88778912D02*
X124376619Y-88683674D01*
X124376619Y-88683674D02*
X124376619Y-88493198D01*
X124376619Y-88493198D02*
X124329000Y-88397960D01*
X124329000Y-88397960D02*
X124233761Y-88350341D01*
X124233761Y-88350341D02*
X123852809Y-88350341D01*
X123852809Y-88350341D02*
X123757571Y-88397960D01*
X123757571Y-88397960D02*
X123709952Y-88493198D01*
X123709952Y-88493198D02*
X123709952Y-88683674D01*
X123709952Y-88683674D02*
X123757571Y-88778912D01*
X123757571Y-88778912D02*
X123852809Y-88826531D01*
X123852809Y-88826531D02*
X123948047Y-88826531D01*
X123948047Y-88826531D02*
X124043285Y-88350341D01*
X124329000Y-89302722D02*
X124376619Y-89302722D01*
X124376619Y-89302722D02*
X124471857Y-89255103D01*
X124471857Y-89255103D02*
X124519476Y-89207484D01*
X124329000Y-90874150D02*
X124376619Y-90778912D01*
X124376619Y-90778912D02*
X124376619Y-90588436D01*
X124376619Y-90588436D02*
X124329000Y-90493198D01*
X124329000Y-90493198D02*
X124233761Y-90445579D01*
X124233761Y-90445579D02*
X123852809Y-90445579D01*
X123852809Y-90445579D02*
X123757571Y-90493198D01*
X123757571Y-90493198D02*
X123709952Y-90588436D01*
X123709952Y-90588436D02*
X123709952Y-90778912D01*
X123709952Y-90778912D02*
X123757571Y-90874150D01*
X123757571Y-90874150D02*
X123852809Y-90921769D01*
X123852809Y-90921769D02*
X123948047Y-90921769D01*
X123948047Y-90921769D02*
X124043285Y-90445579D01*
X124376619Y-91493198D02*
X124329000Y-91397960D01*
X124329000Y-91397960D02*
X124233761Y-91350341D01*
X124233761Y-91350341D02*
X123376619Y-91350341D01*
X124329000Y-92255103D02*
X124376619Y-92159865D01*
X124376619Y-92159865D02*
X124376619Y-91969389D01*
X124376619Y-91969389D02*
X124329000Y-91874151D01*
X124329000Y-91874151D02*
X124233761Y-91826532D01*
X124233761Y-91826532D02*
X123852809Y-91826532D01*
X123852809Y-91826532D02*
X123757571Y-91874151D01*
X123757571Y-91874151D02*
X123709952Y-91969389D01*
X123709952Y-91969389D02*
X123709952Y-92159865D01*
X123709952Y-92159865D02*
X123757571Y-92255103D01*
X123757571Y-92255103D02*
X123852809Y-92302722D01*
X123852809Y-92302722D02*
X123948047Y-92302722D01*
X123948047Y-92302722D02*
X124043285Y-91826532D01*
X124329000Y-93159865D02*
X124376619Y-93064627D01*
X124376619Y-93064627D02*
X124376619Y-92874151D01*
X124376619Y-92874151D02*
X124329000Y-92778913D01*
X124329000Y-92778913D02*
X124281380Y-92731294D01*
X124281380Y-92731294D02*
X124186142Y-92683675D01*
X124186142Y-92683675D02*
X123900428Y-92683675D01*
X123900428Y-92683675D02*
X123805190Y-92731294D01*
X123805190Y-92731294D02*
X123757571Y-92778913D01*
X123757571Y-92778913D02*
X123709952Y-92874151D01*
X123709952Y-92874151D02*
X123709952Y-93064627D01*
X123709952Y-93064627D02*
X123757571Y-93159865D01*
X123709952Y-93445580D02*
X123709952Y-93826532D01*
X123376619Y-93588437D02*
X124233761Y-93588437D01*
X124233761Y-93588437D02*
X124329000Y-93636056D01*
X124329000Y-93636056D02*
X124376619Y-93731294D01*
X124376619Y-93731294D02*
X124376619Y-93826532D01*
X124376619Y-94159866D02*
X123709952Y-94159866D01*
X123900428Y-94159866D02*
X123805190Y-94207485D01*
X123805190Y-94207485D02*
X123757571Y-94255104D01*
X123757571Y-94255104D02*
X123709952Y-94350342D01*
X123709952Y-94350342D02*
X123709952Y-94445580D01*
X124376619Y-94778914D02*
X123709952Y-94778914D01*
X123376619Y-94778914D02*
X123424238Y-94731295D01*
X123424238Y-94731295D02*
X123471857Y-94778914D01*
X123471857Y-94778914D02*
X123424238Y-94826533D01*
X123424238Y-94826533D02*
X123376619Y-94778914D01*
X123376619Y-94778914D02*
X123471857Y-94778914D01*
X124329000Y-95683675D02*
X124376619Y-95588437D01*
X124376619Y-95588437D02*
X124376619Y-95397961D01*
X124376619Y-95397961D02*
X124329000Y-95302723D01*
X124329000Y-95302723D02*
X124281380Y-95255104D01*
X124281380Y-95255104D02*
X124186142Y-95207485D01*
X124186142Y-95207485D02*
X123900428Y-95207485D01*
X123900428Y-95207485D02*
X123805190Y-95255104D01*
X123805190Y-95255104D02*
X123757571Y-95302723D01*
X123757571Y-95302723D02*
X123709952Y-95397961D01*
X123709952Y-95397961D02*
X123709952Y-95588437D01*
X123709952Y-95588437D02*
X123757571Y-95683675D01*
X124376619Y-96540818D02*
X123852809Y-96540818D01*
X123852809Y-96540818D02*
X123757571Y-96493199D01*
X123757571Y-96493199D02*
X123709952Y-96397961D01*
X123709952Y-96397961D02*
X123709952Y-96207485D01*
X123709952Y-96207485D02*
X123757571Y-96112247D01*
X124329000Y-96540818D02*
X124376619Y-96445580D01*
X124376619Y-96445580D02*
X124376619Y-96207485D01*
X124376619Y-96207485D02*
X124329000Y-96112247D01*
X124329000Y-96112247D02*
X124233761Y-96064628D01*
X124233761Y-96064628D02*
X124138523Y-96064628D01*
X124138523Y-96064628D02*
X124043285Y-96112247D01*
X124043285Y-96112247D02*
X123995666Y-96207485D01*
X123995666Y-96207485D02*
X123995666Y-96445580D01*
X123995666Y-96445580D02*
X123948047Y-96540818D01*
X124376619Y-97159866D02*
X124329000Y-97064628D01*
X124329000Y-97064628D02*
X124233761Y-97017009D01*
X124233761Y-97017009D02*
X123376619Y-97017009D01*
X124329000Y-98255105D02*
X124376619Y-98350343D01*
X124376619Y-98350343D02*
X124376619Y-98540819D01*
X124376619Y-98540819D02*
X124329000Y-98636057D01*
X124329000Y-98636057D02*
X124233761Y-98683676D01*
X124233761Y-98683676D02*
X124186142Y-98683676D01*
X124186142Y-98683676D02*
X124090904Y-98636057D01*
X124090904Y-98636057D02*
X124043285Y-98540819D01*
X124043285Y-98540819D02*
X124043285Y-98397962D01*
X124043285Y-98397962D02*
X123995666Y-98302724D01*
X123995666Y-98302724D02*
X123900428Y-98255105D01*
X123900428Y-98255105D02*
X123852809Y-98255105D01*
X123852809Y-98255105D02*
X123757571Y-98302724D01*
X123757571Y-98302724D02*
X123709952Y-98397962D01*
X123709952Y-98397962D02*
X123709952Y-98540819D01*
X123709952Y-98540819D02*
X123757571Y-98636057D01*
X124376619Y-99112248D02*
X123376619Y-99112248D01*
X124376619Y-99540819D02*
X123852809Y-99540819D01*
X123852809Y-99540819D02*
X123757571Y-99493200D01*
X123757571Y-99493200D02*
X123709952Y-99397962D01*
X123709952Y-99397962D02*
X123709952Y-99255105D01*
X123709952Y-99255105D02*
X123757571Y-99159867D01*
X123757571Y-99159867D02*
X123805190Y-99112248D01*
X124376619Y-100159867D02*
X124329000Y-100064629D01*
X124329000Y-100064629D02*
X124281380Y-100017010D01*
X124281380Y-100017010D02*
X124186142Y-99969391D01*
X124186142Y-99969391D02*
X123900428Y-99969391D01*
X123900428Y-99969391D02*
X123805190Y-100017010D01*
X123805190Y-100017010D02*
X123757571Y-100064629D01*
X123757571Y-100064629D02*
X123709952Y-100159867D01*
X123709952Y-100159867D02*
X123709952Y-100302724D01*
X123709952Y-100302724D02*
X123757571Y-100397962D01*
X123757571Y-100397962D02*
X123805190Y-100445581D01*
X123805190Y-100445581D02*
X123900428Y-100493200D01*
X123900428Y-100493200D02*
X124186142Y-100493200D01*
X124186142Y-100493200D02*
X124281380Y-100445581D01*
X124281380Y-100445581D02*
X124329000Y-100397962D01*
X124329000Y-100397962D02*
X124376619Y-100302724D01*
X124376619Y-100302724D02*
X124376619Y-100159867D01*
X124329000Y-101350343D02*
X124376619Y-101255105D01*
X124376619Y-101255105D02*
X124376619Y-101064629D01*
X124376619Y-101064629D02*
X124329000Y-100969391D01*
X124329000Y-100969391D02*
X124281380Y-100921772D01*
X124281380Y-100921772D02*
X124186142Y-100874153D01*
X124186142Y-100874153D02*
X123900428Y-100874153D01*
X123900428Y-100874153D02*
X123805190Y-100921772D01*
X123805190Y-100921772D02*
X123757571Y-100969391D01*
X123757571Y-100969391D02*
X123709952Y-101064629D01*
X123709952Y-101064629D02*
X123709952Y-101255105D01*
X123709952Y-101255105D02*
X123757571Y-101350343D01*
X124376619Y-101778915D02*
X123376619Y-101778915D01*
X123995666Y-101874153D02*
X124376619Y-102159867D01*
X123709952Y-102159867D02*
X124090904Y-101778915D01*
X124329000Y-102636058D02*
X124376619Y-102636058D01*
X124376619Y-102636058D02*
X124471857Y-102588439D01*
X124471857Y-102588439D02*
X124519476Y-102540820D01*
X123709952Y-103683677D02*
X123709952Y-104064629D01*
X124376619Y-103826534D02*
X123519476Y-103826534D01*
X123519476Y-103826534D02*
X123424238Y-103874153D01*
X123424238Y-103874153D02*
X123376619Y-103969391D01*
X123376619Y-103969391D02*
X123376619Y-104064629D01*
X124376619Y-104397963D02*
X123709952Y-104397963D01*
X123376619Y-104397963D02*
X123424238Y-104350344D01*
X123424238Y-104350344D02*
X123471857Y-104397963D01*
X123471857Y-104397963D02*
X123424238Y-104445582D01*
X123424238Y-104445582D02*
X123376619Y-104397963D01*
X123376619Y-104397963D02*
X123471857Y-104397963D01*
X124376619Y-104874153D02*
X123709952Y-104874153D01*
X123900428Y-104874153D02*
X123805190Y-104921772D01*
X123805190Y-104921772D02*
X123757571Y-104969391D01*
X123757571Y-104969391D02*
X123709952Y-105064629D01*
X123709952Y-105064629D02*
X123709952Y-105159867D01*
X124329000Y-105874153D02*
X124376619Y-105778915D01*
X124376619Y-105778915D02*
X124376619Y-105588439D01*
X124376619Y-105588439D02*
X124329000Y-105493201D01*
X124329000Y-105493201D02*
X124233761Y-105445582D01*
X124233761Y-105445582D02*
X123852809Y-105445582D01*
X123852809Y-105445582D02*
X123757571Y-105493201D01*
X123757571Y-105493201D02*
X123709952Y-105588439D01*
X123709952Y-105588439D02*
X123709952Y-105778915D01*
X123709952Y-105778915D02*
X123757571Y-105874153D01*
X123757571Y-105874153D02*
X123852809Y-105921772D01*
X123852809Y-105921772D02*
X123948047Y-105921772D01*
X123948047Y-105921772D02*
X124043285Y-105445582D01*
X124329000Y-106397963D02*
X124376619Y-106397963D01*
X124376619Y-106397963D02*
X124471857Y-106350344D01*
X124471857Y-106350344D02*
X124519476Y-106302725D01*
X123709952Y-107588439D02*
X124709952Y-107588439D01*
X123757571Y-107588439D02*
X123709952Y-107683677D01*
X123709952Y-107683677D02*
X123709952Y-107874153D01*
X123709952Y-107874153D02*
X123757571Y-107969391D01*
X123757571Y-107969391D02*
X123805190Y-108017010D01*
X123805190Y-108017010D02*
X123900428Y-108064629D01*
X123900428Y-108064629D02*
X124186142Y-108064629D01*
X124186142Y-108064629D02*
X124281380Y-108017010D01*
X124281380Y-108017010D02*
X124329000Y-107969391D01*
X124329000Y-107969391D02*
X124376619Y-107874153D01*
X124376619Y-107874153D02*
X124376619Y-107683677D01*
X124376619Y-107683677D02*
X124329000Y-107588439D01*
X124329000Y-108874153D02*
X124376619Y-108778915D01*
X124376619Y-108778915D02*
X124376619Y-108588439D01*
X124376619Y-108588439D02*
X124329000Y-108493201D01*
X124329000Y-108493201D02*
X124233761Y-108445582D01*
X124233761Y-108445582D02*
X123852809Y-108445582D01*
X123852809Y-108445582D02*
X123757571Y-108493201D01*
X123757571Y-108493201D02*
X123709952Y-108588439D01*
X123709952Y-108588439D02*
X123709952Y-108778915D01*
X123709952Y-108778915D02*
X123757571Y-108874153D01*
X123757571Y-108874153D02*
X123852809Y-108921772D01*
X123852809Y-108921772D02*
X123948047Y-108921772D01*
X123948047Y-108921772D02*
X124043285Y-108445582D01*
X124376619Y-109350344D02*
X123709952Y-109350344D01*
X123900428Y-109350344D02*
X123805190Y-109397963D01*
X123805190Y-109397963D02*
X123757571Y-109445582D01*
X123757571Y-109445582D02*
X123709952Y-109540820D01*
X123709952Y-109540820D02*
X123709952Y-109636058D01*
X124329000Y-109921773D02*
X124376619Y-110017011D01*
X124376619Y-110017011D02*
X124376619Y-110207487D01*
X124376619Y-110207487D02*
X124329000Y-110302725D01*
X124329000Y-110302725D02*
X124233761Y-110350344D01*
X124233761Y-110350344D02*
X124186142Y-110350344D01*
X124186142Y-110350344D02*
X124090904Y-110302725D01*
X124090904Y-110302725D02*
X124043285Y-110207487D01*
X124043285Y-110207487D02*
X124043285Y-110064630D01*
X124043285Y-110064630D02*
X123995666Y-109969392D01*
X123995666Y-109969392D02*
X123900428Y-109921773D01*
X123900428Y-109921773D02*
X123852809Y-109921773D01*
X123852809Y-109921773D02*
X123757571Y-109969392D01*
X123757571Y-109969392D02*
X123709952Y-110064630D01*
X123709952Y-110064630D02*
X123709952Y-110207487D01*
X123709952Y-110207487D02*
X123757571Y-110302725D01*
X124376619Y-110921773D02*
X124329000Y-110826535D01*
X124329000Y-110826535D02*
X124281380Y-110778916D01*
X124281380Y-110778916D02*
X124186142Y-110731297D01*
X124186142Y-110731297D02*
X123900428Y-110731297D01*
X123900428Y-110731297D02*
X123805190Y-110778916D01*
X123805190Y-110778916D02*
X123757571Y-110826535D01*
X123757571Y-110826535D02*
X123709952Y-110921773D01*
X123709952Y-110921773D02*
X123709952Y-111064630D01*
X123709952Y-111064630D02*
X123757571Y-111159868D01*
X123757571Y-111159868D02*
X123805190Y-111207487D01*
X123805190Y-111207487D02*
X123900428Y-111255106D01*
X123900428Y-111255106D02*
X124186142Y-111255106D01*
X124186142Y-111255106D02*
X124281380Y-111207487D01*
X124281380Y-111207487D02*
X124329000Y-111159868D01*
X124329000Y-111159868D02*
X124376619Y-111064630D01*
X124376619Y-111064630D02*
X124376619Y-110921773D01*
X123709952Y-111683678D02*
X124376619Y-111683678D01*
X123805190Y-111683678D02*
X123757571Y-111731297D01*
X123757571Y-111731297D02*
X123709952Y-111826535D01*
X123709952Y-111826535D02*
X123709952Y-111969392D01*
X123709952Y-111969392D02*
X123757571Y-112064630D01*
X123757571Y-112064630D02*
X123852809Y-112112249D01*
X123852809Y-112112249D02*
X124376619Y-112112249D01*
X124376619Y-113017011D02*
X123852809Y-113017011D01*
X123852809Y-113017011D02*
X123757571Y-112969392D01*
X123757571Y-112969392D02*
X123709952Y-112874154D01*
X123709952Y-112874154D02*
X123709952Y-112683678D01*
X123709952Y-112683678D02*
X123757571Y-112588440D01*
X124329000Y-113017011D02*
X124376619Y-112921773D01*
X124376619Y-112921773D02*
X124376619Y-112683678D01*
X124376619Y-112683678D02*
X124329000Y-112588440D01*
X124329000Y-112588440D02*
X124233761Y-112540821D01*
X124233761Y-112540821D02*
X124138523Y-112540821D01*
X124138523Y-112540821D02*
X124043285Y-112588440D01*
X124043285Y-112588440D02*
X123995666Y-112683678D01*
X123995666Y-112683678D02*
X123995666Y-112921773D01*
X123995666Y-112921773D02*
X123948047Y-113017011D01*
X124376619Y-113636059D02*
X124329000Y-113540821D01*
X124329000Y-113540821D02*
X124233761Y-113493202D01*
X124233761Y-113493202D02*
X123376619Y-113493202D01*
X124376619Y-114778917D02*
X123709952Y-114778917D01*
X123376619Y-114778917D02*
X123424238Y-114731298D01*
X123424238Y-114731298D02*
X123471857Y-114778917D01*
X123471857Y-114778917D02*
X123424238Y-114826536D01*
X123424238Y-114826536D02*
X123376619Y-114778917D01*
X123376619Y-114778917D02*
X123471857Y-114778917D01*
X123709952Y-115255107D02*
X124376619Y-115255107D01*
X123805190Y-115255107D02*
X123757571Y-115302726D01*
X123757571Y-115302726D02*
X123709952Y-115397964D01*
X123709952Y-115397964D02*
X123709952Y-115540821D01*
X123709952Y-115540821D02*
X123757571Y-115636059D01*
X123757571Y-115636059D02*
X123852809Y-115683678D01*
X123852809Y-115683678D02*
X124376619Y-115683678D01*
X123995666Y-116159869D02*
X123995666Y-116921774D01*
X125319952Y-83445579D02*
X126177095Y-83445579D01*
X126177095Y-83445579D02*
X126272333Y-83397960D01*
X126272333Y-83397960D02*
X126319952Y-83302722D01*
X126319952Y-83302722D02*
X126319952Y-83255103D01*
X124986619Y-83445579D02*
X125034238Y-83397960D01*
X125034238Y-83397960D02*
X125081857Y-83445579D01*
X125081857Y-83445579D02*
X125034238Y-83493198D01*
X125034238Y-83493198D02*
X124986619Y-83445579D01*
X124986619Y-83445579D02*
X125081857Y-83445579D01*
X125319952Y-84350340D02*
X125986619Y-84350340D01*
X125319952Y-83921769D02*
X125843761Y-83921769D01*
X125843761Y-83921769D02*
X125939000Y-83969388D01*
X125939000Y-83969388D02*
X125986619Y-84064626D01*
X125986619Y-84064626D02*
X125986619Y-84207483D01*
X125986619Y-84207483D02*
X125939000Y-84302721D01*
X125939000Y-84302721D02*
X125891380Y-84350340D01*
X125986619Y-84826531D02*
X125319952Y-84826531D01*
X125510428Y-84826531D02*
X125415190Y-84874150D01*
X125415190Y-84874150D02*
X125367571Y-84921769D01*
X125367571Y-84921769D02*
X125319952Y-85017007D01*
X125319952Y-85017007D02*
X125319952Y-85112245D01*
X125319952Y-85350341D02*
X125986619Y-85588436D01*
X125319952Y-85826531D02*
X125986619Y-85588436D01*
X125986619Y-85588436D02*
X126224714Y-85493198D01*
X126224714Y-85493198D02*
X126272333Y-85445579D01*
X126272333Y-85445579D02*
X126319952Y-85350341D01*
X125986619Y-87397960D02*
X125462809Y-87397960D01*
X125462809Y-87397960D02*
X125367571Y-87350341D01*
X125367571Y-87350341D02*
X125319952Y-87255103D01*
X125319952Y-87255103D02*
X125319952Y-87064627D01*
X125319952Y-87064627D02*
X125367571Y-86969389D01*
X125939000Y-87397960D02*
X125986619Y-87302722D01*
X125986619Y-87302722D02*
X125986619Y-87064627D01*
X125986619Y-87064627D02*
X125939000Y-86969389D01*
X125939000Y-86969389D02*
X125843761Y-86921770D01*
X125843761Y-86921770D02*
X125748523Y-86921770D01*
X125748523Y-86921770D02*
X125653285Y-86969389D01*
X125653285Y-86969389D02*
X125605666Y-87064627D01*
X125605666Y-87064627D02*
X125605666Y-87302722D01*
X125605666Y-87302722D02*
X125558047Y-87397960D01*
X125319952Y-87874151D02*
X125986619Y-87874151D01*
X125415190Y-87874151D02*
X125367571Y-87921770D01*
X125367571Y-87921770D02*
X125319952Y-88017008D01*
X125319952Y-88017008D02*
X125319952Y-88159865D01*
X125319952Y-88159865D02*
X125367571Y-88255103D01*
X125367571Y-88255103D02*
X125462809Y-88302722D01*
X125462809Y-88302722D02*
X125986619Y-88302722D01*
X125986619Y-89207484D02*
X124986619Y-89207484D01*
X125939000Y-89207484D02*
X125986619Y-89112246D01*
X125986619Y-89112246D02*
X125986619Y-88921770D01*
X125986619Y-88921770D02*
X125939000Y-88826532D01*
X125939000Y-88826532D02*
X125891380Y-88778913D01*
X125891380Y-88778913D02*
X125796142Y-88731294D01*
X125796142Y-88731294D02*
X125510428Y-88731294D01*
X125510428Y-88731294D02*
X125415190Y-88778913D01*
X125415190Y-88778913D02*
X125367571Y-88826532D01*
X125367571Y-88826532D02*
X125319952Y-88921770D01*
X125319952Y-88921770D02*
X125319952Y-89112246D01*
X125319952Y-89112246D02*
X125367571Y-89207484D01*
X125986619Y-90874151D02*
X124986619Y-90874151D01*
X125939000Y-90874151D02*
X125986619Y-90778913D01*
X125986619Y-90778913D02*
X125986619Y-90588437D01*
X125986619Y-90588437D02*
X125939000Y-90493199D01*
X125939000Y-90493199D02*
X125891380Y-90445580D01*
X125891380Y-90445580D02*
X125796142Y-90397961D01*
X125796142Y-90397961D02*
X125510428Y-90397961D01*
X125510428Y-90397961D02*
X125415190Y-90445580D01*
X125415190Y-90445580D02*
X125367571Y-90493199D01*
X125367571Y-90493199D02*
X125319952Y-90588437D01*
X125319952Y-90588437D02*
X125319952Y-90778913D01*
X125319952Y-90778913D02*
X125367571Y-90874151D01*
X125939000Y-91731294D02*
X125986619Y-91636056D01*
X125986619Y-91636056D02*
X125986619Y-91445580D01*
X125986619Y-91445580D02*
X125939000Y-91350342D01*
X125939000Y-91350342D02*
X125843761Y-91302723D01*
X125843761Y-91302723D02*
X125462809Y-91302723D01*
X125462809Y-91302723D02*
X125367571Y-91350342D01*
X125367571Y-91350342D02*
X125319952Y-91445580D01*
X125319952Y-91445580D02*
X125319952Y-91636056D01*
X125319952Y-91636056D02*
X125367571Y-91731294D01*
X125367571Y-91731294D02*
X125462809Y-91778913D01*
X125462809Y-91778913D02*
X125558047Y-91778913D01*
X125558047Y-91778913D02*
X125653285Y-91302723D01*
X125986619Y-92636056D02*
X125462809Y-92636056D01*
X125462809Y-92636056D02*
X125367571Y-92588437D01*
X125367571Y-92588437D02*
X125319952Y-92493199D01*
X125319952Y-92493199D02*
X125319952Y-92302723D01*
X125319952Y-92302723D02*
X125367571Y-92207485D01*
X125939000Y-92636056D02*
X125986619Y-92540818D01*
X125986619Y-92540818D02*
X125986619Y-92302723D01*
X125986619Y-92302723D02*
X125939000Y-92207485D01*
X125939000Y-92207485D02*
X125843761Y-92159866D01*
X125843761Y-92159866D02*
X125748523Y-92159866D01*
X125748523Y-92159866D02*
X125653285Y-92207485D01*
X125653285Y-92207485D02*
X125605666Y-92302723D01*
X125605666Y-92302723D02*
X125605666Y-92540818D01*
X125605666Y-92540818D02*
X125558047Y-92636056D01*
X125319952Y-92969390D02*
X125319952Y-93350342D01*
X124986619Y-93112247D02*
X125843761Y-93112247D01*
X125843761Y-93112247D02*
X125939000Y-93159866D01*
X125939000Y-93159866D02*
X125986619Y-93255104D01*
X125986619Y-93255104D02*
X125986619Y-93350342D01*
X125986619Y-93683676D02*
X124986619Y-93683676D01*
X125986619Y-94112247D02*
X125462809Y-94112247D01*
X125462809Y-94112247D02*
X125367571Y-94064628D01*
X125367571Y-94064628D02*
X125319952Y-93969390D01*
X125319952Y-93969390D02*
X125319952Y-93826533D01*
X125319952Y-93826533D02*
X125367571Y-93731295D01*
X125367571Y-93731295D02*
X125415190Y-93683676D01*
X125891380Y-94588438D02*
X125939000Y-94636057D01*
X125939000Y-94636057D02*
X125986619Y-94588438D01*
X125986619Y-94588438D02*
X125939000Y-94540819D01*
X125939000Y-94540819D02*
X125891380Y-94588438D01*
X125891380Y-94588438D02*
X125986619Y-94588438D01*
X124986619Y-95683676D02*
X124986619Y-96255104D01*
X125986619Y-95969390D02*
X124986619Y-95969390D01*
X125986619Y-96588438D02*
X124986619Y-96588438D01*
X125986619Y-97017009D02*
X125462809Y-97017009D01*
X125462809Y-97017009D02*
X125367571Y-96969390D01*
X125367571Y-96969390D02*
X125319952Y-96874152D01*
X125319952Y-96874152D02*
X125319952Y-96731295D01*
X125319952Y-96731295D02*
X125367571Y-96636057D01*
X125367571Y-96636057D02*
X125415190Y-96588438D01*
X125939000Y-97874152D02*
X125986619Y-97778914D01*
X125986619Y-97778914D02*
X125986619Y-97588438D01*
X125986619Y-97588438D02*
X125939000Y-97493200D01*
X125939000Y-97493200D02*
X125843761Y-97445581D01*
X125843761Y-97445581D02*
X125462809Y-97445581D01*
X125462809Y-97445581D02*
X125367571Y-97493200D01*
X125367571Y-97493200D02*
X125319952Y-97588438D01*
X125319952Y-97588438D02*
X125319952Y-97778914D01*
X125319952Y-97778914D02*
X125367571Y-97874152D01*
X125367571Y-97874152D02*
X125462809Y-97921771D01*
X125462809Y-97921771D02*
X125558047Y-97921771D01*
X125558047Y-97921771D02*
X125653285Y-97445581D01*
X125986619Y-99540819D02*
X125462809Y-99540819D01*
X125462809Y-99540819D02*
X125367571Y-99493200D01*
X125367571Y-99493200D02*
X125319952Y-99397962D01*
X125319952Y-99397962D02*
X125319952Y-99207486D01*
X125319952Y-99207486D02*
X125367571Y-99112248D01*
X125939000Y-99540819D02*
X125986619Y-99445581D01*
X125986619Y-99445581D02*
X125986619Y-99207486D01*
X125986619Y-99207486D02*
X125939000Y-99112248D01*
X125939000Y-99112248D02*
X125843761Y-99064629D01*
X125843761Y-99064629D02*
X125748523Y-99064629D01*
X125748523Y-99064629D02*
X125653285Y-99112248D01*
X125653285Y-99112248D02*
X125605666Y-99207486D01*
X125605666Y-99207486D02*
X125605666Y-99445581D01*
X125605666Y-99445581D02*
X125558047Y-99540819D01*
X125319952Y-100445581D02*
X125986619Y-100445581D01*
X125319952Y-100017010D02*
X125843761Y-100017010D01*
X125843761Y-100017010D02*
X125939000Y-100064629D01*
X125939000Y-100064629D02*
X125986619Y-100159867D01*
X125986619Y-100159867D02*
X125986619Y-100302724D01*
X125986619Y-100302724D02*
X125939000Y-100397962D01*
X125939000Y-100397962D02*
X125891380Y-100445581D01*
X125319952Y-100778915D02*
X125319952Y-101159867D01*
X124986619Y-100921772D02*
X125843761Y-100921772D01*
X125843761Y-100921772D02*
X125939000Y-100969391D01*
X125939000Y-100969391D02*
X125986619Y-101064629D01*
X125986619Y-101064629D02*
X125986619Y-101159867D01*
X125986619Y-101493201D02*
X124986619Y-101493201D01*
X125986619Y-101921772D02*
X125462809Y-101921772D01*
X125462809Y-101921772D02*
X125367571Y-101874153D01*
X125367571Y-101874153D02*
X125319952Y-101778915D01*
X125319952Y-101778915D02*
X125319952Y-101636058D01*
X125319952Y-101636058D02*
X125367571Y-101540820D01*
X125367571Y-101540820D02*
X125415190Y-101493201D01*
X125986619Y-102540820D02*
X125939000Y-102445582D01*
X125939000Y-102445582D02*
X125891380Y-102397963D01*
X125891380Y-102397963D02*
X125796142Y-102350344D01*
X125796142Y-102350344D02*
X125510428Y-102350344D01*
X125510428Y-102350344D02*
X125415190Y-102397963D01*
X125415190Y-102397963D02*
X125367571Y-102445582D01*
X125367571Y-102445582D02*
X125319952Y-102540820D01*
X125319952Y-102540820D02*
X125319952Y-102683677D01*
X125319952Y-102683677D02*
X125367571Y-102778915D01*
X125367571Y-102778915D02*
X125415190Y-102826534D01*
X125415190Y-102826534D02*
X125510428Y-102874153D01*
X125510428Y-102874153D02*
X125796142Y-102874153D01*
X125796142Y-102874153D02*
X125891380Y-102826534D01*
X125891380Y-102826534D02*
X125939000Y-102778915D01*
X125939000Y-102778915D02*
X125986619Y-102683677D01*
X125986619Y-102683677D02*
X125986619Y-102540820D01*
X125986619Y-103302725D02*
X125319952Y-103302725D01*
X125510428Y-103302725D02*
X125415190Y-103350344D01*
X125415190Y-103350344D02*
X125367571Y-103397963D01*
X125367571Y-103397963D02*
X125319952Y-103493201D01*
X125319952Y-103493201D02*
X125319952Y-103588439D01*
X125986619Y-104683678D02*
X125319952Y-104683678D01*
X124986619Y-104683678D02*
X125034238Y-104636059D01*
X125034238Y-104636059D02*
X125081857Y-104683678D01*
X125081857Y-104683678D02*
X125034238Y-104731297D01*
X125034238Y-104731297D02*
X124986619Y-104683678D01*
X124986619Y-104683678D02*
X125081857Y-104683678D01*
X125939000Y-105112249D02*
X125986619Y-105207487D01*
X125986619Y-105207487D02*
X125986619Y-105397963D01*
X125986619Y-105397963D02*
X125939000Y-105493201D01*
X125939000Y-105493201D02*
X125843761Y-105540820D01*
X125843761Y-105540820D02*
X125796142Y-105540820D01*
X125796142Y-105540820D02*
X125700904Y-105493201D01*
X125700904Y-105493201D02*
X125653285Y-105397963D01*
X125653285Y-105397963D02*
X125653285Y-105255106D01*
X125653285Y-105255106D02*
X125605666Y-105159868D01*
X125605666Y-105159868D02*
X125510428Y-105112249D01*
X125510428Y-105112249D02*
X125462809Y-105112249D01*
X125462809Y-105112249D02*
X125367571Y-105159868D01*
X125367571Y-105159868D02*
X125319952Y-105255106D01*
X125319952Y-105255106D02*
X125319952Y-105397963D01*
X125319952Y-105397963D02*
X125367571Y-105493201D01*
X125319952Y-106731297D02*
X125986619Y-106731297D01*
X125415190Y-106731297D02*
X125367571Y-106778916D01*
X125367571Y-106778916D02*
X125319952Y-106874154D01*
X125319952Y-106874154D02*
X125319952Y-107017011D01*
X125319952Y-107017011D02*
X125367571Y-107112249D01*
X125367571Y-107112249D02*
X125462809Y-107159868D01*
X125462809Y-107159868D02*
X125986619Y-107159868D01*
X125986619Y-107778916D02*
X125939000Y-107683678D01*
X125939000Y-107683678D02*
X125891380Y-107636059D01*
X125891380Y-107636059D02*
X125796142Y-107588440D01*
X125796142Y-107588440D02*
X125510428Y-107588440D01*
X125510428Y-107588440D02*
X125415190Y-107636059D01*
X125415190Y-107636059D02*
X125367571Y-107683678D01*
X125367571Y-107683678D02*
X125319952Y-107778916D01*
X125319952Y-107778916D02*
X125319952Y-107921773D01*
X125319952Y-107921773D02*
X125367571Y-108017011D01*
X125367571Y-108017011D02*
X125415190Y-108064630D01*
X125415190Y-108064630D02*
X125510428Y-108112249D01*
X125510428Y-108112249D02*
X125796142Y-108112249D01*
X125796142Y-108112249D02*
X125891380Y-108064630D01*
X125891380Y-108064630D02*
X125939000Y-108017011D01*
X125939000Y-108017011D02*
X125986619Y-107921773D01*
X125986619Y-107921773D02*
X125986619Y-107778916D01*
X125319952Y-108397964D02*
X125319952Y-108778916D01*
X124986619Y-108540821D02*
X125843761Y-108540821D01*
X125843761Y-108540821D02*
X125939000Y-108588440D01*
X125939000Y-108588440D02*
X125986619Y-108683678D01*
X125986619Y-108683678D02*
X125986619Y-108778916D01*
X125986619Y-110017012D02*
X125939000Y-109921774D01*
X125939000Y-109921774D02*
X125843761Y-109874155D01*
X125843761Y-109874155D02*
X124986619Y-109874155D01*
X125986619Y-110397965D02*
X125319952Y-110397965D01*
X124986619Y-110397965D02*
X125034238Y-110350346D01*
X125034238Y-110350346D02*
X125081857Y-110397965D01*
X125081857Y-110397965D02*
X125034238Y-110445584D01*
X125034238Y-110445584D02*
X124986619Y-110397965D01*
X124986619Y-110397965D02*
X125081857Y-110397965D01*
X125986619Y-111302726D02*
X125462809Y-111302726D01*
X125462809Y-111302726D02*
X125367571Y-111255107D01*
X125367571Y-111255107D02*
X125319952Y-111159869D01*
X125319952Y-111159869D02*
X125319952Y-110969393D01*
X125319952Y-110969393D02*
X125367571Y-110874155D01*
X125939000Y-111302726D02*
X125986619Y-111207488D01*
X125986619Y-111207488D02*
X125986619Y-110969393D01*
X125986619Y-110969393D02*
X125939000Y-110874155D01*
X125939000Y-110874155D02*
X125843761Y-110826536D01*
X125843761Y-110826536D02*
X125748523Y-110826536D01*
X125748523Y-110826536D02*
X125653285Y-110874155D01*
X125653285Y-110874155D02*
X125605666Y-110969393D01*
X125605666Y-110969393D02*
X125605666Y-111207488D01*
X125605666Y-111207488D02*
X125558047Y-111302726D01*
X125986619Y-111778917D02*
X124986619Y-111778917D01*
X125367571Y-111778917D02*
X125319952Y-111874155D01*
X125319952Y-111874155D02*
X125319952Y-112064631D01*
X125319952Y-112064631D02*
X125367571Y-112159869D01*
X125367571Y-112159869D02*
X125415190Y-112207488D01*
X125415190Y-112207488D02*
X125510428Y-112255107D01*
X125510428Y-112255107D02*
X125796142Y-112255107D01*
X125796142Y-112255107D02*
X125891380Y-112207488D01*
X125891380Y-112207488D02*
X125939000Y-112159869D01*
X125939000Y-112159869D02*
X125986619Y-112064631D01*
X125986619Y-112064631D02*
X125986619Y-111874155D01*
X125986619Y-111874155D02*
X125939000Y-111778917D01*
X125986619Y-112826536D02*
X125939000Y-112731298D01*
X125939000Y-112731298D02*
X125843761Y-112683679D01*
X125843761Y-112683679D02*
X124986619Y-112683679D01*
X125939000Y-113588441D02*
X125986619Y-113493203D01*
X125986619Y-113493203D02*
X125986619Y-113302727D01*
X125986619Y-113302727D02*
X125939000Y-113207489D01*
X125939000Y-113207489D02*
X125843761Y-113159870D01*
X125843761Y-113159870D02*
X125462809Y-113159870D01*
X125462809Y-113159870D02*
X125367571Y-113207489D01*
X125367571Y-113207489D02*
X125319952Y-113302727D01*
X125319952Y-113302727D02*
X125319952Y-113493203D01*
X125319952Y-113493203D02*
X125367571Y-113588441D01*
X125367571Y-113588441D02*
X125462809Y-113636060D01*
X125462809Y-113636060D02*
X125558047Y-113636060D01*
X125558047Y-113636060D02*
X125653285Y-113159870D01*
X125319952Y-114683680D02*
X125319952Y-115064632D01*
X125986619Y-114826537D02*
X125129476Y-114826537D01*
X125129476Y-114826537D02*
X125034238Y-114874156D01*
X125034238Y-114874156D02*
X124986619Y-114969394D01*
X124986619Y-114969394D02*
X124986619Y-115064632D01*
X125986619Y-115540823D02*
X125939000Y-115445585D01*
X125939000Y-115445585D02*
X125891380Y-115397966D01*
X125891380Y-115397966D02*
X125796142Y-115350347D01*
X125796142Y-115350347D02*
X125510428Y-115350347D01*
X125510428Y-115350347D02*
X125415190Y-115397966D01*
X125415190Y-115397966D02*
X125367571Y-115445585D01*
X125367571Y-115445585D02*
X125319952Y-115540823D01*
X125319952Y-115540823D02*
X125319952Y-115683680D01*
X125319952Y-115683680D02*
X125367571Y-115778918D01*
X125367571Y-115778918D02*
X125415190Y-115826537D01*
X125415190Y-115826537D02*
X125510428Y-115874156D01*
X125510428Y-115874156D02*
X125796142Y-115874156D01*
X125796142Y-115874156D02*
X125891380Y-115826537D01*
X125891380Y-115826537D02*
X125939000Y-115778918D01*
X125939000Y-115778918D02*
X125986619Y-115683680D01*
X125986619Y-115683680D02*
X125986619Y-115540823D01*
X125986619Y-116302728D02*
X125319952Y-116302728D01*
X125510428Y-116302728D02*
X125415190Y-116350347D01*
X125415190Y-116350347D02*
X125367571Y-116397966D01*
X125367571Y-116397966D02*
X125319952Y-116493204D01*
X125319952Y-116493204D02*
X125319952Y-116588442D01*
X127596619Y-83874150D02*
X127072809Y-83874150D01*
X127072809Y-83874150D02*
X126977571Y-83826531D01*
X126977571Y-83826531D02*
X126929952Y-83731293D01*
X126929952Y-83731293D02*
X126929952Y-83540817D01*
X126929952Y-83540817D02*
X126977571Y-83445579D01*
X127549000Y-83874150D02*
X127596619Y-83778912D01*
X127596619Y-83778912D02*
X127596619Y-83540817D01*
X127596619Y-83540817D02*
X127549000Y-83445579D01*
X127549000Y-83445579D02*
X127453761Y-83397960D01*
X127453761Y-83397960D02*
X127358523Y-83397960D01*
X127358523Y-83397960D02*
X127263285Y-83445579D01*
X127263285Y-83445579D02*
X127215666Y-83540817D01*
X127215666Y-83540817D02*
X127215666Y-83778912D01*
X127215666Y-83778912D02*
X127168047Y-83874150D01*
X126929952Y-84350341D02*
X127596619Y-84350341D01*
X127025190Y-84350341D02*
X126977571Y-84397960D01*
X126977571Y-84397960D02*
X126929952Y-84493198D01*
X126929952Y-84493198D02*
X126929952Y-84636055D01*
X126929952Y-84636055D02*
X126977571Y-84731293D01*
X126977571Y-84731293D02*
X127072809Y-84778912D01*
X127072809Y-84778912D02*
X127596619Y-84778912D01*
X126929952Y-85159865D02*
X127596619Y-85397960D01*
X126929952Y-85636055D02*
X127596619Y-85397960D01*
X127596619Y-85397960D02*
X127834714Y-85302722D01*
X127834714Y-85302722D02*
X127882333Y-85255103D01*
X127882333Y-85255103D02*
X127929952Y-85159865D01*
X127596619Y-87207484D02*
X126596619Y-87207484D01*
X127549000Y-87207484D02*
X127596619Y-87112246D01*
X127596619Y-87112246D02*
X127596619Y-86921770D01*
X127596619Y-86921770D02*
X127549000Y-86826532D01*
X127549000Y-86826532D02*
X127501380Y-86778913D01*
X127501380Y-86778913D02*
X127406142Y-86731294D01*
X127406142Y-86731294D02*
X127120428Y-86731294D01*
X127120428Y-86731294D02*
X127025190Y-86778913D01*
X127025190Y-86778913D02*
X126977571Y-86826532D01*
X126977571Y-86826532D02*
X126929952Y-86921770D01*
X126929952Y-86921770D02*
X126929952Y-87112246D01*
X126929952Y-87112246D02*
X126977571Y-87207484D01*
X127596619Y-88112246D02*
X127072809Y-88112246D01*
X127072809Y-88112246D02*
X126977571Y-88064627D01*
X126977571Y-88064627D02*
X126929952Y-87969389D01*
X126929952Y-87969389D02*
X126929952Y-87778913D01*
X126929952Y-87778913D02*
X126977571Y-87683675D01*
X127549000Y-88112246D02*
X127596619Y-88017008D01*
X127596619Y-88017008D02*
X127596619Y-87778913D01*
X127596619Y-87778913D02*
X127549000Y-87683675D01*
X127549000Y-87683675D02*
X127453761Y-87636056D01*
X127453761Y-87636056D02*
X127358523Y-87636056D01*
X127358523Y-87636056D02*
X127263285Y-87683675D01*
X127263285Y-87683675D02*
X127215666Y-87778913D01*
X127215666Y-87778913D02*
X127215666Y-88017008D01*
X127215666Y-88017008D02*
X127168047Y-88112246D01*
X127596619Y-88588437D02*
X126929952Y-88588437D01*
X127025190Y-88588437D02*
X126977571Y-88636056D01*
X126977571Y-88636056D02*
X126929952Y-88731294D01*
X126929952Y-88731294D02*
X126929952Y-88874151D01*
X126929952Y-88874151D02*
X126977571Y-88969389D01*
X126977571Y-88969389D02*
X127072809Y-89017008D01*
X127072809Y-89017008D02*
X127596619Y-89017008D01*
X127072809Y-89017008D02*
X126977571Y-89064627D01*
X126977571Y-89064627D02*
X126929952Y-89159865D01*
X126929952Y-89159865D02*
X126929952Y-89302722D01*
X126929952Y-89302722D02*
X126977571Y-89397961D01*
X126977571Y-89397961D02*
X127072809Y-89445580D01*
X127072809Y-89445580D02*
X127596619Y-89445580D01*
X127596619Y-90350341D02*
X127072809Y-90350341D01*
X127072809Y-90350341D02*
X126977571Y-90302722D01*
X126977571Y-90302722D02*
X126929952Y-90207484D01*
X126929952Y-90207484D02*
X126929952Y-90017008D01*
X126929952Y-90017008D02*
X126977571Y-89921770D01*
X127549000Y-90350341D02*
X127596619Y-90255103D01*
X127596619Y-90255103D02*
X127596619Y-90017008D01*
X127596619Y-90017008D02*
X127549000Y-89921770D01*
X127549000Y-89921770D02*
X127453761Y-89874151D01*
X127453761Y-89874151D02*
X127358523Y-89874151D01*
X127358523Y-89874151D02*
X127263285Y-89921770D01*
X127263285Y-89921770D02*
X127215666Y-90017008D01*
X127215666Y-90017008D02*
X127215666Y-90255103D01*
X127215666Y-90255103D02*
X127168047Y-90350341D01*
X126929952Y-91255103D02*
X127739476Y-91255103D01*
X127739476Y-91255103D02*
X127834714Y-91207484D01*
X127834714Y-91207484D02*
X127882333Y-91159865D01*
X127882333Y-91159865D02*
X127929952Y-91064627D01*
X127929952Y-91064627D02*
X127929952Y-90921770D01*
X127929952Y-90921770D02*
X127882333Y-90826532D01*
X127549000Y-91255103D02*
X127596619Y-91159865D01*
X127596619Y-91159865D02*
X127596619Y-90969389D01*
X127596619Y-90969389D02*
X127549000Y-90874151D01*
X127549000Y-90874151D02*
X127501380Y-90826532D01*
X127501380Y-90826532D02*
X127406142Y-90778913D01*
X127406142Y-90778913D02*
X127120428Y-90778913D01*
X127120428Y-90778913D02*
X127025190Y-90826532D01*
X127025190Y-90826532D02*
X126977571Y-90874151D01*
X126977571Y-90874151D02*
X126929952Y-90969389D01*
X126929952Y-90969389D02*
X126929952Y-91159865D01*
X126929952Y-91159865D02*
X126977571Y-91255103D01*
X127549000Y-92112246D02*
X127596619Y-92017008D01*
X127596619Y-92017008D02*
X127596619Y-91826532D01*
X127596619Y-91826532D02*
X127549000Y-91731294D01*
X127549000Y-91731294D02*
X127453761Y-91683675D01*
X127453761Y-91683675D02*
X127072809Y-91683675D01*
X127072809Y-91683675D02*
X126977571Y-91731294D01*
X126977571Y-91731294D02*
X126929952Y-91826532D01*
X126929952Y-91826532D02*
X126929952Y-92017008D01*
X126929952Y-92017008D02*
X126977571Y-92112246D01*
X126977571Y-92112246D02*
X127072809Y-92159865D01*
X127072809Y-92159865D02*
X127168047Y-92159865D01*
X127168047Y-92159865D02*
X127263285Y-91683675D01*
X127596619Y-93493199D02*
X127549000Y-93397961D01*
X127549000Y-93397961D02*
X127501380Y-93350342D01*
X127501380Y-93350342D02*
X127406142Y-93302723D01*
X127406142Y-93302723D02*
X127120428Y-93302723D01*
X127120428Y-93302723D02*
X127025190Y-93350342D01*
X127025190Y-93350342D02*
X126977571Y-93397961D01*
X126977571Y-93397961D02*
X126929952Y-93493199D01*
X126929952Y-93493199D02*
X126929952Y-93636056D01*
X126929952Y-93636056D02*
X126977571Y-93731294D01*
X126977571Y-93731294D02*
X127025190Y-93778913D01*
X127025190Y-93778913D02*
X127120428Y-93826532D01*
X127120428Y-93826532D02*
X127406142Y-93826532D01*
X127406142Y-93826532D02*
X127501380Y-93778913D01*
X127501380Y-93778913D02*
X127549000Y-93731294D01*
X127549000Y-93731294D02*
X127596619Y-93636056D01*
X127596619Y-93636056D02*
X127596619Y-93493199D01*
X127596619Y-94255104D02*
X126929952Y-94255104D01*
X127120428Y-94255104D02*
X127025190Y-94302723D01*
X127025190Y-94302723D02*
X126977571Y-94350342D01*
X126977571Y-94350342D02*
X126929952Y-94445580D01*
X126929952Y-94445580D02*
X126929952Y-94540818D01*
X127596619Y-95636057D02*
X126929952Y-95636057D01*
X126596619Y-95636057D02*
X126644238Y-95588438D01*
X126644238Y-95588438D02*
X126691857Y-95636057D01*
X126691857Y-95636057D02*
X126644238Y-95683676D01*
X126644238Y-95683676D02*
X126596619Y-95636057D01*
X126596619Y-95636057D02*
X126691857Y-95636057D01*
X126929952Y-96112247D02*
X127596619Y-96112247D01*
X127025190Y-96112247D02*
X126977571Y-96159866D01*
X126977571Y-96159866D02*
X126929952Y-96255104D01*
X126929952Y-96255104D02*
X126929952Y-96397961D01*
X126929952Y-96397961D02*
X126977571Y-96493199D01*
X126977571Y-96493199D02*
X127072809Y-96540818D01*
X127072809Y-96540818D02*
X127596619Y-96540818D01*
X126929952Y-97017009D02*
X127787095Y-97017009D01*
X127787095Y-97017009D02*
X127882333Y-96969390D01*
X127882333Y-96969390D02*
X127929952Y-96874152D01*
X127929952Y-96874152D02*
X127929952Y-96826533D01*
X126596619Y-97017009D02*
X126644238Y-96969390D01*
X126644238Y-96969390D02*
X126691857Y-97017009D01*
X126691857Y-97017009D02*
X126644238Y-97064628D01*
X126644238Y-97064628D02*
X126596619Y-97017009D01*
X126596619Y-97017009D02*
X126691857Y-97017009D01*
X126929952Y-97921770D02*
X127596619Y-97921770D01*
X126929952Y-97493199D02*
X127453761Y-97493199D01*
X127453761Y-97493199D02*
X127549000Y-97540818D01*
X127549000Y-97540818D02*
X127596619Y-97636056D01*
X127596619Y-97636056D02*
X127596619Y-97778913D01*
X127596619Y-97778913D02*
X127549000Y-97874151D01*
X127549000Y-97874151D02*
X127501380Y-97921770D01*
X127596619Y-98397961D02*
X126929952Y-98397961D01*
X127120428Y-98397961D02*
X127025190Y-98445580D01*
X127025190Y-98445580D02*
X126977571Y-98493199D01*
X126977571Y-98493199D02*
X126929952Y-98588437D01*
X126929952Y-98588437D02*
X126929952Y-98683675D01*
X126929952Y-98921771D02*
X127596619Y-99159866D01*
X126929952Y-99397961D02*
X127596619Y-99159866D01*
X127596619Y-99159866D02*
X127834714Y-99064628D01*
X127834714Y-99064628D02*
X127882333Y-99017009D01*
X127882333Y-99017009D02*
X127929952Y-98921771D01*
X127596619Y-100540819D02*
X126929952Y-100540819D01*
X127120428Y-100540819D02*
X127025190Y-100588438D01*
X127025190Y-100588438D02*
X126977571Y-100636057D01*
X126977571Y-100636057D02*
X126929952Y-100731295D01*
X126929952Y-100731295D02*
X126929952Y-100826533D01*
X127549000Y-101540819D02*
X127596619Y-101445581D01*
X127596619Y-101445581D02*
X127596619Y-101255105D01*
X127596619Y-101255105D02*
X127549000Y-101159867D01*
X127549000Y-101159867D02*
X127453761Y-101112248D01*
X127453761Y-101112248D02*
X127072809Y-101112248D01*
X127072809Y-101112248D02*
X126977571Y-101159867D01*
X126977571Y-101159867D02*
X126929952Y-101255105D01*
X126929952Y-101255105D02*
X126929952Y-101445581D01*
X126929952Y-101445581D02*
X126977571Y-101540819D01*
X126977571Y-101540819D02*
X127072809Y-101588438D01*
X127072809Y-101588438D02*
X127168047Y-101588438D01*
X127168047Y-101588438D02*
X127263285Y-101112248D01*
X127549000Y-101969391D02*
X127596619Y-102064629D01*
X127596619Y-102064629D02*
X127596619Y-102255105D01*
X127596619Y-102255105D02*
X127549000Y-102350343D01*
X127549000Y-102350343D02*
X127453761Y-102397962D01*
X127453761Y-102397962D02*
X127406142Y-102397962D01*
X127406142Y-102397962D02*
X127310904Y-102350343D01*
X127310904Y-102350343D02*
X127263285Y-102255105D01*
X127263285Y-102255105D02*
X127263285Y-102112248D01*
X127263285Y-102112248D02*
X127215666Y-102017010D01*
X127215666Y-102017010D02*
X127120428Y-101969391D01*
X127120428Y-101969391D02*
X127072809Y-101969391D01*
X127072809Y-101969391D02*
X126977571Y-102017010D01*
X126977571Y-102017010D02*
X126929952Y-102112248D01*
X126929952Y-102112248D02*
X126929952Y-102255105D01*
X126929952Y-102255105D02*
X126977571Y-102350343D01*
X126929952Y-103255105D02*
X127596619Y-103255105D01*
X126929952Y-102826534D02*
X127453761Y-102826534D01*
X127453761Y-102826534D02*
X127549000Y-102874153D01*
X127549000Y-102874153D02*
X127596619Y-102969391D01*
X127596619Y-102969391D02*
X127596619Y-103112248D01*
X127596619Y-103112248D02*
X127549000Y-103207486D01*
X127549000Y-103207486D02*
X127501380Y-103255105D01*
X127596619Y-103874153D02*
X127549000Y-103778915D01*
X127549000Y-103778915D02*
X127453761Y-103731296D01*
X127453761Y-103731296D02*
X126596619Y-103731296D01*
X126929952Y-104112249D02*
X126929952Y-104493201D01*
X126596619Y-104255106D02*
X127453761Y-104255106D01*
X127453761Y-104255106D02*
X127549000Y-104302725D01*
X127549000Y-104302725D02*
X127596619Y-104397963D01*
X127596619Y-104397963D02*
X127596619Y-104493201D01*
X127596619Y-104826535D02*
X126929952Y-104826535D01*
X126596619Y-104826535D02*
X126644238Y-104778916D01*
X126644238Y-104778916D02*
X126691857Y-104826535D01*
X126691857Y-104826535D02*
X126644238Y-104874154D01*
X126644238Y-104874154D02*
X126596619Y-104826535D01*
X126596619Y-104826535D02*
X126691857Y-104826535D01*
X126929952Y-105302725D02*
X127596619Y-105302725D01*
X127025190Y-105302725D02*
X126977571Y-105350344D01*
X126977571Y-105350344D02*
X126929952Y-105445582D01*
X126929952Y-105445582D02*
X126929952Y-105588439D01*
X126929952Y-105588439D02*
X126977571Y-105683677D01*
X126977571Y-105683677D02*
X127072809Y-105731296D01*
X127072809Y-105731296D02*
X127596619Y-105731296D01*
X126929952Y-106636058D02*
X127739476Y-106636058D01*
X127739476Y-106636058D02*
X127834714Y-106588439D01*
X127834714Y-106588439D02*
X127882333Y-106540820D01*
X127882333Y-106540820D02*
X127929952Y-106445582D01*
X127929952Y-106445582D02*
X127929952Y-106302725D01*
X127929952Y-106302725D02*
X127882333Y-106207487D01*
X127549000Y-106636058D02*
X127596619Y-106540820D01*
X127596619Y-106540820D02*
X127596619Y-106350344D01*
X127596619Y-106350344D02*
X127549000Y-106255106D01*
X127549000Y-106255106D02*
X127501380Y-106207487D01*
X127501380Y-106207487D02*
X127406142Y-106159868D01*
X127406142Y-106159868D02*
X127120428Y-106159868D01*
X127120428Y-106159868D02*
X127025190Y-106207487D01*
X127025190Y-106207487D02*
X126977571Y-106255106D01*
X126977571Y-106255106D02*
X126929952Y-106350344D01*
X126929952Y-106350344D02*
X126929952Y-106540820D01*
X126929952Y-106540820D02*
X126977571Y-106636058D01*
X127596619Y-108017011D02*
X127549000Y-107921773D01*
X127549000Y-107921773D02*
X127501380Y-107874154D01*
X127501380Y-107874154D02*
X127406142Y-107826535D01*
X127406142Y-107826535D02*
X127120428Y-107826535D01*
X127120428Y-107826535D02*
X127025190Y-107874154D01*
X127025190Y-107874154D02*
X126977571Y-107921773D01*
X126977571Y-107921773D02*
X126929952Y-108017011D01*
X126929952Y-108017011D02*
X126929952Y-108159868D01*
X126929952Y-108159868D02*
X126977571Y-108255106D01*
X126977571Y-108255106D02*
X127025190Y-108302725D01*
X127025190Y-108302725D02*
X127120428Y-108350344D01*
X127120428Y-108350344D02*
X127406142Y-108350344D01*
X127406142Y-108350344D02*
X127501380Y-108302725D01*
X127501380Y-108302725D02*
X127549000Y-108255106D01*
X127549000Y-108255106D02*
X127596619Y-108159868D01*
X127596619Y-108159868D02*
X127596619Y-108017011D01*
X126929952Y-108636059D02*
X126929952Y-109017011D01*
X127596619Y-108778916D02*
X126739476Y-108778916D01*
X126739476Y-108778916D02*
X126644238Y-108826535D01*
X126644238Y-108826535D02*
X126596619Y-108921773D01*
X126596619Y-108921773D02*
X126596619Y-109017011D01*
X126929952Y-109969393D02*
X126929952Y-110350345D01*
X126596619Y-110112250D02*
X127453761Y-110112250D01*
X127453761Y-110112250D02*
X127549000Y-110159869D01*
X127549000Y-110159869D02*
X127596619Y-110255107D01*
X127596619Y-110255107D02*
X127596619Y-110350345D01*
X127596619Y-110683679D02*
X126596619Y-110683679D01*
X127596619Y-111112250D02*
X127072809Y-111112250D01*
X127072809Y-111112250D02*
X126977571Y-111064631D01*
X126977571Y-111064631D02*
X126929952Y-110969393D01*
X126929952Y-110969393D02*
X126929952Y-110826536D01*
X126929952Y-110826536D02*
X126977571Y-110731298D01*
X126977571Y-110731298D02*
X127025190Y-110683679D01*
X127549000Y-111969393D02*
X127596619Y-111874155D01*
X127596619Y-111874155D02*
X127596619Y-111683679D01*
X127596619Y-111683679D02*
X127549000Y-111588441D01*
X127549000Y-111588441D02*
X127453761Y-111540822D01*
X127453761Y-111540822D02*
X127072809Y-111540822D01*
X127072809Y-111540822D02*
X126977571Y-111588441D01*
X126977571Y-111588441D02*
X126929952Y-111683679D01*
X126929952Y-111683679D02*
X126929952Y-111874155D01*
X126929952Y-111874155D02*
X126977571Y-111969393D01*
X126977571Y-111969393D02*
X127072809Y-112017012D01*
X127072809Y-112017012D02*
X127168047Y-112017012D01*
X127168047Y-112017012D02*
X127263285Y-111540822D01*
X126929952Y-113636060D02*
X127596619Y-113636060D01*
X126929952Y-113207489D02*
X127453761Y-113207489D01*
X127453761Y-113207489D02*
X127549000Y-113255108D01*
X127549000Y-113255108D02*
X127596619Y-113350346D01*
X127596619Y-113350346D02*
X127596619Y-113493203D01*
X127596619Y-113493203D02*
X127549000Y-113588441D01*
X127549000Y-113588441D02*
X127501380Y-113636060D01*
X127549000Y-114064632D02*
X127596619Y-114159870D01*
X127596619Y-114159870D02*
X127596619Y-114350346D01*
X127596619Y-114350346D02*
X127549000Y-114445584D01*
X127549000Y-114445584D02*
X127453761Y-114493203D01*
X127453761Y-114493203D02*
X127406142Y-114493203D01*
X127406142Y-114493203D02*
X127310904Y-114445584D01*
X127310904Y-114445584D02*
X127263285Y-114350346D01*
X127263285Y-114350346D02*
X127263285Y-114207489D01*
X127263285Y-114207489D02*
X127215666Y-114112251D01*
X127215666Y-114112251D02*
X127120428Y-114064632D01*
X127120428Y-114064632D02*
X127072809Y-114064632D01*
X127072809Y-114064632D02*
X126977571Y-114112251D01*
X126977571Y-114112251D02*
X126929952Y-114207489D01*
X126929952Y-114207489D02*
X126929952Y-114350346D01*
X126929952Y-114350346D02*
X126977571Y-114445584D01*
X127549000Y-115302727D02*
X127596619Y-115207489D01*
X127596619Y-115207489D02*
X127596619Y-115017013D01*
X127596619Y-115017013D02*
X127549000Y-114921775D01*
X127549000Y-114921775D02*
X127453761Y-114874156D01*
X127453761Y-114874156D02*
X127072809Y-114874156D01*
X127072809Y-114874156D02*
X126977571Y-114921775D01*
X126977571Y-114921775D02*
X126929952Y-115017013D01*
X126929952Y-115017013D02*
X126929952Y-115207489D01*
X126929952Y-115207489D02*
X126977571Y-115302727D01*
X126977571Y-115302727D02*
X127072809Y-115350346D01*
X127072809Y-115350346D02*
X127168047Y-115350346D01*
X127168047Y-115350346D02*
X127263285Y-114874156D01*
X127596619Y-116683680D02*
X127549000Y-116588442D01*
X127549000Y-116588442D02*
X127501380Y-116540823D01*
X127501380Y-116540823D02*
X127406142Y-116493204D01*
X127406142Y-116493204D02*
X127120428Y-116493204D01*
X127120428Y-116493204D02*
X127025190Y-116540823D01*
X127025190Y-116540823D02*
X126977571Y-116588442D01*
X126977571Y-116588442D02*
X126929952Y-116683680D01*
X126929952Y-116683680D02*
X126929952Y-116826537D01*
X126929952Y-116826537D02*
X126977571Y-116921775D01*
X126977571Y-116921775D02*
X127025190Y-116969394D01*
X127025190Y-116969394D02*
X127120428Y-117017013D01*
X127120428Y-117017013D02*
X127406142Y-117017013D01*
X127406142Y-117017013D02*
X127501380Y-116969394D01*
X127501380Y-116969394D02*
X127549000Y-116921775D01*
X127549000Y-116921775D02*
X127596619Y-116826537D01*
X127596619Y-116826537D02*
X127596619Y-116683680D01*
X126929952Y-117302728D02*
X126929952Y-117683680D01*
X127596619Y-117445585D02*
X126739476Y-117445585D01*
X126739476Y-117445585D02*
X126644238Y-117493204D01*
X126644238Y-117493204D02*
X126596619Y-117588442D01*
X126596619Y-117588442D02*
X126596619Y-117683680D01*
X128539952Y-83302722D02*
X128539952Y-83683674D01*
X128206619Y-83445579D02*
X129063761Y-83445579D01*
X129063761Y-83445579D02*
X129159000Y-83493198D01*
X129159000Y-83493198D02*
X129206619Y-83588436D01*
X129206619Y-83588436D02*
X129206619Y-83683674D01*
X129206619Y-84017008D02*
X128206619Y-84017008D01*
X129206619Y-84445579D02*
X128682809Y-84445579D01*
X128682809Y-84445579D02*
X128587571Y-84397960D01*
X128587571Y-84397960D02*
X128539952Y-84302722D01*
X128539952Y-84302722D02*
X128539952Y-84159865D01*
X128539952Y-84159865D02*
X128587571Y-84064627D01*
X128587571Y-84064627D02*
X128635190Y-84017008D01*
X129206619Y-84921770D02*
X128539952Y-84921770D01*
X128206619Y-84921770D02*
X128254238Y-84874151D01*
X128254238Y-84874151D02*
X128301857Y-84921770D01*
X128301857Y-84921770D02*
X128254238Y-84969389D01*
X128254238Y-84969389D02*
X128206619Y-84921770D01*
X128206619Y-84921770D02*
X128301857Y-84921770D01*
X129159000Y-85350341D02*
X129206619Y-85445579D01*
X129206619Y-85445579D02*
X129206619Y-85636055D01*
X129206619Y-85636055D02*
X129159000Y-85731293D01*
X129159000Y-85731293D02*
X129063761Y-85778912D01*
X129063761Y-85778912D02*
X129016142Y-85778912D01*
X129016142Y-85778912D02*
X128920904Y-85731293D01*
X128920904Y-85731293D02*
X128873285Y-85636055D01*
X128873285Y-85636055D02*
X128873285Y-85493198D01*
X128873285Y-85493198D02*
X128825666Y-85397960D01*
X128825666Y-85397960D02*
X128730428Y-85350341D01*
X128730428Y-85350341D02*
X128682809Y-85350341D01*
X128682809Y-85350341D02*
X128587571Y-85397960D01*
X128587571Y-85397960D02*
X128539952Y-85493198D01*
X128539952Y-85493198D02*
X128539952Y-85636055D01*
X128539952Y-85636055D02*
X128587571Y-85731293D01*
X129206619Y-87397960D02*
X128206619Y-87397960D01*
X129159000Y-87397960D02*
X129206619Y-87302722D01*
X129206619Y-87302722D02*
X129206619Y-87112246D01*
X129206619Y-87112246D02*
X129159000Y-87017008D01*
X129159000Y-87017008D02*
X129111380Y-86969389D01*
X129111380Y-86969389D02*
X129016142Y-86921770D01*
X129016142Y-86921770D02*
X128730428Y-86921770D01*
X128730428Y-86921770D02*
X128635190Y-86969389D01*
X128635190Y-86969389D02*
X128587571Y-87017008D01*
X128587571Y-87017008D02*
X128539952Y-87112246D01*
X128539952Y-87112246D02*
X128539952Y-87302722D01*
X128539952Y-87302722D02*
X128587571Y-87397960D01*
X129159000Y-88255103D02*
X129206619Y-88159865D01*
X129206619Y-88159865D02*
X129206619Y-87969389D01*
X129206619Y-87969389D02*
X129159000Y-87874151D01*
X129159000Y-87874151D02*
X129063761Y-87826532D01*
X129063761Y-87826532D02*
X128682809Y-87826532D01*
X128682809Y-87826532D02*
X128587571Y-87874151D01*
X128587571Y-87874151D02*
X128539952Y-87969389D01*
X128539952Y-87969389D02*
X128539952Y-88159865D01*
X128539952Y-88159865D02*
X128587571Y-88255103D01*
X128587571Y-88255103D02*
X128682809Y-88302722D01*
X128682809Y-88302722D02*
X128778047Y-88302722D01*
X128778047Y-88302722D02*
X128873285Y-87826532D01*
X128539952Y-88636056D02*
X129206619Y-88874151D01*
X129206619Y-88874151D02*
X128539952Y-89112246D01*
X129206619Y-89493199D02*
X128539952Y-89493199D01*
X128206619Y-89493199D02*
X128254238Y-89445580D01*
X128254238Y-89445580D02*
X128301857Y-89493199D01*
X128301857Y-89493199D02*
X128254238Y-89540818D01*
X128254238Y-89540818D02*
X128206619Y-89493199D01*
X128206619Y-89493199D02*
X128301857Y-89493199D01*
X129159000Y-90397960D02*
X129206619Y-90302722D01*
X129206619Y-90302722D02*
X129206619Y-90112246D01*
X129206619Y-90112246D02*
X129159000Y-90017008D01*
X129159000Y-90017008D02*
X129111380Y-89969389D01*
X129111380Y-89969389D02*
X129016142Y-89921770D01*
X129016142Y-89921770D02*
X128730428Y-89921770D01*
X128730428Y-89921770D02*
X128635190Y-89969389D01*
X128635190Y-89969389D02*
X128587571Y-90017008D01*
X128587571Y-90017008D02*
X128539952Y-90112246D01*
X128539952Y-90112246D02*
X128539952Y-90302722D01*
X128539952Y-90302722D02*
X128587571Y-90397960D01*
X129159000Y-91207484D02*
X129206619Y-91112246D01*
X129206619Y-91112246D02*
X129206619Y-90921770D01*
X129206619Y-90921770D02*
X129159000Y-90826532D01*
X129159000Y-90826532D02*
X129063761Y-90778913D01*
X129063761Y-90778913D02*
X128682809Y-90778913D01*
X128682809Y-90778913D02*
X128587571Y-90826532D01*
X128587571Y-90826532D02*
X128539952Y-90921770D01*
X128539952Y-90921770D02*
X128539952Y-91112246D01*
X128539952Y-91112246D02*
X128587571Y-91207484D01*
X128587571Y-91207484D02*
X128682809Y-91255103D01*
X128682809Y-91255103D02*
X128778047Y-91255103D01*
X128778047Y-91255103D02*
X128873285Y-90778913D01*
X129111380Y-91683675D02*
X129159000Y-91731294D01*
X129159000Y-91731294D02*
X129206619Y-91683675D01*
X129206619Y-91683675D02*
X129159000Y-91636056D01*
X129159000Y-91636056D02*
X129111380Y-91683675D01*
X129111380Y-91683675D02*
X129206619Y-91683675D01*
D11*
X139101389Y-97661919D02*
X139101389Y-96661919D01*
X138053771Y-97566680D02*
X138101390Y-97614300D01*
X138101390Y-97614300D02*
X138244247Y-97661919D01*
X138244247Y-97661919D02*
X138339485Y-97661919D01*
X138339485Y-97661919D02*
X138482342Y-97614300D01*
X138482342Y-97614300D02*
X138577580Y-97519061D01*
X138577580Y-97519061D02*
X138625199Y-97423823D01*
X138625199Y-97423823D02*
X138672818Y-97233347D01*
X138672818Y-97233347D02*
X138672818Y-97090490D01*
X138672818Y-97090490D02*
X138625199Y-96900014D01*
X138625199Y-96900014D02*
X138577580Y-96804776D01*
X138577580Y-96804776D02*
X138482342Y-96709538D01*
X138482342Y-96709538D02*
X138339485Y-96661919D01*
X138339485Y-96661919D02*
X138244247Y-96661919D01*
X138244247Y-96661919D02*
X138101390Y-96709538D01*
X138101390Y-96709538D02*
X138053771Y-96757157D01*
X137149009Y-96661919D02*
X137625199Y-96661919D01*
X137625199Y-96661919D02*
X137672818Y-97138109D01*
X137672818Y-97138109D02*
X137625199Y-97090490D01*
X137625199Y-97090490D02*
X137529961Y-97042871D01*
X137529961Y-97042871D02*
X137291866Y-97042871D01*
X137291866Y-97042871D02*
X137196628Y-97090490D01*
X137196628Y-97090490D02*
X137149009Y-97138109D01*
X137149009Y-97138109D02*
X137101390Y-97233347D01*
X137101390Y-97233347D02*
X137101390Y-97471442D01*
X137101390Y-97471442D02*
X137149009Y-97566680D01*
X137149009Y-97566680D02*
X137196628Y-97614300D01*
X137196628Y-97614300D02*
X137291866Y-97661919D01*
X137291866Y-97661919D02*
X137529961Y-97661919D01*
X137529961Y-97661919D02*
X137625199Y-97614300D01*
X137625199Y-97614300D02*
X137672818Y-97566680D01*
X155073285Y-108211995D02*
X155339952Y-107831042D01*
X155530428Y-108211995D02*
X155530428Y-107411995D01*
X155530428Y-107411995D02*
X155225666Y-107411995D01*
X155225666Y-107411995D02*
X155149476Y-107450090D01*
X155149476Y-107450090D02*
X155111381Y-107488185D01*
X155111381Y-107488185D02*
X155073285Y-107564376D01*
X155073285Y-107564376D02*
X155073285Y-107678661D01*
X155073285Y-107678661D02*
X155111381Y-107754852D01*
X155111381Y-107754852D02*
X155149476Y-107792947D01*
X155149476Y-107792947D02*
X155225666Y-107831042D01*
X155225666Y-107831042D02*
X155530428Y-107831042D01*
X154311381Y-108211995D02*
X154768524Y-108211995D01*
X154539952Y-108211995D02*
X154539952Y-107411995D01*
X154539952Y-107411995D02*
X154616143Y-107526280D01*
X154616143Y-107526280D02*
X154692333Y-107602471D01*
X154692333Y-107602471D02*
X154768524Y-107640566D01*
X153625666Y-107678661D02*
X153625666Y-108211995D01*
X153816142Y-107373900D02*
X154006619Y-107945328D01*
X154006619Y-107945328D02*
X153511380Y-107945328D01*
X156749685Y-96680395D02*
X157016352Y-96299442D01*
X157206828Y-96680395D02*
X157206828Y-95880395D01*
X157206828Y-95880395D02*
X156902066Y-95880395D01*
X156902066Y-95880395D02*
X156825876Y-95918490D01*
X156825876Y-95918490D02*
X156787781Y-95956585D01*
X156787781Y-95956585D02*
X156749685Y-96032776D01*
X156749685Y-96032776D02*
X156749685Y-96147061D01*
X156749685Y-96147061D02*
X156787781Y-96223252D01*
X156787781Y-96223252D02*
X156825876Y-96261347D01*
X156825876Y-96261347D02*
X156902066Y-96299442D01*
X156902066Y-96299442D02*
X157206828Y-96299442D01*
X155987781Y-96680395D02*
X156444924Y-96680395D01*
X156216352Y-96680395D02*
X156216352Y-95880395D01*
X156216352Y-95880395D02*
X156292543Y-95994680D01*
X156292543Y-95994680D02*
X156368733Y-96070871D01*
X156368733Y-96070871D02*
X156444924Y-96108966D01*
X155721114Y-95880395D02*
X155187780Y-95880395D01*
X155187780Y-95880395D02*
X155530638Y-96680395D01*
X153142885Y-124518804D02*
X153180981Y-124556900D01*
X153180981Y-124556900D02*
X153295266Y-124594995D01*
X153295266Y-124594995D02*
X153371457Y-124594995D01*
X153371457Y-124594995D02*
X153485743Y-124556900D01*
X153485743Y-124556900D02*
X153561933Y-124480709D01*
X153561933Y-124480709D02*
X153600028Y-124404519D01*
X153600028Y-124404519D02*
X153638124Y-124252138D01*
X153638124Y-124252138D02*
X153638124Y-124137852D01*
X153638124Y-124137852D02*
X153600028Y-123985471D01*
X153600028Y-123985471D02*
X153561933Y-123909280D01*
X153561933Y-123909280D02*
X153485743Y-123833090D01*
X153485743Y-123833090D02*
X153371457Y-123794995D01*
X153371457Y-123794995D02*
X153295266Y-123794995D01*
X153295266Y-123794995D02*
X153180981Y-123833090D01*
X153180981Y-123833090D02*
X153142885Y-123871185D01*
X152380981Y-124594995D02*
X152838124Y-124594995D01*
X152609552Y-124594995D02*
X152609552Y-123794995D01*
X152609552Y-123794995D02*
X152685743Y-123909280D01*
X152685743Y-123909280D02*
X152761933Y-123985471D01*
X152761933Y-123985471D02*
X152838124Y-124023566D01*
X152114314Y-123794995D02*
X151580980Y-123794995D01*
X151580980Y-123794995D02*
X151923838Y-124594995D01*
X168763932Y-101277795D02*
X169030599Y-100896842D01*
X169221075Y-101277795D02*
X169221075Y-100477795D01*
X169221075Y-100477795D02*
X168916313Y-100477795D01*
X168916313Y-100477795D02*
X168840123Y-100515890D01*
X168840123Y-100515890D02*
X168802028Y-100553985D01*
X168802028Y-100553985D02*
X168763932Y-100630176D01*
X168763932Y-100630176D02*
X168763932Y-100744461D01*
X168763932Y-100744461D02*
X168802028Y-100820652D01*
X168802028Y-100820652D02*
X168840123Y-100858747D01*
X168840123Y-100858747D02*
X168916313Y-100896842D01*
X168916313Y-100896842D02*
X169221075Y-100896842D01*
X168078218Y-100744461D02*
X168078218Y-101277795D01*
X168268694Y-100439700D02*
X168459171Y-101011128D01*
X168459171Y-101011128D02*
X167963932Y-101011128D01*
X140116585Y-82812004D02*
X140154681Y-82850100D01*
X140154681Y-82850100D02*
X140268966Y-82888195D01*
X140268966Y-82888195D02*
X140345157Y-82888195D01*
X140345157Y-82888195D02*
X140459443Y-82850100D01*
X140459443Y-82850100D02*
X140535633Y-82773909D01*
X140535633Y-82773909D02*
X140573728Y-82697719D01*
X140573728Y-82697719D02*
X140611824Y-82545338D01*
X140611824Y-82545338D02*
X140611824Y-82431052D01*
X140611824Y-82431052D02*
X140573728Y-82278671D01*
X140573728Y-82278671D02*
X140535633Y-82202480D01*
X140535633Y-82202480D02*
X140459443Y-82126290D01*
X140459443Y-82126290D02*
X140345157Y-82088195D01*
X140345157Y-82088195D02*
X140268966Y-82088195D01*
X140268966Y-82088195D02*
X140154681Y-82126290D01*
X140154681Y-82126290D02*
X140116585Y-82164385D01*
X139354681Y-82888195D02*
X139811824Y-82888195D01*
X139583252Y-82888195D02*
X139583252Y-82088195D01*
X139583252Y-82088195D02*
X139659443Y-82202480D01*
X139659443Y-82202480D02*
X139735633Y-82278671D01*
X139735633Y-82278671D02*
X139811824Y-82316766D01*
X138630871Y-82088195D02*
X139011823Y-82088195D01*
X139011823Y-82088195D02*
X139049919Y-82469147D01*
X139049919Y-82469147D02*
X139011823Y-82431052D01*
X139011823Y-82431052D02*
X138935633Y-82392957D01*
X138935633Y-82392957D02*
X138745157Y-82392957D01*
X138745157Y-82392957D02*
X138668966Y-82431052D01*
X138668966Y-82431052D02*
X138630871Y-82469147D01*
X138630871Y-82469147D02*
X138592776Y-82545338D01*
X138592776Y-82545338D02*
X138592776Y-82735814D01*
X138592776Y-82735814D02*
X138630871Y-82812004D01*
X138630871Y-82812004D02*
X138668966Y-82850100D01*
X138668966Y-82850100D02*
X138745157Y-82888195D01*
X138745157Y-82888195D02*
X138935633Y-82888195D01*
X138935633Y-82888195D02*
X139011823Y-82850100D01*
X139011823Y-82850100D02*
X139049919Y-82812004D01*
X156698932Y-112479204D02*
X156737028Y-112517300D01*
X156737028Y-112517300D02*
X156851313Y-112555395D01*
X156851313Y-112555395D02*
X156927504Y-112555395D01*
X156927504Y-112555395D02*
X157041790Y-112517300D01*
X157041790Y-112517300D02*
X157117980Y-112441109D01*
X157117980Y-112441109D02*
X157156075Y-112364919D01*
X157156075Y-112364919D02*
X157194171Y-112212538D01*
X157194171Y-112212538D02*
X157194171Y-112098252D01*
X157194171Y-112098252D02*
X157156075Y-111945871D01*
X157156075Y-111945871D02*
X157117980Y-111869680D01*
X157117980Y-111869680D02*
X157041790Y-111793490D01*
X157041790Y-111793490D02*
X156927504Y-111755395D01*
X156927504Y-111755395D02*
X156851313Y-111755395D01*
X156851313Y-111755395D02*
X156737028Y-111793490D01*
X156737028Y-111793490D02*
X156698932Y-111831585D01*
X155937028Y-112555395D02*
X156394171Y-112555395D01*
X156165599Y-112555395D02*
X156165599Y-111755395D01*
X156165599Y-111755395D02*
X156241790Y-111869680D01*
X156241790Y-111869680D02*
X156317980Y-111945871D01*
X156317980Y-111945871D02*
X156394171Y-111983966D01*
X148342285Y-126627004D02*
X148380381Y-126665100D01*
X148380381Y-126665100D02*
X148494666Y-126703195D01*
X148494666Y-126703195D02*
X148570857Y-126703195D01*
X148570857Y-126703195D02*
X148685143Y-126665100D01*
X148685143Y-126665100D02*
X148761333Y-126588909D01*
X148761333Y-126588909D02*
X148799428Y-126512719D01*
X148799428Y-126512719D02*
X148837524Y-126360338D01*
X148837524Y-126360338D02*
X148837524Y-126246052D01*
X148837524Y-126246052D02*
X148799428Y-126093671D01*
X148799428Y-126093671D02*
X148761333Y-126017480D01*
X148761333Y-126017480D02*
X148685143Y-125941290D01*
X148685143Y-125941290D02*
X148570857Y-125903195D01*
X148570857Y-125903195D02*
X148494666Y-125903195D01*
X148494666Y-125903195D02*
X148380381Y-125941290D01*
X148380381Y-125941290D02*
X148342285Y-125979385D01*
X147580381Y-126703195D02*
X148037524Y-126703195D01*
X147808952Y-126703195D02*
X147808952Y-125903195D01*
X147808952Y-125903195D02*
X147885143Y-126017480D01*
X147885143Y-126017480D02*
X147961333Y-126093671D01*
X147961333Y-126093671D02*
X148037524Y-126131766D01*
X147313714Y-125903195D02*
X146818476Y-125903195D01*
X146818476Y-125903195D02*
X147085142Y-126207957D01*
X147085142Y-126207957D02*
X146970857Y-126207957D01*
X146970857Y-126207957D02*
X146894666Y-126246052D01*
X146894666Y-126246052D02*
X146856571Y-126284147D01*
X146856571Y-126284147D02*
X146818476Y-126360338D01*
X146818476Y-126360338D02*
X146818476Y-126550814D01*
X146818476Y-126550814D02*
X146856571Y-126627004D01*
X146856571Y-126627004D02*
X146894666Y-126665100D01*
X146894666Y-126665100D02*
X146970857Y-126703195D01*
X146970857Y-126703195D02*
X147199428Y-126703195D01*
X147199428Y-126703195D02*
X147275619Y-126665100D01*
X147275619Y-126665100D02*
X147313714Y-126627004D01*
X156063932Y-98585395D02*
X156330599Y-98204442D01*
X156521075Y-98585395D02*
X156521075Y-97785395D01*
X156521075Y-97785395D02*
X156216313Y-97785395D01*
X156216313Y-97785395D02*
X156140123Y-97823490D01*
X156140123Y-97823490D02*
X156102028Y-97861585D01*
X156102028Y-97861585D02*
X156063932Y-97937776D01*
X156063932Y-97937776D02*
X156063932Y-98052061D01*
X156063932Y-98052061D02*
X156102028Y-98128252D01*
X156102028Y-98128252D02*
X156140123Y-98166347D01*
X156140123Y-98166347D02*
X156216313Y-98204442D01*
X156216313Y-98204442D02*
X156521075Y-98204442D01*
X155302028Y-98585395D02*
X155759171Y-98585395D01*
X155530599Y-98585395D02*
X155530599Y-97785395D01*
X155530599Y-97785395D02*
X155606790Y-97899680D01*
X155606790Y-97899680D02*
X155682980Y-97975871D01*
X155682980Y-97975871D02*
X155759171Y-98013966D01*
X168789332Y-92362395D02*
X169055999Y-91981442D01*
X169246475Y-92362395D02*
X169246475Y-91562395D01*
X169246475Y-91562395D02*
X168941713Y-91562395D01*
X168941713Y-91562395D02*
X168865523Y-91600490D01*
X168865523Y-91600490D02*
X168827428Y-91638585D01*
X168827428Y-91638585D02*
X168789332Y-91714776D01*
X168789332Y-91714776D02*
X168789332Y-91829061D01*
X168789332Y-91829061D02*
X168827428Y-91905252D01*
X168827428Y-91905252D02*
X168865523Y-91943347D01*
X168865523Y-91943347D02*
X168941713Y-91981442D01*
X168941713Y-91981442D02*
X169246475Y-91981442D01*
X168522666Y-91562395D02*
X168027428Y-91562395D01*
X168027428Y-91562395D02*
X168294094Y-91867157D01*
X168294094Y-91867157D02*
X168179809Y-91867157D01*
X168179809Y-91867157D02*
X168103618Y-91905252D01*
X168103618Y-91905252D02*
X168065523Y-91943347D01*
X168065523Y-91943347D02*
X168027428Y-92019538D01*
X168027428Y-92019538D02*
X168027428Y-92210014D01*
X168027428Y-92210014D02*
X168065523Y-92286204D01*
X168065523Y-92286204D02*
X168103618Y-92324300D01*
X168103618Y-92324300D02*
X168179809Y-92362395D01*
X168179809Y-92362395D02*
X168408380Y-92362395D01*
X168408380Y-92362395D02*
X168484571Y-92324300D01*
X168484571Y-92324300D02*
X168522666Y-92286204D01*
X142131951Y-80678395D02*
X142131951Y-79878395D01*
X141293856Y-80602204D02*
X141331952Y-80640300D01*
X141331952Y-80640300D02*
X141446237Y-80678395D01*
X141446237Y-80678395D02*
X141522428Y-80678395D01*
X141522428Y-80678395D02*
X141636714Y-80640300D01*
X141636714Y-80640300D02*
X141712904Y-80564109D01*
X141712904Y-80564109D02*
X141750999Y-80487919D01*
X141750999Y-80487919D02*
X141789095Y-80335538D01*
X141789095Y-80335538D02*
X141789095Y-80221252D01*
X141789095Y-80221252D02*
X141750999Y-80068871D01*
X141750999Y-80068871D02*
X141712904Y-79992680D01*
X141712904Y-79992680D02*
X141636714Y-79916490D01*
X141636714Y-79916490D02*
X141522428Y-79878395D01*
X141522428Y-79878395D02*
X141446237Y-79878395D01*
X141446237Y-79878395D02*
X141331952Y-79916490D01*
X141331952Y-79916490D02*
X141293856Y-79954585D01*
X140989095Y-79954585D02*
X140950999Y-79916490D01*
X140950999Y-79916490D02*
X140874809Y-79878395D01*
X140874809Y-79878395D02*
X140684333Y-79878395D01*
X140684333Y-79878395D02*
X140608142Y-79916490D01*
X140608142Y-79916490D02*
X140570047Y-79954585D01*
X140570047Y-79954585D02*
X140531952Y-80030776D01*
X140531952Y-80030776D02*
X140531952Y-80106966D01*
X140531952Y-80106966D02*
X140570047Y-80221252D01*
X140570047Y-80221252D02*
X141027190Y-80678395D01*
X141027190Y-80678395D02*
X140531952Y-80678395D01*
X156114732Y-102573195D02*
X156381399Y-102192242D01*
X156571875Y-102573195D02*
X156571875Y-101773195D01*
X156571875Y-101773195D02*
X156267113Y-101773195D01*
X156267113Y-101773195D02*
X156190923Y-101811290D01*
X156190923Y-101811290D02*
X156152828Y-101849385D01*
X156152828Y-101849385D02*
X156114732Y-101925576D01*
X156114732Y-101925576D02*
X156114732Y-102039861D01*
X156114732Y-102039861D02*
X156152828Y-102116052D01*
X156152828Y-102116052D02*
X156190923Y-102154147D01*
X156190923Y-102154147D02*
X156267113Y-102192242D01*
X156267113Y-102192242D02*
X156571875Y-102192242D01*
X155390923Y-101773195D02*
X155771875Y-101773195D01*
X155771875Y-101773195D02*
X155809971Y-102154147D01*
X155809971Y-102154147D02*
X155771875Y-102116052D01*
X155771875Y-102116052D02*
X155695685Y-102077957D01*
X155695685Y-102077957D02*
X155505209Y-102077957D01*
X155505209Y-102077957D02*
X155429018Y-102116052D01*
X155429018Y-102116052D02*
X155390923Y-102154147D01*
X155390923Y-102154147D02*
X155352828Y-102230338D01*
X155352828Y-102230338D02*
X155352828Y-102420814D01*
X155352828Y-102420814D02*
X155390923Y-102497004D01*
X155390923Y-102497004D02*
X155429018Y-102535100D01*
X155429018Y-102535100D02*
X155505209Y-102573195D01*
X155505209Y-102573195D02*
X155695685Y-102573195D01*
X155695685Y-102573195D02*
X155771875Y-102535100D01*
X155771875Y-102535100D02*
X155809971Y-102497004D01*
X156038532Y-100617395D02*
X156305199Y-100236442D01*
X156495675Y-100617395D02*
X156495675Y-99817395D01*
X156495675Y-99817395D02*
X156190913Y-99817395D01*
X156190913Y-99817395D02*
X156114723Y-99855490D01*
X156114723Y-99855490D02*
X156076628Y-99893585D01*
X156076628Y-99893585D02*
X156038532Y-99969776D01*
X156038532Y-99969776D02*
X156038532Y-100084061D01*
X156038532Y-100084061D02*
X156076628Y-100160252D01*
X156076628Y-100160252D02*
X156114723Y-100198347D01*
X156114723Y-100198347D02*
X156190913Y-100236442D01*
X156190913Y-100236442D02*
X156495675Y-100236442D01*
X155733771Y-99893585D02*
X155695675Y-99855490D01*
X155695675Y-99855490D02*
X155619485Y-99817395D01*
X155619485Y-99817395D02*
X155429009Y-99817395D01*
X155429009Y-99817395D02*
X155352818Y-99855490D01*
X155352818Y-99855490D02*
X155314723Y-99893585D01*
X155314723Y-99893585D02*
X155276628Y-99969776D01*
X155276628Y-99969776D02*
X155276628Y-100045966D01*
X155276628Y-100045966D02*
X155314723Y-100160252D01*
X155314723Y-100160252D02*
X155771866Y-100617395D01*
X155771866Y-100617395D02*
X155276628Y-100617395D01*
X153396932Y-85504395D02*
X153663599Y-85123442D01*
X153854075Y-85504395D02*
X153854075Y-84704395D01*
X153854075Y-84704395D02*
X153549313Y-84704395D01*
X153549313Y-84704395D02*
X153473123Y-84742490D01*
X153473123Y-84742490D02*
X153435028Y-84780585D01*
X153435028Y-84780585D02*
X153396932Y-84856776D01*
X153396932Y-84856776D02*
X153396932Y-84971061D01*
X153396932Y-84971061D02*
X153435028Y-85047252D01*
X153435028Y-85047252D02*
X153473123Y-85085347D01*
X153473123Y-85085347D02*
X153549313Y-85123442D01*
X153549313Y-85123442D02*
X153854075Y-85123442D01*
X153015980Y-85504395D02*
X152863599Y-85504395D01*
X152863599Y-85504395D02*
X152787409Y-85466300D01*
X152787409Y-85466300D02*
X152749313Y-85428204D01*
X152749313Y-85428204D02*
X152673123Y-85313919D01*
X152673123Y-85313919D02*
X152635028Y-85161538D01*
X152635028Y-85161538D02*
X152635028Y-84856776D01*
X152635028Y-84856776D02*
X152673123Y-84780585D01*
X152673123Y-84780585D02*
X152711218Y-84742490D01*
X152711218Y-84742490D02*
X152787409Y-84704395D01*
X152787409Y-84704395D02*
X152939790Y-84704395D01*
X152939790Y-84704395D02*
X153015980Y-84742490D01*
X153015980Y-84742490D02*
X153054075Y-84780585D01*
X153054075Y-84780585D02*
X153092171Y-84856776D01*
X153092171Y-84856776D02*
X153092171Y-85047252D01*
X153092171Y-85047252D02*
X153054075Y-85123442D01*
X153054075Y-85123442D02*
X153015980Y-85161538D01*
X153015980Y-85161538D02*
X152939790Y-85199633D01*
X152939790Y-85199633D02*
X152787409Y-85199633D01*
X152787409Y-85199633D02*
X152711218Y-85161538D01*
X152711218Y-85161538D02*
X152673123Y-85123442D01*
X152673123Y-85123442D02*
X152635028Y-85047252D01*
X149540789Y-116254719D02*
X149540789Y-115254719D01*
X148493171Y-116159480D02*
X148540790Y-116207100D01*
X148540790Y-116207100D02*
X148683647Y-116254719D01*
X148683647Y-116254719D02*
X148778885Y-116254719D01*
X148778885Y-116254719D02*
X148921742Y-116207100D01*
X148921742Y-116207100D02*
X149016980Y-116111861D01*
X149016980Y-116111861D02*
X149064599Y-116016623D01*
X149064599Y-116016623D02*
X149112218Y-115826147D01*
X149112218Y-115826147D02*
X149112218Y-115683290D01*
X149112218Y-115683290D02*
X149064599Y-115492814D01*
X149064599Y-115492814D02*
X149016980Y-115397576D01*
X149016980Y-115397576D02*
X148921742Y-115302338D01*
X148921742Y-115302338D02*
X148778885Y-115254719D01*
X148778885Y-115254719D02*
X148683647Y-115254719D01*
X148683647Y-115254719D02*
X148540790Y-115302338D01*
X148540790Y-115302338D02*
X148493171Y-115349957D01*
X147636028Y-115588052D02*
X147636028Y-116254719D01*
X147874123Y-115207100D02*
X148112218Y-115921385D01*
X148112218Y-115921385D02*
X147493171Y-115921385D01*
X144862532Y-76995404D02*
X144900628Y-77033500D01*
X144900628Y-77033500D02*
X145014913Y-77071595D01*
X145014913Y-77071595D02*
X145091104Y-77071595D01*
X145091104Y-77071595D02*
X145205390Y-77033500D01*
X145205390Y-77033500D02*
X145281580Y-76957309D01*
X145281580Y-76957309D02*
X145319675Y-76881119D01*
X145319675Y-76881119D02*
X145357771Y-76728738D01*
X145357771Y-76728738D02*
X145357771Y-76614452D01*
X145357771Y-76614452D02*
X145319675Y-76462071D01*
X145319675Y-76462071D02*
X145281580Y-76385880D01*
X145281580Y-76385880D02*
X145205390Y-76309690D01*
X145205390Y-76309690D02*
X145091104Y-76271595D01*
X145091104Y-76271595D02*
X145014913Y-76271595D01*
X145014913Y-76271595D02*
X144900628Y-76309690D01*
X144900628Y-76309690D02*
X144862532Y-76347785D01*
X144595866Y-76271595D02*
X144100628Y-76271595D01*
X144100628Y-76271595D02*
X144367294Y-76576357D01*
X144367294Y-76576357D02*
X144253009Y-76576357D01*
X144253009Y-76576357D02*
X144176818Y-76614452D01*
X144176818Y-76614452D02*
X144138723Y-76652547D01*
X144138723Y-76652547D02*
X144100628Y-76728738D01*
X144100628Y-76728738D02*
X144100628Y-76919214D01*
X144100628Y-76919214D02*
X144138723Y-76995404D01*
X144138723Y-76995404D02*
X144176818Y-77033500D01*
X144176818Y-77033500D02*
X144253009Y-77071595D01*
X144253009Y-77071595D02*
X144481580Y-77071595D01*
X144481580Y-77071595D02*
X144557771Y-77033500D01*
X144557771Y-77033500D02*
X144595866Y-76995404D01*
X150120332Y-85529795D02*
X150386999Y-85148842D01*
X150577475Y-85529795D02*
X150577475Y-84729795D01*
X150577475Y-84729795D02*
X150272713Y-84729795D01*
X150272713Y-84729795D02*
X150196523Y-84767890D01*
X150196523Y-84767890D02*
X150158428Y-84805985D01*
X150158428Y-84805985D02*
X150120332Y-84882176D01*
X150120332Y-84882176D02*
X150120332Y-84996461D01*
X150120332Y-84996461D02*
X150158428Y-85072652D01*
X150158428Y-85072652D02*
X150196523Y-85110747D01*
X150196523Y-85110747D02*
X150272713Y-85148842D01*
X150272713Y-85148842D02*
X150577475Y-85148842D01*
X149663190Y-85072652D02*
X149739380Y-85034557D01*
X149739380Y-85034557D02*
X149777475Y-84996461D01*
X149777475Y-84996461D02*
X149815571Y-84920271D01*
X149815571Y-84920271D02*
X149815571Y-84882176D01*
X149815571Y-84882176D02*
X149777475Y-84805985D01*
X149777475Y-84805985D02*
X149739380Y-84767890D01*
X149739380Y-84767890D02*
X149663190Y-84729795D01*
X149663190Y-84729795D02*
X149510809Y-84729795D01*
X149510809Y-84729795D02*
X149434618Y-84767890D01*
X149434618Y-84767890D02*
X149396523Y-84805985D01*
X149396523Y-84805985D02*
X149358428Y-84882176D01*
X149358428Y-84882176D02*
X149358428Y-84920271D01*
X149358428Y-84920271D02*
X149396523Y-84996461D01*
X149396523Y-84996461D02*
X149434618Y-85034557D01*
X149434618Y-85034557D02*
X149510809Y-85072652D01*
X149510809Y-85072652D02*
X149663190Y-85072652D01*
X149663190Y-85072652D02*
X149739380Y-85110747D01*
X149739380Y-85110747D02*
X149777475Y-85148842D01*
X149777475Y-85148842D02*
X149815571Y-85225033D01*
X149815571Y-85225033D02*
X149815571Y-85377414D01*
X149815571Y-85377414D02*
X149777475Y-85453604D01*
X149777475Y-85453604D02*
X149739380Y-85491700D01*
X149739380Y-85491700D02*
X149663190Y-85529795D01*
X149663190Y-85529795D02*
X149510809Y-85529795D01*
X149510809Y-85529795D02*
X149434618Y-85491700D01*
X149434618Y-85491700D02*
X149396523Y-85453604D01*
X149396523Y-85453604D02*
X149358428Y-85377414D01*
X149358428Y-85377414D02*
X149358428Y-85225033D01*
X149358428Y-85225033D02*
X149396523Y-85148842D01*
X149396523Y-85148842D02*
X149434618Y-85110747D01*
X149434618Y-85110747D02*
X149510809Y-85072652D01*
X164331551Y-86317195D02*
X164331551Y-85517195D01*
X163493456Y-86241004D02*
X163531552Y-86279100D01*
X163531552Y-86279100D02*
X163645837Y-86317195D01*
X163645837Y-86317195D02*
X163722028Y-86317195D01*
X163722028Y-86317195D02*
X163836314Y-86279100D01*
X163836314Y-86279100D02*
X163912504Y-86202909D01*
X163912504Y-86202909D02*
X163950599Y-86126719D01*
X163950599Y-86126719D02*
X163988695Y-85974338D01*
X163988695Y-85974338D02*
X163988695Y-85860052D01*
X163988695Y-85860052D02*
X163950599Y-85707671D01*
X163950599Y-85707671D02*
X163912504Y-85631480D01*
X163912504Y-85631480D02*
X163836314Y-85555290D01*
X163836314Y-85555290D02*
X163722028Y-85517195D01*
X163722028Y-85517195D02*
X163645837Y-85517195D01*
X163645837Y-85517195D02*
X163531552Y-85555290D01*
X163531552Y-85555290D02*
X163493456Y-85593385D01*
X163226790Y-85517195D02*
X162731552Y-85517195D01*
X162731552Y-85517195D02*
X162998218Y-85821957D01*
X162998218Y-85821957D02*
X162883933Y-85821957D01*
X162883933Y-85821957D02*
X162807742Y-85860052D01*
X162807742Y-85860052D02*
X162769647Y-85898147D01*
X162769647Y-85898147D02*
X162731552Y-85974338D01*
X162731552Y-85974338D02*
X162731552Y-86164814D01*
X162731552Y-86164814D02*
X162769647Y-86241004D01*
X162769647Y-86241004D02*
X162807742Y-86279100D01*
X162807742Y-86279100D02*
X162883933Y-86317195D01*
X162883933Y-86317195D02*
X163112504Y-86317195D01*
X163112504Y-86317195D02*
X163188695Y-86279100D01*
X163188695Y-86279100D02*
X163226790Y-86241004D01*
X159315085Y-108211995D02*
X159581752Y-107831042D01*
X159772228Y-108211995D02*
X159772228Y-107411995D01*
X159772228Y-107411995D02*
X159467466Y-107411995D01*
X159467466Y-107411995D02*
X159391276Y-107450090D01*
X159391276Y-107450090D02*
X159353181Y-107488185D01*
X159353181Y-107488185D02*
X159315085Y-107564376D01*
X159315085Y-107564376D02*
X159315085Y-107678661D01*
X159315085Y-107678661D02*
X159353181Y-107754852D01*
X159353181Y-107754852D02*
X159391276Y-107792947D01*
X159391276Y-107792947D02*
X159467466Y-107831042D01*
X159467466Y-107831042D02*
X159772228Y-107831042D01*
X158553181Y-108211995D02*
X159010324Y-108211995D01*
X158781752Y-108211995D02*
X158781752Y-107411995D01*
X158781752Y-107411995D02*
X158857943Y-107526280D01*
X158857943Y-107526280D02*
X158934133Y-107602471D01*
X158934133Y-107602471D02*
X159010324Y-107640566D01*
X158286514Y-107411995D02*
X157791276Y-107411995D01*
X157791276Y-107411995D02*
X158057942Y-107716757D01*
X158057942Y-107716757D02*
X157943657Y-107716757D01*
X157943657Y-107716757D02*
X157867466Y-107754852D01*
X157867466Y-107754852D02*
X157829371Y-107792947D01*
X157829371Y-107792947D02*
X157791276Y-107869138D01*
X157791276Y-107869138D02*
X157791276Y-108059614D01*
X157791276Y-108059614D02*
X157829371Y-108135804D01*
X157829371Y-108135804D02*
X157867466Y-108173900D01*
X157867466Y-108173900D02*
X157943657Y-108211995D01*
X157943657Y-108211995D02*
X158172228Y-108211995D01*
X158172228Y-108211995D02*
X158248419Y-108173900D01*
X158248419Y-108173900D02*
X158286514Y-108135804D01*
X153092085Y-112504595D02*
X153358752Y-112123642D01*
X153549228Y-112504595D02*
X153549228Y-111704595D01*
X153549228Y-111704595D02*
X153244466Y-111704595D01*
X153244466Y-111704595D02*
X153168276Y-111742690D01*
X153168276Y-111742690D02*
X153130181Y-111780785D01*
X153130181Y-111780785D02*
X153092085Y-111856976D01*
X153092085Y-111856976D02*
X153092085Y-111971261D01*
X153092085Y-111971261D02*
X153130181Y-112047452D01*
X153130181Y-112047452D02*
X153168276Y-112085547D01*
X153168276Y-112085547D02*
X153244466Y-112123642D01*
X153244466Y-112123642D02*
X153549228Y-112123642D01*
X152330181Y-112504595D02*
X152787324Y-112504595D01*
X152558752Y-112504595D02*
X152558752Y-111704595D01*
X152558752Y-111704595D02*
X152634943Y-111818880D01*
X152634943Y-111818880D02*
X152711133Y-111895071D01*
X152711133Y-111895071D02*
X152787324Y-111933166D01*
X152025419Y-111780785D02*
X151987323Y-111742690D01*
X151987323Y-111742690D02*
X151911133Y-111704595D01*
X151911133Y-111704595D02*
X151720657Y-111704595D01*
X151720657Y-111704595D02*
X151644466Y-111742690D01*
X151644466Y-111742690D02*
X151606371Y-111780785D01*
X151606371Y-111780785D02*
X151568276Y-111856976D01*
X151568276Y-111856976D02*
X151568276Y-111933166D01*
X151568276Y-111933166D02*
X151606371Y-112047452D01*
X151606371Y-112047452D02*
X152063514Y-112504595D01*
X152063514Y-112504595D02*
X151568276Y-112504595D01*
D10*
X144673533Y-118606219D02*
X144673533Y-119320504D01*
X144673533Y-119320504D02*
X144721152Y-119463361D01*
X144721152Y-119463361D02*
X144816390Y-119558600D01*
X144816390Y-119558600D02*
X144959247Y-119606219D01*
X144959247Y-119606219D02*
X145054485Y-119606219D01*
X144197342Y-119606219D02*
X144197342Y-118606219D01*
X144197342Y-118606219D02*
X143816390Y-118606219D01*
X143816390Y-118606219D02*
X143721152Y-118653838D01*
X143721152Y-118653838D02*
X143673533Y-118701457D01*
X143673533Y-118701457D02*
X143625914Y-118796695D01*
X143625914Y-118796695D02*
X143625914Y-118939552D01*
X143625914Y-118939552D02*
X143673533Y-119034790D01*
X143673533Y-119034790D02*
X143721152Y-119082409D01*
X143721152Y-119082409D02*
X143816390Y-119130028D01*
X143816390Y-119130028D02*
X144197342Y-119130028D01*
X142673533Y-119606219D02*
X143244961Y-119606219D01*
X142959247Y-119606219D02*
X142959247Y-118606219D01*
X142959247Y-118606219D02*
X143054485Y-118749076D01*
X143054485Y-118749076D02*
X143149723Y-118844314D01*
X143149723Y-118844314D02*
X143244961Y-118891933D01*
X145835019Y-121392667D02*
X145835019Y-122011714D01*
X145835019Y-122011714D02*
X146215971Y-121678381D01*
X146215971Y-121678381D02*
X146215971Y-121821238D01*
X146215971Y-121821238D02*
X146263590Y-121916476D01*
X146263590Y-121916476D02*
X146311209Y-121964095D01*
X146311209Y-121964095D02*
X146406447Y-122011714D01*
X146406447Y-122011714D02*
X146644542Y-122011714D01*
X146644542Y-122011714D02*
X146739780Y-121964095D01*
X146739780Y-121964095D02*
X146787400Y-121916476D01*
X146787400Y-121916476D02*
X146835019Y-121821238D01*
X146835019Y-121821238D02*
X146835019Y-121535524D01*
X146835019Y-121535524D02*
X146787400Y-121440286D01*
X146787400Y-121440286D02*
X146739780Y-121392667D01*
X146835019Y-116811714D02*
X146835019Y-116240286D01*
X146835019Y-116526000D02*
X145835019Y-116526000D01*
X145835019Y-116526000D02*
X145977876Y-116430762D01*
X145977876Y-116430762D02*
X146073114Y-116335524D01*
X146073114Y-116335524D02*
X146120733Y-116240286D01*
D11*
X161829685Y-82202404D02*
X161867781Y-82240500D01*
X161867781Y-82240500D02*
X161982066Y-82278595D01*
X161982066Y-82278595D02*
X162058257Y-82278595D01*
X162058257Y-82278595D02*
X162172543Y-82240500D01*
X162172543Y-82240500D02*
X162248733Y-82164309D01*
X162248733Y-82164309D02*
X162286828Y-82088119D01*
X162286828Y-82088119D02*
X162324924Y-81935738D01*
X162324924Y-81935738D02*
X162324924Y-81821452D01*
X162324924Y-81821452D02*
X162286828Y-81669071D01*
X162286828Y-81669071D02*
X162248733Y-81592880D01*
X162248733Y-81592880D02*
X162172543Y-81516690D01*
X162172543Y-81516690D02*
X162058257Y-81478595D01*
X162058257Y-81478595D02*
X161982066Y-81478595D01*
X161982066Y-81478595D02*
X161867781Y-81516690D01*
X161867781Y-81516690D02*
X161829685Y-81554785D01*
X161067781Y-82278595D02*
X161524924Y-82278595D01*
X161296352Y-82278595D02*
X161296352Y-81478595D01*
X161296352Y-81478595D02*
X161372543Y-81592880D01*
X161372543Y-81592880D02*
X161448733Y-81669071D01*
X161448733Y-81669071D02*
X161524924Y-81707166D01*
X160382066Y-81745261D02*
X160382066Y-82278595D01*
X160572542Y-81440500D02*
X160763019Y-82011928D01*
X160763019Y-82011928D02*
X160267780Y-82011928D01*
X155682932Y-124544204D02*
X155721028Y-124582300D01*
X155721028Y-124582300D02*
X155835313Y-124620395D01*
X155835313Y-124620395D02*
X155911504Y-124620395D01*
X155911504Y-124620395D02*
X156025790Y-124582300D01*
X156025790Y-124582300D02*
X156101980Y-124506109D01*
X156101980Y-124506109D02*
X156140075Y-124429919D01*
X156140075Y-124429919D02*
X156178171Y-124277538D01*
X156178171Y-124277538D02*
X156178171Y-124163252D01*
X156178171Y-124163252D02*
X156140075Y-124010871D01*
X156140075Y-124010871D02*
X156101980Y-123934680D01*
X156101980Y-123934680D02*
X156025790Y-123858490D01*
X156025790Y-123858490D02*
X155911504Y-123820395D01*
X155911504Y-123820395D02*
X155835313Y-123820395D01*
X155835313Y-123820395D02*
X155721028Y-123858490D01*
X155721028Y-123858490D02*
X155682932Y-123896585D01*
X155416266Y-123820395D02*
X154882932Y-123820395D01*
X154882932Y-123820395D02*
X155225790Y-124620395D01*
D10*
X142271732Y-86671504D02*
X142309828Y-86709600D01*
X142309828Y-86709600D02*
X142424113Y-86747695D01*
X142424113Y-86747695D02*
X142500304Y-86747695D01*
X142500304Y-86747695D02*
X142614590Y-86709600D01*
X142614590Y-86709600D02*
X142690780Y-86633409D01*
X142690780Y-86633409D02*
X142728875Y-86557219D01*
X142728875Y-86557219D02*
X142766971Y-86404838D01*
X142766971Y-86404838D02*
X142766971Y-86290552D01*
X142766971Y-86290552D02*
X142728875Y-86138171D01*
X142728875Y-86138171D02*
X142690780Y-86061980D01*
X142690780Y-86061980D02*
X142614590Y-85985790D01*
X142614590Y-85985790D02*
X142500304Y-85947695D01*
X142500304Y-85947695D02*
X142424113Y-85947695D01*
X142424113Y-85947695D02*
X142309828Y-85985790D01*
X142309828Y-85985790D02*
X142271732Y-86023885D01*
X141966971Y-86023885D02*
X141928875Y-85985790D01*
X141928875Y-85985790D02*
X141852685Y-85947695D01*
X141852685Y-85947695D02*
X141662209Y-85947695D01*
X141662209Y-85947695D02*
X141586018Y-85985790D01*
X141586018Y-85985790D02*
X141547923Y-86023885D01*
X141547923Y-86023885D02*
X141509828Y-86100076D01*
X141509828Y-86100076D02*
X141509828Y-86176266D01*
X141509828Y-86176266D02*
X141547923Y-86290552D01*
X141547923Y-86290552D02*
X142005066Y-86747695D01*
X142005066Y-86747695D02*
X141509828Y-86747695D01*
D11*
X146818332Y-85529795D02*
X147084999Y-85148842D01*
X147275475Y-85529795D02*
X147275475Y-84729795D01*
X147275475Y-84729795D02*
X146970713Y-84729795D01*
X146970713Y-84729795D02*
X146894523Y-84767890D01*
X146894523Y-84767890D02*
X146856428Y-84805985D01*
X146856428Y-84805985D02*
X146818332Y-84882176D01*
X146818332Y-84882176D02*
X146818332Y-84996461D01*
X146818332Y-84996461D02*
X146856428Y-85072652D01*
X146856428Y-85072652D02*
X146894523Y-85110747D01*
X146894523Y-85110747D02*
X146970713Y-85148842D01*
X146970713Y-85148842D02*
X147275475Y-85148842D01*
X146551666Y-84729795D02*
X146018332Y-84729795D01*
X146018332Y-84729795D02*
X146361190Y-85529795D01*
X157079885Y-85504395D02*
X157346552Y-85123442D01*
X157537028Y-85504395D02*
X157537028Y-84704395D01*
X157537028Y-84704395D02*
X157232266Y-84704395D01*
X157232266Y-84704395D02*
X157156076Y-84742490D01*
X157156076Y-84742490D02*
X157117981Y-84780585D01*
X157117981Y-84780585D02*
X157079885Y-84856776D01*
X157079885Y-84856776D02*
X157079885Y-84971061D01*
X157079885Y-84971061D02*
X157117981Y-85047252D01*
X157117981Y-85047252D02*
X157156076Y-85085347D01*
X157156076Y-85085347D02*
X157232266Y-85123442D01*
X157232266Y-85123442D02*
X157537028Y-85123442D01*
X156317981Y-85504395D02*
X156775124Y-85504395D01*
X156546552Y-85504395D02*
X156546552Y-84704395D01*
X156546552Y-84704395D02*
X156622743Y-84818680D01*
X156622743Y-84818680D02*
X156698933Y-84894871D01*
X156698933Y-84894871D02*
X156775124Y-84932966D01*
X155822742Y-84704395D02*
X155746552Y-84704395D01*
X155746552Y-84704395D02*
X155670361Y-84742490D01*
X155670361Y-84742490D02*
X155632266Y-84780585D01*
X155632266Y-84780585D02*
X155594171Y-84856776D01*
X155594171Y-84856776D02*
X155556076Y-85009157D01*
X155556076Y-85009157D02*
X155556076Y-85199633D01*
X155556076Y-85199633D02*
X155594171Y-85352014D01*
X155594171Y-85352014D02*
X155632266Y-85428204D01*
X155632266Y-85428204D02*
X155670361Y-85466300D01*
X155670361Y-85466300D02*
X155746552Y-85504395D01*
X155746552Y-85504395D02*
X155822742Y-85504395D01*
X155822742Y-85504395D02*
X155898933Y-85466300D01*
X155898933Y-85466300D02*
X155937028Y-85428204D01*
X155937028Y-85428204D02*
X155975123Y-85352014D01*
X155975123Y-85352014D02*
X156013219Y-85199633D01*
X156013219Y-85199633D02*
X156013219Y-85009157D01*
X156013219Y-85009157D02*
X155975123Y-84856776D01*
X155975123Y-84856776D02*
X155937028Y-84780585D01*
X155937028Y-84780585D02*
X155898933Y-84742490D01*
X155898933Y-84742490D02*
X155822742Y-84704395D01*
D10*
X165977866Y-113872180D02*
X166025485Y-113919800D01*
X166025485Y-113919800D02*
X166168342Y-113967419D01*
X166168342Y-113967419D02*
X166263580Y-113967419D01*
X166263580Y-113967419D02*
X166406437Y-113919800D01*
X166406437Y-113919800D02*
X166501675Y-113824561D01*
X166501675Y-113824561D02*
X166549294Y-113729323D01*
X166549294Y-113729323D02*
X166596913Y-113538847D01*
X166596913Y-113538847D02*
X166596913Y-113395990D01*
X166596913Y-113395990D02*
X166549294Y-113205514D01*
X166549294Y-113205514D02*
X166501675Y-113110276D01*
X166501675Y-113110276D02*
X166406437Y-113015038D01*
X166406437Y-113015038D02*
X166263580Y-112967419D01*
X166263580Y-112967419D02*
X166168342Y-112967419D01*
X166168342Y-112967419D02*
X166025485Y-113015038D01*
X166025485Y-113015038D02*
X165977866Y-113062657D01*
X165120723Y-112967419D02*
X165311199Y-112967419D01*
X165311199Y-112967419D02*
X165406437Y-113015038D01*
X165406437Y-113015038D02*
X165454056Y-113062657D01*
X165454056Y-113062657D02*
X165549294Y-113205514D01*
X165549294Y-113205514D02*
X165596913Y-113395990D01*
X165596913Y-113395990D02*
X165596913Y-113776942D01*
X165596913Y-113776942D02*
X165549294Y-113872180D01*
X165549294Y-113872180D02*
X165501675Y-113919800D01*
X165501675Y-113919800D02*
X165406437Y-113967419D01*
X165406437Y-113967419D02*
X165215961Y-113967419D01*
X165215961Y-113967419D02*
X165120723Y-113919800D01*
X165120723Y-113919800D02*
X165073104Y-113872180D01*
X165073104Y-113872180D02*
X165025485Y-113776942D01*
X165025485Y-113776942D02*
X165025485Y-113538847D01*
X165025485Y-113538847D02*
X165073104Y-113443609D01*
X165073104Y-113443609D02*
X165120723Y-113395990D01*
X165120723Y-113395990D02*
X165215961Y-113348371D01*
X165215961Y-113348371D02*
X165406437Y-113348371D01*
X165406437Y-113348371D02*
X165501675Y-113395990D01*
X165501675Y-113395990D02*
X165549294Y-113443609D01*
X165549294Y-113443609D02*
X165596913Y-113538847D01*
D11*
X166503332Y-67470395D02*
X166769999Y-67089442D01*
X166960475Y-67470395D02*
X166960475Y-66670395D01*
X166960475Y-66670395D02*
X166655713Y-66670395D01*
X166655713Y-66670395D02*
X166579523Y-66708490D01*
X166579523Y-66708490D02*
X166541428Y-66746585D01*
X166541428Y-66746585D02*
X166503332Y-66822776D01*
X166503332Y-66822776D02*
X166503332Y-66937061D01*
X166503332Y-66937061D02*
X166541428Y-67013252D01*
X166541428Y-67013252D02*
X166579523Y-67051347D01*
X166579523Y-67051347D02*
X166655713Y-67089442D01*
X166655713Y-67089442D02*
X166960475Y-67089442D01*
X165817618Y-66670395D02*
X165969999Y-66670395D01*
X165969999Y-66670395D02*
X166046190Y-66708490D01*
X166046190Y-66708490D02*
X166084285Y-66746585D01*
X166084285Y-66746585D02*
X166160475Y-66860871D01*
X166160475Y-66860871D02*
X166198571Y-67013252D01*
X166198571Y-67013252D02*
X166198571Y-67318014D01*
X166198571Y-67318014D02*
X166160475Y-67394204D01*
X166160475Y-67394204D02*
X166122380Y-67432300D01*
X166122380Y-67432300D02*
X166046190Y-67470395D01*
X166046190Y-67470395D02*
X165893809Y-67470395D01*
X165893809Y-67470395D02*
X165817618Y-67432300D01*
X165817618Y-67432300D02*
X165779523Y-67394204D01*
X165779523Y-67394204D02*
X165741428Y-67318014D01*
X165741428Y-67318014D02*
X165741428Y-67127538D01*
X165741428Y-67127538D02*
X165779523Y-67051347D01*
X165779523Y-67051347D02*
X165817618Y-67013252D01*
X165817618Y-67013252D02*
X165893809Y-66975157D01*
X165893809Y-66975157D02*
X166046190Y-66975157D01*
X166046190Y-66975157D02*
X166122380Y-67013252D01*
X166122380Y-67013252D02*
X166160475Y-67051347D01*
X166160475Y-67051347D02*
X166198571Y-67127538D01*
X166884285Y-72677395D02*
X167150952Y-72296442D01*
X167341428Y-72677395D02*
X167341428Y-71877395D01*
X167341428Y-71877395D02*
X167036666Y-71877395D01*
X167036666Y-71877395D02*
X166960476Y-71915490D01*
X166960476Y-71915490D02*
X166922381Y-71953585D01*
X166922381Y-71953585D02*
X166884285Y-72029776D01*
X166884285Y-72029776D02*
X166884285Y-72144061D01*
X166884285Y-72144061D02*
X166922381Y-72220252D01*
X166922381Y-72220252D02*
X166960476Y-72258347D01*
X166960476Y-72258347D02*
X167036666Y-72296442D01*
X167036666Y-72296442D02*
X167341428Y-72296442D01*
X166122381Y-72677395D02*
X166579524Y-72677395D01*
X166350952Y-72677395D02*
X166350952Y-71877395D01*
X166350952Y-71877395D02*
X166427143Y-71991680D01*
X166427143Y-71991680D02*
X166503333Y-72067871D01*
X166503333Y-72067871D02*
X166579524Y-72105966D01*
X165398571Y-71877395D02*
X165779523Y-71877395D01*
X165779523Y-71877395D02*
X165817619Y-72258347D01*
X165817619Y-72258347D02*
X165779523Y-72220252D01*
X165779523Y-72220252D02*
X165703333Y-72182157D01*
X165703333Y-72182157D02*
X165512857Y-72182157D01*
X165512857Y-72182157D02*
X165436666Y-72220252D01*
X165436666Y-72220252D02*
X165398571Y-72258347D01*
X165398571Y-72258347D02*
X165360476Y-72334538D01*
X165360476Y-72334538D02*
X165360476Y-72525014D01*
X165360476Y-72525014D02*
X165398571Y-72601204D01*
X165398571Y-72601204D02*
X165436666Y-72639300D01*
X165436666Y-72639300D02*
X165512857Y-72677395D01*
X165512857Y-72677395D02*
X165703333Y-72677395D01*
X165703333Y-72677395D02*
X165779523Y-72639300D01*
X165779523Y-72639300D02*
X165817619Y-72601204D01*
X150882285Y-108237395D02*
X151148952Y-107856442D01*
X151339428Y-108237395D02*
X151339428Y-107437395D01*
X151339428Y-107437395D02*
X151034666Y-107437395D01*
X151034666Y-107437395D02*
X150958476Y-107475490D01*
X150958476Y-107475490D02*
X150920381Y-107513585D01*
X150920381Y-107513585D02*
X150882285Y-107589776D01*
X150882285Y-107589776D02*
X150882285Y-107704061D01*
X150882285Y-107704061D02*
X150920381Y-107780252D01*
X150920381Y-107780252D02*
X150958476Y-107818347D01*
X150958476Y-107818347D02*
X151034666Y-107856442D01*
X151034666Y-107856442D02*
X151339428Y-107856442D01*
X150120381Y-108237395D02*
X150577524Y-108237395D01*
X150348952Y-108237395D02*
X150348952Y-107437395D01*
X150348952Y-107437395D02*
X150425143Y-107551680D01*
X150425143Y-107551680D02*
X150501333Y-107627871D01*
X150501333Y-107627871D02*
X150577524Y-107665966D01*
X149358476Y-108237395D02*
X149815619Y-108237395D01*
X149587047Y-108237395D02*
X149587047Y-107437395D01*
X149587047Y-107437395D02*
X149663238Y-107551680D01*
X149663238Y-107551680D02*
X149739428Y-107627871D01*
X149739428Y-107627871D02*
X149815619Y-107665966D01*
X166427132Y-101201604D02*
X166465228Y-101239700D01*
X166465228Y-101239700D02*
X166579513Y-101277795D01*
X166579513Y-101277795D02*
X166655704Y-101277795D01*
X166655704Y-101277795D02*
X166769990Y-101239700D01*
X166769990Y-101239700D02*
X166846180Y-101163509D01*
X166846180Y-101163509D02*
X166884275Y-101087319D01*
X166884275Y-101087319D02*
X166922371Y-100934938D01*
X166922371Y-100934938D02*
X166922371Y-100820652D01*
X166922371Y-100820652D02*
X166884275Y-100668271D01*
X166884275Y-100668271D02*
X166846180Y-100592080D01*
X166846180Y-100592080D02*
X166769990Y-100515890D01*
X166769990Y-100515890D02*
X166655704Y-100477795D01*
X166655704Y-100477795D02*
X166579513Y-100477795D01*
X166579513Y-100477795D02*
X166465228Y-100515890D01*
X166465228Y-100515890D02*
X166427132Y-100553985D01*
X165703323Y-100477795D02*
X166084275Y-100477795D01*
X166084275Y-100477795D02*
X166122371Y-100858747D01*
X166122371Y-100858747D02*
X166084275Y-100820652D01*
X166084275Y-100820652D02*
X166008085Y-100782557D01*
X166008085Y-100782557D02*
X165817609Y-100782557D01*
X165817609Y-100782557D02*
X165741418Y-100820652D01*
X165741418Y-100820652D02*
X165703323Y-100858747D01*
X165703323Y-100858747D02*
X165665228Y-100934938D01*
X165665228Y-100934938D02*
X165665228Y-101125414D01*
X165665228Y-101125414D02*
X165703323Y-101201604D01*
X165703323Y-101201604D02*
X165741418Y-101239700D01*
X165741418Y-101239700D02*
X165817609Y-101277795D01*
X165817609Y-101277795D02*
X166008085Y-101277795D01*
X166008085Y-101277795D02*
X166084275Y-101239700D01*
X166084275Y-101239700D02*
X166122371Y-101201604D01*
D10*
X167966685Y-95822419D02*
X167633352Y-96822419D01*
X167633352Y-96822419D02*
X167300019Y-95822419D01*
X166490495Y-95822419D02*
X166966685Y-95822419D01*
X166966685Y-95822419D02*
X167014304Y-96298609D01*
X167014304Y-96298609D02*
X166966685Y-96250990D01*
X166966685Y-96250990D02*
X166871447Y-96203371D01*
X166871447Y-96203371D02*
X166633352Y-96203371D01*
X166633352Y-96203371D02*
X166538114Y-96250990D01*
X166538114Y-96250990D02*
X166490495Y-96298609D01*
X166490495Y-96298609D02*
X166442876Y-96393847D01*
X166442876Y-96393847D02*
X166442876Y-96631942D01*
X166442876Y-96631942D02*
X166490495Y-96727180D01*
X166490495Y-96727180D02*
X166538114Y-96774800D01*
X166538114Y-96774800D02*
X166633352Y-96822419D01*
X166633352Y-96822419D02*
X166871447Y-96822419D01*
X166871447Y-96822419D02*
X166966685Y-96774800D01*
X166966685Y-96774800D02*
X167014304Y-96727180D01*
X166061923Y-96536704D02*
X165585733Y-96536704D01*
X166157161Y-96822419D02*
X165823828Y-95822419D01*
X165823828Y-95822419D02*
X165490495Y-96822419D01*
X165157161Y-96822419D02*
X165157161Y-95822419D01*
X165157161Y-95822419D02*
X164919066Y-95822419D01*
X164919066Y-95822419D02*
X164776209Y-95870038D01*
X164776209Y-95870038D02*
X164680971Y-95965276D01*
X164680971Y-95965276D02*
X164633352Y-96060514D01*
X164633352Y-96060514D02*
X164585733Y-96250990D01*
X164585733Y-96250990D02*
X164585733Y-96393847D01*
X164585733Y-96393847D02*
X164633352Y-96584323D01*
X164633352Y-96584323D02*
X164680971Y-96679561D01*
X164680971Y-96679561D02*
X164776209Y-96774800D01*
X164776209Y-96774800D02*
X164919066Y-96822419D01*
X164919066Y-96822419D02*
X165157161Y-96822419D01*
X163585733Y-96727180D02*
X163633352Y-96774800D01*
X163633352Y-96774800D02*
X163776209Y-96822419D01*
X163776209Y-96822419D02*
X163871447Y-96822419D01*
X163871447Y-96822419D02*
X164014304Y-96774800D01*
X164014304Y-96774800D02*
X164109542Y-96679561D01*
X164109542Y-96679561D02*
X164157161Y-96584323D01*
X164157161Y-96584323D02*
X164204780Y-96393847D01*
X164204780Y-96393847D02*
X164204780Y-96250990D01*
X164204780Y-96250990D02*
X164157161Y-96060514D01*
X164157161Y-96060514D02*
X164109542Y-95965276D01*
X164109542Y-95965276D02*
X164014304Y-95870038D01*
X164014304Y-95870038D02*
X163871447Y-95822419D01*
X163871447Y-95822419D02*
X163776209Y-95822419D01*
X163776209Y-95822419D02*
X163633352Y-95870038D01*
X163633352Y-95870038D02*
X163585733Y-95917657D01*
X162633352Y-96822419D02*
X163204780Y-96822419D01*
X162919066Y-96822419D02*
X162919066Y-95822419D01*
X162919066Y-95822419D02*
X163014304Y-95965276D01*
X163014304Y-95965276D02*
X163109542Y-96060514D01*
X163109542Y-96060514D02*
X163204780Y-96108133D01*
X165375933Y-79134619D02*
X165852123Y-79134619D01*
X165852123Y-79134619D02*
X165899742Y-79610809D01*
X165899742Y-79610809D02*
X165852123Y-79563190D01*
X165852123Y-79563190D02*
X165756885Y-79515571D01*
X165756885Y-79515571D02*
X165518790Y-79515571D01*
X165518790Y-79515571D02*
X165423552Y-79563190D01*
X165423552Y-79563190D02*
X165375933Y-79610809D01*
X165375933Y-79610809D02*
X165328314Y-79706047D01*
X165328314Y-79706047D02*
X165328314Y-79944142D01*
X165328314Y-79944142D02*
X165375933Y-80039380D01*
X165375933Y-80039380D02*
X165423552Y-80087000D01*
X165423552Y-80087000D02*
X165518790Y-80134619D01*
X165518790Y-80134619D02*
X165756885Y-80134619D01*
X165756885Y-80134619D02*
X165852123Y-80087000D01*
X165852123Y-80087000D02*
X165899742Y-80039380D01*
X165042599Y-79134619D02*
X164709266Y-80134619D01*
X164709266Y-80134619D02*
X164375933Y-79134619D01*
X164042599Y-80134619D02*
X164042599Y-79134619D01*
X163614028Y-79848904D02*
X163137838Y-79848904D01*
X163709266Y-80134619D02*
X163375933Y-79134619D01*
X163375933Y-79134619D02*
X163042600Y-80134619D01*
X162709266Y-80134619D02*
X162709266Y-79134619D01*
X162709266Y-79134619D02*
X162471171Y-79134619D01*
X162471171Y-79134619D02*
X162328314Y-79182238D01*
X162328314Y-79182238D02*
X162233076Y-79277476D01*
X162233076Y-79277476D02*
X162185457Y-79372714D01*
X162185457Y-79372714D02*
X162137838Y-79563190D01*
X162137838Y-79563190D02*
X162137838Y-79706047D01*
X162137838Y-79706047D02*
X162185457Y-79896523D01*
X162185457Y-79896523D02*
X162233076Y-79991761D01*
X162233076Y-79991761D02*
X162328314Y-80087000D01*
X162328314Y-80087000D02*
X162471171Y-80134619D01*
X162471171Y-80134619D02*
X162709266Y-80134619D01*
X161137838Y-80039380D02*
X161185457Y-80087000D01*
X161185457Y-80087000D02*
X161328314Y-80134619D01*
X161328314Y-80134619D02*
X161423552Y-80134619D01*
X161423552Y-80134619D02*
X161566409Y-80087000D01*
X161566409Y-80087000D02*
X161661647Y-79991761D01*
X161661647Y-79991761D02*
X161709266Y-79896523D01*
X161709266Y-79896523D02*
X161756885Y-79706047D01*
X161756885Y-79706047D02*
X161756885Y-79563190D01*
X161756885Y-79563190D02*
X161709266Y-79372714D01*
X161709266Y-79372714D02*
X161661647Y-79277476D01*
X161661647Y-79277476D02*
X161566409Y-79182238D01*
X161566409Y-79182238D02*
X161423552Y-79134619D01*
X161423552Y-79134619D02*
X161328314Y-79134619D01*
X161328314Y-79134619D02*
X161185457Y-79182238D01*
X161185457Y-79182238D02*
X161137838Y-79229857D01*
X160185457Y-80134619D02*
X160756885Y-80134619D01*
X160471171Y-80134619D02*
X160471171Y-79134619D01*
X160471171Y-79134619D02*
X160566409Y-79277476D01*
X160566409Y-79277476D02*
X160661647Y-79372714D01*
X160661647Y-79372714D02*
X160756885Y-79420333D01*
D12*
%TO.C,IC5*%
X150090800Y-98020000D02*
X149810800Y-98020000D01*
X139570800Y-98020000D02*
X139850800Y-98020000D01*
X150090800Y-100405000D02*
X150090800Y-98020000D01*
X150090800Y-100405000D02*
X150090800Y-102790000D01*
X139570800Y-100405000D02*
X139570800Y-98020000D01*
X139570800Y-100405000D02*
X139570800Y-102790000D01*
X150090800Y-102790000D02*
X149810800Y-102790000D01*
X139570800Y-102790000D02*
X139850800Y-102790000D01*
X139850800Y-97242500D02*
X139520800Y-97482500D01*
X139520800Y-97002500D01*
X139850800Y-97242500D01*
G36*
X139850800Y-97242500D02*
G01*
X139520800Y-97482500D01*
X139520800Y-97002500D01*
X139850800Y-97242500D01*
G37*
%TO.C,R14*%
X153849400Y-110148864D02*
X153849400Y-109694736D01*
X155319400Y-110148864D02*
X155319400Y-109694736D01*
%TO.C,R17*%
X153677864Y-96975600D02*
X153223736Y-96975600D01*
X153677864Y-95505600D02*
X153223736Y-95505600D01*
%TO.C,C17*%
X153312800Y-126074448D02*
X153312800Y-126596952D01*
X151842800Y-126074448D02*
X151842800Y-126596952D01*
%TO.C,R4*%
X169391000Y-98493336D02*
X169391000Y-98947464D01*
X167921000Y-98493336D02*
X167921000Y-98947464D01*
%TO.C,C15*%
X139341048Y-82932600D02*
X139863552Y-82932600D01*
X139341048Y-84402600D02*
X139863552Y-84402600D01*
%TO.C,C1*%
X155856000Y-110221752D02*
X155856000Y-109699248D01*
X157326000Y-110221752D02*
X157326000Y-109699248D01*
%TO.C,C13*%
X150468000Y-126031448D02*
X150468000Y-126553952D01*
X148998000Y-126031448D02*
X148998000Y-126553952D01*
%TO.C,R1*%
X153684464Y-98931400D02*
X153230336Y-98931400D01*
X153684464Y-97461400D02*
X153230336Y-97461400D01*
%TO.C,R3*%
X169391000Y-93743536D02*
X169391000Y-94197664D01*
X167921000Y-93743536D02*
X167921000Y-94197664D01*
%TO.C,IC2*%
X145338400Y-81399800D02*
X145338400Y-83199800D01*
X142118400Y-82399800D02*
X142118400Y-81599800D01*
X142118400Y-82399800D02*
X142118400Y-83199800D01*
X142168400Y-81099800D02*
X141838400Y-81339800D01*
X141838400Y-80859800D01*
X142168400Y-81099800D01*
G36*
X142168400Y-81099800D02*
G01*
X141838400Y-81339800D01*
X141838400Y-80859800D01*
X142168400Y-81099800D01*
G37*
%TO.C,R5*%
X153684464Y-102919200D02*
X153230336Y-102919200D01*
X153684464Y-101449200D02*
X153230336Y-101449200D01*
%TO.C,R2*%
X153684464Y-100988800D02*
X153230336Y-100988800D01*
X153684464Y-99518800D02*
X153230336Y-99518800D01*
%TO.C,R9*%
X152380400Y-88662464D02*
X152380400Y-87208336D01*
X154200400Y-88662464D02*
X154200400Y-87208336D01*
D13*
%TO.C,IC4*%
X155011200Y-116799200D02*
X155011200Y-121199200D01*
X149411200Y-116799200D02*
X149411200Y-121199200D01*
D14*
X149911200Y-114799200D02*
G75*
G03*
X149711200Y-114799200I-100000J0D01*
G01*
X149711200Y-114799200D02*
G75*
G03*
X149911200Y-114799200I100000J0D01*
G01*
D12*
%TO.C,C3*%
X145019752Y-78713000D02*
X144497248Y-78713000D01*
X145019752Y-77243000D02*
X144497248Y-77243000D01*
%TO.C,R8*%
X149090400Y-88662464D02*
X149090400Y-87208336D01*
X150910400Y-88662464D02*
X150910400Y-87208336D01*
%TO.C,IC3*%
X161424200Y-88335800D02*
X159624200Y-88335800D01*
X160424200Y-85115800D02*
X161224200Y-85115800D01*
X160424200Y-85115800D02*
X159624200Y-85115800D01*
X161724200Y-85165800D02*
X161484200Y-84835800D01*
X161964200Y-84835800D01*
X161724200Y-85165800D01*
G36*
X161724200Y-85165800D02*
G01*
X161484200Y-84835800D01*
X161964200Y-84835800D01*
X161724200Y-85165800D01*
G37*
%TO.C,R13*%
X158065800Y-110142264D02*
X158065800Y-109688136D01*
X159535800Y-110142264D02*
X159535800Y-109688136D01*
%TO.C,R12*%
X151792000Y-110142264D02*
X151792000Y-109688136D01*
X153262000Y-110142264D02*
X153262000Y-109688136D01*
%TO.C,JP1*%
X147380200Y-117076000D02*
X145380200Y-117076000D01*
X145380200Y-117076000D02*
X145380200Y-121176000D01*
X147380200Y-121176000D02*
X147380200Y-117076000D01*
X145380200Y-121176000D02*
X147380200Y-121176000D01*
%TO.C,C14*%
X161736048Y-82475400D02*
X162258552Y-82475400D01*
X161736048Y-83945400D02*
X162258552Y-83945400D01*
%TO.C,C7*%
X156284600Y-126078348D02*
X156284600Y-126600852D01*
X154814600Y-126078348D02*
X154814600Y-126600852D01*
%TO.C,C2*%
X143003600Y-87717352D02*
X143003600Y-87194848D01*
X144473600Y-87717352D02*
X144473600Y-87194848D01*
%TO.C,R7*%
X145800400Y-88662464D02*
X145800400Y-87208336D01*
X147620400Y-88662464D02*
X147620400Y-87208336D01*
%TO.C,R10*%
X155670400Y-88662464D02*
X155670400Y-87208336D01*
X157490400Y-88662464D02*
X157490400Y-87208336D01*
%TO.C,C6*%
X165549948Y-114174600D02*
X166072452Y-114174600D01*
X165549948Y-115644600D02*
X166072452Y-115644600D01*
%TO.C,R6*%
X166152336Y-67667200D02*
X166606464Y-67667200D01*
X166152336Y-69137200D02*
X166606464Y-69137200D01*
%TO.C,R15*%
X166152336Y-70232600D02*
X166606464Y-70232600D01*
X166152336Y-71702600D02*
X166606464Y-71702600D01*
%TO.C,R11*%
X151103000Y-109688136D02*
X151103000Y-110142264D01*
X149633000Y-109688136D02*
X149633000Y-110142264D01*
%TO.C,C5*%
X165457200Y-98969552D02*
X165457200Y-98447048D01*
X166927200Y-98969552D02*
X166927200Y-98447048D01*
%TO.C,V5ADC1*%
X169381400Y-96332800D02*
G75*
G03*
X167981400Y-96332800I-700000J0D01*
G01*
X167981400Y-96332800D02*
G75*
G03*
X169381400Y-96332800I700000J0D01*
G01*
%TO.C,5VIADC1*%
X163742600Y-81051400D02*
G75*
G03*
X162342600Y-81051400I-700000J0D01*
G01*
X162342600Y-81051400D02*
G75*
G03*
X163742600Y-81051400I700000J0D01*
G01*
%TD*%
M02*
