%TF.GenerationSoftware,KiCad,Pcbnew,7.0.11-7.0.11~ubuntu22.04.1*%
%TF.CreationDate,2025-01-31T21:35:23-05:00*%
%TF.ProjectId,C64UltimatePSU,43363455-6c74-4696-9d61-74655053552e,rev?*%
%TF.SameCoordinates,Original*%
%TF.FileFunction,Drillmap*%
%TF.FilePolarity,Positive*%
%FSLAX45Y45*%
G04 Gerber Fmt 4.5, Leading zero omitted, Abs format (unit mm)*
G04 Created by KiCad (PCBNEW 7.0.11-7.0.11~ubuntu22.04.1) date 2025-01-31 21:35:23*
%MOMM*%
%LPD*%
G01*
G04 APERTURE LIST*
%ADD10C,0.100000*%
%ADD11C,0.200000*%
%ADD12C,0.350000*%
G04 APERTURE END LIST*
D10*
X10289540Y-5166360D02*
X17327880Y-5166360D01*
X17327880Y-13141960D01*
X10289540Y-13141960D01*
X10289540Y-5166360D01*
D11*
D12*
X10515860Y-12560560D02*
X10865860Y-12910560D01*
X10865860Y-12560560D02*
X10515860Y-12910560D01*
X12702800Y-5379980D02*
X13052800Y-5729980D01*
X13052800Y-5379980D02*
X12702800Y-5729980D01*
D11*
X10545317Y-13458444D02*
X10545317Y-13258444D01*
X10545317Y-13258444D02*
X10592936Y-13258444D01*
X10592936Y-13258444D02*
X10621507Y-13267968D01*
X10621507Y-13267968D02*
X10640555Y-13287015D01*
X10640555Y-13287015D02*
X10650079Y-13306063D01*
X10650079Y-13306063D02*
X10659603Y-13344158D01*
X10659603Y-13344158D02*
X10659603Y-13372729D01*
X10659603Y-13372729D02*
X10650079Y-13410825D01*
X10650079Y-13410825D02*
X10640555Y-13429872D01*
X10640555Y-13429872D02*
X10621507Y-13448920D01*
X10621507Y-13448920D02*
X10592936Y-13458444D01*
X10592936Y-13458444D02*
X10545317Y-13458444D01*
X10745317Y-13458444D02*
X10745317Y-13325110D01*
X10745317Y-13363206D02*
X10754841Y-13344158D01*
X10754841Y-13344158D02*
X10764364Y-13334634D01*
X10764364Y-13334634D02*
X10783412Y-13325110D01*
X10783412Y-13325110D02*
X10802460Y-13325110D01*
X10869126Y-13458444D02*
X10869126Y-13325110D01*
X10869126Y-13258444D02*
X10859603Y-13267968D01*
X10859603Y-13267968D02*
X10869126Y-13277491D01*
X10869126Y-13277491D02*
X10878650Y-13267968D01*
X10878650Y-13267968D02*
X10869126Y-13258444D01*
X10869126Y-13258444D02*
X10869126Y-13277491D01*
X10992936Y-13458444D02*
X10973888Y-13448920D01*
X10973888Y-13448920D02*
X10964364Y-13429872D01*
X10964364Y-13429872D02*
X10964364Y-13258444D01*
X11097698Y-13458444D02*
X11078650Y-13448920D01*
X11078650Y-13448920D02*
X11069126Y-13429872D01*
X11069126Y-13429872D02*
X11069126Y-13258444D01*
X11326269Y-13458444D02*
X11326269Y-13258444D01*
X11326269Y-13258444D02*
X11392936Y-13401301D01*
X11392936Y-13401301D02*
X11459602Y-13258444D01*
X11459602Y-13258444D02*
X11459602Y-13458444D01*
X11640555Y-13458444D02*
X11640555Y-13353682D01*
X11640555Y-13353682D02*
X11631031Y-13334634D01*
X11631031Y-13334634D02*
X11611983Y-13325110D01*
X11611983Y-13325110D02*
X11573888Y-13325110D01*
X11573888Y-13325110D02*
X11554841Y-13334634D01*
X11640555Y-13448920D02*
X11621507Y-13458444D01*
X11621507Y-13458444D02*
X11573888Y-13458444D01*
X11573888Y-13458444D02*
X11554841Y-13448920D01*
X11554841Y-13448920D02*
X11545317Y-13429872D01*
X11545317Y-13429872D02*
X11545317Y-13410825D01*
X11545317Y-13410825D02*
X11554841Y-13391777D01*
X11554841Y-13391777D02*
X11573888Y-13382253D01*
X11573888Y-13382253D02*
X11621507Y-13382253D01*
X11621507Y-13382253D02*
X11640555Y-13372729D01*
X11735793Y-13325110D02*
X11735793Y-13525110D01*
X11735793Y-13334634D02*
X11754841Y-13325110D01*
X11754841Y-13325110D02*
X11792936Y-13325110D01*
X11792936Y-13325110D02*
X11811983Y-13334634D01*
X11811983Y-13334634D02*
X11821507Y-13344158D01*
X11821507Y-13344158D02*
X11831031Y-13363206D01*
X11831031Y-13363206D02*
X11831031Y-13420348D01*
X11831031Y-13420348D02*
X11821507Y-13439396D01*
X11821507Y-13439396D02*
X11811983Y-13448920D01*
X11811983Y-13448920D02*
X11792936Y-13458444D01*
X11792936Y-13458444D02*
X11754841Y-13458444D01*
X11754841Y-13458444D02*
X11735793Y-13448920D01*
X11916745Y-13439396D02*
X11926269Y-13448920D01*
X11926269Y-13448920D02*
X11916745Y-13458444D01*
X11916745Y-13458444D02*
X11907222Y-13448920D01*
X11907222Y-13448920D02*
X11916745Y-13439396D01*
X11916745Y-13439396D02*
X11916745Y-13458444D01*
X11916745Y-13334634D02*
X11926269Y-13344158D01*
X11926269Y-13344158D02*
X11916745Y-13353682D01*
X11916745Y-13353682D02*
X11907222Y-13344158D01*
X11907222Y-13344158D02*
X11916745Y-13334634D01*
X11916745Y-13334634D02*
X11916745Y-13353682D01*
X10084540Y-13686960D02*
X10284540Y-13886960D01*
X10284540Y-13686960D02*
X10084540Y-13886960D01*
X10526269Y-13678444D02*
X10650079Y-13678444D01*
X10650079Y-13678444D02*
X10583412Y-13754634D01*
X10583412Y-13754634D02*
X10611984Y-13754634D01*
X10611984Y-13754634D02*
X10631031Y-13764158D01*
X10631031Y-13764158D02*
X10640555Y-13773682D01*
X10640555Y-13773682D02*
X10650079Y-13792729D01*
X10650079Y-13792729D02*
X10650079Y-13840348D01*
X10650079Y-13840348D02*
X10640555Y-13859396D01*
X10640555Y-13859396D02*
X10631031Y-13868920D01*
X10631031Y-13868920D02*
X10611984Y-13878444D01*
X10611984Y-13878444D02*
X10554841Y-13878444D01*
X10554841Y-13878444D02*
X10535793Y-13868920D01*
X10535793Y-13868920D02*
X10526269Y-13859396D01*
X10735793Y-13859396D02*
X10745317Y-13868920D01*
X10745317Y-13868920D02*
X10735793Y-13878444D01*
X10735793Y-13878444D02*
X10726269Y-13868920D01*
X10726269Y-13868920D02*
X10735793Y-13859396D01*
X10735793Y-13859396D02*
X10735793Y-13878444D01*
X10926269Y-13678444D02*
X10831031Y-13678444D01*
X10831031Y-13678444D02*
X10821507Y-13773682D01*
X10821507Y-13773682D02*
X10831031Y-13764158D01*
X10831031Y-13764158D02*
X10850079Y-13754634D01*
X10850079Y-13754634D02*
X10897698Y-13754634D01*
X10897698Y-13754634D02*
X10916745Y-13764158D01*
X10916745Y-13764158D02*
X10926269Y-13773682D01*
X10926269Y-13773682D02*
X10935793Y-13792729D01*
X10935793Y-13792729D02*
X10935793Y-13840348D01*
X10935793Y-13840348D02*
X10926269Y-13859396D01*
X10926269Y-13859396D02*
X10916745Y-13868920D01*
X10916745Y-13868920D02*
X10897698Y-13878444D01*
X10897698Y-13878444D02*
X10850079Y-13878444D01*
X10850079Y-13878444D02*
X10831031Y-13868920D01*
X10831031Y-13868920D02*
X10821507Y-13859396D01*
X11059603Y-13678444D02*
X11078650Y-13678444D01*
X11078650Y-13678444D02*
X11097698Y-13687968D01*
X11097698Y-13687968D02*
X11107222Y-13697491D01*
X11107222Y-13697491D02*
X11116745Y-13716539D01*
X11116745Y-13716539D02*
X11126269Y-13754634D01*
X11126269Y-13754634D02*
X11126269Y-13802253D01*
X11126269Y-13802253D02*
X11116745Y-13840348D01*
X11116745Y-13840348D02*
X11107222Y-13859396D01*
X11107222Y-13859396D02*
X11097698Y-13868920D01*
X11097698Y-13868920D02*
X11078650Y-13878444D01*
X11078650Y-13878444D02*
X11059603Y-13878444D01*
X11059603Y-13878444D02*
X11040555Y-13868920D01*
X11040555Y-13868920D02*
X11031031Y-13859396D01*
X11031031Y-13859396D02*
X11021507Y-13840348D01*
X11021507Y-13840348D02*
X11011984Y-13802253D01*
X11011984Y-13802253D02*
X11011984Y-13754634D01*
X11011984Y-13754634D02*
X11021507Y-13716539D01*
X11021507Y-13716539D02*
X11031031Y-13697491D01*
X11031031Y-13697491D02*
X11040555Y-13687968D01*
X11040555Y-13687968D02*
X11059603Y-13678444D01*
X11250079Y-13678444D02*
X11269126Y-13678444D01*
X11269126Y-13678444D02*
X11288174Y-13687968D01*
X11288174Y-13687968D02*
X11297698Y-13697491D01*
X11297698Y-13697491D02*
X11307222Y-13716539D01*
X11307222Y-13716539D02*
X11316745Y-13754634D01*
X11316745Y-13754634D02*
X11316745Y-13802253D01*
X11316745Y-13802253D02*
X11307222Y-13840348D01*
X11307222Y-13840348D02*
X11297698Y-13859396D01*
X11297698Y-13859396D02*
X11288174Y-13868920D01*
X11288174Y-13868920D02*
X11269126Y-13878444D01*
X11269126Y-13878444D02*
X11250079Y-13878444D01*
X11250079Y-13878444D02*
X11231031Y-13868920D01*
X11231031Y-13868920D02*
X11221507Y-13859396D01*
X11221507Y-13859396D02*
X11211983Y-13840348D01*
X11211983Y-13840348D02*
X11202460Y-13802253D01*
X11202460Y-13802253D02*
X11202460Y-13754634D01*
X11202460Y-13754634D02*
X11211983Y-13716539D01*
X11211983Y-13716539D02*
X11221507Y-13697491D01*
X11221507Y-13697491D02*
X11231031Y-13687968D01*
X11231031Y-13687968D02*
X11250079Y-13678444D01*
X11402460Y-13878444D02*
X11402460Y-13745110D01*
X11402460Y-13764158D02*
X11411983Y-13754634D01*
X11411983Y-13754634D02*
X11431031Y-13745110D01*
X11431031Y-13745110D02*
X11459603Y-13745110D01*
X11459603Y-13745110D02*
X11478650Y-13754634D01*
X11478650Y-13754634D02*
X11488174Y-13773682D01*
X11488174Y-13773682D02*
X11488174Y-13878444D01*
X11488174Y-13773682D02*
X11497698Y-13754634D01*
X11497698Y-13754634D02*
X11516745Y-13745110D01*
X11516745Y-13745110D02*
X11545317Y-13745110D01*
X11545317Y-13745110D02*
X11564364Y-13754634D01*
X11564364Y-13754634D02*
X11573888Y-13773682D01*
X11573888Y-13773682D02*
X11573888Y-13878444D01*
X11669126Y-13878444D02*
X11669126Y-13745110D01*
X11669126Y-13764158D02*
X11678650Y-13754634D01*
X11678650Y-13754634D02*
X11697698Y-13745110D01*
X11697698Y-13745110D02*
X11726269Y-13745110D01*
X11726269Y-13745110D02*
X11745317Y-13754634D01*
X11745317Y-13754634D02*
X11754841Y-13773682D01*
X11754841Y-13773682D02*
X11754841Y-13878444D01*
X11754841Y-13773682D02*
X11764364Y-13754634D01*
X11764364Y-13754634D02*
X11783412Y-13745110D01*
X11783412Y-13745110D02*
X11811983Y-13745110D01*
X11811983Y-13745110D02*
X11831031Y-13754634D01*
X11831031Y-13754634D02*
X11840555Y-13773682D01*
X11840555Y-13773682D02*
X11840555Y-13878444D01*
X12231031Y-13668920D02*
X12059603Y-13926063D01*
X12488174Y-13678444D02*
X12507222Y-13678444D01*
X12507222Y-13678444D02*
X12526269Y-13687968D01*
X12526269Y-13687968D02*
X12535793Y-13697491D01*
X12535793Y-13697491D02*
X12545317Y-13716539D01*
X12545317Y-13716539D02*
X12554841Y-13754634D01*
X12554841Y-13754634D02*
X12554841Y-13802253D01*
X12554841Y-13802253D02*
X12545317Y-13840348D01*
X12545317Y-13840348D02*
X12535793Y-13859396D01*
X12535793Y-13859396D02*
X12526269Y-13868920D01*
X12526269Y-13868920D02*
X12507222Y-13878444D01*
X12507222Y-13878444D02*
X12488174Y-13878444D01*
X12488174Y-13878444D02*
X12469126Y-13868920D01*
X12469126Y-13868920D02*
X12459603Y-13859396D01*
X12459603Y-13859396D02*
X12450079Y-13840348D01*
X12450079Y-13840348D02*
X12440555Y-13802253D01*
X12440555Y-13802253D02*
X12440555Y-13754634D01*
X12440555Y-13754634D02*
X12450079Y-13716539D01*
X12450079Y-13716539D02*
X12459603Y-13697491D01*
X12459603Y-13697491D02*
X12469126Y-13687968D01*
X12469126Y-13687968D02*
X12488174Y-13678444D01*
X12640555Y-13859396D02*
X12650079Y-13868920D01*
X12650079Y-13868920D02*
X12640555Y-13878444D01*
X12640555Y-13878444D02*
X12631031Y-13868920D01*
X12631031Y-13868920D02*
X12640555Y-13859396D01*
X12640555Y-13859396D02*
X12640555Y-13878444D01*
X12840555Y-13878444D02*
X12726269Y-13878444D01*
X12783412Y-13878444D02*
X12783412Y-13678444D01*
X12783412Y-13678444D02*
X12764365Y-13707015D01*
X12764365Y-13707015D02*
X12745317Y-13726063D01*
X12745317Y-13726063D02*
X12726269Y-13735587D01*
X12907222Y-13678444D02*
X13031031Y-13678444D01*
X13031031Y-13678444D02*
X12964365Y-13754634D01*
X12964365Y-13754634D02*
X12992936Y-13754634D01*
X12992936Y-13754634D02*
X13011984Y-13764158D01*
X13011984Y-13764158D02*
X13021507Y-13773682D01*
X13021507Y-13773682D02*
X13031031Y-13792729D01*
X13031031Y-13792729D02*
X13031031Y-13840348D01*
X13031031Y-13840348D02*
X13021507Y-13859396D01*
X13021507Y-13859396D02*
X13011984Y-13868920D01*
X13011984Y-13868920D02*
X12992936Y-13878444D01*
X12992936Y-13878444D02*
X12935793Y-13878444D01*
X12935793Y-13878444D02*
X12916746Y-13868920D01*
X12916746Y-13868920D02*
X12907222Y-13859396D01*
X13097698Y-13678444D02*
X13231031Y-13678444D01*
X13231031Y-13678444D02*
X13145317Y-13878444D01*
X13335793Y-13764158D02*
X13316746Y-13754634D01*
X13316746Y-13754634D02*
X13307222Y-13745110D01*
X13307222Y-13745110D02*
X13297698Y-13726063D01*
X13297698Y-13726063D02*
X13297698Y-13716539D01*
X13297698Y-13716539D02*
X13307222Y-13697491D01*
X13307222Y-13697491D02*
X13316746Y-13687968D01*
X13316746Y-13687968D02*
X13335793Y-13678444D01*
X13335793Y-13678444D02*
X13373888Y-13678444D01*
X13373888Y-13678444D02*
X13392936Y-13687968D01*
X13392936Y-13687968D02*
X13402460Y-13697491D01*
X13402460Y-13697491D02*
X13411984Y-13716539D01*
X13411984Y-13716539D02*
X13411984Y-13726063D01*
X13411984Y-13726063D02*
X13402460Y-13745110D01*
X13402460Y-13745110D02*
X13392936Y-13754634D01*
X13392936Y-13754634D02*
X13373888Y-13764158D01*
X13373888Y-13764158D02*
X13335793Y-13764158D01*
X13335793Y-13764158D02*
X13316746Y-13773682D01*
X13316746Y-13773682D02*
X13307222Y-13783206D01*
X13307222Y-13783206D02*
X13297698Y-13802253D01*
X13297698Y-13802253D02*
X13297698Y-13840348D01*
X13297698Y-13840348D02*
X13307222Y-13859396D01*
X13307222Y-13859396D02*
X13316746Y-13868920D01*
X13316746Y-13868920D02*
X13335793Y-13878444D01*
X13335793Y-13878444D02*
X13373888Y-13878444D01*
X13373888Y-13878444D02*
X13392936Y-13868920D01*
X13392936Y-13868920D02*
X13402460Y-13859396D01*
X13402460Y-13859396D02*
X13411984Y-13840348D01*
X13411984Y-13840348D02*
X13411984Y-13802253D01*
X13411984Y-13802253D02*
X13402460Y-13783206D01*
X13402460Y-13783206D02*
X13392936Y-13773682D01*
X13392936Y-13773682D02*
X13373888Y-13764158D01*
X13488174Y-13678444D02*
X13488174Y-13716539D01*
X13564365Y-13678444D02*
X13564365Y-13716539D01*
X13859603Y-13954634D02*
X13850079Y-13945110D01*
X13850079Y-13945110D02*
X13831031Y-13916539D01*
X13831031Y-13916539D02*
X13821508Y-13897491D01*
X13821508Y-13897491D02*
X13811984Y-13868920D01*
X13811984Y-13868920D02*
X13802460Y-13821301D01*
X13802460Y-13821301D02*
X13802460Y-13783206D01*
X13802460Y-13783206D02*
X13811984Y-13735587D01*
X13811984Y-13735587D02*
X13821508Y-13707015D01*
X13821508Y-13707015D02*
X13831031Y-13687968D01*
X13831031Y-13687968D02*
X13850079Y-13659396D01*
X13850079Y-13659396D02*
X13859603Y-13649872D01*
X13926269Y-13697491D02*
X13935793Y-13687968D01*
X13935793Y-13687968D02*
X13954841Y-13678444D01*
X13954841Y-13678444D02*
X14002460Y-13678444D01*
X14002460Y-13678444D02*
X14021508Y-13687968D01*
X14021508Y-13687968D02*
X14031031Y-13697491D01*
X14031031Y-13697491D02*
X14040555Y-13716539D01*
X14040555Y-13716539D02*
X14040555Y-13735587D01*
X14040555Y-13735587D02*
X14031031Y-13764158D01*
X14031031Y-13764158D02*
X13916746Y-13878444D01*
X13916746Y-13878444D02*
X14040555Y-13878444D01*
X14278650Y-13878444D02*
X14278650Y-13678444D01*
X14364365Y-13878444D02*
X14364365Y-13773682D01*
X14364365Y-13773682D02*
X14354841Y-13754634D01*
X14354841Y-13754634D02*
X14335793Y-13745110D01*
X14335793Y-13745110D02*
X14307222Y-13745110D01*
X14307222Y-13745110D02*
X14288174Y-13754634D01*
X14288174Y-13754634D02*
X14278650Y-13764158D01*
X14488174Y-13878444D02*
X14469127Y-13868920D01*
X14469127Y-13868920D02*
X14459603Y-13859396D01*
X14459603Y-13859396D02*
X14450079Y-13840348D01*
X14450079Y-13840348D02*
X14450079Y-13783206D01*
X14450079Y-13783206D02*
X14459603Y-13764158D01*
X14459603Y-13764158D02*
X14469127Y-13754634D01*
X14469127Y-13754634D02*
X14488174Y-13745110D01*
X14488174Y-13745110D02*
X14516746Y-13745110D01*
X14516746Y-13745110D02*
X14535793Y-13754634D01*
X14535793Y-13754634D02*
X14545317Y-13764158D01*
X14545317Y-13764158D02*
X14554841Y-13783206D01*
X14554841Y-13783206D02*
X14554841Y-13840348D01*
X14554841Y-13840348D02*
X14545317Y-13859396D01*
X14545317Y-13859396D02*
X14535793Y-13868920D01*
X14535793Y-13868920D02*
X14516746Y-13878444D01*
X14516746Y-13878444D02*
X14488174Y-13878444D01*
X14669127Y-13878444D02*
X14650079Y-13868920D01*
X14650079Y-13868920D02*
X14640555Y-13849872D01*
X14640555Y-13849872D02*
X14640555Y-13678444D01*
X14821508Y-13868920D02*
X14802460Y-13878444D01*
X14802460Y-13878444D02*
X14764365Y-13878444D01*
X14764365Y-13878444D02*
X14745317Y-13868920D01*
X14745317Y-13868920D02*
X14735793Y-13849872D01*
X14735793Y-13849872D02*
X14735793Y-13773682D01*
X14735793Y-13773682D02*
X14745317Y-13754634D01*
X14745317Y-13754634D02*
X14764365Y-13745110D01*
X14764365Y-13745110D02*
X14802460Y-13745110D01*
X14802460Y-13745110D02*
X14821508Y-13754634D01*
X14821508Y-13754634D02*
X14831031Y-13773682D01*
X14831031Y-13773682D02*
X14831031Y-13792729D01*
X14831031Y-13792729D02*
X14735793Y-13811777D01*
X14907222Y-13868920D02*
X14926270Y-13878444D01*
X14926270Y-13878444D02*
X14964365Y-13878444D01*
X14964365Y-13878444D02*
X14983412Y-13868920D01*
X14983412Y-13868920D02*
X14992936Y-13849872D01*
X14992936Y-13849872D02*
X14992936Y-13840348D01*
X14992936Y-13840348D02*
X14983412Y-13821301D01*
X14983412Y-13821301D02*
X14964365Y-13811777D01*
X14964365Y-13811777D02*
X14935793Y-13811777D01*
X14935793Y-13811777D02*
X14916746Y-13802253D01*
X14916746Y-13802253D02*
X14907222Y-13783206D01*
X14907222Y-13783206D02*
X14907222Y-13773682D01*
X14907222Y-13773682D02*
X14916746Y-13754634D01*
X14916746Y-13754634D02*
X14935793Y-13745110D01*
X14935793Y-13745110D02*
X14964365Y-13745110D01*
X14964365Y-13745110D02*
X14983412Y-13754634D01*
X15059603Y-13954634D02*
X15069127Y-13945110D01*
X15069127Y-13945110D02*
X15088174Y-13916539D01*
X15088174Y-13916539D02*
X15097698Y-13897491D01*
X15097698Y-13897491D02*
X15107222Y-13868920D01*
X15107222Y-13868920D02*
X15116746Y-13821301D01*
X15116746Y-13821301D02*
X15116746Y-13783206D01*
X15116746Y-13783206D02*
X15107222Y-13735587D01*
X15107222Y-13735587D02*
X15097698Y-13707015D01*
X15097698Y-13707015D02*
X15088174Y-13687968D01*
X15088174Y-13687968D02*
X15069127Y-13659396D01*
X15069127Y-13659396D02*
X15059603Y-13649872D01*
X15421508Y-13954634D02*
X15411984Y-13945110D01*
X15411984Y-13945110D02*
X15392936Y-13916539D01*
X15392936Y-13916539D02*
X15383412Y-13897491D01*
X15383412Y-13897491D02*
X15373889Y-13868920D01*
X15373889Y-13868920D02*
X15364365Y-13821301D01*
X15364365Y-13821301D02*
X15364365Y-13783206D01*
X15364365Y-13783206D02*
X15373889Y-13735587D01*
X15373889Y-13735587D02*
X15383412Y-13707015D01*
X15383412Y-13707015D02*
X15392936Y-13687968D01*
X15392936Y-13687968D02*
X15411984Y-13659396D01*
X15411984Y-13659396D02*
X15421508Y-13649872D01*
X15497698Y-13745110D02*
X15497698Y-13878444D01*
X15497698Y-13764158D02*
X15507222Y-13754634D01*
X15507222Y-13754634D02*
X15526270Y-13745110D01*
X15526270Y-13745110D02*
X15554841Y-13745110D01*
X15554841Y-13745110D02*
X15573889Y-13754634D01*
X15573889Y-13754634D02*
X15583412Y-13773682D01*
X15583412Y-13773682D02*
X15583412Y-13878444D01*
X15707222Y-13878444D02*
X15688174Y-13868920D01*
X15688174Y-13868920D02*
X15678651Y-13859396D01*
X15678651Y-13859396D02*
X15669127Y-13840348D01*
X15669127Y-13840348D02*
X15669127Y-13783206D01*
X15669127Y-13783206D02*
X15678651Y-13764158D01*
X15678651Y-13764158D02*
X15688174Y-13754634D01*
X15688174Y-13754634D02*
X15707222Y-13745110D01*
X15707222Y-13745110D02*
X15735793Y-13745110D01*
X15735793Y-13745110D02*
X15754841Y-13754634D01*
X15754841Y-13754634D02*
X15764365Y-13764158D01*
X15764365Y-13764158D02*
X15773889Y-13783206D01*
X15773889Y-13783206D02*
X15773889Y-13840348D01*
X15773889Y-13840348D02*
X15764365Y-13859396D01*
X15764365Y-13859396D02*
X15754841Y-13868920D01*
X15754841Y-13868920D02*
X15735793Y-13878444D01*
X15735793Y-13878444D02*
X15707222Y-13878444D01*
X15831032Y-13745110D02*
X15907222Y-13745110D01*
X15859603Y-13678444D02*
X15859603Y-13849872D01*
X15859603Y-13849872D02*
X15869127Y-13868920D01*
X15869127Y-13868920D02*
X15888174Y-13878444D01*
X15888174Y-13878444D02*
X15907222Y-13878444D01*
X16126270Y-13745110D02*
X16126270Y-13945110D01*
X16126270Y-13754634D02*
X16145317Y-13745110D01*
X16145317Y-13745110D02*
X16183413Y-13745110D01*
X16183413Y-13745110D02*
X16202460Y-13754634D01*
X16202460Y-13754634D02*
X16211984Y-13764158D01*
X16211984Y-13764158D02*
X16221508Y-13783206D01*
X16221508Y-13783206D02*
X16221508Y-13840348D01*
X16221508Y-13840348D02*
X16211984Y-13859396D01*
X16211984Y-13859396D02*
X16202460Y-13868920D01*
X16202460Y-13868920D02*
X16183413Y-13878444D01*
X16183413Y-13878444D02*
X16145317Y-13878444D01*
X16145317Y-13878444D02*
X16126270Y-13868920D01*
X16335793Y-13878444D02*
X16316746Y-13868920D01*
X16316746Y-13868920D02*
X16307222Y-13849872D01*
X16307222Y-13849872D02*
X16307222Y-13678444D01*
X16497698Y-13878444D02*
X16497698Y-13773682D01*
X16497698Y-13773682D02*
X16488174Y-13754634D01*
X16488174Y-13754634D02*
X16469127Y-13745110D01*
X16469127Y-13745110D02*
X16431032Y-13745110D01*
X16431032Y-13745110D02*
X16411984Y-13754634D01*
X16497698Y-13868920D02*
X16478651Y-13878444D01*
X16478651Y-13878444D02*
X16431032Y-13878444D01*
X16431032Y-13878444D02*
X16411984Y-13868920D01*
X16411984Y-13868920D02*
X16402460Y-13849872D01*
X16402460Y-13849872D02*
X16402460Y-13830825D01*
X16402460Y-13830825D02*
X16411984Y-13811777D01*
X16411984Y-13811777D02*
X16431032Y-13802253D01*
X16431032Y-13802253D02*
X16478651Y-13802253D01*
X16478651Y-13802253D02*
X16497698Y-13792729D01*
X16564365Y-13745110D02*
X16640555Y-13745110D01*
X16592936Y-13678444D02*
X16592936Y-13849872D01*
X16592936Y-13849872D02*
X16602460Y-13868920D01*
X16602460Y-13868920D02*
X16621508Y-13878444D01*
X16621508Y-13878444D02*
X16640555Y-13878444D01*
X16783413Y-13868920D02*
X16764365Y-13878444D01*
X16764365Y-13878444D02*
X16726270Y-13878444D01*
X16726270Y-13878444D02*
X16707222Y-13868920D01*
X16707222Y-13868920D02*
X16697698Y-13849872D01*
X16697698Y-13849872D02*
X16697698Y-13773682D01*
X16697698Y-13773682D02*
X16707222Y-13754634D01*
X16707222Y-13754634D02*
X16726270Y-13745110D01*
X16726270Y-13745110D02*
X16764365Y-13745110D01*
X16764365Y-13745110D02*
X16783413Y-13754634D01*
X16783413Y-13754634D02*
X16792936Y-13773682D01*
X16792936Y-13773682D02*
X16792936Y-13792729D01*
X16792936Y-13792729D02*
X16697698Y-13811777D01*
X16964365Y-13878444D02*
X16964365Y-13678444D01*
X16964365Y-13868920D02*
X16945317Y-13878444D01*
X16945317Y-13878444D02*
X16907222Y-13878444D01*
X16907222Y-13878444D02*
X16888175Y-13868920D01*
X16888175Y-13868920D02*
X16878651Y-13859396D01*
X16878651Y-13859396D02*
X16869127Y-13840348D01*
X16869127Y-13840348D02*
X16869127Y-13783206D01*
X16869127Y-13783206D02*
X16878651Y-13764158D01*
X16878651Y-13764158D02*
X16888175Y-13754634D01*
X16888175Y-13754634D02*
X16907222Y-13745110D01*
X16907222Y-13745110D02*
X16945317Y-13745110D01*
X16945317Y-13745110D02*
X16964365Y-13754634D01*
X17040556Y-13954634D02*
X17050079Y-13945110D01*
X17050079Y-13945110D02*
X17069127Y-13916539D01*
X17069127Y-13916539D02*
X17078651Y-13897491D01*
X17078651Y-13897491D02*
X17088175Y-13868920D01*
X17088175Y-13868920D02*
X17097698Y-13821301D01*
X17097698Y-13821301D02*
X17097698Y-13783206D01*
X17097698Y-13783206D02*
X17088175Y-13735587D01*
X17088175Y-13735587D02*
X17078651Y-13707015D01*
X17078651Y-13707015D02*
X17069127Y-13687968D01*
X17069127Y-13687968D02*
X17050079Y-13659396D01*
X17050079Y-13659396D02*
X17040556Y-13649872D01*
M02*
